<?xml version="1.0" encoding="utf-8"?><svg xmlns="http://www.w3.org/2000/svg" xmlns:xlink="http://www.w3.org/1999/xlink"><symbol fill="none" viewBox="0 0 32 32" id="alerts--danger" xmlns="http://www.w3.org/2000/svg"><circle cx="16" cy="16" r="15" stroke="var(--svg-color)" stroke-width="2"/><path stroke="var(--svg-color)" stroke-width="2" d="M10.656 10.657L21.97 21.97M21.971 10.657L10.657 21.97"/></symbol><symbol fill="none" viewBox="0 0 32 32" id="alerts--info" xmlns="http://www.w3.org/2000/svg"><circle cx="16" cy="16" r="15" stroke="var(--svg-color)" stroke-width="2"/><path d="M16 24V13M16 10V8" stroke="var(--svg-color)" stroke-width="2"/></symbol><symbol fill="none" viewBox="0 0 32 32" id="alerts--success" xmlns="http://www.w3.org/2000/svg"><circle cx="16" cy="16" r="15" stroke="var(--svg-color)" stroke-width="2"/><path d="M10.292 16.825l4.01 3.718 7.992-8.912" stroke="var(--svg-color)" stroke-width="2"/></symbol><symbol fill="none" viewBox="0 0 32 32" id="alerts--warning" xmlns="http://www.w3.org/2000/svg"><circle cx="16" cy="16" r="15" stroke="var(--svg-color)" stroke-width="2"/><path d="M16 8v11M16 22v2" stroke="var(--svg-color)" stroke-width="2"/></symbol><symbol fill="none" viewBox="0 0 14 14" id="close-icon" xmlns="http://www.w3.org/2000/svg"><g opacity=".3" stroke="var(--svg-color)" stroke-width="2" stroke-linecap="round" stroke-linejoin="round"><path d="M1.375 1.375l11.473 11.473M1.375 12.625L12.848 1.152"/></g></symbol><symbol viewBox="0 0 22 4" id="dots-icon" xmlns="http://www.w3.org/2000/svg"><g fill="var(--svg-color)" fill-rule="evenodd"><circle cx="2" cy="2" r="2"/><circle cx="11" cy="2" r="2"/><circle cx="20" cy="2" r="2"/></g></symbol><symbol fill="none" viewBox="0 0 11 11" id="down-chevron-icon" xmlns="http://www.w3.org/2000/svg"><path d="M1 4l4.5 4.5L10 4" stroke="var(--svg-color)" stroke-width="1.5" stroke-linecap="round" stroke-linejoin="round"/></symbol><symbol viewBox="0 0 23 16" id="email-icon" xmlns="http://www.w3.org/2000/svg"><path d="M8.291 8.931l2.011 1.914c.67.636 1.726.636 2.396 0l2.01-1.914 6.358 5.966H1.934L8.29 8.93zm13.614-6.828v12.07l-6.4-6 6.4-6.07zm-20.81 0l6.4 6.07-6.4 6V2.102zm.548-1h19.714l-9.412 8.94c-.21.2-.68.2-.89 0l-9.412-8.94zM1.095 0A1.11 1.11 0 0 0 0 1.103v13.794A1.11 1.11 0 0 0 1.095 16h20.81A1.11 1.11 0 0 0 23 14.897V1.103A1.11 1.11 0 0 0 21.905 0H1.095z" fill="var(--svg-color)" fill-rule="evenodd"/></symbol><symbol fill="none" viewBox="0 0 95 71" id="ideation" xmlns="http://www.w3.org/2000/svg"><path fill-rule="evenodd" clip-rule="evenodd" d="M39.233 59.504v2.789c0 3.262 1.745 4.675 4.403 5.24.502 1.756 2.201 3.126 4.101 3.126s3.6-1.37 4.102-3.126c2.657-.565 4.402-1.978 4.402-5.24v-2.789H39.233zM67.578 34.407c0-10.875-9.07-19.799-20.125-19.52-10.488.279-19.275 8.645-19.558 18.683-.284 6.693 2.834 12.828 7.936 16.453a8.27 8.27 0 0 1 3.402 6.693H56.24c0-2.51 1.134-5.02 3.118-6.693 5.102-3.346 8.22-9.202 8.22-15.616M60.504 8.604l1.836-2.992c.417-.728 1.335-.97 2.086-.566a1.445 1.445 0 0 1 .585 2.022l-1.836 2.992c-.25.485-.835.727-1.336.727-.25 0-.5-.08-.751-.161a1.445 1.445 0 0 1-.584-2.022M33.464 10.06c.25.485.834.727 1.335.727.25 0 .501-.08.752-.161a1.445 1.445 0 0 0 .584-2.022l-1.837-2.992c-.417-.728-1.335-.97-2.086-.566a1.445 1.445 0 0 0-.584 2.022l1.836 2.992zM48.319 7.31c.834 0 1.502-.647 1.502-1.455V2.378c0-.809-.667-1.456-1.502-1.456s-1.502.647-1.502 1.456v3.477c-.084.808.584 1.455 1.502 1.455M21.278 30.518h-3.59c-.834 0-1.502.647-1.502 1.455 0 .809.668 1.456 1.503 1.456h3.589c.834 0 1.502-.647 1.502-1.456 0-.808-.668-1.455-1.502-1.455M78.949 30.518h-3.59c-.834 0-1.502.647-1.502 1.455 0 .809.668 1.456 1.503 1.456h3.589c.834 0 1.502-.647 1.502-1.456 0-.808-.668-1.455-1.502-1.455M76.196 16.448c-.417-.728-1.335-.97-2.086-.566l-3.088 1.779a1.445 1.445 0 0 0-.585 2.021c.25.485.835.728 1.336.728.25 0 .5-.08.75-.162l3.089-1.779a1.445 1.445 0 0 0 .584-2.021M25.618 17.66l-3.088-1.778c-.751-.405-1.67-.162-2.087.566a1.445 1.445 0 0 0 .584 2.021l3.088 1.78c.25.161.501.161.752.161.5 0 1.085-.243 1.335-.728a1.445 1.445 0 0 0-.584-2.021" fill="#fff"/><path d="M37.814 35.237h19.908M47.75 25.35v19.808" stroke="#F48299" stroke-width="4.188" stroke-linecap="round"/></symbol><symbol fill="none" viewBox="0 0 13 13" id="link-out-icon" xmlns="http://www.w3.org/2000/svg"><path d="M9.097 6.656v5.694a.65.65 0 0 1-.65.65H.65a.65.65 0 0 1-.65-.65v-7.8c0-.359.29-.65.65-.65h5.692l-1.3 1.3H1.3v6.5h6.497V7.956l1.3-1.3zM5.01 8.911l6.686-6.695V5.85a.65.65 0 1 0 1.3 0V.65a.65.65 0 0 0-.65-.65H7.146a.65.65 0 0 0 0 1.3h3.633L4.087 7.989a.653.653 0 0 0 .923.922z" fill="var(--svg-color)"/></symbol><symbol fill="none" viewBox="0 0 19 24" id="locked-icon" xmlns="http://www.w3.org/2000/svg"><path d="M15.036 15.565l3.022.47c.63 0 .91.821.381 1.188l-2.141 2.171.484 2.964c.19.601-.514 1.115-1.027.748l-2.7-1.364-2.7 1.364c-.513.367-1.202-.147-1.011-.748l.454-3.037-2.127-2.098c-.513-.367-.25-1.188.396-1.188l3.022-.47 1.35-2.714c.19-.602 1.056-.602 1.247 0l1.35 2.714z" fill="var(--svg-color)"/><g clip-path="url(#akclip0)"><path d="M5.047 15.75a3.148 3.148 0 0 1 2.764-2.205l1.617-.251.716-1.44a3.104 3.104 0 0 1 1.99-1.818V7.655c0-.693-.558-1.25-1.25-1.25h-.034V4.748A4.754 4.754 0 0 0 6.1 0C3.498 0 1.369 2.129 1.369 4.748v1.656H1.25A1.249 1.249 0 0 0 0 7.655v6.911c0 .693.558 1.25 1.25 1.25h3.78c.007-.021.01-.044.017-.066zm1.78-4.344c-.101.068-.118.135-.118.253v1.521a.526.526 0 0 1-.287.507c-.439.22-.879-.085-.879-.507v-1.521c0-.101-.017-.169-.118-.237a1.168 1.168 0 0 1-.389-1.419c.22-.49.76-.777 1.284-.676.575.118.963.575.98 1.149 0 .39-.152.711-.473.93zm-3.38-6.658c0-1.47 1.2-2.67 2.67-2.67s2.67 1.2 2.67 2.67v1.656h-5.34V4.748z" fill="var(--svg-color)"/></g><defs><clipPath id="akclip0"><path fill="var(--svg-color)" d="M0 0h12.133v15.817H0z"/></clipPath></defs></symbol><symbol fill="none" viewBox="0 0 25 25" id="moments--article-box" xmlns="http://www.w3.org/2000/svg"><rect x="6" y="19.5" width="5" height=".7" rx=".35" fill="var(--svg-color)"/><rect x="6" y="17.5" width="13" height=".7" rx=".35" fill="var(--svg-color)"/><rect x="6" y="15.5" width="13" height=".7" rx=".35" fill="var(--svg-color)"/><rect x="10" y="13.5" width="9" height=".7" rx=".35" fill="var(--svg-color)"/><rect x="6" y="13.5" width="2" height=".7" rx=".35" fill="var(--svg-color)"/><rect x="6" y="5" width="13" height="7" rx=".73" stroke="var(--svg-color)" stroke-width=".609"/><path fill-rule="evenodd" clip-rule="evenodd" d="M8.99 7.138L6.05 11.614c-.018.027-.034.086-.049.086h7.667c-.011 0-.024-.042-.037-.06l-3.223-4.525c-.4-.562-1.037-.553-1.416.023" fill="var(--svg-color)"/><path fill-rule="evenodd" clip-rule="evenodd" d="M17.785 12.223v-.154l-1.95-2.794c-.27-.38-.682-.362-.938.027L13 12.222h4.785zM17.5 7.25a.75.75 0 1 1-1.5 0 .75.75 0 0 1 1.5 0z" fill="var(--svg-color)"/></symbol><symbol fill="none" viewBox="0 0 96 95" id="moments--branded-collage" xmlns="http://www.w3.org/2000/svg"><path fill-rule="evenodd" clip-rule="evenodd" d="M94.656 44.477c.742 0 1.344-.604 1.344-1.348V1.347C96 .603 95.398 0 94.656 0H53.342c-.743 0-1.344.603-1.344 1.347V43.13c0 .744.601 1.348 1.344 1.348h41.314zm-2.293-11.302H55.634V4.01h36.73v29.165z" fill="var(--svg-color)"/><path fill-rule="evenodd" clip-rule="evenodd" d="M66.498 16.649L55.453 33.493c-.067.102-.126.323-.183.323h28.782c-.043 0-.089-.156-.137-.224l-12.1-17.031c-1.502-2.112-3.895-2.079-5.317.088z" fill="var(--svg-color)"/><path fill-rule="evenodd" clip-rule="evenodd" d="M92.282 33.65v-.523l-6.633-9.533c-.92-1.294-2.324-1.236-3.195.091l-6.455 9.964h16.283zM86.624 10.794a3.499 3.499 0 0 1-3.494 3.503 3.499 3.499 0 0 1-3.494-3.503 3.499 3.499 0 0 1 3.494-3.503 3.499 3.499 0 0 1 3.495 3.503zM42.658 44.477c.742 0 1.344-.604 1.344-1.348V1.347C44.002.603 43.4 0 42.658 0H1.344C.602 0 0 .603 0 1.347V43.13c0 .744.602 1.348 1.344 1.348h41.314zm-2.292-11.302H3.636V4.01h36.73v29.165z" fill="var(--svg-color)"/><path d="M32.458 15.436a1.541 1.541 0 0 0-1.248-1.063l-5.313-.78-2.375-4.838a1.536 1.536 0 0 0-1.387-.867c-.59 0-1.122.33-1.392.867l-2.374 4.839-5.317.78a1.542 1.542 0 0 0-1.243 1.065c-.18.566-.03 1.175.392 1.587l3.842 3.772-.906 5.323a1.55 1.55 0 0 0 1.523 1.816c.248 0 .497-.062.72-.18l4.753-2.51 4.753 2.51c.223.118.471.18.719.18a1.55 1.55 0 0 0 1.523-1.816l-.905-5.322 3.84-3.772a1.552 1.552 0 0 0 .395-1.591z" fill="var(--svg-color)"/><path fill-rule="evenodd" clip-rule="evenodd" d="M42.658 95c.742 0 1.344-.603 1.344-1.347V51.87c0-.744-.602-1.347-1.344-1.347H1.344C.602 50.523 0 51.126 0 51.87v41.783C0 94.397.602 95 1.344 95h41.314zm-2.292-11.301H3.636V54.534h36.73v29.165z" fill="var(--svg-color)"/><path fill-rule="evenodd" clip-rule="evenodd" d="M14.527 66.665L3.187 83.674C3.12 83.776 3.057 84 3 84h29.55c-.044 0-.09-.158-.14-.226L19.985 66.576c-1.542-2.133-3.998-2.099-5.459.089z" fill="var(--svg-color)"/><path fill-rule="evenodd" clip-rule="evenodd" d="M41 83.831v-.528l-6.81-9.625c-.945-1.307-2.386-1.248-3.28.092L24.281 83.83H41zM34.626 61.318a3.499 3.499 0 0 1-3.494 3.503 3.499 3.499 0 0 1-3.494-3.503 3.499 3.499 0 0 1 3.494-3.503 3.499 3.499 0 0 1 3.494 3.503zM94.656 95c.742 0 1.344-.603 1.344-1.347V51.87c0-.744-.602-1.347-1.344-1.347H53.342c-.743 0-1.344.603-1.344 1.347v41.783c0 .744.601 1.347 1.344 1.347h41.314zm-2.293-11.301H55.634V54.534h36.73v29.165z" fill="var(--svg-color)"/><path d="M84.455 65.96a1.541 1.541 0 0 0-1.248-1.063l-5.313-.78-2.375-4.839a1.536 1.536 0 0 0-1.386-.866c-.59 0-1.122.33-1.392.867l-2.375 4.838-5.317.78a1.541 1.541 0 0 0-1.243 1.066c-.18.566-.03 1.174.393 1.586l3.841 3.773-.905 5.322a1.55 1.55 0 0 0 1.523 1.817c.248 0 .496-.062.72-.18l4.752-2.51 4.753 2.51c.223.117.472.18.72.18a1.55 1.55 0 0 0 1.523-1.816l-.906-5.323 3.84-3.771a1.552 1.552 0 0 0 .395-1.592z" fill="var(--svg-color)"/></symbol><symbol fill="none" viewBox="0 0 194 194" id="moments--branded-collage-box" xmlns="http://www.w3.org/2000/svg"><path fill-rule="evenodd" clip-rule="evenodd" d="M143.656 93.477c.742 0 1.344-.604 1.344-1.348V50.347c0-.744-.602-1.347-1.344-1.347h-41.314c-.743 0-1.344.603-1.344 1.347V92.13c0 .744.601 1.348 1.344 1.348h41.314zm-2.293-11.302h-36.729V53.01h36.729v29.165z" fill="var(--svg-color)"/><path fill-rule="evenodd" clip-rule="evenodd" d="M115.498 65.649l-11.045 16.844c-.066.102-.126.323-.182.323h28.781c-.043 0-.089-.156-.137-.224l-12.101-17.031c-1.501-2.112-3.894-2.079-5.316.088z" fill="var(--svg-color)"/><path fill-rule="evenodd" clip-rule="evenodd" d="M141.282 82.65v-.524l-6.633-9.532c-.92-1.294-2.324-1.236-3.195.091l-6.455 9.964h16.283zM135.624 59.794a3.498 3.498 0 0 1-3.494 3.503 3.498 3.498 0 0 1-3.494-3.503 3.498 3.498 0 0 1 3.494-3.503 3.498 3.498 0 0 1 3.494 3.503zM91.658 93.477c.742 0 1.344-.604 1.344-1.348V50.347c0-.744-.602-1.347-1.344-1.347H50.344c-.742 0-1.344.603-1.344 1.347V92.13c0 .744.602 1.348 1.344 1.348h41.314zm-2.292-11.302h-36.73V53.01h36.73v29.165z" fill="var(--svg-color)"/><path d="M81.458 64.436a1.541 1.541 0 0 0-1.248-1.063l-5.313-.78-2.375-4.838a1.536 1.536 0 0 0-1.387-.867c-.59 0-1.122.33-1.392.867l-2.374 4.839-5.317.78a1.542 1.542 0 0 0-1.243 1.065c-.18.566-.03 1.175.392 1.587l3.842 3.772-.906 5.323a1.55 1.55 0 0 0 1.523 1.816c.248 0 .497-.062.72-.18l4.753-2.51 4.753 2.51c.223.118.471.18.719.18a1.55 1.55 0 0 0 1.523-1.816l-.906-5.322 3.84-3.772a1.552 1.552 0 0 0 .396-1.591z" fill="var(--svg-color)"/><path fill-rule="evenodd" clip-rule="evenodd" d="M91.658 144c.742 0 1.344-.603 1.344-1.347V100.87c0-.744-.602-1.347-1.344-1.347H50.344c-.742 0-1.344.603-1.344 1.347v41.783c0 .744.602 1.347 1.344 1.347h41.314zm-2.292-11.301h-36.73v-29.165h36.73v29.165z" fill="var(--svg-color)"/><path fill-rule="evenodd" clip-rule="evenodd" d="M63.527 115.665l-11.34 17.009c-.068.102-.13.326-.187.326h29.55c-.044 0-.09-.158-.14-.226l-12.424-17.198c-1.542-2.133-3.998-2.099-5.459.089z" fill="var(--svg-color)"/><path fill-rule="evenodd" clip-rule="evenodd" d="M90 132.831v-.528l-6.81-9.625c-.945-1.307-2.386-1.249-3.28.092l-6.628 10.061H90zM83.626 110.318a3.498 3.498 0 0 1-3.494 3.503 3.498 3.498 0 0 1-3.494-3.503 3.498 3.498 0 0 1 3.494-3.503 3.498 3.498 0 0 1 3.494 3.503zM143.656 144c.742 0 1.344-.603 1.344-1.347V100.87c0-.744-.602-1.347-1.344-1.347h-41.314c-.743 0-1.344.603-1.344 1.347v41.783c0 .744.601 1.347 1.344 1.347h41.314zm-2.293-11.301h-36.729v-29.165h36.729v29.165z" fill="var(--svg-color)"/><path d="M133.455 114.959a1.54 1.54 0 0 0-1.248-1.062l-5.313-.78-2.375-4.838a1.535 1.535 0 0 0-1.386-.867 1.55 1.55 0 0 0-1.392.867l-2.375 4.838-5.317.78a1.544 1.544 0 0 0-1.243 1.066 1.55 1.55 0 0 0 .393 1.586l3.841 3.773-.905 5.322a1.549 1.549 0 0 0 2.243 1.637l4.752-2.51 4.753 2.51c.223.118.472.18.719.18.457 0 .889-.204 1.186-.558.292-.348.415-.807.338-1.258l-.906-5.323 3.84-3.771a1.553 1.553 0 0 0 .395-1.592z" fill="var(--svg-color)"/></symbol><symbol fill="none" viewBox="0 0 97 95" id="moments--collage" xmlns="http://www.w3.org/2000/svg"><path fill-rule="evenodd" clip-rule="evenodd" d="M94.656 44.477c.742 0 1.344-.604 1.344-1.348V1.347C96 .603 95.398 0 94.656 0H53.342c-.743 0-1.344.603-1.344 1.347V43.13c0 .744.601 1.348 1.344 1.348h41.314zm-2.293-11.302H55.634V4.01h36.73v29.165z" fill="var(--svg-color)"/><path fill-rule="evenodd" clip-rule="evenodd" d="M66.498 16.649L55.453 33.493c-.067.102-.126.323-.183.323h28.782c-.043 0-.089-.156-.137-.224l-12.1-17.031c-1.502-2.112-3.895-2.079-5.317.088z" fill="var(--svg-color)"/><path fill-rule="evenodd" clip-rule="evenodd" d="M92.282 33.65v-.523l-6.633-9.533c-.92-1.294-2.324-1.236-3.195.091l-6.455 9.964h16.283zM86.624 10.794a3.499 3.499 0 0 1-3.494 3.503 3.499 3.499 0 0 1-3.494-3.503 3.499 3.499 0 0 1 3.494-3.503 3.499 3.499 0 0 1 3.495 3.503zM42.658 44.477c.742 0 1.344-.604 1.344-1.348V1.347C44.002.603 43.4 0 42.658 0H1.344C.602 0 0 .603 0 1.347V43.13c0 .744.602 1.348 1.344 1.348h41.314zm-2.292-11.302H3.636V4.01h36.73v29.165z" fill="var(--svg-color)"/><path fill-rule="evenodd" clip-rule="evenodd" d="M14.5 16.649L3.455 33.493c-.066.102-.126.323-.182.323h28.782c-.044 0-.09-.156-.138-.224l-12.1-17.031c-1.502-2.112-3.894-2.079-5.317.088z" fill="var(--svg-color)"/><path fill-rule="evenodd" clip-rule="evenodd" d="M40.285 33.65v-.523l-6.634-9.533c-.92-1.294-2.323-1.236-3.195.091l-6.454 9.964h16.283zM34.627 10.794a3.499 3.499 0 0 1-3.495 3.503 3.499 3.499 0 0 1-3.494-3.503 3.499 3.499 0 0 1 3.494-3.503 3.499 3.499 0 0 1 3.495 3.503zM42.658 95c.742 0 1.344-.603 1.344-1.347V51.87c0-.744-.602-1.347-1.344-1.347H1.344C.602 50.523 0 51.126 0 51.87v41.783C0 94.397.602 95 1.344 95h41.314zm-2.292-11.301H3.636V54.534h36.73v29.165z" fill="var(--svg-color)"/><path fill-rule="evenodd" clip-rule="evenodd" d="M14.527 66.665L3.187 83.674C3.12 83.776 3.057 84 3 84h29.55c-.044 0-.09-.158-.14-.226L19.985 66.576c-1.542-2.133-3.998-2.099-5.459.089z" fill="var(--svg-color)"/><path fill-rule="evenodd" clip-rule="evenodd" d="M41 83.831v-.528l-6.81-9.625c-.945-1.307-2.386-1.248-3.28.092L24.281 83.83H41zM34.626 61.318a3.499 3.499 0 0 1-3.494 3.503 3.499 3.499 0 0 1-3.494-3.503 3.499 3.499 0 0 1 3.494-3.503 3.499 3.499 0 0 1 3.494 3.503zM94.658 95c.742 0 1.344-.603 1.344-1.347V51.87c0-.744-.602-1.347-1.344-1.347H53.344c-.742 0-1.344.603-1.344 1.347v41.783c0 .744.602 1.347 1.344 1.347h41.314zm-2.292-11.301h-36.73V54.534h36.73v29.165z" fill="var(--svg-color)"/><path fill-rule="evenodd" clip-rule="evenodd" d="M66.527 66.665l-11.34 17.009c-.068.102-.13.326-.187.326h29.55c-.044 0-.09-.158-.14-.226L71.985 66.576c-1.542-2.133-3.998-2.099-5.459.089z" fill="var(--svg-color)"/><path fill-rule="evenodd" clip-rule="evenodd" d="M93 83.831v-.528l-6.81-9.625c-.945-1.307-2.386-1.248-3.28.092L76.281 83.83H93zM86.626 61.318a3.499 3.499 0 0 1-3.494 3.503 3.499 3.499 0 0 1-3.494-3.503 3.499 3.499 0 0 1 3.494-3.503 3.499 3.499 0 0 1 3.494 3.503z" fill="var(--svg-color)"/></symbol><symbol fill="none" viewBox="0 0 194 194" id="moments--collage-box" xmlns="http://www.w3.org/2000/svg"><path fill-rule="evenodd" clip-rule="evenodd" d="M143.656 93.477c.742 0 1.344-.604 1.344-1.348V50.347c0-.744-.602-1.347-1.344-1.347h-41.314c-.743 0-1.344.603-1.344 1.347V92.13c0 .744.601 1.348 1.344 1.348h41.314zm-2.293-11.302h-36.729V53.01h36.729v29.165z" fill="var(--svg-color)"/><path fill-rule="evenodd" clip-rule="evenodd" d="M115.498 65.649l-11.045 16.844c-.066.102-.126.323-.182.323h28.781c-.043 0-.089-.156-.137-.224l-12.101-17.031c-1.501-2.112-3.894-2.079-5.316.088z" fill="var(--svg-color)"/><path fill-rule="evenodd" clip-rule="evenodd" d="M141.282 82.65v-.524l-6.633-9.532c-.92-1.294-2.324-1.236-3.195.091l-6.455 9.964h16.283zM135.624 59.794a3.498 3.498 0 0 1-3.494 3.503 3.498 3.498 0 0 1-3.494-3.503 3.498 3.498 0 0 1 3.494-3.503 3.498 3.498 0 0 1 3.494 3.503zM91.658 93.477c.742 0 1.344-.604 1.344-1.348V50.347c0-.744-.602-1.347-1.344-1.347H50.344c-.742 0-1.344.603-1.344 1.347V92.13c0 .744.602 1.348 1.344 1.348h41.314zm-2.292-11.302h-36.73V53.01h36.73v29.165z" fill="var(--svg-color)"/><path fill-rule="evenodd" clip-rule="evenodd" d="M63.5 65.649L52.456 82.493c-.067.102-.127.323-.183.323h28.782c-.044 0-.09-.156-.138-.224l-12.1-17.031c-1.502-2.112-3.894-2.079-5.317.088z" fill="var(--svg-color)"/><path fill-rule="evenodd" clip-rule="evenodd" d="M89.284 82.65v-.524l-6.633-9.532c-.92-1.294-2.323-1.236-3.195.091l-6.455 9.964h16.283zM83.627 59.794a3.499 3.499 0 0 1-3.495 3.503 3.499 3.499 0 0 1-3.494-3.503 3.499 3.499 0 0 1 3.494-3.503 3.499 3.499 0 0 1 3.495 3.503zM91.658 144c.742 0 1.344-.603 1.344-1.347V100.87c0-.744-.602-1.347-1.344-1.347H50.344c-.742 0-1.344.603-1.344 1.347v41.783c0 .744.602 1.347 1.344 1.347h41.314zm-2.292-11.301h-36.73v-29.165h36.73v29.165z" fill="var(--svg-color)"/><path fill-rule="evenodd" clip-rule="evenodd" d="M63.527 115.665l-11.34 17.009c-.068.102-.13.326-.187.326h29.55c-.044 0-.09-.158-.14-.226l-12.424-17.198c-1.542-2.133-3.998-2.099-5.459.089z" fill="var(--svg-color)"/><path fill-rule="evenodd" clip-rule="evenodd" d="M90 132.831v-.528l-6.81-9.625c-.945-1.307-2.386-1.249-3.28.092l-6.628 10.061H90zM83.626 110.318a3.498 3.498 0 0 1-3.494 3.503 3.498 3.498 0 0 1-3.494-3.503 3.498 3.498 0 0 1 3.494-3.503 3.498 3.498 0 0 1 3.494 3.503zM143.658 144c.742 0 1.344-.603 1.344-1.347V100.87c0-.744-.602-1.347-1.344-1.347h-41.314c-.742 0-1.344.603-1.344 1.347v41.783c0 .744.602 1.347 1.344 1.347h41.314zm-2.292-11.301h-36.729v-29.165h36.729v29.165z" fill="var(--svg-color)"/><path fill-rule="evenodd" clip-rule="evenodd" d="M115.527 115.665l-11.34 17.009c-.068.102-.129.326-.187.326h29.551c-.045 0-.092-.158-.142-.226l-12.423-17.198c-1.542-2.133-3.998-2.099-5.459.089z" fill="var(--svg-color)"/><path fill-rule="evenodd" clip-rule="evenodd" d="M142 132.831v-.528l-6.81-9.625c-.945-1.307-2.386-1.249-3.281.092l-6.627 10.061H142zM135.626 110.318a3.498 3.498 0 0 1-3.494 3.503 3.498 3.498 0 0 1-3.494-3.503 3.498 3.498 0 0 1 3.494-3.503 3.498 3.498 0 0 1 3.494 3.503z" fill="var(--svg-color)"/></symbol><symbol fill="none" viewBox="0 0 86 106" id="moments--color" xmlns="http://www.w3.org/2000/svg"><path fill-rule="evenodd" clip-rule="evenodd" d="M36.763 57.378h-3.197V48.43c0-.146.045-12.409 13.574-12.409h27.246c.083 0 8.417-.12 8.417-10.484 0-9.605-6.88-9.715-6.88-9.715v-3.164C79.12 12.657 86 15.347 86 25.536c0 6.118-2.568 9.412-4.647 11.096-2.323 1.882-5.165 2.552-6.967 2.552H47.14c-10.166 0-10.377 8.324-10.377 9.274v8.92z" fill="var(--svg-color)"/><path fill-rule="evenodd" clip-rule="evenodd" d="M76.475 12.616c0 6.968-6.241 12.616-13.94 12.616H13.94C6.24 25.232 0 19.584 0 12.616S6.241 0 13.94 0h48.594c7.7 0 13.941 5.648 13.941 12.616z" fill="var(--svg-color)"/><path fill-rule="evenodd" clip-rule="evenodd" d="M7.283 25.455c0 2.365-1.486 4.283-3.32 4.283H3.32C1.487 29.738 0 27.82 0 25.454V14.194c0-2.365 1.487-4.282 3.321-4.282h.641c1.835 0 3.321 1.917 3.321 4.282v11.261zM23.976 37.888c0 1.792-1.468 3.246-3.28 3.246h-.633c-1.812 0-3.28-1.454-3.28-3.246V21.44c0-1.793 1.468-3.246 3.28-3.246h.633c1.812 0 3.28 1.453 3.28 3.246v16.448zM23.976 52.918c0 1.792-1.468 3.246-3.28 3.246h-.633c-1.812 0-3.28-1.454-3.28-3.246v-3.792c0-1.792 1.468-3.245 3.28-3.245h.633c1.812 0 3.28 1.453 3.28 3.245v3.792zM41.879 25.65c0 2.257-1.487 4.088-3.321 4.088h-.641c-1.835 0-3.321-1.831-3.321-4.088V14.9c0-2.257 1.486-4.086 3.32-4.086h.642c1.834 0 3.321 1.83 3.321 4.086v10.75zM52.746 29.977c0 1.793-1.468 3.247-3.28 3.247h-.632c-1.812 0-3.28-1.454-3.28-3.246V21.44c0-1.793 1.468-3.246 3.28-3.246h.633c1.811 0 3.28 1.453 3.28 3.246v8.537zM63.935 29.977c0 1.793-1.468 3.247-3.28 3.247h-.632c-1.812 0-3.28-1.454-3.28-3.246V21.44c0-1.793 1.468-3.246 3.28-3.246h.633c1.811 0 3.28 1.453 3.28 3.246v8.537zM42.357 99.258c0 3.723-3.05 6.742-6.811 6.742h-.763c-3.762 0-6.811-3.019-6.811-6.742V62.115c0-3.723 3.05-6.742 6.811-6.742h.763c3.761 0 6.811 3.019 6.811 6.742v37.143z" fill="var(--svg-color)"/></symbol><symbol fill="none" viewBox="0 0 194 194" id="moments--color-box" xmlns="http://www.w3.org/2000/svg"><path fill-rule="evenodd" clip-rule="evenodd" d="M93.763 101.378h-3.197v-8.949c0-.146.045-12.409 13.574-12.409h27.246c.082 0 8.417-.12 8.417-10.484 0-9.605-6.88-9.715-6.88-9.715v-3.164c3.197 0 10.077 2.69 10.077 12.879 0 6.118-2.568 9.412-4.647 11.096-2.323 1.882-5.165 2.552-6.967 2.552H104.14c-10.166 0-10.377 8.324-10.377 9.274v8.92z" fill="var(--svg-color)"/><path fill-rule="evenodd" clip-rule="evenodd" d="M133.475 56.616c0 6.968-6.241 12.616-13.941 12.616H70.941C63.24 69.232 57 63.584 57 56.616S63.242 44 70.94 44h48.594c7.7 0 13.941 5.648 13.941 12.616z" fill="var(--svg-color)"/><path fill-rule="evenodd" clip-rule="evenodd" d="M64.283 69.455c0 2.365-1.486 4.282-3.32 4.282h-.642c-1.834 0-3.321-1.917-3.321-4.282V58.194c0-2.365 1.487-4.282 3.321-4.282h.641c1.835 0 3.321 1.917 3.321 4.282v11.261zM80.976 81.888c0 1.792-1.468 3.246-3.28 3.246h-.633c-1.812 0-3.28-1.454-3.28-3.246V65.44c0-1.793 1.468-3.246 3.28-3.246h.633c1.812 0 3.28 1.453 3.28 3.246v16.448zM80.976 96.918c0 1.792-1.468 3.246-3.28 3.246h-.633c-1.812 0-3.28-1.454-3.28-3.246v-3.792c0-1.792 1.468-3.245 3.28-3.245h.633c1.812 0 3.28 1.453 3.28 3.245v3.792zM98.879 69.65c0 2.257-1.487 4.088-3.321 4.088h-.641c-1.835 0-3.321-1.831-3.321-4.088V58.9c0-2.257 1.486-4.086 3.32-4.086h.642c1.834 0 3.321 1.83 3.321 4.086v10.75zM109.746 73.978c0 1.792-1.468 3.246-3.279 3.246h-.633c-1.812 0-3.28-1.454-3.28-3.246V65.44c0-1.793 1.468-3.246 3.28-3.246h.633c1.811 0 3.279 1.453 3.279 3.246v8.538zM120.935 73.978c0 1.792-1.468 3.246-3.279 3.246h-.633c-1.812 0-3.28-1.454-3.28-3.246V65.44c0-1.793 1.468-3.246 3.28-3.246h.633c1.811 0 3.279 1.453 3.279 3.246v8.538zM99.357 143.258c0 3.723-3.05 6.742-6.811 6.742h-.763c-3.762 0-6.811-3.019-6.811-6.742v-37.143c0-3.723 3.05-6.742 6.811-6.742h.763c3.761 0 6.811 3.019 6.811 6.742v37.143z" fill="var(--svg-color)"/></symbol><symbol fill="none" viewBox="0 0 120 114" id="moments--coupon" xmlns="http://www.w3.org/2000/svg"><path fill-rule="evenodd" clip-rule="evenodd" d="M103.76 42.85l14.688 11.046a3.879 3.879 0 0 1-.001 6.206l-14.688 11.05 5.361 17.54a3.882 3.882 0 0 1-.58 3.418 3.907 3.907 0 0 1-3.09 1.605l-18.413.331-6.004 17.33a3.9 3.9 0 0 1-2.49 2.431 3.896 3.896 0 0 1-3.445-.511L60 102.784l-15.097 10.512a3.925 3.925 0 0 1-3.447.51 3.893 3.893 0 0 1-2.49-2.431l-6.003-17.33-18.413-.331a3.923 3.923 0 0 1-3.09-1.605 3.864 3.864 0 0 1-.58-3.418l5.361-17.54-14.688-11.05A3.88 3.88 0 0 1 0 56.999c0-1.218.576-2.367 1.553-3.103L16.24 42.847l-5.36-17.531a3.886 3.886 0 0 1 .58-3.423 3.914 3.914 0 0 1 3.089-1.6l18.413-.337 6.004-17.334a3.899 3.899 0 0 1 2.49-2.43 3.903 3.903 0 0 1 3.446.514L60 11.214 75.098.706a3.93 3.93 0 0 1 3.447-.514 3.9 3.9 0 0 1 2.49 2.43l6.003 17.338 18.413.332a3.925 3.925 0 0 1 3.089 1.6 3.87 3.87 0 0 1 .58 3.423l-5.36 17.535zm-55.37-.216c0 2.006-1.642 3.69-3.739 3.69-2.096 0-3.738-1.684-3.738-3.69 0-2.006 1.642-3.69 3.738-3.69 2.097 0 3.738 1.684 3.738 3.69zm9.285 0c0 7.166-5.831 12.976-13.024 12.976-7.192 0-13.023-5.81-13.023-12.976 0-7.166 5.83-12.975 13.023-12.975s13.024 5.81 13.024 12.975zm18.604 35.203c2.097 0 3.738-1.685 3.738-3.69 0-2.007-1.641-3.691-3.738-3.691s-3.738 1.684-3.738 3.69c0 2.006 1.641 3.69 3.738 3.69zm0 9.285c7.193 0 13.023-5.81 13.023-12.976 0-7.166-5.83-12.975-13.023-12.975S63.256 66.98 63.256 74.146c0 7.166 5.83 12.976 13.023 12.976zm-42.304-9.899a4.872 4.872 0 0 0 0 6.908 4.915 4.915 0 0 0 6.934 0l43.415-43.256a4.872 4.872 0 0 0 0-6.908 4.916 4.916 0 0 0-6.934 0L33.975 77.223z" fill="var(--svg-color)"/></symbol><symbol fill="none" viewBox="0 0 194 194" id="moments--coupon-box" xmlns="http://www.w3.org/2000/svg"><path fill-rule="evenodd" clip-rule="evenodd" d="M140.76 82.85l14.688 11.046a3.879 3.879 0 0 1-.001 6.206l-14.688 11.05 5.361 17.539a3.883 3.883 0 0 1-.58 3.419 3.907 3.907 0 0 1-3.09 1.605l-18.413.331-6.004 17.33a3.898 3.898 0 0 1-2.489 2.431 3.895 3.895 0 0 1-3.446-.511L97 142.784l-15.097 10.512a3.925 3.925 0 0 1-3.447.51 3.893 3.893 0 0 1-2.49-2.431l-6.003-17.329-18.413-.332a3.923 3.923 0 0 1-3.09-1.605 3.864 3.864 0 0 1-.58-3.418l5.361-17.54-14.688-11.05A3.881 3.881 0 0 1 37 96.999c0-1.218.576-2.367 1.553-3.103L53.24 82.847l-5.36-17.531a3.886 3.886 0 0 1 .58-3.423 3.914 3.914 0 0 1 3.089-1.6l18.413-.337 6.004-17.334a3.899 3.899 0 0 1 2.49-2.43 3.903 3.903 0 0 1 3.446.514L97 51.214l15.098-10.508a3.928 3.928 0 0 1 3.446-.514 3.898 3.898 0 0 1 2.49 2.43l6.004 17.338 18.413.332a3.925 3.925 0 0 1 3.089 1.6 3.87 3.87 0 0 1 .58 3.423l-5.36 17.535zm-55.37-.216c0 2.006-1.642 3.69-3.739 3.69-2.096 0-3.738-1.684-3.738-3.69 0-2.006 1.642-3.69 3.738-3.69 2.097 0 3.738 1.684 3.738 3.69zm9.285 0c0 7.166-5.831 12.976-13.024 12.976-7.192 0-13.023-5.81-13.023-12.976 0-7.166 5.83-12.975 13.023-12.975s13.024 5.81 13.024 12.975zm18.604 35.203c2.096 0 3.738-1.685 3.738-3.691s-1.642-3.69-3.738-3.69c-2.097 0-3.738 1.684-3.738 3.69 0 2.006 1.641 3.691 3.738 3.691zm0 9.285c7.192 0 13.023-5.81 13.023-12.976 0-7.166-5.831-12.975-13.023-12.975-7.193 0-13.023 5.809-13.023 12.975 0 7.166 5.83 12.976 13.023 12.976zm-42.304-9.899a4.872 4.872 0 0 0 0 6.908 4.915 4.915 0 0 0 6.934 0l43.415-43.256a4.872 4.872 0 0 0 0-6.908 4.916 4.916 0 0 0-6.934 0l-43.415 43.256z" fill="var(--svg-color)"/></symbol><symbol fill="none" viewBox="0 0 118 118" id="moments--duel" xmlns="http://www.w3.org/2000/svg"><path fill-rule="evenodd" clip-rule="evenodd" d="M56.387 90.81c-.459-.456-.689-1.115-.689-1.977V82.3c0-.917.23-1.59.69-2.02.458-.43 1.117-.644 1.977-.644h22.182a1.625 1.625 0 0 0 1.202-.518l.603-.6c.173-.172.3-.36.385-.56.086-.2.131-.387.131-.558v-.258c0-.23-.045-.43-.13-.601a2.014 2.014 0 0 0-.386-.516l-.603-.602c-.171-.173-.356-.3-.558-.387-.2-.085-.415-.13-.644-.13H66.272c-1.489 0-2.733-.172-3.736-.515-1.005-.344-2.021-1.033-3.052-2.065l-1.12-1.116c-1.09-1.09-1.804-2.063-2.15-2.924-.343-.858-.516-1.89-.516-3.094v-4.298c0-1.834.244-3.355.73-4.558.49-1.203 1.365-2.437 2.626-3.697l2.062-2.065c1.319-1.318 2.58-2.247 3.783-2.793 1.205-.544 2.78-.816 4.729-.816h24.245c.918 0 1.59.214 2.02.645.428.429.647 1.104.647 2.021v6.534c0 .858-.219 1.517-.647 1.977-.43.457-1.102.687-2.02.687H72.981c-.23 0-.445.044-.645.13a1.826 1.826 0 0 0-.56.384l-.602.604c-.17.173-.3.343-.387.516-.085.173-.129.371-.129.602v.172c0 .171.044.358.13.558.087.2.216.388.386.558l.602.604c.173.173.361.3.56.385.2.087.415.129.645.129h14.271c1.491 0 2.738.173 3.743.516 1 .344 2.019 1.033 3.051 2.063l1.116 1.12c1.09 1.088 1.807 2.063 2.148 2.92.346.862.516 1.894.516 3.097v4.384c0 1.835-.242 3.356-.728 4.559-.489 1.2-1.362 2.436-2.621 3.694l-2.065 2.065c-1.32 1.319-2.58 2.25-3.784 2.796-1.203.544-2.78.816-4.73.816H58.366c-.86 0-1.52-.23-1.978-.69zM27.648 69.451c-.66-.486-1.16-1.39-1.505-2.708L16.17 28.741c-.228-.917-.145-1.662.259-2.235.4-.572 1.088-.858 2.064-.858h10.66c1.09 0 1.862.228 2.323.687.457.459.8 1.26 1.03 2.406l6.02 28.802c.056.286.214.431.472.431.259 0 .416-.145.473-.43L45.49 28.74c.23-1.145.572-1.947 1.032-2.406.457-.459 1.231-.687 2.321-.687h10.316c.975 0 1.664.286 2.065.858.4.573.486 1.318.258 2.235l-9.973 38.002c-.345 1.319-.845 2.222-1.504 2.708-.66.487-1.763.731-3.312.731H30.96c-1.549 0-2.653-.244-3.312-.73z" fill="var(--svg-color)"/><mask id="aua" maskUnits="userSpaceOnUse" x="9" y="23" width="23" height="11"><path fill-rule="evenodd" clip-rule="evenodd" d="M13.17 23.947a3.909 3.909 0 0 0-3.909 3.907v1.612a3.909 3.909 0 0 0 3.91 3.907h14.92a3.907 3.907 0 0 0 3.907-3.907v-1.612a3.907 3.907 0 0 0-3.907-3.907H13.17z" fill="var(--svg-color)"/></mask><g mask="url(#aua)"><path fill-rule="evenodd" clip-rule="evenodd" d="M-.666 43.3h42.591V14.02H-.665V43.3z" fill="var(--svg-color)"/></g><mask id="aub" maskUnits="userSpaceOnUse" x="0" y="39" width="96" height="79"><path fill-rule="evenodd" clip-rule="evenodd" d="M0 39.827h95.043V118H0V39.827z" fill="var(--svg-color)"/></mask><g mask="url(#aub)"><path fill-rule="evenodd" clip-rule="evenodd" d="M88.616 99.192c-8.293 6.126-18.537 9.758-29.618 9.758-27.541 0-49.949-22.407-49.949-49.95 0-6.79 1.368-13.267 3.834-19.173H3.214A58.74 58.74 0 0 0 0 59C0 91.532 26.467 118 58.998 118c13.566 0 26.068-4.614 36.045-12.339a13.927 13.927 0 0 1-6.427-6.47z" fill="var(--svg-color)"/></g><mask id="auc" maskUnits="userSpaceOnUse" x="17" y="0" width="101" height="85"><path fill-rule="evenodd" clip-rule="evenodd" d="M17.115 0H118v84.68H17.115V0z" fill="var(--svg-color)"/></mask><g mask="url(#auc)"><path fill-rule="evenodd" clip-rule="evenodd" d="M59 0C42.637 0 27.811 6.699 17.114 17.495h14.13A49.646 49.646 0 0 1 59 9.051c27.544 0 49.951 22.407 49.951 49.948a49.632 49.632 0 0 1-4.509 20.7 13.896 13.896 0 0 1 7.669 4.981A58.65 58.65 0 0 0 118.001 59c0-32.533-26.467-59-59.002-59z" fill="var(--svg-color)"/></g><mask id="aud" maskUnits="userSpaceOnUse" x="37" y="25" width="24" height="11"><path fill-rule="evenodd" clip-rule="evenodd" d="M40.988 25.67a3.907 3.907 0 0 0-3.907 3.907v1.612a3.907 3.907 0 0 0 3.907 3.907h15.311c2.158 0 3.91-1.749 3.91-3.907v-1.612a3.909 3.909 0 0 0-3.91-3.907H40.988z" fill="var(--svg-color)"/></mask><g mask="url(#aud)"><path fill-rule="evenodd" clip-rule="evenodd" d="M27.15 45.023h42.983v-29.28H27.15v29.28z" fill="var(--svg-color)"/></g><path fill-rule="evenodd" clip-rule="evenodd" d="M107.962 93.185a6.829 6.829 0 1 1-13.657-.001 6.829 6.829 0 0 1 13.657 0z" fill="var(--svg-color)"/></symbol><symbol fill="none" viewBox="0 0 25 25" id="moments--duel-box" xmlns="http://www.w3.org/2000/svg"><path fill-rule="evenodd" clip-rule="evenodd" d="M12.163 16.6c-.06-.06-.089-.145-.089-.256v-.842c0-.118.03-.205.089-.26.06-.055.144-.083.255-.083h2.858a.207.207 0 0 0 .155-.067l.078-.077a.227.227 0 0 0 .066-.144v-.033a.172.172 0 0 0-.016-.078.259.259 0 0 0-.05-.066l-.078-.078a.21.21 0 0 0-.155-.067h-1.84a1.5 1.5 0 0 1-.48-.066 1.054 1.054 0 0 1-.394-.266l-.144-.144a1.213 1.213 0 0 1-.277-.377 1.074 1.074 0 0 1-.067-.398v-.554c0-.236.032-.432.094-.588.063-.155.176-.314.339-.476l.265-.266c.17-.17.333-.29.488-.36.155-.07.358-.105.61-.105h3.124c.118 0 .205.027.26.083.055.055.083.142.083.26v.842c0 .111-.028.196-.083.255-.055.06-.142.089-.26.089H14.3a.21.21 0 0 0-.155.066l-.077.078a.268.268 0 0 0-.05.066.172.172 0 0 0-.017.078v.022c0 .022.006.046.017.072.01.026.028.05.05.072l.077.078a.231.231 0 0 0 .072.05.205.205 0 0 0 .083.016h1.84c.192 0 .352.022.482.066.129.045.26.133.393.266l.144.145c.14.14.233.265.277.376.044.111.066.244.066.4v.564c0 .236-.031.432-.094.587a1.487 1.487 0 0 1-.337.477l-.267.266c-.17.17-.332.29-.487.36-.155.07-.358.105-.61.105h-3.29c-.111 0-.196-.03-.255-.089zM8.46 13.847c-.085-.063-.15-.18-.194-.35L6.981 8.602c-.03-.119-.019-.215.033-.288.052-.074.14-.111.266-.111h1.374c.14 0 .24.03.3.089.058.059.102.162.132.31l.776 3.711c.007.037.027.056.06.056.034 0 .054-.019.062-.056l.775-3.711c.03-.148.074-.251.133-.31.059-.06.159-.089.3-.089h1.329c.125 0 .214.037.266.11.051.074.062.17.033.289l-1.285 4.897c-.045.17-.11.286-.194.349-.085.063-.227.094-.427.094H8.887c-.2 0-.342-.032-.427-.094z" fill="var(--svg-color)"/><mask id="ava" maskUnits="userSpaceOnUse" x="4" y="10" width="14" height="11"><path fill-rule="evenodd" clip-rule="evenodd" d="M4.896 10.03h12.248v10.073H4.896V10.029z" fill="var(--svg-color)"/></mask><g mask="url(#ava)"><path fill-rule="evenodd" clip-rule="evenodd" d="M16.316 17.68a6.403 6.403 0 0 1-3.817 1.257A6.444 6.444 0 0 1 6.063 12.5c0-.875.176-1.71.494-2.47H5.31a7.57 7.57 0 0 0-.415 2.47c0 4.192 3.411 7.603 7.603 7.603 1.749 0 3.36-.594 4.645-1.59a1.795 1.795 0 0 1-.828-.834z" fill="var(--svg-color)"/></g><mask id="avb" maskUnits="userSpaceOnUse" x="7" y="4" width="14" height="12"><path fill-rule="evenodd" clip-rule="evenodd" d="M7.102 4.897h13v10.912h-13V4.897z" fill="var(--svg-color)"/></mask><g mask="url(#avb)"><path fill-rule="evenodd" clip-rule="evenodd" d="M12.499 4.897A7.578 7.578 0 0 0 7.102 7.15h1.82A6.398 6.398 0 0 1 12.5 6.063a6.444 6.444 0 0 1 6.437 6.437c0 .951-.21 1.854-.581 2.667.398.098.744.328.988.642a7.559 7.559 0 0 0 .76-3.31c0-4.191-3.411-7.602-7.604-7.602z" fill="var(--svg-color)"/></g><path fill-rule="evenodd" clip-rule="evenodd" d="M6.26 8.7a.5.5 0 0 0 .5.5h1.8a.5.5 0 0 0 .5-.5v-.2a.5.5 0 0 0-.5-.5h-1.8a.5.5 0 0 0-.5.5v.2zM18.809 16.905a.88.88 0 1 1-1.76 0 .88.88 0 0 1 1.76 0z" fill="var(--svg-color)"/></symbol><symbol fill="none" viewBox="0 0 117 105" id="moments--feedback" xmlns="http://www.w3.org/2000/svg"><path fill-rule="evenodd" clip-rule="evenodd" d="M41.563 25.229c-1.322 0-2.643.12-4.085.12C42.644 10.692 58.14 0 76.278 0 98.741 0 117 16.218 117 36.161c0 7.569-2.643 15.017-7.688 21.024.961 1.682 2.162 3.004 3.724 4.085 1.562 1.081 2.402 3.003 1.922 4.806-.36 1.802-1.922 3.243-3.844 3.484-1.321.24-2.643.24-3.964.24-3.964 0-7.568-.841-10.691-2.283-2.042 1.081-4.204 1.922-6.487 2.643V68.72c0-2.043-.12-3.965-.48-5.887 1.802-.721 3.483-1.442 5.165-2.403l1.802-.961 1.802 1.081c1.802 1.081 3.844 1.802 6.126 2.163a17.663 17.663 0 0 1-2.522-4.686l-.721-2.042 1.441-1.562c4.805-5.166 7.328-11.413 7.328-18.14 0-15.979-15.136-29.074-33.635-29.074-14.174 0-26.307 7.569-31.232 18.261-1.08-.24-2.282-.24-3.483-.24z" fill="var(--svg-color)"/><path fill-rule="evenodd" clip-rule="evenodd" d="M9.25 91.545C3.483 85.297 0 77.368 0 68.719c0-20.063 18.62-36.402 41.563-36.402s41.562 16.339 41.562 36.402C83.125 88.78 64.386 105 41.563 105c-8.289 0-16.097-2.163-22.584-5.887-5.886 3.484-12.132 3.364-15.856 2.884-1.08-.121-1.321-1.442-.48-2.043 3.603-2.282 5.525-5.526 6.606-8.41zm23.432-28.271c-.315-1.02-1.14-1.782-2.026-1.782h-7.974c-1.014 0-1.736.996-1.642 2.24l-.084 19.421c0 .057.002.11.008.168.14 1.29 1.102 2.34 2.144 2.34h10.178c.993 0 1.697-.961 1.636-2.172l-2.208-20.23-.032.015zm30.033 3.285c.943.77 1.667 1.847 1.788 3.316.154 1.878-.603 3.268-2.052 3.961.491.697.98 1.854.698 3.526-.235 1.385-1.121 2.32-2.49 2.696l.002.04v.018l.001.018.009.18c.349.833.485 1.812.127 2.848-.75 2.153-3.244 2.32-3.99 2.32H45.847c-2.192 0-6.365-1.565-8.17-2.284l-2.742-20.81c1.316-1.227 5.381-7.907 5.86-10.67.28-1.617.016-2.777-.198-3.711l-.004-.02c-.164-.704-.316-1.372-.152-2.004.372-1.455 2.283-2.118 3.898-2.118.251 0 .497.016.736.046.743.094 1.495.589 2.236 1.471 1.41 1.674 2.837 4.866 2.703 7.483-.092 1.813-.092 3.855-.075 5.158h8.764c1.883 0 3.067.868 3.728 1.597 1.305 1.445 1.63 3.442 1.508 4.715-.09.95-.514 1.705-1.224 2.224z" fill="var(--svg-color)"/></symbol><symbol fill="none" viewBox="0 0 194 194" id="moments--feedback-box" xmlns="http://www.w3.org/2000/svg"><path fill-rule="evenodd" clip-rule="evenodd" d="M79.563 69.229c-1.322 0-2.643.12-4.085.12C80.644 54.692 96.14 44 114.278 44 136.741 44 155 60.218 155 80.161c0 7.569-2.643 15.017-7.688 21.024.961 1.682 2.162 3.004 3.724 4.085 1.562 1.081 2.402 3.003 1.922 4.806-.36 1.802-1.922 3.243-3.844 3.483-1.321.241-2.643.241-3.964.241-3.964 0-7.568-.841-10.691-2.283-2.042 1.081-4.204 1.922-6.487 2.643v-1.441c0-2.043-.12-3.965-.48-5.887 1.802-.721 3.483-1.442 5.165-2.403l1.802-.961 1.802 1.081c1.802 1.081 3.844 1.802 6.126 2.163a17.67 17.67 0 0 1-2.522-4.686l-.721-2.042 1.441-1.562c4.805-5.166 7.328-11.413 7.328-18.14 0-15.979-15.136-29.074-33.635-29.074-14.174 0-26.307 7.569-31.232 18.261-1.08-.24-2.282-.24-3.483-.24z" fill="var(--svg-color)"/><path fill-rule="evenodd" clip-rule="evenodd" d="M47.25 135.545c-5.766-6.248-9.25-14.177-9.25-22.827 0-20.062 18.62-36.401 41.563-36.401s41.562 16.339 41.562 36.401c0 20.063-18.739 36.282-41.562 36.282-8.289 0-16.097-2.163-22.584-5.887-5.886 3.484-12.132 3.364-15.856 2.884-1.08-.121-1.321-1.442-.48-2.043 3.603-2.282 5.525-5.526 6.606-8.409zm23.432-28.271c-.315-1.021-1.14-1.782-2.026-1.782h-7.974c-1.014 0-1.736.996-1.642 2.241l-.084 19.42c0 .057.002.111.008.168.14 1.29 1.102 2.34 2.144 2.34h10.178c.993 0 1.697-.961 1.636-2.172l-2.208-20.231a.868.868 0 0 1-.032.016zm30.033 3.285c.943.77 1.667 1.847 1.788 3.316.154 1.878-.604 3.268-2.052 3.961.491.697.981 1.854.698 3.527-.235 1.384-1.122 2.319-2.49 2.695l.002.04a.27.27 0 0 1 0 .018l.001.018.009.179c.349.834.485 1.812.126 2.849-.75 2.153-3.243 2.32-3.99 2.32h-10.96c-2.192 0-6.365-1.565-8.17-2.284l-2.742-20.811c1.316-1.226 5.381-7.906 5.86-10.67.28-1.616.016-2.776-.198-3.71l-.004-.02c-.164-.704-.316-1.372-.152-2.004.372-1.455 2.283-2.118 3.898-2.118.251 0 .497.016.736.046.743.094 1.495.589 2.236 1.471 1.41 1.674 2.837 4.866 2.702 7.483-.09 1.813-.09 3.855-.074 5.158h8.764c1.883 0 3.067.868 3.728 1.597 1.305 1.445 1.63 3.442 1.508 4.714-.09.952-.514 1.706-1.224 2.225z" fill="var(--svg-color)"/></symbol><symbol fill="none" viewBox="0 0 124 114" id="moments--filter" xmlns="http://www.w3.org/2000/svg"><path fill-rule="evenodd" clip-rule="evenodd" d="M61.678 49.632a37.044 37.044 0 0 1 24.981-9.625c4.185 0 8.203.698 11.955 1.968.248-1.717.383-3.47.383-5.255C98.997 16.44 82.424 0 61.98 0 41.535 0 24.96 16.44 24.96 36.72c0 1.718.129 3.406.359 5.06a37.255 37.255 0 0 1 11.377-1.773 37.046 37.046 0 0 1 24.981 9.625zM49.962 77.28c0-1.785.135-3.538.383-5.255-13.023-4.408-22.774-15.807-24.705-29.692C10.764 47.096 0 60.939 0 77.28 0 97.56 16.574 114 37.018 114A37.05 37.05 0 0 0 62 104.375c-7.397-6.714-12.037-16.366-12.037-27.096zM98.937 42.334c-2.023 14-12.006 25.448-25.257 29.69a36.69 36.69 0 0 1 .358 5.061c0 10.73-4.64 20.382-12.036 27.096a37.049 37.049 0 0 0 24.98 9.625c20.445 0 37.018-16.44 37.018-36.72 0-16.13-10.487-29.82-25.063-34.752z" fill="var(--svg-color)"/><path fill-rule="evenodd" clip-rule="evenodd" d="M61.577 49.522c-6.166 5.597-10.41 13.238-11.654 21.841a37.232 37.232 0 0 0 11.955 1.968c3.97 0 7.792-.627 11.378-1.775-1.207-8.681-5.467-16.395-11.679-22.034z" fill="var(--svg-color)"/></symbol><symbol fill="none" viewBox="0 0 194 194" id="moments--filter-box" xmlns="http://www.w3.org/2000/svg"><path fill-rule="evenodd" clip-rule="evenodd" d="M94.678 87.632a37.046 37.046 0 0 1 24.981-9.625c4.185 0 8.203.698 11.955 1.968.248-1.717.383-3.47.383-5.255 0-20.28-16.573-36.72-37.018-36.72-20.444 0-37.018 16.44-37.018 36.72 0 1.718.129 3.406.359 5.06a37.255 37.255 0 0 1 11.377-1.773 37.046 37.046 0 0 1 24.981 9.625zM82.962 115.279c0-1.784.135-3.537.383-5.254-13.022-4.408-22.774-15.807-24.705-29.692C43.764 85.097 33 98.939 33 115.28 33 135.56 49.574 152 70.018 152A37.05 37.05 0 0 0 95 142.375c-7.397-6.714-12.037-16.366-12.037-27.096zM131.937 80.334c-2.023 14-12.006 25.448-25.257 29.69.23 1.656.358 3.343.358 5.061 0 10.73-4.64 20.382-12.036 27.096a37.048 37.048 0 0 0 24.98 9.625c20.445 0 37.018-16.441 37.018-36.721 0-16.129-10.487-29.819-25.063-34.751z" fill="var(--svg-color)"/><path fill-rule="evenodd" clip-rule="evenodd" d="M94.577 87.522c-6.166 5.597-10.41 13.238-11.654 21.841a37.237 37.237 0 0 0 11.955 1.968c3.97 0 7.792-.627 11.378-1.775-1.207-8.681-5.467-16.395-11.679-22.034z" fill="var(--svg-color)"/></symbol><symbol fill="none" viewBox="0 0 63 98" id="moments--flash" xmlns="http://www.w3.org/2000/svg"><path fill-rule="evenodd" clip-rule="evenodd" d="M62.64 40.37H35.713L52.72.43H15.872L.283 57.488h24.092L11.621 97.43l51.02-57.06z" fill="var(--svg-color)"/></symbol><symbol fill="none" viewBox="0 0 194 194" id="moments--flash-box" xmlns="http://www.w3.org/2000/svg"><path fill-rule="evenodd" clip-rule="evenodd" d="M131.64 95.37h-26.927l17.007-39.94H84.872l-15.589 57.058h24.092L80.621 152.43l51.019-57.06z" fill="var(--svg-color)"/></symbol><symbol fill="none" viewBox="0 0 116 108" id="moments--follow-artist" xmlns="http://www.w3.org/2000/svg"><path fill-rule="evenodd" clip-rule="evenodd" d="M81.415 85.407c-4.278 0-7.757-3.467-7.757-7.73 0-4.264 3.48-7.732 7.757-7.732 3.938 0 7.163 2.948 7.657 6.74v1.246c0 .126.021.248.037.37-.325 3.966-3.631 7.106-7.694 7.106zm-1.185-44.57l-.639.23-7.494 2.684-.99.354-6.81 2.439-1.32.473-3.62 1.296-4.181 1.497-1.308.468V43.15l3.143-1.126 4.181-1.498 3.62-1.297 1.321-.472 6.81-2.439.99-.355 7.494-2.684.639-.23 7.004-2.508v7.169c-.12.025-.24.047-.359.09l-8.48 3.038zm-39.448 61.947c-4.278 0-7.757-3.468-7.757-7.731 0-4.264 3.479-7.731 7.757-7.731 3.937 0 7.163 2.947 7.657 6.739v1.246c0 .126.02.248.036.37-.324 3.966-3.63 7.107-7.693 7.107zm51.006-78.577c-.644 0-2.614.547-3.074.712l-8.483 3.038-.638.23-7.494 2.683-.99.354-6.81 2.439-1.32.474-3.62 1.295-4.182 1.498-4.536 1.625a2.7 2.7 0 0 0-2.176 2.4c-.007.066-.018.13-.02.196 0 .02-.006.04-.006.06v43.413a12.927 12.927 0 0 0-7.657-2.512c-7.161 0-12.988 5.807-12.988 12.944 0 7.137 5.827 12.944 12.988 12.944 6.78 0 12.354-5.205 12.93-11.816.096-.275.158-.566.158-.873V56.03l3.143-1.126 4.18-1.497 3.621-1.297 1.32-.473 6.81-2.439.99-.355 7.494-2.684.639-.229 7.004-2.509v23.823a12.927 12.927 0 0 0-7.657-2.513c-7.161 0-12.988 5.807-12.988 12.944 0 7.137 5.827 12.944 12.988 12.944 6.779 0 12.354-5.205 12.93-11.816.096-.275.157-.565.157-.873V26.915a2.71 2.71 0 0 0-2.713-2.708z" fill="var(--svg-color)"/><path fill-rule="evenodd" clip-rule="evenodd" d="M51.883 40.237v12.706l41.063-12.706V26.07L51.883 40.237zM40.765 106.138c6.14 0 11.118-5.002 11.118-11.173 0-6.17-4.978-11.172-11.118-11.172-6.14 0-11.118 5.002-11.118 11.172 0 6.171 4.978 11.173 11.118 11.173zM81.53 89.38c6.14 0 11.118-5.003 11.118-11.173S87.671 67.035 81.53 67.035c-6.14 0-11.117 5.002-11.117 11.172 0 6.17 4.977 11.172 11.117 11.172z" fill="var(--svg-color)"/><path fill-rule="evenodd" clip-rule="evenodd" d="M74.173 22.023l18.253 18.342a1.1 1.1 0 0 0 1.561 0l18.253-18.343c5.013-5.037 5.013-13.206 0-18.244a12.793 12.793 0 0 0-18.155 0c-.695.699-.878 1.005-.878 1.005s-.553-.677-.879-1.005a12.793 12.793 0 0 0-18.155 0c-5.013 5.038-5.013 13.207 0 18.244z" fill="var(--svg-color)"/><rect x="1.853" y="20.483" width="61.148" height="5.586" rx="2.793" fill="var(--svg-color)"/><rect x="1.853" y="37.242" width="35.206" height="5.586" rx="2.793" fill="var(--svg-color)"/><rect x="1.853" y="54" width="35.206" height="5.586" rx="2.793" fill="var(--svg-color)"/><rect x="1.853" y="70.758" width="35.206" height="5.586" rx="2.793" fill="var(--svg-color)"/><path fill-rule="evenodd" clip-rule="evenodd" d="M42.56 28.825c3.038 0 5.5-2.474 5.5-5.527s-2.462-5.528-5.5-5.528-5.5 2.475-5.5 5.528c0 3.053 2.462 5.527 5.5 5.527zM5.5 45.584c3.038 0 5.501-2.475 5.501-5.528 0-3.052-2.463-5.527-5.5-5.527C2.463 34.529 0 37.004 0 40.056c0 3.053 2.463 5.528 5.5 5.528zM27.736 62.343c3.038 0 5.5-2.475 5.5-5.528 0-3.053-2.462-5.527-5.5-5.527s-5.5 2.474-5.5 5.527 2.462 5.528 5.5 5.528zM16.618 79.101c3.038 0 5.5-2.475 5.5-5.527 0-3.053-2.462-5.528-5.5-5.528s-5.5 2.475-5.5 5.528c0 3.052 2.462 5.527 5.5 5.527z" fill="var(--svg-color)"/></symbol><symbol fill="none" viewBox="0 0 194 194" id="moments--follow-artist-box" xmlns="http://www.w3.org/2000/svg"><path fill-rule="evenodd" clip-rule="evenodd" d="M118.415 128.407c-4.278 0-7.757-3.467-7.757-7.731 0-4.263 3.479-7.731 7.757-7.731 3.938 0 7.163 2.948 7.658 6.739v1.247c0 .126.02.248.036.369-.325 3.967-3.631 7.107-7.694 7.107zm-1.185-44.57l-.639.23-7.494 2.684-.99.353-6.809 2.44-1.32.473-3.621 1.296-4.181 1.497-1.308.468V86.15l3.143-1.126 4.181-1.498 3.621-1.296 1.32-.473 6.809-2.439.991-.355 7.494-2.684.639-.23 7.004-2.508v7.169c-.121.025-.24.047-.359.09l-8.481 3.038zm-39.448 61.947c-4.278 0-7.757-3.468-7.757-7.731 0-4.264 3.479-7.731 7.757-7.731 3.937 0 7.163 2.947 7.657 6.739v1.246c0 .126.02.248.037.37-.325 3.966-3.632 7.107-7.694 7.107zm51.006-78.577c-.644 0-2.614.547-3.074.712l-8.483 3.038-.638.23-7.494 2.683-.991.354-6.809 2.439-1.32.474-3.62 1.295-4.182 1.498-4.536 1.625a2.7 2.7 0 0 0-2.176 2.4c-.007.066-.018.13-.02.196 0 .02-.006.04-.006.06v43.413a12.927 12.927 0 0 0-7.657-2.512c-7.161 0-12.988 5.807-12.988 12.944 0 7.137 5.827 12.944 12.988 12.944 6.78 0 12.354-5.205 12.93-11.816.096-.275.158-.566.158-.874V99.031l3.143-1.126 4.18-1.497 3.621-1.297 1.32-.473 6.81-2.439.99-.355 7.494-2.684.639-.229 7.004-2.509v23.822a12.924 12.924 0 0 0-7.657-2.512c-7.161 0-12.988 5.807-12.988 12.944 0 7.137 5.827 12.944 12.988 12.944 6.779 0 12.354-5.205 12.93-11.816.096-.275.157-.565.157-.873V69.914a2.709 2.709 0 0 0-2.713-2.707z" fill="var(--svg-color)"/><path fill-rule="evenodd" clip-rule="evenodd" d="M88.883 83.237v12.706l41.064-12.706V69.07L88.883 83.237zM77.765 149.138c6.14 0 11.118-5.002 11.118-11.173 0-6.17-4.978-11.172-11.118-11.172-6.14 0-11.118 5.002-11.118 11.172 0 6.171 4.978 11.173 11.118 11.173zM118.53 132.379c6.141 0 11.118-5.002 11.118-11.172 0-6.17-4.977-11.172-11.118-11.172-6.14 0-11.117 5.002-11.117 11.172 0 6.17 4.977 11.172 11.117 11.172z" fill="var(--svg-color)"/><path fill-rule="evenodd" clip-rule="evenodd" d="M111.173 65.022l18.253 18.343a1.1 1.1 0 0 0 1.561 0l18.253-18.343c5.013-5.037 5.013-13.206 0-18.244a12.793 12.793 0 0 0-18.155 0c-.695.699-.878 1.005-.878 1.005s-.553-.677-.879-1.005a12.793 12.793 0 0 0-18.155 0c-5.013 5.038-5.013 13.207 0 18.244z" fill="var(--svg-color)"/><rect x="38.853" y="63.483" width="61.148" height="5.586" rx="2.793" fill="var(--svg-color)"/><rect x="38.853" y="80.242" width="35.206" height="5.586" rx="2.793" fill="var(--svg-color)"/><rect x="38.853" y="97" width="35.206" height="5.586" rx="2.793" fill="var(--svg-color)"/><rect x="38.853" y="113.758" width="35.206" height="5.586" rx="2.793" fill="var(--svg-color)"/><path fill-rule="evenodd" clip-rule="evenodd" d="M79.56 71.825c3.038 0 5.5-2.474 5.5-5.527s-2.462-5.528-5.5-5.528-5.5 2.475-5.5 5.528c0 3.053 2.462 5.527 5.5 5.527zM42.5 88.584c3.038 0 5.501-2.475 5.501-5.528 0-3.052-2.463-5.527-5.5-5.527-3.038 0-5.501 2.475-5.501 5.527 0 3.053 2.463 5.528 5.5 5.528zM64.736 105.343c3.038 0 5.5-2.475 5.5-5.528 0-3.053-2.462-5.527-5.5-5.527s-5.5 2.474-5.5 5.527 2.462 5.528 5.5 5.528zM53.618 122.101c3.038 0 5.5-2.475 5.5-5.527 0-3.053-2.462-5.528-5.5-5.528s-5.5 2.475-5.5 5.528c0 3.052 2.462 5.527 5.5 5.527z" fill="var(--svg-color)"/></symbol><symbol fill="none" viewBox="0 0 116 108" id="moments--follow-playlist" xmlns="http://www.w3.org/2000/svg"><path fill-rule="evenodd" clip-rule="evenodd" d="M81.415 85.407c-4.278 0-7.757-3.467-7.757-7.73 0-4.264 3.48-7.732 7.757-7.732 3.938 0 7.163 2.948 7.657 6.74v1.246c0 .126.021.248.037.37-.325 3.966-3.631 7.106-7.694 7.106zm-1.185-44.57l-.639.23-7.494 2.684-.99.354-6.81 2.439-1.32.473-3.62 1.296-4.181 1.497-1.308.468V43.15l3.143-1.126 4.181-1.498 3.62-1.297 1.321-.472 6.81-2.439.99-.355 7.494-2.684.639-.23 7.004-2.508v7.169c-.12.025-.24.047-.359.09l-8.48 3.038zm-39.448 61.947c-4.278 0-7.757-3.468-7.757-7.731 0-4.264 3.479-7.731 7.757-7.731 3.937 0 7.163 2.947 7.657 6.739v1.246c0 .126.02.248.036.37-.324 3.966-3.63 7.107-7.693 7.107zm51.006-78.577c-.644 0-2.614.547-3.074.712l-8.483 3.038-.638.23-7.494 2.683-.99.354-6.81 2.439-1.32.474-3.62 1.295-4.182 1.498-4.536 1.625a2.7 2.7 0 0 0-2.176 2.4c-.007.066-.018.13-.02.196 0 .02-.006.04-.006.06v43.413a12.927 12.927 0 0 0-7.657-2.512c-7.161 0-12.988 5.807-12.988 12.944 0 7.137 5.827 12.944 12.988 12.944 6.78 0 12.354-5.205 12.93-11.816.096-.275.158-.566.158-.873V56.03l3.143-1.126 4.18-1.497 3.621-1.297 1.32-.473 6.81-2.439.99-.355 7.494-2.684.639-.229 7.004-2.509v23.823a12.927 12.927 0 0 0-7.657-2.513c-7.161 0-12.988 5.807-12.988 12.944 0 7.137 5.827 12.944 12.988 12.944 6.779 0 12.354-5.205 12.93-11.816.096-.275.157-.565.157-.873V26.915a2.71 2.71 0 0 0-2.713-2.708z" fill="var(--svg-color)"/><path fill-rule="evenodd" clip-rule="evenodd" d="M51.883 40.237v12.706l41.063-12.706V26.07L51.883 40.237zM40.765 106.138c6.14 0 11.118-5.002 11.118-11.173 0-6.17-4.978-11.172-11.118-11.172-6.14 0-11.118 5.002-11.118 11.172 0 6.171 4.978 11.173 11.118 11.173zM81.53 89.38c6.14 0 11.118-5.003 11.118-11.173S87.671 67.035 81.53 67.035c-6.14 0-11.117 5.002-11.117 11.172 0 6.17 4.977 11.172 11.117 11.172z" fill="var(--svg-color)"/><path fill-rule="evenodd" clip-rule="evenodd" d="M74.173 22.023l18.253 18.342a1.1 1.1 0 0 0 1.561 0l18.253-18.343c5.013-5.037 5.013-13.206 0-18.244a12.793 12.793 0 0 0-18.155 0c-.695.699-.878 1.005-.878 1.005s-.553-.677-.879-1.005a12.793 12.793 0 0 0-18.155 0c-5.013 5.038-5.013 13.207 0 18.244z" fill="var(--svg-color)"/><rect x="16" y="21" width="47" height="5.59" rx="2.795" fill="var(--svg-color)"/><rect x="17" y="38" width="20" height="5.59" rx="2.795" fill="var(--svg-color)"/><rect x="17" y="55" width="20" height="5.59" rx="2.795" fill="var(--svg-color)"/><rect x="17" y="72" width="20" height="5.59" rx="2.795" fill="var(--svg-color)"/><path fill-rule="evenodd" clip-rule="evenodd" d="M5.5 28.826c3.038 0 5.501-2.475 5.501-5.528 0-3.053-2.463-5.527-5.5-5.527C2.463 17.77 0 20.244 0 23.297s2.463 5.528 5.5 5.528zM5.5 45.584c3.038 0 5.501-2.475 5.501-5.528 0-3.052-2.463-5.527-5.5-5.527C2.463 34.529 0 37.004 0 40.056c0 3.053 2.463 5.528 5.5 5.528zM5.5 62.343c3.038 0 5.501-2.475 5.501-5.528 0-3.053-2.463-5.527-5.5-5.527C2.463 51.288 0 53.762 0 56.815s2.463 5.528 5.5 5.528zM5.5 79.102c3.038 0 5.501-2.475 5.501-5.528 0-3.053-2.463-5.528-5.5-5.528C2.463 68.046 0 70.521 0 73.574c0 3.053 2.463 5.528 5.5 5.528z" fill="var(--svg-color)"/></symbol><symbol fill="none" viewBox="0 0 194 194" id="moments--follow-playlist-box" xmlns="http://www.w3.org/2000/svg"><path fill-rule="evenodd" clip-rule="evenodd" d="M118.415 128.407c-4.278 0-7.757-3.467-7.757-7.731 0-4.263 3.479-7.731 7.757-7.731 3.938 0 7.163 2.948 7.658 6.739v1.247c0 .126.02.248.036.369-.325 3.967-3.631 7.107-7.694 7.107zm-1.185-44.57l-.639.23-7.494 2.684-.99.353-6.809 2.44-1.32.473-3.621 1.296-4.181 1.497-1.308.468V86.15l3.143-1.126 4.181-1.498 3.621-1.296 1.32-.473 6.809-2.439.991-.355 7.494-2.684.639-.23 7.004-2.508v7.169c-.121.025-.24.047-.359.09l-8.481 3.038zm-39.448 61.947c-4.278 0-7.757-3.468-7.757-7.731 0-4.264 3.479-7.731 7.757-7.731 3.937 0 7.163 2.947 7.657 6.739v1.246c0 .126.02.248.037.37-.325 3.966-3.632 7.107-7.694 7.107zm51.006-78.577c-.644 0-2.614.547-3.074.712l-8.483 3.038-.638.23-7.494 2.683-.991.354-6.809 2.439-1.32.474-3.62 1.295-4.182 1.498-4.536 1.625a2.7 2.7 0 0 0-2.176 2.4c-.007.066-.018.13-.02.196 0 .02-.006.04-.006.06v43.413a12.927 12.927 0 0 0-7.657-2.512c-7.161 0-12.988 5.807-12.988 12.944 0 7.137 5.827 12.944 12.988 12.944 6.78 0 12.354-5.205 12.93-11.816.096-.275.158-.566.158-.874V99.031l3.143-1.126 4.18-1.497 3.621-1.297 1.32-.473 6.81-2.439.99-.355 7.494-2.684.639-.229 7.004-2.509v23.822a12.924 12.924 0 0 0-7.657-2.512c-7.161 0-12.988 5.807-12.988 12.944 0 7.137 5.827 12.944 12.988 12.944 6.779 0 12.354-5.205 12.93-11.816.096-.275.157-.565.157-.873V69.914a2.709 2.709 0 0 0-2.713-2.707z" fill="var(--svg-color)"/><path fill-rule="evenodd" clip-rule="evenodd" d="M88.883 83.237v12.706l41.064-12.706V69.07L88.883 83.237zM77.765 149.138c6.14 0 11.118-5.002 11.118-11.173 0-6.17-4.978-11.172-11.118-11.172-6.14 0-11.118 5.002-11.118 11.172 0 6.171 4.978 11.173 11.118 11.173zM118.53 132.379c6.141 0 11.118-5.002 11.118-11.172 0-6.17-4.977-11.172-11.118-11.172-6.14 0-11.117 5.002-11.117 11.172 0 6.17 4.977 11.172 11.117 11.172z" fill="var(--svg-color)"/><path fill-rule="evenodd" clip-rule="evenodd" d="M111.173 65.022l18.253 18.343a1.1 1.1 0 0 0 1.561 0l18.253-18.343c5.013-5.037 5.013-13.206 0-18.244a12.793 12.793 0 0 0-18.155 0c-.695.699-.878 1.005-.878 1.005s-.553-.677-.879-1.005a12.793 12.793 0 0 0-18.155 0c-5.013 5.038-5.013 13.207 0 18.244z" fill="var(--svg-color)"/><rect x="53" y="64" width="47" height="5.59" rx="2.795" fill="var(--svg-color)"/><rect x="54" y="81" width="20" height="5.59" rx="2.795" fill="var(--svg-color)"/><rect x="54" y="98" width="20" height="5.59" rx="2.795" fill="var(--svg-color)"/><rect x="54" y="115" width="20" height="5.59" rx="2.795" fill="var(--svg-color)"/><path fill-rule="evenodd" clip-rule="evenodd" d="M42.5 71.826c3.038 0 5.501-2.475 5.501-5.528 0-3.053-2.463-5.528-5.5-5.528-3.038 0-5.501 2.475-5.501 5.528 0 3.053 2.463 5.528 5.5 5.528zM42.5 88.584c3.038 0 5.501-2.475 5.501-5.528 0-3.052-2.463-5.527-5.5-5.527-3.038 0-5.501 2.475-5.501 5.527 0 3.053 2.463 5.528 5.5 5.528zM42.5 105.343c3.038 0 5.501-2.475 5.501-5.528 0-3.053-2.463-5.527-5.5-5.527-3.038 0-5.501 2.474-5.501 5.527s2.463 5.528 5.5 5.528zM42.5 122.101c3.038 0 5.501-2.474 5.501-5.527s-2.463-5.528-5.5-5.528c-3.038 0-5.501 2.475-5.501 5.528 0 3.053 2.463 5.527 5.5 5.527z" fill="var(--svg-color)"/></symbol><symbol fill="none" viewBox="0 0 96 109" id="moments--html" xmlns="http://www.w3.org/2000/svg"><path fill-rule="evenodd" clip-rule="evenodd" d="M8.734 98.103L0 0h96l-8.75 98.086L47.94 109 8.734 98.103zM60.97 71.08l1.39-15.574H20.698l-3.244-36.323h60.219l-1.076 12.011h-46l1.095 12.301h43.813l-3.3 36.877L47.6 87.192l-.023.008h-.03L22.92 80.372 21.236 61.51h12.07l.856 9.589 13.386 3.604.029-.008L60.97 71.08z" fill="var(--svg-color)"/></symbol><symbol fill="none" viewBox="0 0 194 194" id="moments--html-box" xmlns="http://www.w3.org/2000/svg"><path fill-rule="evenodd" clip-rule="evenodd" d="M57.734 141.103L49 43h96l-8.75 98.086L96.94 152l-39.206-10.897zm52.236-27.022l1.39-15.574H69.698l-3.243-36.323h60.218l-1.076 12.011h-46l1.096 12.301h43.812l-3.301 36.877-24.603 6.819-.025.008h-.028l-24.628-6.827-1.684-18.864h12.07l.856 9.589 13.386 3.604.028-.008 13.394-3.613z" fill="var(--svg-color)"/></symbol><symbol fill="none" viewBox="0 0 112 122" id="moments--ideation" xmlns="http://www.w3.org/2000/svg"><path fill-rule="evenodd" clip-rule="evenodd" d="M40.165 102.486v4.879c0 5.706 3.04 8.178 7.672 9.166.874 3.072 3.837 5.469 7.147 5.469 3.311 0 6.274-2.397 7.149-5.469 4.631-.988 7.672-3.46 7.672-9.166v-4.879h-29.64zM89.564 58.58c0-19.026-15.808-34.637-35.074-34.15-18.278.488-33.592 15.124-34.086 32.686-.494 11.709 4.94 22.441 13.832 28.783 3.952 2.927 5.928 7.318 5.928 11.709h29.64c0-4.391 1.976-8.782 5.434-11.709C84.13 80.045 89.564 69.8 89.564 58.58zM77.237 13.44l3.2-5.235c.727-1.273 2.327-1.698 3.636-.99 1.309.707 1.745 2.263 1.018 3.536l-3.2 5.235c-.436.848-1.454 1.273-2.327 1.273-.436 0-.873-.142-1.31-.283-1.308-.707-1.745-2.264-1.017-3.537zM30.109 15.986c.436.848 1.454 1.273 2.327 1.273.437 0 .873-.142 1.31-.283 1.308-.707 1.745-2.264 1.017-3.537l-3.2-5.234c-.727-1.273-2.327-1.698-3.636-.99-1.309.707-1.745 2.263-1.018 3.536l3.2 5.235zM56 11.176c1.455 0 2.618-1.132 2.618-2.547V2.546C58.618 1.132 57.455 0 56 0c-1.455 0-2.618 1.132-2.618 2.546V8.63c-.146 1.415 1.018 2.547 2.618 2.547zM8.873 51.776H2.618C1.164 51.776 0 52.908 0 54.322c0 1.415 1.164 2.547 2.618 2.547h6.255c1.454 0 2.618-1.132 2.618-2.547 0-1.414-1.164-2.546-2.618-2.546zM109.382 51.776h-6.255c-1.454 0-2.618 1.132-2.618 2.546 0 1.415 1.164 2.547 2.618 2.547h6.255c1.455 0 2.618-1.132 2.618-2.547 0-1.414-1.163-2.546-2.618-2.546zM104.582 27.161c-.728-1.273-2.328-1.697-3.637-.99l-5.382 3.112c-1.309.708-1.745 2.264-1.018 3.537.436.849 1.455 1.273 2.327 1.273.437 0 .873-.141 1.31-.283l5.381-3.112c1.309-.707 1.746-2.264 1.019-3.537zM16.436 29.283l-5.381-3.112c-1.31-.707-2.91-.283-3.637.99-.727 1.273-.29 2.83 1.018 3.537l5.382 3.112c.437.283.873.283 1.31.283.872 0 1.89-.424 2.327-1.273.727-1.273.29-2.83-1.019-3.537zM37.69 60.031h34.695H37.69z" fill="var(--svg-color)"/><path d="M37.69 60.031h34.695" stroke="#F28098" stroke-width="6.114" stroke-linecap="round"/><path fill-rule="evenodd" clip-rule="evenodd" d="M55.008 42.734v34.654-34.654z" fill="var(--svg-color)"/><path d="M55.008 42.734v34.654" stroke="#F28098" stroke-width="6.114" stroke-linecap="round"/></symbol><symbol fill="none" viewBox="0 0 25 25" id="moments--ideation-box" xmlns="http://www.w3.org/2000/svg"><path fill-rule="evenodd" clip-rule="evenodd" d="M10.459 17.846v.629c0 .735.392 1.054.989 1.181a.983.983 0 0 0 .92.705.982.982 0 0 0 .922-.705c.597-.127.989-.446.989-1.181v-.629h-3.82zM12.305 7.787a4.416 4.416 0 0 1 4.52 4.401c0 1.446-.7 2.766-1.847 3.52-.445.378-.7.944-.7 1.51h-3.82c0-.566-.254-1.132-.763-1.51-1.146-.817-1.846-2.2-1.783-3.709.064-2.263 2.037-4.149 4.393-4.212zm.07 1.963c.207 0 .375.168.375.375V12h1.875a.375.375 0 0 1 0 .75H12.75v1.875a.375.375 0 0 1-.75 0V12.75h-1.875a.375.375 0 0 1 0-.75H12v-1.875c0-.207.168-.375.375-.375zM15.237 6.371l.412-.674a.345.345 0 0 1 .469-.128.326.326 0 0 1 .13.456l-.412.674c-.056.11-.187.164-.3.164a.56.56 0 0 1-.168-.036.326.326 0 0 1-.131-.456zM9.163 6.7c.056.109.187.163.3.163a.56.56 0 0 0 .168-.036.326.326 0 0 0 .131-.456l-.412-.674a.345.345 0 0 0-.469-.128.326.326 0 0 0-.13.456l.412.674zM12.5 6.08a.331.331 0 0 0 .336-.329v-.784a.331.331 0 0 0-.337-.328.332.332 0 0 0-.337.328v.784c-.019.182.13.328.337.328zM6.427 11.311H5.62a.331.331 0 0 0-.338.328c0 .183.15.329.338.329h.806a.332.332 0 0 0 .337-.329.331.331 0 0 0-.337-.328zM19.378 11.311h-.806a.331.331 0 0 0-.338.328c0 .183.15.329.338.329h.806a.332.332 0 0 0 .337-.329.331.331 0 0 0-.337-.328zM18.76 8.14a.346.346 0 0 0-.468-.128l-.694.4a.326.326 0 0 0-.131.456c.056.11.188.165.3.165.056 0 .112-.019.169-.037l.693-.401a.326.326 0 0 0 .131-.456zM7.4 8.413l-.693-.401a.345.345 0 0 0-.468.127.326.326 0 0 0 .13.456l.694.401c.056.037.113.037.169.037.112 0 .244-.055.3-.165a.326.326 0 0 0-.131-.455z" fill="var(--svg-color)"/></symbol><symbol fill="none" viewBox="0 0 110 110" id="moments--lottery" xmlns="http://www.w3.org/2000/svg"><path fill-rule="evenodd" clip-rule="evenodd" d="M78.912 67.604H66.36a3.589 3.589 0 0 1-3.591-3.587 3.589 3.589 0 0 1 3.591-3.587h12.552a3.589 3.589 0 0 1 3.59 3.587 3.589 3.589 0 0 1-3.59 3.587zM46.045 47.313a3.589 3.589 0 0 1-3.59-3.587V31.188a3.589 3.589 0 0 1 3.59-3.587 3.589 3.589 0 0 1 3.591 3.587v12.538a3.589 3.589 0 0 1-3.59 3.587zM46.71 13.28a3.565 3.565 0 0 1-5.082.014c-1.375-1.373-1.375-3.692 0-5.065a3.57 3.57 0 0 1 5.055-.014 3.563 3.563 0 0 1 .028 5.064zm5.065-10.123c-4.19-4.21-11.037-4.21-15.227 0-4.19 4.185-4.19 11.024 0 15.21a10.71 10.71 0 0 0 7.613 3.156 10.71 10.71 0 0 0 7.614-3.156c4.214-4.185 4.214-11.025 0-15.21zM91.754 40.139a3.59 3.59 0 0 1 3.59 3.587 3.59 3.59 0 0 1-3.59 3.587 3.59 3.59 0 0 1-3.591-3.587 3.59 3.59 0 0 1 3.59-3.587zM66.36 14.773a3.59 3.59 0 0 1 3.59 3.587 3.59 3.59 0 0 1-3.59 3.587 3.59 3.59 0 0 1-3.592-3.587 3.59 3.59 0 0 1 3.591-3.587zM91.754 80.723a3.59 3.59 0 0 1 3.59 3.587 3.59 3.59 0 0 1-3.59 3.587 3.59 3.59 0 0 1-3.591-3.587 3.59 3.59 0 0 1 3.59-3.587zM25.732 14.773a3.59 3.59 0 0 1 3.59 3.587 3.59 3.59 0 0 1-3.59 3.587 3.59 3.59 0 0 1-3.591-3.587 3.59 3.59 0 0 1 3.59-3.587zM95.345 11.185a3.589 3.589 0 0 1-3.591-3.588V4.01A3.589 3.589 0 0 1 95.345.423a3.589 3.589 0 0 1 3.591 3.587v3.587a3.589 3.589 0 0 1-3.591 3.588zM95.345 29.12a3.589 3.589 0 0 1-3.591-3.587v-3.587a3.589 3.589 0 0 1 3.591-3.587 3.589 3.589 0 0 1 3.591 3.587v3.587a3.589 3.589 0 0 1-3.591 3.588zM88.163 18.359h-3.591a3.589 3.589 0 0 1-3.591-3.587 3.589 3.589 0 0 1 3.59-3.587h3.592a3.589 3.589 0 0 1 3.59 3.587 3.589 3.589 0 0 1-3.59 3.587zM106.119 18.359h-3.591a3.589 3.589 0 0 1-3.592-3.587 3.589 3.589 0 0 1 3.592-3.587h3.591a3.59 3.59 0 0 1 3.591 3.587 3.59 3.59 0 0 1-3.591 3.587zM101.775 65.891a3.562 3.562 0 0 1-5.083.016c-1.374-1.373-1.374-3.692 0-5.065a3.57 3.57 0 0 1 5.055-.014 3.561 3.561 0 0 1 .028 5.063zm5.065-10.12c-4.19-4.21-11.037-4.21-15.227 0-4.19 4.184-4.19 11.024 0 15.21a10.71 10.71 0 0 0 7.614 3.156c2.872 0 5.578-1.124 7.613-3.157 4.213-4.185 4.213-11.025 0-15.21zM57.691 55.973c-.919 0-1.838-.35-2.539-1.051a3.583 3.583 0 0 1 0-5.073L77.57 27.455a3.593 3.593 0 0 1 5.078 0 3.584 3.584 0 0 1 0 5.073L60.23 54.922a3.582 3.582 0 0 1-2.539 1.05z" fill="var(--svg-color)"/><path fill-rule="evenodd" clip-rule="evenodd" d="M55.152 54.922c.701.7 1.62 1.05 2.539 1.05.918 0 1.837-.35 2.539-1.05l22.418-22.394a3.584 3.584 0 0 0 0-5.073L55.152 54.922zM27.883 91.54v10.127L4.79 109.789c-1.42.5-2.81.069-3.725-.839-.921-.916-1.357-2.313-.854-3.738l8.14-23.04h10.163l4.675 4.675 4.693 4.693z" fill="var(--svg-color)"/><path fill-rule="evenodd" clip-rule="evenodd" d="M27.882 91.54v10.127l-23.091 8.122c-1.42.499-2.81.069-3.725-.84L23.19 86.847l4.692 4.692zM17.636 68.614L41.47 92.43h12.632l13.45-4.735a3.615 3.615 0 0 0 2.203-4.592l-42.83-42.76c-1.862-.667-3.925.309-4.573 2.177L17.636 55.87v12.744z" fill="var(--svg-color)"/><path fill-rule="evenodd" clip-rule="evenodd" d="M41.47 92.431h12.632l13.45-4.735a3.615 3.615 0 0 0 2.203-4.591l-21.414-21.38-18.803 18.783L41.47 92.43z" fill="var(--svg-color)"/><path fill-rule="evenodd" clip-rule="evenodd" d="M17.611 55.913L8.347 82.172l19.535 19.491.072-.024 26.191-9.231-36.534-36.495z" fill="var(--svg-color)"/><path fill-rule="evenodd" clip-rule="evenodd" d="M27.882 101.663l.072-.024 26.191-9.231-18.26-18.24-17.77 17.75 9.767 9.745zM71.44 92.97c-.92 0-1.838-.35-2.54-1.05L18.113 41.188a3.583 3.583 0 0 1 0-5.073 3.593 3.593 0 0 1 5.078 0l50.787 50.732a3.583 3.583 0 0 1 0 5.073c-.701.7-1.62 1.05-2.539 1.05z" fill="var(--svg-color)"/><path fill-rule="evenodd" clip-rule="evenodd" d="M68.9 91.92c.702.7 1.62 1.05 2.54 1.05.918 0 1.837-.35 2.538-1.05a3.583 3.583 0 0 0 0-5.073L48.585 61.481l-5.078 5.073L68.9 91.92z" fill="var(--svg-color)"/></symbol><symbol fill="none" viewBox="0 0 194 194" id="moments--lottery-box" xmlns="http://www.w3.org/2000/svg"><path fill-rule="evenodd" clip-rule="evenodd" d="M121.912 110.604H109.36a3.588 3.588 0 1 1 0-7.174h12.552a3.59 3.59 0 0 1 3.591 3.587 3.589 3.589 0 0 1-3.591 3.587zM89.045 90.313a3.589 3.589 0 0 1-3.59-3.587V74.188a3.589 3.589 0 0 1 3.59-3.587 3.589 3.589 0 0 1 3.591 3.587v12.538a3.589 3.589 0 0 1-3.59 3.587zM89.71 56.28a3.565 3.565 0 0 1-5.082.014c-1.375-1.373-1.375-3.692 0-5.065a3.57 3.57 0 0 1 5.055-.014 3.563 3.563 0 0 1 .027 5.064zm5.065-10.123c-4.19-4.21-11.037-4.21-15.227 0-4.19 4.185-4.19 11.024 0 15.21a10.71 10.71 0 0 0 7.613 3.156 10.71 10.71 0 0 0 7.614-3.156c4.214-4.185 4.214-11.025 0-15.21zM134.754 83.139a3.59 3.59 0 0 1 3.591 3.587 3.59 3.59 0 0 1-3.591 3.587 3.589 3.589 0 0 1-3.591-3.587 3.589 3.589 0 0 1 3.591-3.587zM109.359 57.773a3.589 3.589 0 0 1 3.591 3.587 3.589 3.589 0 0 1-3.591 3.587 3.59 3.59 0 0 1-3.591-3.587 3.59 3.59 0 0 1 3.591-3.587zM134.754 123.723a3.59 3.59 0 0 1 3.591 3.587 3.59 3.59 0 0 1-3.591 3.587 3.589 3.589 0 0 1-3.591-3.587 3.589 3.589 0 0 1 3.591-3.587zM68.732 57.773a3.59 3.59 0 0 1 3.59 3.587 3.59 3.59 0 0 1-3.59 3.587 3.59 3.59 0 0 1-3.591-3.587 3.59 3.59 0 0 1 3.59-3.587zM138.345 54.185a3.588 3.588 0 0 1-3.591-3.588V47.01a3.588 3.588 0 0 1 3.591-3.587 3.588 3.588 0 0 1 3.591 3.587v3.587a3.588 3.588 0 0 1-3.591 3.588zM138.345 72.12a3.588 3.588 0 0 1-3.591-3.587v-3.587a3.588 3.588 0 0 1 3.591-3.587 3.588 3.588 0 0 1 3.591 3.587v3.587a3.588 3.588 0 0 1-3.591 3.588zM131.163 61.359h-3.591a3.59 3.59 0 0 1-3.592-3.587 3.59 3.59 0 0 1 3.592-3.587h3.591a3.588 3.588 0 0 1 0 7.174zM149.119 61.359h-3.591a3.588 3.588 0 1 1 0-7.174h3.591a3.59 3.59 0 0 1 3.591 3.587 3.59 3.59 0 0 1-3.591 3.587zM144.775 108.891a3.561 3.561 0 0 1-5.082.016c-1.375-1.373-1.375-3.692 0-5.065a3.57 3.57 0 0 1 5.054-.014 3.56 3.56 0 0 1 .028 5.063zm5.065-10.12c-4.19-4.21-11.037-4.21-15.227 0-4.189 4.184-4.189 11.024 0 15.209a10.711 10.711 0 0 0 7.614 3.157 10.71 10.71 0 0 0 7.613-3.157c4.213-4.185 4.213-11.025 0-15.21zM100.691 98.973c-.919 0-1.838-.35-2.539-1.051a3.583 3.583 0 0 1 0-5.073l22.418-22.394a3.593 3.593 0 0 1 5.078 0 3.583 3.583 0 0 1 0 5.073L103.23 97.921a3.58 3.58 0 0 1-2.539 1.052z" fill="var(--svg-color)"/><path fill-rule="evenodd" clip-rule="evenodd" d="M98.152 97.922c.701.7 1.62 1.05 2.539 1.05.918 0 1.838-.35 2.539-1.05l22.418-22.394a3.583 3.583 0 0 0 0-5.073L98.152 97.922zM70.883 134.539v10.128l-23.091 8.122c-1.42.5-2.811.069-3.726-.839-.922-.916-1.357-2.313-.854-3.738l8.14-23.04h10.163l4.675 4.675 4.693 4.692z" fill="var(--svg-color)"/><path fill-rule="evenodd" clip-rule="evenodd" d="M70.882 134.539v10.128l-23.091 8.122c-1.42.499-2.81.069-3.725-.84l22.124-22.102 4.692 4.692zM60.636 111.613l23.834 23.818h12.632l13.451-4.735a3.616 3.616 0 0 0 2.202-4.592l-42.83-42.76c-1.862-.667-3.925.309-4.573 2.177L60.636 98.87v12.744-.001z" fill="var(--svg-color)"/><path fill-rule="evenodd" clip-rule="evenodd" d="M84.47 135.431h12.632l13.451-4.735a3.614 3.614 0 0 0 2.202-4.591l-21.414-21.38-18.803 18.783 11.932 11.923z" fill="var(--svg-color)"/><path fill-rule="evenodd" clip-rule="evenodd" d="M60.611 98.913l-9.264 26.259 19.535 19.491.072-.024 26.192-9.232L60.61 98.913z" fill="var(--svg-color)"/><path fill-rule="evenodd" clip-rule="evenodd" d="M70.882 144.663l.072-.024 26.191-9.231-18.26-18.241-17.77 17.751 9.767 9.745zM114.439 135.971a3.583 3.583 0 0 1-2.539-1.052L61.113 84.188a3.583 3.583 0 0 1 0-5.073 3.593 3.593 0 0 1 5.078 0l50.787 50.732a3.583 3.583 0 0 1 0 5.073 3.583 3.583 0 0 1-2.539 1.051z" fill="var(--svg-color)"/><path fill-rule="evenodd" clip-rule="evenodd" d="M111.9 134.92a3.587 3.587 0 0 0 2.539 1.051c.919 0 1.838-.351 2.539-1.051a3.583 3.583 0 0 0 0-5.073l-25.393-25.366-5.078 5.073L111.9 134.92z" fill="var(--svg-color)"/></symbol><symbol fill="none" viewBox="0 0 25 25" id="moments--merchandise-box" xmlns="http://www.w3.org/2000/svg"><path fill-rule="evenodd" clip-rule="evenodd" d="M12.576 5.466c-1.36 0-2.47 1.106-2.47 2.446v.826h4.94v-.826c0-1.34-1.11-2.446-2.47-2.446zm5.44 3.537L19 17.665c0 .016 0 .047-.016.047 0 .92-.75 1.667-1.672 1.667H7.823a1.672 1.672 0 0 1-1.673-1.667v-.047l.985-8.662a.304.304 0 0 1 .297-.25H9.12v-.825c0-1.886 1.564-3.428 3.455-3.428 1.892 0 3.455 1.542 3.455 3.428v.825h1.688c.156 0 .282.094.297.25zm-5.617 8.015l-2.514-2.53a1.787 1.787 0 0 1 0-2.516 1.76 1.76 0 0 1 2.622.139s.025-.043.12-.139a1.76 1.76 0 0 1 2.502 0c.69.695.69 1.822 0 2.516l-2.515 2.53a.151.151 0 0 1-.215 0z" fill="var(--svg-color)"/></symbol><symbol fill="none" viewBox="0 0 25 25" id="moments--notelet-box" xmlns="http://www.w3.org/2000/svg"><rect x="5.887" y="14.162" width="13.026" height=".609" rx=".304" fill="var(--svg-color)"/><rect x="6" y="5" width="13" height="15" rx=".73" stroke="var(--svg-color)" stroke-width=".609"/><path fill-rule="evenodd" clip-rule="evenodd" d="M9.675 8.738L5.83 14.585c-.023.035-.044.112-.063.112h10.016c-.015 0-.03-.054-.048-.078l-4.211-5.912c-.523-.733-1.355-.722-1.85.03" fill="var(--svg-color)"/><path fill-rule="evenodd" clip-rule="evenodd" d="M18.953 14.648v-.153l-1.95-2.794c-.27-.38-.682-.363-.938.026l-1.897 2.921h4.785zM16.144 7.982a1.027 1.027 0 1 1-2.054 0 1.027 1.027 0 0 1 2.054 0" fill="var(--svg-color)"/><rect x="7.35" y="16" width="7.67" height=".609" rx=".304" fill="var(--svg-color)"/><rect x="7.35" y="17.7" width="5.113" height=".609" rx=".304" fill="var(--svg-color)"/></symbol><symbol fill="none" viewBox="0 0 25 25" id="moments--picture-box" xmlns="http://www.w3.org/2000/svg"><rect x="6" y="5" width="13" height="15" rx=".73" stroke="var(--svg-color)" stroke-width=".609"/><path fill-rule="evenodd" clip-rule="evenodd" d="M9.675 13.738L5.83 19.585c-.023.035-.044.112-.063.112h10.016c-.015 0-.03-.054-.048-.078l-4.211-5.912c-.523-.733-1.355-.722-1.85.03" fill="var(--svg-color)"/><path fill-rule="evenodd" clip-rule="evenodd" d="M18.953 19.723v-.154l-1.95-2.794c-.27-.38-.682-.362-.938.027l-1.897 2.92h4.785zM16 9.5a1.5 1.5 0 1 1-3 0 1.5 1.5 0 0 1 3 0" fill="var(--svg-color)"/></symbol><symbol fill="none" viewBox="0 0 112 96" id="moments--pixel" xmlns="http://www.w3.org/2000/svg"><path d="M96 0H64v16H48V0H16v16h16v16H16V16H0v32h16v16h16v16h16v16h16V80h16V64h16V48h16V16H96V0z" fill="var(--svg-color)"/></symbol><symbol fill="none" viewBox="0 0 194 194" id="moments--pixel-box" xmlns="http://www.w3.org/2000/svg"><path d="M137 50h-32v16H89V50H57v16h16v16H57V66H41v32h16v16h16v16h16v16h16v-16h16v-16h16V98h16V66h-16V50z" fill="var(--svg-color)"/></symbol><symbol fill="none" viewBox="0 0 25 25" id="moments--telegram-box" xmlns="http://www.w3.org/2000/svg"><path d="M13.794 13.148l4.696 3.756c.195.156.153.284-.097.284H6.606c-.247 0-.292-.127-.096-.284l4.695-3.756a.195.195 0 0 1 .235-.002l.11.087c.525.416 1.375.416 1.9 0l.11-.087c.063-.05.17-.05.234.002zm4.593-5.338c.25 0 .291.127.097.28l-5.272 4.175c-.393.31-1.03.31-1.424 0L6.516 8.09c-.196-.155-.15-.28.097-.28h11.774zm-3.743 4.855c-.13-.104-.133-.272 0-.377l4.608-3.648c.197-.156.357-.078.357.168v7.378c0 .25-.158.325-.353.169l-4.612-3.69zM5.391 8.808c0-.249.161-.323.357-.168l4.608 3.648c.13.104.133.27 0 .377l-4.612 3.69c-.195.156-.353.078-.353-.169V8.808z" fill="var(--svg-color)"/></symbol><symbol fill="none" viewBox="0 0 88 110" id="moments--video" xmlns="http://www.w3.org/2000/svg"><path fill-rule="evenodd" clip-rule="evenodd" d="M0 100.801V9.163C0 3.971 3.979 0 9.18 0c1.837 0 3.673.61 5.203 1.527l69.469 45.819A8.987 8.987 0 0 1 86.3 60.175a9.306 9.306 0 0 1-2.448 2.443l-69.469 45.819c-4.284 2.749-9.793 1.833-12.853-2.444-.918-1.527-1.53-3.36-1.53-5.192z" fill="var(--svg-color)"/></symbol><symbol fill="none" viewBox="0 0 25 25" id="moments--video-box" xmlns="http://www.w3.org/2000/svg"><path fill-rule="evenodd" clip-rule="evenodd" d="M7.9 18.897V6.172A1.25 1.25 0 0 1 9.173 4.9c.254 0 .509.085.72.212l9.63 6.362a1.25 1.25 0 0 1 .339 1.782 1.294 1.294 0 0 1-.34.34l-9.628 6.361a1.293 1.293 0 0 1-1.782-.339 1.43 1.43 0 0 1-.212-.72" fill="var(--svg-color)"/></symbol><symbol fill="none" viewBox="0 0 114 106" id="moments--voting" xmlns="http://www.w3.org/2000/svg"><rect x="7.476" width="22.426" height="22.316" rx="3.548" fill="var(--svg-color)"/><rect x="7.476" y="83.684" width="22.426" height="22.316" rx="3.548" fill="var(--svg-color)"/><path fill-rule="evenodd" clip-rule="evenodd" d="M5.322 33.474A5.322 5.322 0 0 0 0 38.796v28.056a5.322 5.322 0 0 0 5.322 5.322h28.127a5.322 5.322 0 0 0 5.321-5.322V38.795a5.322 5.322 0 0 0-5.321-5.321H5.322zm21.743 8.6a2.541 2.541 0 0 1 1.873-1.146 2.502 2.502 0 0 1 1.771.477c1.144.845 1.404 2.481.581 3.655L19.811 62.078l-.003.005a2.51 2.51 0 0 1-3.544.69L8.61 57.538c-1.178-.813-1.49-2.452-.697-3.661.792-1.209 2.39-1.53 3.567-.716l5.54 3.805 10.044-14.891z" fill="var(--svg-color)"/><rect x="44.852" y="5.579" width="59.803" height="3.719" rx="1.86" fill="var(--svg-color)"/><rect x="44.852" y="87.403" width="59.803" height="3.719" rx="1.86" fill="var(--svg-color)"/><rect x="54.197" y="44.632" width="59.803" height="5.579" rx="2.789" fill="var(--svg-color)"/><rect x="44.852" y="14.877" width="33.639" height="3.719" rx="1.86" fill="var(--svg-color)"/><rect x="44.852" y="96.702" width="33.639" height="3.719" rx="1.86" fill="var(--svg-color)"/><rect x="54.197" y="55.79" width="33.639" height="5.579" rx="2.789" fill="var(--svg-color)"/></symbol><symbol fill="none" viewBox="0 0 194 194" id="moments--voting-box" xmlns="http://www.w3.org/2000/svg"><rect x="47.476" y="44" width="22.426" height="22.316" rx="3.548" fill="var(--svg-color)"/><rect x="47.476" y="127.684" width="22.426" height="22.316" rx="3.548" fill="var(--svg-color)"/><path fill-rule="evenodd" clip-rule="evenodd" d="M45.322 77.474A5.322 5.322 0 0 0 40 82.796v28.056a5.322 5.322 0 0 0 5.322 5.322h28.127a5.322 5.322 0 0 0 5.321-5.322V82.796a5.322 5.322 0 0 0-5.321-5.322H45.322zm21.743 8.6a2.541 2.541 0 0 1 1.874-1.146 2.502 2.502 0 0 1 1.77.477c1.144.845 1.404 2.481.581 3.655l-11.479 17.018-.003.005c-.793 1.195-2.38 1.505-3.544.691l-7.653-5.237c-1.177-.813-1.49-2.452-.697-3.661.792-1.209 2.39-1.53 3.567-.716l5.54 3.805 10.044-14.891z" fill="var(--svg-color)"/><rect x="84.853" y="49.579" width="59.803" height="3.719" rx="1.86" fill="var(--svg-color)"/><rect x="84.853" y="131.403" width="59.803" height="3.719" rx="1.86" fill="var(--svg-color)"/><rect x="94.197" y="88.632" width="59.803" height="5.579" rx="2.789" fill="var(--svg-color)"/><rect x="84.853" y="58.877" width="33.639" height="3.719" rx="1.86" fill="var(--svg-color)"/><rect x="84.853" y="140.702" width="33.639" height="3.719" rx="1.86" fill="var(--svg-color)"/><rect x="94.197" y="99.79" width="33.639" height="5.579" rx="2.789" fill="var(--svg-color)"/></symbol><symbol fill="none" viewBox="0 0 84 73" id="moments--welcome" xmlns="http://www.w3.org/2000/svg"><path fill-rule="evenodd" clip-rule="evenodd" d="M9.25 59.545C3.483 53.297 0 45.368 0 36.718 0 16.656 18.62.317 41.563.317s41.562 16.339 41.562 36.401C83.125 56.781 64.386 73 41.563 73c-8.289 0-16.097-2.162-22.584-5.887-5.886 3.484-12.132 3.364-15.856 2.883-1.08-.12-1.321-1.441-.48-2.042 3.603-2.282 5.525-5.526 6.606-8.41zm30.69-26.62H26.34V20H19v34h7.341V38.863H39.94V54h7.34V20h-7.34v12.925zM53.66 20H61v34h-7.34V20z" fill="var(--svg-color)"/></symbol><symbol fill="none" viewBox="0 0 194 194" id="moments--welcome-box" xmlns="http://www.w3.org/2000/svg"><path fill-rule="evenodd" clip-rule="evenodd" d="M79.563 69.229c-1.322 0-2.643.12-4.085.12C80.644 54.692 96.14 44 114.278 44 136.741 44 155 60.218 155 80.161c0 7.569-2.643 15.017-7.688 21.024.961 1.682 2.162 3.004 3.724 4.085 1.562 1.081 2.402 3.003 1.922 4.806-.36 1.802-1.922 3.243-3.844 3.483-1.321.241-2.643.241-3.964.241-3.964 0-7.568-.841-10.691-2.283-2.042 1.081-4.204 1.922-6.487 2.643v-1.441c0-2.043-.12-3.965-.48-5.887 1.802-.721 3.483-1.442 5.165-2.403l1.802-.961 1.802 1.081c1.802 1.081 3.844 1.802 6.126 2.163a17.67 17.67 0 0 1-2.522-4.686l-.721-2.042 1.441-1.562c4.805-5.166 7.328-11.413 7.328-18.14 0-15.979-15.136-29.074-33.635-29.074-14.174 0-26.307 7.569-31.232 18.261-1.08-.24-2.282-.24-3.483-.24z" fill="var(--svg-color)"/><path fill-rule="evenodd" clip-rule="evenodd" d="M47.25 135.545c-5.766-6.248-9.25-14.177-9.25-22.827 0-20.062 18.62-36.401 41.563-36.401s41.562 16.339 41.562 36.401c0 20.063-18.739 36.282-41.562 36.282-8.289 0-16.097-2.163-22.584-5.887-5.886 3.484-12.132 3.364-15.856 2.884-1.08-.121-1.321-1.442-.48-2.043 3.603-2.282 5.525-5.526 6.606-8.409zm30.69-26.62H64.34V96H57v34h7.341v-15.137H77.94V130h7.34V96h-7.34v12.925zM91.66 96H99v34h-7.34V96z" fill="var(--svg-color)"/></symbol><symbol fill="none" viewBox="0 0 13 14" id="open" xmlns="http://www.w3.org/2000/svg"><path d="M8.933 7.063v5.504a.628.628 0 0 1-.628.628H.769a.628.628 0 0 1-.628-.628v-7.54c0-.346.28-.628.628-.628H6.27L5.014 5.656H1.397v6.282h6.28V8.32l1.256-1.257zm-3.95 2.18l6.462-6.47v3.511a.628.628 0 1 0 1.256 0V1.258a.628.628 0 0 0-.628-.628H7.049a.628.628 0 0 0 0 1.256h3.51L4.091 8.351a.631.631 0 0 0 .892.892z" fill="var(--svg-color)"/></symbol><symbol fill="none" viewBox="0 0 11 11" id="plus-icon" xmlns="http://www.w3.org/2000/svg"><path d="M5.5 10V1M1 5.5h9" stroke="var(--svg-color)" stroke-width="1.503" stroke-linecap="round"/></symbol><symbol viewBox="0 0 128 128" id="preloaders--circular-preloader" xmlns="http://www.w3.org/2000/svg"><style>.cacircle-preloader-0{fill:#fff}</style><g><path class="cacircle-preloader-0 cafill-primary" d="M75.4 126.63a11.43 11.43 0 0 1-2.1-22.65 40.9 40.9 0 0 0 30.5-30.6 11.4 11.4 0 1 1 22.27 4.87h.02a63.77 63.77 0 0 1-47.8 48.05v-.02a11.38 11.38 0 0 1-2.93.37z"/><animateTransform attributeName="transform" type="rotate" from="0 64 64" to="360 64 64" dur="800ms" repeatCount="indefinite"/></g></symbol><symbol fill="none" viewBox="0 0 11 11" id="right-chevron-icon" xmlns="http://www.w3.org/2000/svg"><path d="M3.5 10L8 5.5 3.5 1" stroke="var(--svg-color)" stroke-width="1.5" stroke-linecap="round" stroke-linejoin="round"/></symbol><symbol viewBox="0 0 19 19" id="search-icon" xmlns="http://www.w3.org/2000/svg"><path d="M7.5 13a5.5 5.5 0 1 0 0-11 5.5 5.5 0 0 0 0 11zm11.207 4.293a1 1 0 0 1-1.414 1.414L12.4 13.816a.625.625 0 0 0-.76-.07s-.134.104-.425.27a7.5 7.5 0 1 1 2.787-2.777 3.673 3.673 0 0 1-.253.397.62.62 0 0 0 .066.765l4.891 4.892z" fill="var(--svg-color)"/></symbol><symbol fill="none" viewBox="0 0 15 15" id="settings" xmlns="http://www.w3.org/2000/svg"><path fill-rule="evenodd" clip-rule="evenodd" d="M7.562 5.834c-.994.009-1.793.804-1.787 1.779.006.974.815 1.76 1.809 1.757.994-.003 1.798-.794 1.798-1.768-.005-.98-.82-1.771-1.82-1.768zm.002 4.533c-1.555-.01-2.81-1.25-2.803-2.775.006-1.525 1.27-2.756 2.825-2.753 1.555.003 2.814 1.24 2.814 2.764-.006 1.53-1.275 2.766-2.836 2.764zM2.918 3.482v.14-.14zm9.295 8.227v.14-.14zm-5.825 1.868h2.351l.27-1.842.27-.108a4.6 4.6 0 0 0 1.016-.572l.227-.167 1.778.693 1.175-1.98-1.505-1.145.036-.281c.056-.38.056-.766 0-1.145l-.036-.282 1.505-1.145-1.184-1.986-1.778.695-.228-.172a4.352 4.352 0 0 0-1.008-.57L9.01 3.47l-.27-1.843H6.388l-.272 1.843-.27.107c-.361.147-.703.34-1.015.572l-.224.167-1.773-.697-1.175 1.98 1.505 1.145-.035.281c-.027.19-.041.381-.043.573.002.192.016.383.043.573l.035.281L1.66 9.597l1.175 1.99 1.778-.696.229.172c.308.233.647.425 1.007.57l.27.106.27 1.84zm2.505.996h-2.66a.828.828 0 0 1-.83-.707l-.21-1.434c-.254-.12-.499-.258-.731-.415l-1.413.552a.854.854 0 0 1-1.023-.374L.703 9.968A.813.813 0 0 1 .91 8.91l1.181-.9a4.785 4.785 0 0 1-.019-.41c0-.128 0-.264.02-.411L.91 6.292a.809.809 0 0 1-.208-1.056l1.329-2.24a.843.843 0 0 1 1.029-.357l1.397.548c.232-.156.476-.294.73-.414l.215-1.445a.826.826 0 0 1 .83-.698h2.66a.828.828 0 0 1 .828.707l.214 1.434c.254.12.499.258.731.415l1.411-.552a.853.853 0 0 1 1.024.374l1.32 2.228a.813.813 0 0 1-.206 1.058l-1.181.898a4.524 4.524 0 0 1 0 .825l1.178.897c.325.25.415.694.214 1.047l-1.331 2.248a.843.843 0 0 1-1.03.356l-1.396-.548a5.603 5.603 0 0 1-.73.414l-.218 1.445a.826.826 0 0 1-.828.698z" fill="var(--svg-color)"/><path d="M5.775 7.613l-.21.001.21-.001zM7.584 9.37v-.21.21zm1.798-1.768h.21v-.001l-.21.001zM7.586 4.839v-.21.21zM10.4 7.603h.21-.21zm-4.012 5.975l-.207.03.026.18h.181v-.21zm2.351 0v.21h.18l.027-.18-.207-.03zm.27-1.842l-.077-.195-.112.044-.018.12.207.03zm.27-.108l.077.195h.002l-.08-.195zm1.016-.572l-.124-.17-.001.002.125.168zm.227-.167l.076-.195-.107-.042-.093.068.124.169zm1.778.693l-.076.195.166.065.09-.153-.18-.107zm1.175-1.98l.18.108.096-.16-.149-.114-.127.167zM11.97 8.458l-.208-.026-.015.12.096.073.127-.167zm.036-.281l-.207-.031-.001.005.208.026zm0-1.145l-.208.026v.005l.208-.031zm-.036-.282l-.127-.166-.096.073.015.12.208-.027zm1.505-1.145l.127.166.149-.113-.096-.16-.18.107zm-1.184-1.986l.18-.107-.09-.153-.166.065.076.195zm-1.778.695l-.126.167.094.07.108-.042-.076-.195zm-.228-.172l-.127.167.127-.167zm-1.008-.57l.078-.193-.002-.001-.075.195zM9.01 3.47l-.207.03.018.12.114.045.075-.195zm-.27-1.843l.207-.03-.026-.18h-.181v.21zm-2.351 0v-.21h-.18l-.027.18.207.03zm-.272 1.843l.078.194.112-.044.017-.12-.207-.03zm-.27.107L5.77 3.38h-.002l.079.195zm-1.015.572l-.125-.168.125.168zm-.224.167l-.076.195.108.043.093-.07-.125-.168zm-1.773-.697l.077-.195-.166-.065-.09.153.18.107zM1.66 5.598l-.18-.107-.095.16.148.113.127-.166zm1.505 1.145l.208.026.015-.12-.096-.073-.127.167zm-.035.281l.207.03V7.05l-.207-.027zm-.043.573l-.21-.002v.004l.21-.002zm.043.573l.208-.027v-.002l-.208.029zm.035.281l.127.167.096-.073-.015-.12-.208.026zM1.66 9.597l-.127-.167-.148.113.095.16.18-.106zm1.175 1.99l-.18.106.09.153.166-.065-.076-.195zm1.778-.696l.126-.167-.093-.07-.109.042.076.195zm.229.172l.126-.167-.126.167zm1.007.57l-.078.194.078-.195zm.27.106l.207-.03-.018-.12-.112-.044-.078.194zm.115 2.835v-.21.21zm-.83-.707l.207-.029v-.001l-.207.03zm-.21-1.434l.207-.03-.016-.112-.102-.048-.089.19zm-.731-.415l.117-.174-.091-.06-.102.04.076.194zm-1.413.552l.07.197.006-.002-.076-.195zm-1.023-.374l.181-.104-.001-.003-.18.107zM.703 9.968l-.18.106.18-.106zM.91 8.91l-.127-.167-.001.001.128.166zm1.181-.9l.127.167.092-.07-.01-.114-.209.018zm0-.821l.208.027.016-.12-.097-.074-.127.167zM.912 6.292l-.128.166.128-.166zM.703 5.236l-.18-.106.18.106zm1.329-2.24l.18.106v-.001l-.18-.106zm1.029-.357l.076-.195h-.001l-.075.195zm1.397.548l-.077.195.103.04.09-.061-.116-.174zm.73-.414l.09.189.1-.048.017-.11-.207-.031zm.215-1.445l.207.031-.207-.03zm.83-.698l-.002.21h.003V.63zm2.66 0v.21-.21zm.828.707l-.207.029v.002l.207-.03zm.214 1.434l-.207.031.016.111.102.048.089-.19zm.731.415l-.117.174.091.06.102-.039-.076-.195zm1.411-.552l-.07-.197-.006.002.076.195zm1.024.374l-.182.104.002.003.18-.107zm1.32 2.228l.18-.106-.18.106zm-.206 1.058l.127.166.002-.001-.129-.165zm-1.181.898l-.127-.166-.092.07.01.116.209-.02zm0 .825l-.209-.02-.01.116.092.07.127-.166zm1.178.897l.128-.166-.128.166zm.214 1.047l.18.107.002-.003-.182-.104zm-1.331 2.248l-.18-.107-.001.001.18.106zm-1.03.356l-.075.195.076-.195zm-1.396-.548l.076-.195-.102-.04-.091.061.117.174zm-.73.414l-.09-.189-.101.048-.017.11.207.031zm-.218 1.445l-.207-.031.207.03zm-2.16-8.251c-1.106.01-2.002.895-1.995 1.989l.418-.003c-.005-.855.697-1.56 1.58-1.568l-.004-.418zM5.565 7.614c.006 1.094.913 1.969 2.019 1.965l-.002-.419c-.882.003-1.593-.694-1.599-1.549l-.418.003zm2.019 1.965c1.105-.003 2.006-.883 2.007-1.977h-.42c0 .855-.706 1.556-1.589 1.558l.002.42zM9.59 7.601c-.006-1.1-.918-1.98-2.03-1.976l.002.418c.888-.003 1.605.7 1.61 1.56l.418-.002zm-2.026 2.556c-1.443-.008-2.6-1.16-2.595-2.564l-.419-.002c-.006 1.644 1.345 2.975 3.012 2.985l.002-.419zM4.97 7.593c.006-1.405 1.172-2.548 2.615-2.545l.001-.419C5.92 4.626 4.558 5.947 4.551 7.591l.42.002zm2.615-2.545c1.444.003 2.606 1.15 2.606 2.555h.418c0-1.644-1.356-2.97-3.023-2.974v.419zm2.606 2.554c-.006 1.41-1.177 2.558-2.627 2.555v.419c1.672.003 3.039-1.323 3.046-2.973l-.42-.001zM2.709 3.483v.14h.418v-.14H2.71zm.418.14v-.14H2.71v.14h.418zm8.876 8.087v.14h.42v-.14h-.42zm.42.14v-.14h-.42v.14h.42zm-6.035 1.938h2.351v-.42H6.388v.42zm2.558-.18l.27-1.842-.414-.06-.27 1.842.414.06zm.14-1.678l.27-.107-.155-.39-.269.108.155.389zm.272-.108a4.8 4.8 0 0 0 1.062-.598l-.25-.336a4.39 4.39 0 0 1-.97.546l.158.388zm1.06-.597l.228-.167-.248-.338-.227.167.248.338zm.028-.141l1.778.693.152-.39-1.778-.693-.152.39zm2.034.605l1.175-1.98-.36-.213-1.175 1.98.36.213zm1.122-2.253l-1.505-1.145-.254.333 1.505 1.145.254-.333zm-1.424-.952l.035-.282-.415-.052-.036.281.416.053zm.035-.277c.06-.4.06-.807 0-1.207l-.414.062c.053.359.053.724 0 1.083l.414.062zm0-1.203l-.035-.281-.416.052.036.282.415-.053zm-.116-.088l1.505-1.146-.254-.333-1.505 1.146.254.333zm1.558-1.42l-1.184-1.985-.36.214 1.184 1.986.36-.214zm-1.44-2.073l-1.778.695.152.39 1.779-.695-.153-.39zm-1.576.722l-.228-.171-.252.334.228.172.252-.335zm-.228-.171a4.562 4.562 0 0 0-1.056-.596l-.155.388c.343.138.665.32.958.542l.253-.334zm-1.058-.597l-.268-.104-.15.39.267.104.15-.39zm-.136.061l-.27-1.842-.415.06.27 1.843.415-.06zm-.478-2.021H6.388v.418h2.351v-.418zm-2.558.178l-.272 1.843.414.061.272-1.843-.414-.06zm-.142 1.679l-.27.107.155.39.27-.108-.155-.389zm-.271.108a4.813 4.813 0 0 0-1.062.598l.25.336c.298-.222.624-.406.97-.546l-.158-.388zm-1.062.599l-.224.166.25.336.224-.167-.25-.335zm-.022.14L2.91 3.422l-.153.39 1.773.697.153-.39zm-2.03-.61L1.48 5.491l.36.213 1.175-1.98-.36-.213zM1.532 5.764L3.038 6.91l.253-.334-1.505-1.145-.254.333zm1.425.953l-.036.281.416.053.035-.282-.415-.052zm-.036.278a4.683 4.683 0 0 0-.045.6l.419.004c.002-.182.016-.365.041-.546l-.415-.058zm-.045.604c.002.2.018.401.045.6l.415-.058a4.264 4.264 0 0 1-.041-.546l-.419.004zm.045.597l.036.281.415-.052-.035-.282-.416.053zm.117.088L1.532 9.43l.254.333 1.505-1.145-.253-.334zM1.479 9.704l1.175 1.99.36-.213L1.84 9.49l-.361.213zm1.431 2.078l1.779-.695-.153-.39-1.778.695.152.39zm1.577-.722l.228.171.252-.334-.229-.172-.251.335zm.228.171a4.56 4.56 0 0 0 1.055.596l.156-.388a4.142 4.142 0 0 1-.959-.542l-.252.334zm1.056.597l.269.107.155-.39-.27-.106-.154.389zm.14-.057l.27 1.839.414-.061-.27-1.84-.415.062zm2.982 2.595h-2.66v.418h2.66v-.418zm-2.66 0a.619.619 0 0 1-.623-.527l-.415.058c.071.514.519.89 1.04.887l-.003-.418zm-.623-.528l-.21-1.435-.414.061.21 1.434.414-.06zm-.328-1.594a5.229 5.229 0 0 1-.703-.399l-.234.348c.241.162.495.306.76.43l.177-.379zm-.896-.42l-1.413.552.152.39 1.413-.552-.152-.39zm-1.406.55a.644.644 0 0 1-.773-.281l-.363.208c.254.442.793.637 1.275.467l-.14-.395zm-.774-.284L.883 9.861l-.36.213 1.322 2.229.36-.214zM.884 9.861a.604.604 0 0 1 .154-.785l-.257-.33c-.409.317-.52.882-.258 1.328l.36-.213zm.152-.784l1.181-.899-.253-.333-1.182.899.254.333zm1.263-1.083a4.573 4.573 0 0 1-.018-.393h-.42c0 .135.008.275.02.429l.418-.036zM2.281 7.6c0-.13 0-.253.017-.384l-.415-.054c-.021.162-.021.31-.021.438h.419zm-.064-.578L1.04 6.126l-.254.333 1.179.897.253-.333zM1.04 6.126a.6.6 0 0 1-.155-.783l-.36-.213a1.018 1.018 0 0 0 .26 1.328l.255-.332zm-.156-.783l1.329-2.24-.36-.214-1.329 2.24.36.214zm1.33-2.242a.633.633 0 0 1 .773-.266l.15-.391a1.052 1.052 0 0 0-1.285.446l.362.21zm.771-.267l1.397.548.153-.39-1.397-.548-.153.39zm1.59.527c.224-.15.46-.284.704-.4l-.18-.378a5.816 5.816 0 0 0-.757.43l.234.348zm.821-.558L5.61 1.36l-.414-.061-.215 1.444.414.061zM5.61 1.36a.616.616 0 0 1 .621-.52l.005-.418a1.035 1.035 0 0 0-1.04.877l.414.06zm.623-.52h2.66V.421h-2.66v.418zm2.66 0c.317 0 .58.228.62.527l.416-.058A1.037 1.037 0 0 0 8.893.421v.418zm.621.529l.214 1.434.414-.061-.214-1.435-.414.062zm.332 1.593c.245.115.48.248.703.399l.234-.348a5.634 5.634 0 0 0-.76-.43l-.177.379zm.896.42l1.412-.552L12 2.44l-1.411.552.152.39zm1.405-.55a.643.643 0 0 1 .772.28l.364-.207a1.062 1.062 0 0 0-1.276-.467l.14.395zm.774.284l1.32 2.228.36-.213L13.28 2.9l-.36.214zm1.32 2.228a.604.604 0 0 1-.155.785l.258.33c.408-.317.519-.882.257-1.328l-.36.213zm-.153.784l-1.181.899.254.333 1.18-.899-.253-.333zm-1.263 1.085c.011.118.018.253.018.393h.42c0-.154-.009-.302-.02-.432l-.418.039zm.018.393c0 .14-.007.271-.018.393l.417.037c.012-.132.02-.276.02-.43h-.419zm.064.578l1.179.898.253-.333-1.178-.898-.254.333zm1.178.897a.602.602 0 0 1 .159.778l.364.207a1.02 1.02 0 0 0-.268-1.317l-.255.332zm.16.775l-1.33 2.247.36.213 1.331-2.247-.36-.213zm-1.331 2.248a.633.633 0 0 1-.773.266l-.15.391a1.052 1.052 0 0 0 1.285-.446l-.362-.21zm-.772.267l-1.397-.548-.153.39 1.397.548.153-.39zm-1.59-.527c-.224.15-.459.284-.703.4l.179.378c.263-.125.516-.268.758-.43l-.234-.348zm-.82.557l-.218 1.444.414.063.217-1.444-.414-.063zm-.218 1.445a.616.616 0 0 1-.62.52l-.002.418c.516.004.962-.367 1.036-.877l-.414-.06z" fill="var(--svg-color)"/></symbol><symbol fill="none" viewBox="0 0 11 11" id="up-chevron-icon" xmlns="http://www.w3.org/2000/svg"><path d="M10 8.5L5.5 4 1 8.5" stroke="var(--svg-color)" stroke-width="1.5" stroke-linecap="round" stroke-linejoin="round"/></symbol><symbol fill="none" viewBox="0 0 50 42" id="upload-icon" xmlns="http://www.w3.org/2000/svg"><path d="M44.134 32.596a.631.631 0 0 1-.915 0l-2.09-2.09v6.531a.654.654 0 0 1-.652.653.654.654 0 0 1-.653-.653v-6.53l-2.09 2.09a.706.706 0 0 1-.457.195.593.593 0 0 1-.457-.196.631.631 0 0 1 0-.914l3.2-3.2c.065-.065.13-.13.196-.13.13-.065.326-.065.522 0 .065 0 .13.065.196.13l3.2 3.2a.631.631 0 0 1 0 .915zM12.005 13.332a4.166 4.166 0 0 1-4.18-4.179c0-2.286 1.829-4.114 4.18-4.114a4.097 4.097 0 0 1 4.114 4.114c0 2.35-1.829 4.18-4.114 4.18zm0-6.987c-1.568 0-2.874 1.306-2.874 2.808 0 1.502 1.306 2.873 2.873 2.873 1.568 0 2.809-1.306 2.809-2.873a2.787 2.787 0 0 0-2.809-2.808z" fill="var(--svg-color)"/><path d="M41.13 24.042V2.23c0-1.045-.85-1.959-1.96-1.959H2.34C1.23.272.38 1.186.38 2.231v29.451c0 1.045.85 1.96 1.96 1.96h29.19C31.856 38.277 35.775 42 40.476 42c4.963 0 9.012-4.049 9.012-9.012-.065-4.701-3.722-8.62-8.359-8.946zM1.686 2.23c0-.326.261-.653.653-.653h36.83c.392 0 .653.327.653.653v19.133l-9.534-8.358c-.261-.196-.653-.196-.849 0l-11.493 10.71-5.29-5.225c-.195-.196-.587-.261-.848-.065l-10.122 7.38V2.23zm.653 30.104a.654.654 0 0 1-.653-.653v-4.31l10.448-7.575 5.355 5.29a.631.631 0 0 0 .914 0l11.493-10.71 9.926 8.685v.98a8.972 8.972 0 0 0-8.293 8.293H2.34zm38.136 8.359c-4.244 0-7.64-3.461-7.64-7.706 0-4.244 3.461-7.705 7.64-7.705 4.245 0 7.706 3.46 7.706 7.705-.065 4.245-3.461 7.706-7.706 7.706z" fill="var(--svg-color)"/></symbol></svg>