
<svg width="23px" height="16px" viewBox="0 0 23 16" version="1.1" xmlns="http://www.w3.org/2000/svg" xmlns:xlink="http://www.w3.org/1999/xlink">
    <defs></defs>
    <g id="Invite-Member-Mail" stroke="none" stroke-width="1" fill="none" fill-rule="evenodd">
        <g id="Add-Members---Default-Copy-11" transform="translate(-586.000000, -700.000000)" fill="var(--svg-color)">
            <g id="Invite-people-Modul" transform="translate(472.000000, 129.000000)">
                <g id="Mail-Input-Field" transform="translate(97.000000, 554.000000)">
                    <path d="M25.2912959,25.9310418 L27.3020738,27.8448318 C27.9719862,28.480774 29.0280138,28.480774 29.6979262,27.8448318 L31.7087041,25.9310418 L38.0662045,31.8965709 L18.9337955,31.8965709 L25.2912959,25.9310418 Z M38.9047495,19.1034455 L38.9047495,31.17242 L32.5044486,25.17242 L38.9047495,19.1034455 Z M18.0952505,19.1034455 L24.4955514,25.17242 L18.0952505,31.17242 L18.0952505,19.1034455 Z M18.6428757,18.1034618 L38.3571243,18.1034618 L28.9449496,27.0431214 C28.7342644,27.2430984 28.2657356,27.2430984 28.0550504,27.0431214 L18.6428757,18.1034618 Z M18.0952505,17 C17.4979624,17 17,17.5016957 17,18.1034618 L17,31.8965709 C17,32.4983371 17.4979624,33 18.0952505,33 L38.9047495,33 C39.5020376,33 40,32.4983371 40,31.8965709 L40,18.1034618 C40,17.5016957 39.5020376,17 38.9047495,17 L18.0952505,17 Z" id="Fill-1"></path>
                </g>
            </g>
        </g>
    </g>
</svg>