<svg width="13" height="13" viewBox="0 0 13 13" fill="none" xmlns="http://www.w3.org/2000/svg">
<path d="M9.09658 6.656V12.35C9.09658 12.709 8.80569 13 8.44681 13H0.649733C0.290894 13 0 12.709 0 12.35V4.55C0 4.191 0.290894 3.89999 0.649768 3.89999H6.34163L5.04213 5.19998H1.2995V11.7H7.79708V7.95599L9.09658 6.656ZM5.00962 8.91148L11.6956 2.21648V5.84999C11.6956 6.20896 11.9865 6.5 12.3454 6.5C12.7043 6.5 12.9952 6.209 12.9952 5.84999V0.65001C12.9951 0.291002 12.7042 0 12.3454 0H7.14731C6.78847 0 6.49754 0.291002 6.49754 0.65001C6.49754 1.00902 6.78843 1.30002 7.14731 1.30002H10.7795L4.08696 7.98851C3.83216 8.2434 3.83216 8.65663 4.08696 8.91152C4.34175 9.16638 4.75483 9.16638 5.00962 8.91148Z" fill="var(--svg-color)"/>
</svg>
