<svg width="20" height="20" viewBox="0 0 20 20" fill="none" xmlns="http://www.w3.org/2000/svg">
<path d="M4.73181 18.503H13.6814C15.4714 18.503 16.9132 17.0592 16.9132 15.2667V9.78992C16.9132 9.36671 16.5901 9.04308 16.1674 9.04308C15.7448 9.04308 15.4216 9.36671 15.4216 9.78992V15.2667C15.4216 16.2376 14.651 17.0094 13.6814 17.0094H4.73181C3.76226 17.0094 2.9916 16.2376 2.9916 15.2667V6.30466C2.9916 5.33377 3.76226 4.56204 4.73181 4.56204H10.201C10.6236 4.56204 10.9468 4.23841 10.9468 3.8152C10.9468 3.39199 10.6236 3.06836 10.201 3.06836H4.73181C2.94188 3.06836 1.5 4.51225 1.5 6.30466V15.2667C1.5 17.0592 2.94188 18.503 4.73181 18.503Z" fill="var(--svg-color)"/>
<path d="M18.5005 6.82786V2.27179C18.5005 2.222 18.5005 2.17221 18.4756 2.12241C18.4756 2.09752 18.4756 2.07262 18.4508 2.07262C18.4508 2.04772 18.4259 2.02283 18.4259 1.99793C18.4259 1.97303 18.401 1.94814 18.3762 1.92324C18.3762 1.89834 18.3513 1.87345 18.3513 1.87345C18.3016 1.79876 18.227 1.72407 18.1524 1.67428L18.1027 1.64938C18.053 1.57469 18.0032 1.54979 17.9535 1.54979L17.8789 1.5249C17.8292 1.5249 17.7795 1.5 17.7298 1.5H13.18C12.7574 1.5 12.4342 1.82365 12.4342 2.2469C12.4342 2.67014 12.7574 2.99379 13.18 2.99379H15.9397L9.10266 9.86524C8.80432 10.164 8.80432 10.637 9.10266 10.9109C9.40101 11.2096 9.87338 11.2096 10.1469 10.9109L17.0088 4.06434V6.82786C17.0088 7.2511 17.332 7.57476 17.7546 7.57476C18.1524 7.57476 18.4756 7.2262 18.5005 6.82786Z" fill="var(--svg-color)"/>
</svg>
