<svg width="20" height="20" viewBox="0 0 20 20" fill="none" xmlns="http://www.w3.org/2000/svg">
<path d="M16.435 7H14.5654V4.56522C14.5654 2.04348 12.5219 0 10.0002 0C7.47843 0 5.43495 2.04348 5.43495 4.56522V7H3.56539C2.52191 7 1.65234 7.86957 1.65234 8.91304V18.087C1.65234 19.1304 2.52191 20 3.56539 20H16.4784C17.5219 20 18.3915 19.1304 18.3915 18.087V8.91304C18.348 7.82609 17.4784 7 16.435 7ZM7.08713 4.52174C7.08713 2.95652 8.39148 1.65217 9.95669 1.65217C11.5219 1.65217 12.8263 2.95652 12.8263 4.52174V6.95652H7.08713V4.52174ZM16.6089 18.0435C16.6089 18.1739 16.5219 18.2609 16.3915 18.2609H3.47843C3.348 18.2609 3.26104 18.1739 3.26104 18.0435V8.91304C3.26104 8.78261 3.348 8.69565 3.47843 8.69565H16.3915C16.5219 8.69565 16.6089 8.78261 16.6089 8.91304V18.0435Z" fill="var(--svg-color)"/>
<path d="M9.95788 11.3044C9.00136 11.3044 8.21875 12.0871 8.21875 13.0436C8.21875 13.6957 8.56658 14.2175 9.08832 14.5653V16.3044H10.9144V14.5653C11.4361 14.261 11.784 13.6957 11.784 13.0436C11.697 12.0871 10.9144 11.3044 9.95788 11.3044Z" fill="var(--svg-color)"/>
</svg>