<svg width="19" height="24" viewBox="0 0 19 24" fill="none" xmlns="http://www.w3.org/2000/svg">
<path d="M15.0359 15.5651L18.0581 16.0346C18.6889 16.0346 18.9677 16.8562 18.4395 17.2229L16.2976 19.3942L16.7817 22.3577C16.9725 22.9592 16.2683 23.4727 15.7548 23.1059L13.0553 21.7416L10.3559 23.1059C9.84243 23.4727 9.1529 22.9592 9.34361 22.3577L9.7984 19.3209L7.67114 17.2229C7.15767 16.8562 7.42173 16.0346 8.06726 16.0346L11.0895 15.5651L12.4392 12.851C12.6299 12.2495 13.4955 12.2495 13.6862 12.851L15.0359 15.5651Z" fill="var(--svg-color)"/>
<g clip-path="url(#clip0)">
<path d="M5.047 15.75C5.445 14.504 6.526 13.645 7.811 13.545L9.428 13.294L10.144 11.854C10.506 10.959 11.239 10.306 12.134 10.036V7.655C12.134 6.962 11.576 6.405 10.884 6.405H10.85V4.748C10.849 2.129 8.72 0 6.1 0C3.498 0 1.369 2.129 1.369 4.748V6.404H1.25C0.558 6.405 0 6.962 0 7.655V14.566C0 15.259 0.558 15.816 1.25 15.816H5.03C5.037 15.795 5.04 15.772 5.047 15.75ZM6.827 11.406C6.726 11.474 6.709 11.541 6.709 11.659C6.709 12.166 6.709 12.673 6.709 13.18C6.726 13.383 6.608 13.602 6.422 13.687C5.983 13.907 5.543 13.602 5.543 13.18C5.543 12.673 5.543 12.166 5.543 11.659C5.543 11.558 5.526 11.49 5.425 11.422C4.969 11.084 4.817 10.51 5.036 10.003C5.256 9.513 5.796 9.226 6.32 9.327C6.895 9.445 7.283 9.902 7.3 10.476C7.3 10.866 7.148 11.187 6.827 11.406ZM3.447 4.748C3.447 3.278 4.647 2.078 6.117 2.078C7.587 2.078 8.787 3.278 8.787 4.748V6.404H3.447V4.748Z" fill="var(--svg-color)"/>
</g>
<defs>
<clipPath id="clip0">
<rect width="12.133" height="15.817" fill="var(--svg-color)"/>
</clipPath>
</defs>
</svg>
