<svg width="20" height="20" viewBox="0 0 20 20" fill="none" xmlns="http://www.w3.org/2000/svg">
<path d="M13.3333 0H6.66667C5.95964 0.000756395 5.28177 0.302019 4.78183 0.837673C4.28188 1.37333 4.00071 2.09961 4 2.85714V17.1429C4.00071 17.9004 4.28188 18.6267 4.78183 19.1623C5.28177 19.698 5.95964 19.9992 6.66667 20H13.3333C14.0404 19.9992 14.7182 19.698 15.2182 19.1623C15.7181 18.6267 15.9993 17.9004 16 17.1429V2.85714C15.9993 2.09961 15.7181 1.37333 15.2182 0.837673C14.7182 0.302019 14.0404 0.000756395 13.3333 0V0ZM14.6667 17.1429C14.6662 17.5216 14.5256 17.8847 14.2756 18.1525C14.0257 18.4203 13.6868 18.5709 13.3333 18.5714H6.66667C6.31319 18.5709 5.97431 18.4203 5.72436 18.1525C5.47441 17.8847 5.33379 17.5216 5.33333 17.1429V2.85714C5.33379 2.47841 5.47441 2.11534 5.72436 1.84753C5.97431 1.57973 6.31319 1.42906 6.66667 1.42857H7.33333V2.14286C7.33328 2.23667 7.35049 2.32958 7.38398 2.41627C7.41746 2.50295 7.46657 2.58171 7.52848 2.64805C7.5904 2.71439 7.66391 2.767 7.74482 2.80288C7.82572 2.83876 7.91244 2.8572 8 2.85714H12C12.0876 2.8572 12.1743 2.83876 12.2552 2.80288C12.3361 2.767 12.4096 2.71439 12.4715 2.64805C12.5334 2.58171 12.5825 2.50295 12.616 2.41627C12.6495 2.32958 12.6667 2.23667 12.6667 2.14286V1.42857H13.3333C13.6868 1.42906 14.0257 1.57973 14.2756 1.84753C14.5256 2.11534 14.6662 2.47841 14.6667 2.85714V17.1429Z" fill="var(--svg-color)"/>
</svg>
