<svg width="20" height="20" viewBox="0 0 20 20" fill="none" xmlns="http://www.w3.org/2000/svg">
<path d="M19.9642 14.1175C19.8385 13.7289 19.4229 13.5165 19.0359 13.6425L18.0779 13.9551C18.6648 12.7362 18.9721 11.3958 18.9721 10.0271C18.9721 5.04951 14.9402 1 9.98411 1C5.02809 1 0.996094 5.04951 0.996094 10.0271C0.996094 15.0046 5.02809 19.0541 9.98411 19.0541C10.391 19.0541 10.7208 18.7228 10.7208 18.3142C10.7208 17.9056 10.391 17.5743 9.98411 17.5743C5.84055 17.5743 2.46954 14.1887 2.46954 10.0271C2.46954 5.86549 5.84055 2.47984 9.98411 2.47984C14.1277 2.47984 17.4987 5.86549 17.4987 10.0271C17.4987 11.1738 17.2411 12.2964 16.7488 13.3163L16.4215 12.3044C16.2958 11.9158 15.8801 11.7032 15.4933 11.8293C15.1063 11.9556 14.8945 12.3731 15.0202 12.7617L15.8889 15.4472C15.99 15.7599 16.2788 15.9587 16.5894 15.9587C16.6648 15.9587 16.7416 15.947 16.8172 15.9224L19.4911 15.05C19.8781 14.9237 20.0899 14.5063 19.9642 14.1175Z" fill="var(--svg-color)"/>
</svg>
