<svg width="20" height="25" viewBox="0 0 20 25" fill="none" xmlns="http://www.w3.org/2000/svg">
<path d="M17.415 8.18176H2.44492C2.02014 8.18176 1.70156 8.52678 1.72811 8.89644L3.18829 23.1407C3.26794 23.9539 3.98475 24.5454 4.86086 24.5454H14.9459C15.822 24.5454 16.5388 23.9293 16.6185 23.1407L18.0787 8.89644C18.1583 8.52678 17.8132 8.18176 17.415 8.18176Z" fill="var(--svg-color)"/>
<path d="M17.8056 3.27537H13.719V2.4477C13.719 1.54244 12.9948 0.818237 12.0896 0.818237H7.46319C6.55793 0.818237 5.83373 1.54244 5.83373 2.4477V3.27537H1.72126C0.816004 3.27537 0.0917969 3.99958 0.0917969 4.90484C0.0917969 5.81009 0.816004 6.5343 1.72126 6.5343H17.8056C18.7109 6.5343 19.4351 5.81009 19.4351 4.90484C19.4351 3.99958 18.7109 3.27537 17.8056 3.27537Z" fill="var(--svg-color)"/>
</svg>
