
<svg width="19px" height="19px" viewBox="0 0 19 19" version="1.1" xmlns="http://www.w3.org/2000/svg" xmlns:xlink="http://www.w3.org/1999/xlink">
    <g id="Symbols" stroke="none" stroke-width="1" fill="none">
        <g fill="white" fill="var(--svg-color)">
            <path d="M7.5,13 C10.5376119,13 13,10.5376119 13,7.5 C13,4.46238806 10.5376119,2 7.5,2 C4.46238806,2 2,4.46238806 2,7.5 C2,10.5376119 4.46238806,13 7.5,13 L7.5,13 Z M18.7071642,17.2928358 C19.0976119,17.6834328 19.0976119,18.3165672 18.7071642,18.7071642 C18.3165672,19.0976119 17.6834328,19.0976119 17.2928358,18.7071642 L12.4013433,13.8155224 C12.2068657,13.6210448 11.8622388,13.5944776 11.6416418,13.7452239 C11.6416418,13.7452239 11.5065672,13.85 11.2162687,14.0159701 C10.1207463,14.6420896 8.85223881,15 7.5,15 C3.35791045,15 0,11.6420896 0,7.5 C0,3.35791045 3.35791045,0 7.5,0 C11.6420896,0 15,3.35791045 15,7.5 C15,8.86134328 14.6373134,10.1380597 14.0032836,11.2386567 C13.840597,11.5208955 13.7497015,11.6358209 13.7497015,11.6358209 C13.5914925,11.8640299 13.6202985,12.2061194 13.8155224,12.4013433 L18.7071642,17.2928358 Z" id="Page-1"></path>
        </g>
    </g>
</svg>