<svg width="20" height="20" viewBox="0 0 20 20" fill="none" xmlns="http://www.w3.org/2000/svg">
<path d="M10.0001 0C9.88653 0 9.83287 0.00916968 9.83369 0.00916968C9.50415 0.0139466 9.21762 0.236397 9.13131 0.554473C8.99054 1.06911 8.7969 1.57519 8.58604 1.93154C8.37518 2.28789 8.17207 2.45213 8.04077 2.48607C7.91041 2.51978 7.65776 2.4741 7.30141 2.26427C6.945 2.05453 6.52877 1.70325 6.15537 1.32155C5.92408 1.08789 5.56619 1.03514 5.27734 1.19219C4.35976 1.68427 3.52057 2.31402 2.80044 3.05909C2.57291 3.29481 2.52777 3.65222 2.68953 3.9371C2.95424 4.40007 3.18639 4.88738 3.29024 5.28648C3.39415 5.68556 3.35797 5.93861 3.29024 6.05355C3.22189 6.1697 3.01463 6.32749 2.61558 6.43252C2.21651 6.53752 1.67813 6.58556 1.14607 6.5804C0.820799 6.57745 0.531856 6.7876 0.434431 7.09795C0.156812 8.01455 0 8.98972 0 9.99991C0 10.1132 0.00917044 10.1716 0.00917044 10.1755C0.0139473 10.5051 0.236397 10.7916 0.554443 10.8779C1.06861 11.0183 1.56744 11.2058 1.92228 11.414C2.27716 11.6222 2.43415 11.8211 2.46759 11.9501C2.50105 12.0791 2.46505 12.3421 2.25499 12.6987C2.04507 13.0553 1.69388 13.4617 1.31232 13.8355C1.07554 14.0645 1.01898 14.4226 1.17367 14.7135C1.66619 15.634 2.29529 16.4695 3.04058 17.1904C3.27786 17.4224 3.64072 17.4678 3.92784 17.3013C4.39188 17.0365 4.88387 16.8047 5.28645 16.7006C5.68904 16.5964 5.9482 16.6331 6.06278 16.7006C6.17855 16.7687 6.32876 16.9749 6.43249 17.3752C6.53623 17.7755 6.57795 18.3205 6.57114 18.854C6.56946 19.1818 6.78392 19.4715 7.09792 19.5656C8.01455 19.8432 8.98972 20 10 20C10.1195 20 10.1622 19.9903 10.1386 19.9908C10.4656 19.9873 10.7513 19.7692 10.841 19.4548C10.9832 18.9406 11.1739 18.4253 11.3863 18.0684C11.5987 17.7115 11.8094 17.5572 11.9408 17.5232C12.0713 17.4894 12.3241 17.5257 12.6802 17.7357C13.0363 17.9466 13.4522 18.3038 13.8262 18.6877C14.0553 18.9244 14.4134 18.981 14.7042 18.8263C15.6291 18.3324 16.459 17.697 17.1812 16.9501C17.4132 16.7129 17.4585 16.35 17.2921 16.0629C17.0253 15.5991 16.7964 15.1064 16.6913 14.7043C16.5862 14.3022 16.6234 14.0436 16.6913 13.928C16.7607 13.8099 16.9722 13.6538 17.3752 13.549C17.7783 13.4443 18.3181 13.4038 18.854 13.4104C19.1852 13.4163 19.4798 13.201 19.5749 12.8836C19.8496 11.9705 20 11.0026 20 10C20 9.88594 19.9906 9.83694 19.9909 9.84295C19.9861 9.5134 19.7636 9.22685 19.4456 9.14054C18.9324 8.99945 18.4326 8.8061 18.0777 8.59524C17.7229 8.38441 17.5576 8.18219 17.5232 8.05C17.489 7.91855 17.5275 7.65732 17.7358 7.30138C17.944 6.94544 18.2975 6.53793 18.6785 6.1646C18.9121 5.9333 18.9649 5.57548 18.8078 5.2866C18.3154 4.36684 17.6864 3.53965 16.9409 2.81893C16.7052 2.5914 16.3478 2.54626 16.0629 2.70802C15.5988 2.97323 15.1045 3.19553 14.7043 3.29953C14.3041 3.40353 14.054 3.36827 13.9372 3.29953C13.8178 3.22921 13.663 3.02598 13.5583 2.62487C13.4536 2.22373 13.4132 1.68135 13.4197 1.14613C13.4255 0.814902 13.2102 0.520238 12.8929 0.425201C11.9965 0.154688 11.0455 0.0156864 10.0648 0.00931726C10.0433 0.00530703 10.0218 0.00224115 10.0001 0.000147579L10.0001 0ZM10.3328 1.50646C10.9081 1.52887 11.4662 1.60674 12.0056 1.73752C12.0255 2.16021 12.0191 2.58603 12.1257 2.99443C12.2842 3.60127 12.5808 4.21687 13.1886 4.57484C13.7967 4.93296 14.4777 4.88935 15.0832 4.73198C15.487 4.62703 15.8549 4.41827 16.2293 4.23285C16.6133 4.64856 16.959 5.10443 17.2552 5.59149C16.9735 5.90226 16.6717 6.20072 16.4604 6.56191C16.1449 7.10105 15.9135 7.73858 16.0906 8.41959C16.2675 9.09935 16.7828 9.55147 17.3199 9.87064C17.683 10.0864 18.0926 10.2058 18.4936 10.342C18.4704 10.9107 18.3919 11.4618 18.2625 11.9963C17.8391 12.0162 17.4151 12.0101 17.0056 12.1165C16.3972 12.2747 15.7744 12.5693 15.416 13.1793C15.0578 13.789 15.1094 14.4761 15.2681 15.0833C15.3746 15.4907 15.5788 15.8608 15.7672 16.2385C15.3509 16.6236 14.8952 16.968 14.4086 17.2644C14.0975 16.9799 13.8004 16.6842 13.4381 16.4696C12.8995 16.1505 12.2551 15.9134 11.5712 16.0906C10.8896 16.2673 10.4406 16.7815 10.1202 17.3199C9.9039 17.6832 9.78578 18.0925 9.64881 18.4936C9.07903 18.4697 8.52173 18.3939 7.98521 18.2626C7.96584 17.8411 7.97071 17.4132 7.86508 17.0057C7.70815 16.4001 7.41877 15.7828 6.81146 15.4252C6.20285 15.0669 5.52385 15.1111 4.9168 15.2681C4.51121 15.373 4.13796 15.5813 3.76153 15.7672C3.378 15.3519 3.03129 14.9041 2.73562 14.4178C3.01887 14.1064 3.31714 13.8097 3.5305 13.4474C3.84766 12.9087 4.07728 12.2632 3.90018 11.5805C3.72347 10.8994 3.20865 10.4542 2.67096 10.1387C2.30856 9.92607 1.90533 9.81051 1.50643 9.67661C1.52911 9.09448 1.61217 8.53285 1.74672 7.98533C2.16449 7.96419 2.59102 7.97132 2.99443 7.86517C3.59826 7.7063 4.20917 7.41697 4.56564 6.81157C4.92317 6.20435 4.88006 5.52117 4.72272 4.91692C4.61786 4.51407 4.40877 4.14448 4.22365 3.77091C4.63732 3.38893 5.08842 3.04061 5.573 2.745C5.88445 3.02837 6.18106 3.32657 6.54342 3.53982C7.08224 3.85692 7.72797 4.08586 8.41039 3.90953C9.09272 3.73323 9.54251 3.22847 9.86138 2.68956C10.0775 2.32437 10.1968 1.90946 10.3328 1.50658L10.3328 1.50646ZM10.0001 5.75786C7.66658 5.75786 5.75792 7.66652 5.75792 9.99997C5.75792 12.3335 7.66658 14.2421 10.0001 14.2421C12.3336 14.2421 14.2422 12.3335 14.2422 9.99997C14.2422 7.66652 12.3336 5.75786 10.0001 5.75786ZM10.0001 7.23663C11.535 7.23663 12.7635 8.46511 12.7635 10C12.7635 11.5349 11.535 12.7634 10.0001 12.7634C8.46511 12.7634 7.23669 11.5349 7.23669 10C7.23666 8.46511 8.46511 7.23663 10.0001 7.23663Z" fill="var(--svg-color)"/>
</svg>
