<svg width="20" height="20" viewBox="0 0 20 20" fill="none" xmlns="http://www.w3.org/2000/svg">
<path d="M18.9866 20.0002H0.992761C0.455016 20.0002 0 19.5885 0 19.0532V9.99508C0 9.48042 0.434333 9.0481 0.992761 9.0481C1.55119 9.0481 1.98552 9.45983 1.98552 9.99508V18.1268H18.0145V9.99508C18.0145 9.48042 18.4488 9.0481 19.0072 9.0481C19.5657 9.0481 20 9.45983 20 9.99508V19.0532C19.9586 19.5679 19.5243 20.0002 18.9866 20.0002Z" fill="var(--svg-color)"/>
<path d="M14.5372 4.08646L10.7109 0.277921C10.3386 -0.0926403 9.71812 -0.0926403 9.32516 0.277921L5.45752 4.08646C5.27138 4.27175 5.16797 4.51879 5.16797 4.78641C5.16797 5.05404 5.27138 5.2805 5.45752 5.46578C5.64367 5.65106 5.89186 5.75399 6.14005 5.75399C6.40892 5.75399 6.65711 5.65106 6.84325 5.46578L8.95287 3.38652V13.1652C8.95287 13.7416 9.40789 14.1945 9.987 14.1945C10.5661 14.1945 11.0211 13.7416 11.0211 13.1652V3.34534L13.1514 5.46578C13.5237 5.83634 14.1442 5.83634 14.5372 5.46578C14.7233 5.2805 14.8267 5.03345 14.8267 4.78641C14.8267 4.51879 14.7233 4.27175 14.5372 4.08646Z" fill="var(--svg-color)"/>
</svg>
