<svg width="50" height="42" viewBox="0 0 50 42" fill="none" xmlns="http://www.w3.org/2000/svg">
<path d="M44.1338 32.5965C43.8725 32.8577 43.4807 32.8577 43.2195 32.5965L41.1299 30.5069V37.0371C41.1299 37.3636 40.8687 37.6901 40.4768 37.6901C40.085 37.6901 39.8238 37.3636 39.8238 37.0371V30.5069L37.7342 32.5965C37.6036 32.7271 37.4076 32.7924 37.277 32.7924C37.0811 32.7924 36.9505 32.7271 36.8199 32.5965C36.5587 32.3353 36.5587 31.9435 36.8199 31.6823L40.0197 28.4825C40.085 28.4172 40.1503 28.3519 40.2156 28.3519C40.3462 28.2866 40.5421 28.2866 40.7381 28.3519C40.8034 28.3519 40.8687 28.4172 40.934 28.4825L44.1338 31.6823C44.395 31.9435 44.395 32.3353 44.1338 32.5965Z" fill="var(--svg-color)"/>
<path d="M12.0045 13.3324C9.71895 13.3324 7.8252 11.5039 7.8252 9.15307C7.8252 6.8675 9.65365 5.03904 12.0045 5.03904C14.2901 5.03904 16.1186 6.8675 16.1186 9.15307C16.1186 11.5039 14.2901 13.3324 12.0045 13.3324ZM12.0045 6.34508C10.4373 6.34508 9.13124 7.65112 9.13124 9.15307C9.13124 10.655 10.4373 12.0264 12.0045 12.0264C13.5718 12.0264 14.8125 10.7203 14.8125 9.15307C14.8125 7.58582 13.5718 6.34508 12.0045 6.34508Z" fill="var(--svg-color)"/>
<path d="M41.1293 24.0419V2.23103C41.1293 1.1862 40.2804 0.271973 39.1703 0.271973H2.33992C1.22979 0.271973 0.380859 1.1862 0.380859 2.23103V31.6822C0.380859 32.7271 1.22979 33.6413 2.33992 33.6413H31.5299C31.8564 38.2778 35.7746 42 40.4763 42C45.4393 42 49.488 37.9512 49.488 32.9883C49.4227 28.2865 45.7658 24.3684 41.1293 24.0419ZM1.6869 2.23103C1.6869 1.90452 1.94811 1.57801 2.33992 1.57801H39.1703C39.5621 1.57801 39.8233 1.90452 39.8233 2.23103V21.3645L30.2892 13.0059C30.028 12.81 29.6362 12.81 29.4403 13.0059L17.9471 23.7154L12.6576 18.4912C12.4617 18.2953 12.0699 18.23 11.8087 18.4259L1.6869 25.8051V2.23103ZM2.33992 32.3353C1.94811 32.3353 1.6869 32.0088 1.6869 31.6822V27.3723L12.1352 19.7973L17.49 25.0867C17.7512 25.348 18.143 25.348 18.4042 25.0867L29.8974 14.3772L39.8233 23.0624V24.0419C35.3828 24.3684 31.8564 27.8947 31.5299 32.3353H2.33992ZM40.4763 40.6939C36.2317 40.6939 32.836 37.2329 32.836 32.9883C32.836 28.7437 36.297 25.2826 40.4763 25.2826C44.7209 25.2826 48.1819 28.7437 48.1819 32.9883C48.1166 37.2329 44.7209 40.6939 40.4763 40.6939Z" fill="var(--svg-color)"/>
</svg>
