<?xml version="1.0" encoding="utf-8"?><svg width="30" height="22.42" fill="none" xmlns="http://www.w3.org/2000/svg" viewBox="0 0 95 71"><path fill-rule="evenodd" clip-rule="evenodd" d="M39.233 59.504v2.789c0 3.262 1.745 4.675 4.403 5.24.502 1.756 2.201 3.126 4.101 3.126s3.6-1.37 4.102-3.126c2.657-.565 4.402-1.978 4.402-5.24v-2.789H39.233zM67.578 34.407c0-10.875-9.07-19.799-20.125-19.52-10.488.279-19.275 8.645-19.558 18.683-.284 6.693 2.834 12.828 7.936 16.453a8.27 8.27 0 0 1 3.402 6.693H56.24c0-2.51 1.134-5.02 3.118-6.693 5.102-3.346 8.22-9.202 8.22-15.616M60.504 8.604l1.836-2.992c.417-.728 1.335-.97 2.086-.566a1.445 1.445 0 0 1 .585 2.022l-1.836 2.992c-.25.485-.835.727-1.336.727-.25 0-.5-.08-.751-.161a1.445 1.445 0 0 1-.584-2.022M33.464 10.06c.25.485.834.727 1.335.727.25 0 .501-.08.752-.161a1.445 1.445 0 0 0 .584-2.022l-1.837-2.992c-.417-.728-1.335-.97-2.086-.566a1.445 1.445 0 0 0-.584 2.022l1.836 2.992zM48.319 7.31c.834 0 1.502-.647 1.502-1.455V2.378c0-.809-.667-1.456-1.502-1.456s-1.502.647-1.502 1.456v3.477c-.084.808.584 1.455 1.502 1.455M21.278 30.518h-3.59c-.834 0-1.502.647-1.502 1.455 0 .809.668 1.456 1.503 1.456h3.589c.834 0 1.502-.647 1.502-1.456 0-.808-.668-1.455-1.502-1.455M78.949 30.518h-3.59c-.834 0-1.502.647-1.502 1.455 0 .809.668 1.456 1.503 1.456h3.589c.834 0 1.502-.647 1.502-1.456 0-.808-.668-1.455-1.502-1.455M76.196 16.448c-.417-.728-1.335-.97-2.086-.566l-3.088 1.779a1.445 1.445 0 0 0-.585 2.021c.25.485.835.728 1.336.728.25 0 .5-.08.75-.162l3.089-1.779a1.445 1.445 0 0 0 .584-2.021M25.618 17.66l-3.088-1.778c-.751-.405-1.67-.162-2.087.566a1.445 1.445 0 0 0 .584 2.021l3.088 1.78c.25.161.501.161.752.161.5 0 1.085-.243 1.335-.728a1.445 1.445 0 0 0-.584-2.021" fill="#fff"/><path d="M37.814 35.237h19.908M47.75 25.35v19.808" stroke="#F48299" stroke-width="4.188" stroke-linecap="round"/></svg>