<?xml version="1.0" encoding="utf-8"?><svg width="15" height="15" fill="none" xmlns="http://www.w3.org/2000/svg" viewBox="0 0 15 15"><path fill-rule="evenodd" clip-rule="evenodd" d="M7.562 5.834c-.994.009-1.793.804-1.787 1.779.006.974.815 1.76 1.809 1.757.994-.003 1.798-.794 1.798-1.768-.005-.98-.82-1.771-1.82-1.768zm.002 4.533c-1.555-.01-2.81-1.25-2.803-2.775.006-1.525 1.27-2.756 2.825-2.753 1.555.003 2.814 1.24 2.814 2.764-.006 1.53-1.275 2.766-2.836 2.764zM2.918 3.482v.14-.14zm9.295 8.227v.14-.14zm-5.825 1.868h2.351l.27-1.842.27-.108a4.6 4.6 0 0 0 1.016-.572l.227-.167 1.778.693 1.175-1.98-1.505-1.145.036-.281c.056-.38.056-.766 0-1.145l-.036-.282 1.505-1.145-1.184-1.986-1.778.695-.228-.172a4.352 4.352 0 0 0-1.008-.57L9.01 3.47l-.27-1.843H6.388l-.272 1.843-.27.107c-.361.147-.703.34-1.015.572l-.224.167-1.773-.697-1.175 1.98 1.505 1.145-.035.281c-.027.19-.041.381-.043.573.002.192.016.383.043.573l.035.281L1.66 9.597l1.175 1.99 1.778-.696.229.172c.308.233.647.425 1.007.57l.27.106.27 1.84zm2.505.996h-2.66a.828.828 0 0 1-.83-.707l-.21-1.434c-.254-.12-.499-.258-.731-.415l-1.413.552a.854.854 0 0 1-1.023-.374L.703 9.968A.813.813 0 0 1 .91 8.91l1.181-.9a4.785 4.785 0 0 1-.019-.41c0-.128 0-.264.02-.411L.91 6.292a.809.809 0 0 1-.208-1.056l1.329-2.24a.843.843 0 0 1 1.029-.357l1.397.548c.232-.156.476-.294.73-.414l.215-1.445a.826.826 0 0 1 .83-.698h2.66a.828.828 0 0 1 .828.707l.214 1.434c.254.12.499.258.731.415l1.411-.552a.853.853 0 0 1 1.024.374l1.32 2.228a.813.813 0 0 1-.206 1.058l-1.181.898a4.524 4.524 0 0 1 0 .825l1.178.897c.325.25.415.694.214 1.047l-1.331 2.248a.843.843 0 0 1-1.03.356l-1.396-.548a5.603 5.603 0 0 1-.73.414l-.218 1.445a.826.826 0 0 1-.828.698z" fill="var(--svg-color)"/><path d="M5.775 7.613l-.21.001.21-.001zM7.584 9.37v-.21.21zm1.798-1.768h.21v-.001l-.21.001zM7.586 4.839v-.21.21zM10.4 7.603h.21-.21zm-4.012 5.975l-.207.03.026.18h.181v-.21zm2.351 0v.21h.18l.027-.18-.207-.03zm.27-1.842l-.077-.195-.112.044-.018.12.207.03zm.27-.108l.077.195h.002l-.08-.195zm1.016-.572l-.124-.17-.001.002.125.168zm.227-.167l.076-.195-.107-.042-.093.068.124.169zm1.778.693l-.076.195.166.065.09-.153-.18-.107zm1.175-1.98l.18.108.096-.16-.149-.114-.127.167zM11.97 8.458l-.208-.026-.015.12.096.073.127-.167zm.036-.281l-.207-.031-.001.005.208.026zm0-1.145l-.208.026v.005l.208-.031zm-.036-.282l-.127-.166-.096.073.015.12.208-.027zm1.505-1.145l.127.166.149-.113-.096-.16-.18.107zm-1.184-1.986l.18-.107-.09-.153-.166.065.076.195zm-1.778.695l-.126.167.094.07.108-.042-.076-.195zm-.228-.172l-.127.167.127-.167zm-1.008-.57l.078-.193-.002-.001-.075.195zM9.01 3.47l-.207.03.018.12.114.045.075-.195zm-.27-1.843l.207-.03-.026-.18h-.181v.21zm-2.351 0v-.21h-.18l-.027.18.207.03zm-.272 1.843l.078.194.112-.044.017-.12-.207-.03zm-.27.107L5.77 3.38h-.002l.079.195zm-1.015.572l-.125-.168.125.168zm-.224.167l-.076.195.108.043.093-.07-.125-.168zm-1.773-.697l.077-.195-.166-.065-.09.153.18.107zM1.66 5.598l-.18-.107-.095.16.148.113.127-.166zm1.505 1.145l.208.026.015-.12-.096-.073-.127.167zm-.035.281l.207.03V7.05l-.207-.027zm-.043.573l-.21-.002v.004l.21-.002zm.043.573l.208-.027v-.002l-.208.029zm.035.281l.127.167.096-.073-.015-.12-.208.026zM1.66 9.597l-.127-.167-.148.113.095.16.18-.106zm1.175 1.99l-.18.106.09.153.166-.065-.076-.195zm1.778-.696l.126-.167-.093-.07-.109.042.076.195zm.229.172l.126-.167-.126.167zm1.007.57l-.078.194.078-.195zm.27.106l.207-.03-.018-.12-.112-.044-.078.194zm.115 2.835v-.21.21zm-.83-.707l.207-.029v-.001l-.207.03zm-.21-1.434l.207-.03-.016-.112-.102-.048-.089.19zm-.731-.415l.117-.174-.091-.06-.102.04.076.194zm-1.413.552l.07.197.006-.002-.076-.195zm-1.023-.374l.181-.104-.001-.003-.18.107zM.703 9.968l-.18.106.18-.106zM.91 8.91l-.127-.167-.001.001.128.166zm1.181-.9l.127.167.092-.07-.01-.114-.209.018zm0-.821l.208.027.016-.12-.097-.074-.127.167zM.912 6.292l-.128.166.128-.166zM.703 5.236l-.18-.106.18.106zm1.329-2.24l.18.106v-.001l-.18-.106zm1.029-.357l.076-.195h-.001l-.075.195zm1.397.548l-.077.195.103.04.09-.061-.116-.174zm.73-.414l.09.189.1-.048.017-.11-.207-.031zm.215-1.445l.207.031-.207-.03zm.83-.698l-.002.21h.003V.63zm2.66 0v.21-.21zm.828.707l-.207.029v.002l.207-.03zm.214 1.434l-.207.031.016.111.102.048.089-.19zm.731.415l-.117.174.091.06.102-.039-.076-.195zm1.411-.552l-.07-.197-.006.002.076.195zm1.024.374l-.182.104.002.003.18-.107zm1.32 2.228l.18-.106-.18.106zm-.206 1.058l.127.166.002-.001-.129-.165zm-1.181.898l-.127-.166-.092.07.01.116.209-.02zm0 .825l-.209-.02-.01.116.092.07.127-.166zm1.178.897l.128-.166-.128.166zm.214 1.047l.18.107.002-.003-.182-.104zm-1.331 2.248l-.18-.107-.001.001.18.106zm-1.03.356l-.075.195.076-.195zm-1.396-.548l.076-.195-.102-.04-.091.061.117.174zm-.73.414l-.09-.189-.101.048-.017.11.207.031zm-.218 1.445l-.207-.031.207.03zm-2.16-8.251c-1.106.01-2.002.895-1.995 1.989l.418-.003c-.005-.855.697-1.56 1.58-1.568l-.004-.418zM5.565 7.614c.006 1.094.913 1.969 2.019 1.965l-.002-.419c-.882.003-1.593-.694-1.599-1.549l-.418.003zm2.019 1.965c1.105-.003 2.006-.883 2.007-1.977h-.42c0 .855-.706 1.556-1.589 1.558l.002.42zM9.59 7.601c-.006-1.1-.918-1.98-2.03-1.976l.002.418c.888-.003 1.605.7 1.61 1.56l.418-.002zm-2.026 2.556c-1.443-.008-2.6-1.16-2.595-2.564l-.419-.002c-.006 1.644 1.345 2.975 3.012 2.985l.002-.419zM4.97 7.593c.006-1.405 1.172-2.548 2.615-2.545l.001-.419C5.92 4.626 4.558 5.947 4.551 7.591l.42.002zm2.615-2.545c1.444.003 2.606 1.15 2.606 2.555h.418c0-1.644-1.356-2.97-3.023-2.974v.419zm2.606 2.554c-.006 1.41-1.177 2.558-2.627 2.555v.419c1.672.003 3.039-1.323 3.046-2.973l-.42-.001zM2.709 3.483v.14h.418v-.14H2.71zm.418.14v-.14H2.71v.14h.418zm8.876 8.087v.14h.42v-.14h-.42zm.42.14v-.14h-.42v.14h.42zm-6.035 1.938h2.351v-.42H6.388v.42zm2.558-.18l.27-1.842-.414-.06-.27 1.842.414.06zm.14-1.678l.27-.107-.155-.39-.269.108.155.389zm.272-.108a4.8 4.8 0 0 0 1.062-.598l-.25-.336a4.39 4.39 0 0 1-.97.546l.158.388zm1.06-.597l.228-.167-.248-.338-.227.167.248.338zm.028-.141l1.778.693.152-.39-1.778-.693-.152.39zm2.034.605l1.175-1.98-.36-.213-1.175 1.98.36.213zm1.122-2.253l-1.505-1.145-.254.333 1.505 1.145.254-.333zm-1.424-.952l.035-.282-.415-.052-.036.281.416.053zm.035-.277c.06-.4.06-.807 0-1.207l-.414.062c.053.359.053.724 0 1.083l.414.062zm0-1.203l-.035-.281-.416.052.036.282.415-.053zm-.116-.088l1.505-1.146-.254-.333-1.505 1.146.254.333zm1.558-1.42l-1.184-1.985-.36.214 1.184 1.986.36-.214zm-1.44-2.073l-1.778.695.152.39 1.779-.695-.153-.39zm-1.576.722l-.228-.171-.252.334.228.172.252-.335zm-.228-.171a4.562 4.562 0 0 0-1.056-.596l-.155.388c.343.138.665.32.958.542l.253-.334zm-1.058-.597l-.268-.104-.15.39.267.104.15-.39zm-.136.061l-.27-1.842-.415.06.27 1.843.415-.06zm-.478-2.021H6.388v.418h2.351v-.418zm-2.558.178l-.272 1.843.414.061.272-1.843-.414-.06zm-.142 1.679l-.27.107.155.39.27-.108-.155-.389zm-.271.108a4.813 4.813 0 0 0-1.062.598l.25.336c.298-.222.624-.406.97-.546l-.158-.388zm-1.062.599l-.224.166.25.336.224-.167-.25-.335zm-.022.14L2.91 3.422l-.153.39 1.773.697.153-.39zm-2.03-.61L1.48 5.491l.36.213 1.175-1.98-.36-.213zM1.532 5.764L3.038 6.91l.253-.334-1.505-1.145-.254.333zm1.425.953l-.036.281.416.053.035-.282-.415-.052zm-.036.278a4.683 4.683 0 0 0-.045.6l.419.004c.002-.182.016-.365.041-.546l-.415-.058zm-.045.604c.002.2.018.401.045.6l.415-.058a4.264 4.264 0 0 1-.041-.546l-.419.004zm.045.597l.036.281.415-.052-.035-.282-.416.053zm.117.088L1.532 9.43l.254.333 1.505-1.145-.253-.334zM1.479 9.704l1.175 1.99.36-.213L1.84 9.49l-.361.213zm1.431 2.078l1.779-.695-.153-.39-1.778.695.152.39zm1.577-.722l.228.171.252-.334-.229-.172-.251.335zm.228.171a4.56 4.56 0 0 0 1.055.596l.156-.388a4.142 4.142 0 0 1-.959-.542l-.252.334zm1.056.597l.269.107.155-.39-.27-.106-.154.389zm.14-.057l.27 1.839.414-.061-.27-1.84-.415.062zm2.982 2.595h-2.66v.418h2.66v-.418zm-2.66 0a.619.619 0 0 1-.623-.527l-.415.058c.071.514.519.89 1.04.887l-.003-.418zm-.623-.528l-.21-1.435-.414.061.21 1.434.414-.06zm-.328-1.594a5.229 5.229 0 0 1-.703-.399l-.234.348c.241.162.495.306.76.43l.177-.379zm-.896-.42l-1.413.552.152.39 1.413-.552-.152-.39zm-1.406.55a.644.644 0 0 1-.773-.281l-.363.208c.254.442.793.637 1.275.467l-.14-.395zm-.774-.284L.883 9.861l-.36.213 1.322 2.229.36-.214zM.884 9.861a.604.604 0 0 1 .154-.785l-.257-.33c-.409.317-.52.882-.258 1.328l.36-.213zm.152-.784l1.181-.899-.253-.333-1.182.899.254.333zm1.263-1.083a4.573 4.573 0 0 1-.018-.393h-.42c0 .135.008.275.02.429l.418-.036zM2.281 7.6c0-.13 0-.253.017-.384l-.415-.054c-.021.162-.021.31-.021.438h.419zm-.064-.578L1.04 6.126l-.254.333 1.179.897.253-.333zM1.04 6.126a.6.6 0 0 1-.155-.783l-.36-.213a1.018 1.018 0 0 0 .26 1.328l.255-.332zm-.156-.783l1.329-2.24-.36-.214-1.329 2.24.36.214zm1.33-2.242a.633.633 0 0 1 .773-.266l.15-.391a1.052 1.052 0 0 0-1.285.446l.362.21zm.771-.267l1.397.548.153-.39-1.397-.548-.153.39zm1.59.527c.224-.15.46-.284.704-.4l-.18-.378a5.816 5.816 0 0 0-.757.43l.234.348zm.821-.558L5.61 1.36l-.414-.061-.215 1.444.414.061zM5.61 1.36a.616.616 0 0 1 .621-.52l.005-.418a1.035 1.035 0 0 0-1.04.877l.414.06zm.623-.52h2.66V.421h-2.66v.418zm2.66 0c.317 0 .58.228.62.527l.416-.058A1.037 1.037 0 0 0 8.893.421v.418zm.621.529l.214 1.434.414-.061-.214-1.435-.414.062zm.332 1.593c.245.115.48.248.703.399l.234-.348a5.634 5.634 0 0 0-.76-.43l-.177.379zm.896.42l1.412-.552L12 2.44l-1.411.552.152.39zm1.405-.55a.643.643 0 0 1 .772.28l.364-.207a1.062 1.062 0 0 0-1.276-.467l.14.395zm.774.284l1.32 2.228.36-.213L13.28 2.9l-.36.214zm1.32 2.228a.604.604 0 0 1-.155.785l.258.33c.408-.317.519-.882.257-1.328l-.36.213zm-.153.784l-1.181.899.254.333 1.18-.899-.253-.333zm-1.263 1.085c.011.118.018.253.018.393h.42c0-.154-.009-.302-.02-.432l-.418.039zm.018.393c0 .14-.007.271-.018.393l.417.037c.012-.132.02-.276.02-.43h-.419zm.064.578l1.179.898.253-.333-1.178-.898-.254.333zm1.178.897a.602.602 0 0 1 .159.778l.364.207a1.02 1.02 0 0 0-.268-1.317l-.255.332zm.16.775l-1.33 2.247.36.213 1.331-2.247-.36-.213zm-1.331 2.248a.633.633 0 0 1-.773.266l-.15.391a1.052 1.052 0 0 0 1.285-.446l-.362-.21zm-.772.267l-1.397-.548-.153.39 1.397.548.153-.39zm-1.59-.527c-.224.15-.459.284-.703.4l.179.378c.263-.125.516-.268.758-.43l-.234-.348zm-.82.557l-.218 1.444.414.063.217-1.444-.414-.063zm-.218 1.445a.616.616 0 0 1-.62.52l-.002.418c.516.004.962-.367 1.036-.877l-.414-.06z" fill="var(--svg-color)"/></svg>