<svg width="95" height="71" viewBox="0 0 95 71" fill="none" xmlns="http://www.w3.org/2000/svg">
<path fill-rule="evenodd" clip-rule="evenodd" d="M39.2334 59.5043V62.2929C39.2334 65.5545 40.9778 66.9681 43.6355 67.5326C44.1375 69.2886 45.8375 70.6587 47.737 70.6587C49.6366 70.6587 51.3365 69.2886 51.8386 67.5326C54.4963 66.9681 56.2407 65.5545 56.2407 62.2929V59.5043H39.2334Z" fill="white"/>
<path fill-rule="evenodd" clip-rule="evenodd" d="M67.5784 34.407C67.5784 23.5315 58.5079 14.608 47.4531 14.8869C36.9653 15.1658 28.1782 23.5315 27.8948 33.5704C27.6113 40.2631 30.7293 46.3979 35.8315 50.0231C38.0991 51.6963 39.233 54.206 39.233 56.7157H56.2402C56.2402 54.206 57.3741 51.6963 59.3582 50.0231C64.4604 46.6768 67.5784 40.8208 67.5784 34.407" fill="white"/>
<path fill-rule="evenodd" clip-rule="evenodd" d="M60.5038 8.60403L62.3399 5.61211C62.7572 4.88435 63.6753 4.64176 64.4264 5.04607C65.1776 5.45039 65.428 6.33988 65.0107 7.06764L63.1745 10.0596C62.9241 10.5447 62.3399 10.7873 61.8391 10.7873C61.5888 10.7873 61.3384 10.7065 61.088 10.6256C60.3368 10.2213 60.0865 9.33179 60.5038 8.60403" fill="white"/>
<path fill-rule="evenodd" clip-rule="evenodd" d="M33.4639 10.0596C33.7143 10.5447 34.2985 10.7873 34.7993 10.7873C35.0497 10.7873 35.3001 10.7065 35.5505 10.6256C36.3016 10.2213 36.552 9.33179 36.1347 8.60403L34.2985 5.61211C33.8812 4.88435 32.9632 4.64176 32.212 5.04607C31.4609 5.45039 31.2105 6.33988 31.6278 7.06764L33.4639 10.0596Z" fill="white"/>
<path fill-rule="evenodd" clip-rule="evenodd" d="M48.3189 7.31024C49.1535 7.31024 49.8212 6.66334 49.8212 5.85471V2.37762C49.8212 1.56899 49.1535 0.922089 48.3189 0.922089C47.4843 0.922089 46.8166 1.56899 46.8166 2.37762V5.85471C46.7332 6.66334 47.4008 7.31024 48.3189 7.31024" fill="white"/>
<path fill-rule="evenodd" clip-rule="evenodd" d="M21.2777 30.5178H17.6888C16.8542 30.5178 16.1865 31.1647 16.1865 31.9734C16.1865 32.782 16.8542 33.4289 17.6888 33.4289H21.2777C22.1123 33.4289 22.78 32.782 22.78 31.9734C22.78 31.1647 22.1123 30.5178 21.2777 30.5178" fill="white"/>
<path fill-rule="evenodd" clip-rule="evenodd" d="M78.9486 30.5178H75.3597C74.5251 30.5178 73.8574 31.1647 73.8574 31.9734C73.8574 32.782 74.5251 33.4289 75.3597 33.4289H78.9486C79.7832 33.4289 80.4509 32.782 80.4509 31.9734C80.4509 31.1647 79.7832 30.5178 78.9486 30.5178" fill="white"/>
<path fill-rule="evenodd" clip-rule="evenodd" d="M76.1962 16.4477C75.7789 15.72 74.8608 15.4774 74.1096 15.8817L71.0216 17.6607C70.2704 18.065 70.0201 18.9545 70.4374 19.6822C70.6877 20.1674 71.272 20.41 71.7727 20.41C72.0231 20.41 72.2735 20.3291 72.5239 20.2483L75.6119 18.4693C76.3631 18.065 76.6135 17.1755 76.1962 16.4477" fill="white"/>
<path fill-rule="evenodd" clip-rule="evenodd" d="M25.6178 17.6607L22.5297 15.8817C21.7786 15.4774 20.8605 15.72 20.4432 16.4477C20.0259 17.1755 20.2763 18.065 21.0274 18.4693L24.1155 20.2483C24.3659 20.41 24.6163 20.41 24.8667 20.41C25.3674 20.41 25.9517 20.1674 26.202 19.6822C26.6193 18.9545 26.369 18.065 25.6178 17.6607" fill="white"/>
<path d="M37.814 35.2366H57.7217" stroke="#F48299" stroke-width="4.18753" stroke-linecap="round"/>
<path d="M47.75 25.3493V45.158" stroke="#F48299" stroke-width="4.18753" stroke-linecap="round"/>
</svg>
