<svg width="13" height="14" viewBox="0 0 13 14" fill="none" xmlns="http://www.w3.org/2000/svg">
<path d="M8.93277 7.06313V12.5666C8.93277 12.9135 8.65161 13.1948 8.30475 13.1948H0.768614C0.421783 13.1948 0.140625 12.9135 0.140625 12.5666V5.02761C0.140625 4.68062 0.421783 4.39936 0.768647 4.39936H6.27003L5.01402 5.65584H1.39664V11.9383H7.67676V8.31961L8.93277 7.06313ZM4.98259 9.24313L11.4448 2.77219V6.28409C11.4448 6.63105 11.726 6.91235 12.0729 6.91235C12.4197 6.91235 12.7009 6.63109 12.7009 6.28409V1.25814C12.7008 0.911146 12.4197 0.629883 12.0729 0.629883H7.04874C6.70191 0.629883 6.42072 0.911146 6.42072 1.25814C6.42072 1.60513 6.70187 1.8864 7.04874 1.8864H10.5593L4.0908 8.35104C3.84453 8.59741 3.84453 8.9968 4.0908 9.24316C4.33707 9.48949 4.73632 9.48949 4.98259 9.24313Z" fill="white"/>
</svg>
