<svg width="15" height="15" viewBox="0 0 15 15" fill="none" xmlns="http://www.w3.org/2000/svg">
<path fill-rule="evenodd" clip-rule="evenodd" d="M7.56204 5.8341C6.56816 5.84302 5.76895 6.63845 5.775 7.6127C5.78107 8.58698 6.59008 9.3728 7.584 9.36985C8.57792 9.36692 9.38208 8.5763 9.38213 7.60202C9.37654 6.62159 8.56227 5.83066 7.56204 5.8341ZM7.56389 10.3665C6.00882 10.3575 4.75468 9.11616 4.76075 7.59181C4.76682 6.06746 6.03078 4.8357 7.58588 4.83865C9.14097 4.84162 10.4001 6.07816 10.4001 7.60254C10.3938 9.13277 9.12501 10.3692 7.56389 10.3665ZM2.9179 3.48344V3.62375V3.48344ZM12.2128 11.7101V11.8504V11.7101ZM6.38795 13.5781H8.73896L9.00949 11.7355L9.27876 11.6284C9.64111 11.481 9.98263 11.2885 10.2949 11.0557L10.5222 10.8889L12.3004 11.5823L13.4752 9.60276L11.9702 8.45735L12.0057 8.17597C12.0625 7.79619 12.0625 7.41034 12.0057 7.03056L11.9702 6.74918L13.4752 5.60377L12.2915 3.61797L10.5133 4.3127L10.2847 4.14088C9.97658 3.90769 9.63779 3.71631 9.2775 3.5719L9.00949 3.46857L8.73896 1.62595H6.38795L6.11614 3.46857L5.8469 3.57564C5.48457 3.7231 5.14308 3.91558 4.8308 4.14835L4.60724 4.31518L2.83416 3.61797L1.65929 5.59756L3.16439 6.74295L3.12883 7.02432C3.10216 7.21416 3.08775 7.40544 3.08563 7.59703C3.08775 7.78865 3.10216 7.97993 3.12883 8.16974L3.16439 8.45112L1.65929 9.59653L2.83416 11.5861L4.61233 10.8913L4.84095 11.0632C5.14908 11.2963 5.48787 11.4877 5.84816 11.6321L6.11741 11.7392L6.38795 13.5781ZM8.89313 14.5741H6.2335C5.81463 14.5766 5.45902 14.2738 5.40284 13.8669L5.19326 12.4327C4.93874 12.3134 4.69413 12.1748 4.46168 12.0181L3.0493 12.5696C2.6608 12.7067 2.22808 12.5489 2.02557 12.1961L0.703379 9.96755C0.495475 9.61388 0.582986 9.16432 0.909132 8.91054L2.09036 8.01162C2.07765 7.86346 2.07131 7.729 2.07131 7.60078C2.07131 7.47253 2.07131 7.33683 2.09036 7.18991L0.911689 6.29226C0.583368 6.04051 0.494495 5.59008 0.703379 5.23649L2.03193 2.99546C2.23725 2.64302 2.67517 2.49146 3.06072 2.63939L4.45786 3.18719C4.69028 3.03111 4.93441 2.89251 5.1882 2.7726L5.40284 1.32838C5.46203 0.924403 5.81716 0.625787 6.2335 0.629933H8.89313C9.31104 0.628738 9.6652 0.931173 9.72126 1.3371L9.93464 2.77136C10.1892 2.89059 10.4338 3.02922 10.6662 3.18595L12.0773 2.63442C12.4659 2.49675 12.8989 2.65478 13.1011 3.0079L14.4207 5.23649C14.6286 5.59015 14.5411 6.03972 14.215 6.2935L13.0337 7.19242C13.0452 7.31692 13.0528 7.45761 13.0528 7.6045C13.0528 7.75142 13.0452 7.88963 13.0337 8.01661L14.2124 8.91426C14.5367 9.16427 14.6272 9.60838 14.4258 9.96132L13.0947 12.2086C12.8894 12.561 12.4515 12.7126 12.0659 12.5647L10.6688 12.0168C10.4364 12.1729 10.1922 12.3115 9.93846 12.4314L9.72126 13.8757C9.66221 14.2787 9.30851 14.577 8.89313 14.5741Z" fill="white"/>
<path d="M5.775 7.6127L5.56563 7.614V7.61401L5.775 7.6127ZM7.584 9.36985L7.58338 9.16047H7.58338L7.584 9.36985ZM9.38213 7.60202L9.59151 7.60203L9.5915 7.60083L9.38213 7.60202ZM7.58588 4.83865L7.58628 4.62927H7.58627L7.58588 4.83865ZM10.4001 7.60254L10.6095 7.6034V7.60253L10.4001 7.60254ZM6.38795 13.5781L6.1808 13.6086L6.20712 13.7875H6.38795V13.5781ZM8.73896 13.5781V13.7875H8.91984L8.94611 13.6085L8.73896 13.5781ZM9.00949 11.7355L8.93213 11.5409L8.81989 11.5855L8.80234 11.7051L9.00949 11.7355ZM9.27876 11.6284L9.35613 11.823L9.35765 11.8223L9.27876 11.6284ZM10.2949 11.0557L10.171 10.8869L10.1697 10.8878L10.2949 11.0557ZM10.5222 10.8889L10.5983 10.6938L10.4911 10.652L10.3984 10.7201L10.5222 10.8889ZM12.3004 11.5823L12.2243 11.7774L12.3898 11.8419L12.4804 11.6892L12.3004 11.5823ZM13.4752 9.60276L13.6553 9.70962L13.7505 9.54915L13.602 9.43614L13.4752 9.60276ZM11.9702 8.45735L11.7624 8.4311L11.7473 8.55086L11.8434 8.62396L11.9702 8.45735ZM12.0057 8.17597L11.7986 8.145L11.798 8.14972L12.0057 8.17597ZM12.0057 7.03056L11.7979 7.05681L11.7986 7.06151L12.0057 7.03056ZM11.9702 6.74918L11.8434 6.58257L11.7473 6.65567L11.7624 6.77543L11.9702 6.74918ZM13.4752 5.60377L13.602 5.77038L13.7508 5.65715L13.6551 5.49656L13.4752 5.60377ZM12.2915 3.61797L12.4714 3.51076L12.3805 3.3584L12.2153 3.42295L12.2915 3.61797ZM10.5133 4.3127L10.3875 4.48007L10.4808 4.55018L10.5895 4.50772L10.5133 4.3127ZM10.2847 4.14088L10.1584 4.30783L10.1589 4.30826L10.2847 4.14088ZM9.2775 3.5719L9.3554 3.37753L9.35282 3.37654L9.2775 3.5719ZM9.00949 3.46857L8.80234 3.49898L8.8201 3.61995L8.93418 3.66393L9.00949 3.46857ZM8.73896 1.62595L8.94611 1.59553L8.91984 1.41657H8.73896V1.62595ZM6.38795 1.62595V1.41657H6.20719L6.18081 1.59539L6.38795 1.62595ZM6.11614 3.46857L6.19351 3.66313L6.30567 3.61853L6.32328 3.49912L6.11614 3.46857ZM5.8469 3.57564L5.76952 3.38108L5.76797 3.38171L5.8469 3.57564ZM4.8308 4.14835L4.70567 3.98048L4.70557 3.98055L4.8308 4.14835ZM4.60724 4.31518L4.53062 4.51003L4.63907 4.55268L4.73246 4.48298L4.60724 4.31518ZM2.83416 3.61797L2.91078 3.42312L2.74501 3.35794L2.6541 3.51111L2.83416 3.61797ZM1.65929 5.59756L1.47923 5.4907L1.38399 5.65117L1.53249 5.76417L1.65929 5.59756ZM3.16439 6.74295L3.37211 6.7692L3.38725 6.64944L3.29119 6.57633L3.16439 6.74295ZM3.12883 7.02432L3.33619 7.05346L3.33656 7.05058L3.12883 7.02432ZM3.08563 7.59703L2.87621 7.59471L2.87626 7.59936L3.08563 7.59703ZM3.12883 8.16974L3.33658 8.14349L3.33617 8.14061L3.12883 8.16974ZM3.16439 8.45112L3.29119 8.61773L3.38725 8.54463L3.37211 8.42486L3.16439 8.45112ZM1.65929 9.59653L1.53249 9.42991L1.38432 9.54267L1.479 9.70299L1.65929 9.59653ZM2.83416 11.5861L2.65387 11.6925L2.74444 11.8459L2.91035 11.7811L2.83416 11.5861ZM4.61233 10.8913L4.73812 10.724L4.64483 10.6539L4.53614 10.6963L4.61233 10.8913ZM4.84095 11.0632L4.9673 10.8962L4.96674 10.8958L4.84095 11.0632ZM5.84816 11.6321L5.77025 11.8265L5.77081 11.8267L5.84816 11.6321ZM6.11741 11.7392L6.32456 11.7087L6.30698 11.5893L6.19477 11.5446L6.11741 11.7392ZM6.2335 14.5741V14.3647L6.23227 14.3647L6.2335 14.5741ZM5.40284 13.8669L5.61025 13.8383L5.61001 13.8367L5.40284 13.8669ZM5.19326 12.4327L5.40044 12.4024L5.38414 12.2909L5.28209 12.2431L5.19326 12.4327ZM4.46168 12.0181L4.57872 11.8445L4.48773 11.7831L4.38552 11.8231L4.46168 12.0181ZM3.0493 12.5696L3.119 12.7672L3.12546 12.7647L3.0493 12.5696ZM2.02557 12.1961L2.20718 12.0919L2.20564 12.0893L2.02557 12.1961ZM0.703379 9.96755L0.522879 10.0737L0.523309 10.0744L0.703379 9.96755ZM0.909132 8.91054L0.782328 8.74391L0.780551 8.7453L0.909132 8.91054ZM2.09036 8.01162L2.21716 8.17824L2.30882 8.10849L2.29897 7.99372L2.09036 8.01162ZM2.09036 7.18991L2.298 7.21683L2.31357 7.09672L2.21722 7.02334L2.09036 7.18991ZM0.911689 6.29226L0.784287 6.45841L0.784832 6.45883L0.911689 6.29226ZM0.703379 5.23649L0.523272 5.12972L0.523108 5.13L0.703379 5.23649ZM2.03193 2.99546L2.21204 3.10224L2.21285 3.10086L2.03193 2.99546ZM3.06072 2.63939L3.13715 2.44445L3.13572 2.4439L3.06072 2.63939ZM4.45786 3.18719L4.38143 3.38212L4.48353 3.42216L4.57458 3.36101L4.45786 3.18719ZM5.1882 2.7726L5.27764 2.96191L5.37884 2.91409L5.3953 2.80338L5.1882 2.7726ZM5.40284 1.32838L5.60994 1.35916L5.61 1.35874L5.40284 1.32838ZM6.2335 0.629933L6.23141 0.83931H6.2335V0.629933ZM8.89313 0.629933V0.83931L8.89373 0.839309L8.89313 0.629933ZM9.72126 1.3371L9.51384 1.36574L9.51416 1.36791L9.72126 1.3371ZM9.93464 2.77136L9.72754 2.80217L9.74407 2.91331L9.84583 2.96097L9.93464 2.77136ZM10.6662 3.18595L10.5492 3.35955L10.6402 3.42093L10.7425 3.38096L10.6662 3.18595ZM12.0773 2.63442L12.0074 2.43696L12.0011 2.43941L12.0773 2.63442ZM13.1011 3.0079L12.9193 3.11193L12.9209 3.11458L13.1011 3.0079ZM14.4207 5.23649L14.6012 5.13038L14.6009 5.12981L14.4207 5.23649ZM14.215 6.2935L14.3418 6.46013L14.3435 6.45874L14.215 6.2935ZM13.0337 7.19242L12.9069 7.0258L12.8146 7.09606L12.8252 7.21159L13.0337 7.19242ZM13.0337 8.01661L12.8252 7.99781L12.8148 8.11307L12.9069 8.18318L13.0337 8.01661ZM14.2124 8.91426L14.3402 8.74844L14.3393 8.74769L14.2124 8.91426ZM14.4258 9.96132L14.606 10.068L14.6077 10.0651L14.4258 9.96132ZM13.0947 12.2086L12.9145 12.1019L12.9138 12.1032L13.0947 12.2086ZM12.0659 12.5647L11.9895 12.7596L11.9909 12.7601L12.0659 12.5647ZM10.6688 12.0168L10.7452 11.8219L10.6431 11.7819L10.552 11.843L10.6688 12.0168ZM9.93846 12.4314L9.84901 12.2421L9.74802 12.2899L9.73141 12.4003L9.93846 12.4314ZM9.72126 13.8757L9.51421 13.8445L9.5141 13.8453L9.72126 13.8757ZM7.56016 5.62473C6.45483 5.63466 5.55884 6.52044 5.56563 7.614L5.98437 7.6114C5.97907 6.75647 6.6815 6.05139 7.56392 6.04347L7.56016 5.62473ZM5.56563 7.61401C5.57244 8.70755 6.47927 9.58251 7.58462 9.57923L7.58338 9.16047C6.70089 9.1631 5.9897 8.46641 5.98437 7.6114L5.56563 7.61401ZM7.58462 9.57923C8.68999 9.57597 9.59145 8.6956 9.59151 7.60203L9.17275 7.60201C9.17271 8.457 8.46586 9.15788 7.58338 9.16047L7.58462 9.57923ZM9.5915 7.60083C9.58523 6.50103 8.67305 5.6209 7.56132 5.62472L7.56276 6.04348C8.45149 6.04042 9.16784 6.74214 9.17276 7.60322L9.5915 7.60083ZM7.56509 10.1571C6.12156 10.1488 4.96453 8.99759 4.97013 7.59264L4.55138 7.59097C4.54483 9.23473 5.89608 10.5663 7.56269 10.5758L7.56509 10.1571ZM4.97013 7.59264C4.97572 6.18766 6.1419 5.04529 7.58548 5.04803L7.58627 4.62927C5.91966 4.62611 4.55792 5.94725 4.55138 7.59097L4.97013 7.59264ZM7.58548 5.04803C9.02905 5.05079 10.1907 6.19756 10.1907 7.60254L10.6095 7.60253C10.6094 5.95877 9.2529 4.63246 7.58628 4.62927L7.58548 5.04803ZM10.1907 7.60167C10.1849 9.01256 9.01388 10.1597 7.56426 10.1571L7.56352 10.5758C9.23614 10.5788 10.6027 9.25298 10.6095 7.6034L10.1907 7.60167ZM2.70853 3.48344V3.62375H3.12728V3.48344H2.70853ZM3.12728 3.62375V3.48344H2.70853V3.62375H3.12728ZM12.0034 11.7101V11.8504H12.4222V11.7101H12.0034ZM12.4222 11.8504V11.7101H12.0034V11.8504H12.4222ZM6.38795 13.7875H8.73896V13.3687H6.38795V13.7875ZM8.94611 13.6085L9.21665 11.7659L8.80234 11.7051L8.5318 13.5477L8.94611 13.6085ZM9.08686 11.93L9.35613 11.823L9.2014 11.4338L8.93213 11.5409L9.08686 11.93ZM9.35765 11.8223C9.7364 11.6683 10.0935 11.4671 10.42 11.2235L10.1697 10.8878C9.87178 11.11 9.54583 11.2937 9.19988 11.4345L9.35765 11.8223ZM10.4187 11.2245L10.6461 11.0577L10.3984 10.7201L10.171 10.8869L10.4187 11.2245ZM10.4461 11.0839L12.2243 11.7774L12.3765 11.3873L10.5983 10.6938L10.4461 11.0839ZM12.4804 11.6892L13.6553 9.70962L13.2952 9.4959L12.1203 11.4755L12.4804 11.6892ZM13.602 9.43614L12.097 8.29073L11.8434 8.62396L13.3484 9.76937L13.602 9.43614ZM12.1779 8.4836L12.2134 8.20222L11.798 8.14972L11.7624 8.4311L12.1779 8.4836ZM12.2128 8.20693C12.2726 7.80662 12.2726 7.3999 12.2128 6.9996L11.7986 7.06151C11.8524 7.42077 11.8524 7.78575 11.7986 8.14501L12.2128 8.20693ZM12.2134 7.0043L12.1779 6.72293L11.7624 6.77543L11.798 7.05681L12.2134 7.0043ZM12.097 6.91579L13.602 5.77038L13.3484 5.43715L11.8434 6.58257L12.097 6.91579ZM13.6551 5.49656L12.4714 3.51076L12.1117 3.72518L13.2954 5.71097L13.6551 5.49656ZM12.2153 3.42295L10.4371 4.11768L10.5895 4.50772L12.3677 3.81299L12.2153 3.42295ZM10.6391 4.14532L10.4105 3.9735L10.1589 4.30826L10.3875 4.48007L10.6391 4.14532ZM10.4111 3.97392C10.088 3.72943 9.73291 3.52886 9.3554 3.37755L9.1996 3.76624C9.54268 3.90375 9.86516 4.08594 10.1584 4.30783L10.4111 3.97392ZM9.35282 3.37654L9.08481 3.27321L8.93418 3.66393L9.20218 3.76726L9.35282 3.37654ZM9.21665 3.43815L8.94611 1.59553L8.5318 1.65636L8.80234 3.49898L9.21665 3.43815ZM8.73896 1.41657H6.38795V1.83532H8.73896V1.41657ZM6.18081 1.59539L5.90901 3.43802L6.32328 3.49912L6.59508 1.6565L6.18081 1.59539ZM6.03877 3.27401L5.76953 3.38109L5.92427 3.7702L6.19351 3.66313L6.03877 3.27401ZM5.76797 3.38171C5.38927 3.53583 5.03225 3.73705 4.70567 3.98048L4.95593 4.31622C5.25392 4.09411 5.57987 3.91037 5.92582 3.76957L5.76797 3.38171ZM4.70557 3.98055L4.48202 4.14738L4.73246 4.48298L4.95602 4.31615L4.70557 3.98055ZM4.68386 4.12033L2.91078 3.42312L2.75754 3.81283L4.53062 4.51003L4.68386 4.12033ZM2.6541 3.51111L1.47923 5.4907L1.83934 5.70442L3.01421 3.72483L2.6541 3.51111ZM1.53249 5.76417L3.03759 6.90957L3.29119 6.57633L1.78608 5.43094L1.53249 5.76417ZM2.95667 6.7167L2.92111 6.99807L3.33656 7.05058L3.37211 6.7692L2.95667 6.7167ZM2.92149 6.9952C2.89357 7.19393 2.87849 7.39417 2.87626 7.59471L3.29499 7.59936C3.29702 7.41672 3.31075 7.23439 3.33617 7.05345L2.92149 6.9952ZM2.87626 7.59936C2.87849 7.79992 2.89357 8.00016 2.92149 8.19887L3.33617 8.14061C3.31075 7.9597 3.29702 7.77737 3.29499 7.59471L2.87626 7.59936ZM2.92111 8.19599L2.95667 8.47737L3.37211 8.42486L3.33656 8.14349L2.92111 8.19599ZM3.03759 8.2845L1.53249 9.42991L1.78608 9.76315L3.29119 8.61773L3.03759 8.2845ZM1.479 9.70299L2.65387 11.6925L3.01445 11.4796L1.83957 9.49007L1.479 9.70299ZM2.91035 11.7811L4.68853 11.0864L4.53614 10.6963L2.75796 11.3911L2.91035 11.7811ZM4.48654 11.0587L4.71516 11.2305L4.96674 10.8958L4.73812 10.724L4.48654 11.0587ZM4.71461 11.2301C5.03766 11.4746 5.39275 11.6752 5.77025 11.8265L5.92607 11.4378C5.58299 11.3003 5.2605 11.1181 4.9673 10.8962L4.71461 11.2301ZM5.77081 11.8267L6.04005 11.9338L6.19477 11.5446L5.92552 11.4376L5.77081 11.8267ZM5.91026 11.7697L6.1808 13.6086L6.59509 13.5476L6.32456 11.7087L5.91026 11.7697ZM8.89313 14.3647H6.2335V14.7835H8.89313V14.3647ZM6.23227 14.3647C5.91523 14.3666 5.65163 14.138 5.61025 13.8383L5.19543 13.8956C5.26641 14.4097 5.71403 14.7865 6.23473 14.7835L6.23227 14.3647ZM5.61001 13.8367L5.40044 12.4024L4.98609 12.463L5.19566 13.8972L5.61001 13.8367ZM5.28209 12.2431C5.03735 12.1284 4.80217 11.9951 4.57872 11.8445L4.34464 12.1917C4.58608 12.3545 4.84012 12.4984 5.10443 12.6223L5.28209 12.2431ZM4.38552 11.8231L2.97313 12.3746L3.12546 12.7647L4.53784 12.2131L4.38552 11.8231ZM2.97963 12.3722C2.68455 12.4763 2.35839 12.3553 2.20716 12.0919L1.84399 12.3004C2.09776 12.7424 2.63705 12.9371 3.11897 12.7671L2.97963 12.3722ZM2.20564 12.0893L0.883448 9.86071L0.523309 10.0744L1.8455 12.303L2.20564 12.0893ZM0.883877 9.86144C0.729868 9.59946 0.793618 9.26572 1.03771 9.07578L0.780551 8.7453C0.372354 9.06292 0.261083 9.62831 0.52288 10.0737L0.883877 9.86144ZM1.03593 9.07716L2.21716 8.17824L1.96356 7.84501L0.782336 8.74392L1.03593 9.07716ZM2.29897 7.99372C2.28667 7.85044 2.28069 7.72204 2.28069 7.60078H1.86194C1.86194 7.73597 1.86862 7.87649 1.88175 8.02952L2.29897 7.99372ZM2.28069 7.60078C2.28069 7.47134 2.28093 7.34849 2.298 7.21683L1.88272 7.16299C1.8617 7.32517 1.86194 7.47372 1.86194 7.60078H2.28069ZM2.21722 7.02334L1.03855 6.12569L0.784832 6.45883L1.9635 7.35648L2.21722 7.02334ZM1.03909 6.1261C0.793836 5.93805 0.729247 5.60435 0.88365 5.34298L0.523108 5.13C0.259744 5.57581 0.3729 6.14298 0.784287 6.45841L1.03909 6.1261ZM0.883485 5.34326L2.21204 3.10224L1.85182 2.88869L0.523273 5.12972L0.883485 5.34326ZM2.21285 3.10086C2.36552 2.83879 2.69421 2.72303 2.98572 2.83487L3.13572 2.4439C2.65612 2.25989 2.10899 2.44725 1.85102 2.89007L2.21285 3.10086ZM2.98429 2.83431L4.38143 3.38212L4.53429 2.99226L3.13715 2.44446L2.98429 2.83431ZM4.57458 3.36101C4.7983 3.21078 5.03331 3.07735 5.27764 2.96191L5.09875 2.58329C4.83551 2.70767 4.58226 2.85145 4.34113 3.01337L4.57458 3.36101ZM5.3953 2.80338L5.60994 1.35916L5.19574 1.2976L4.98109 2.74182L5.3953 2.80338ZM5.61 1.35874C5.65356 1.06146 5.9166 0.836164 6.23141 0.839299L6.23558 0.420567C5.71772 0.41541 5.2705 0.787343 5.19567 1.29803L5.61 1.35874ZM6.2335 0.83931H8.89313V0.420557H6.2335V0.83931ZM8.89373 0.839309C9.21004 0.838405 9.47256 1.06676 9.51385 1.36574L9.92867 1.30845C9.85784 0.795587 9.41205 0.419072 8.89254 0.420557L8.89373 0.839309ZM9.51416 1.36791L9.72754 2.80217L10.1417 2.74055L9.92836 1.30629L9.51416 1.36791ZM9.84583 2.96097C10.0906 3.07561 10.3257 3.20889 10.5492 3.35955L10.7833 3.01235C10.5418 2.84955 10.2878 2.70557 10.0234 2.58175L9.84583 2.96097ZM10.7425 3.38096L12.1536 2.82943L12.0011 2.43941L10.59 2.99094L10.7425 3.38096ZM12.1473 2.83177C12.4422 2.72727 12.7685 2.84832 12.9193 3.11192L13.2828 2.90388C13.0294 2.46123 12.4895 2.26624 12.0074 2.43707L12.1473 2.83177ZM12.9209 3.11458L14.2406 5.34317L14.6009 5.12981L13.2812 2.90122L12.9209 3.11458ZM14.2402 5.3426C14.3942 5.60458 14.3305 5.93832 14.0864 6.12826L14.3435 6.45874C14.7517 6.14112 14.863 5.57573 14.6012 5.13038L14.2402 5.3426ZM14.0882 6.12688L12.9069 7.0258L13.1605 7.35904L14.3418 6.46012L14.0882 6.12688ZM12.8252 7.21159C12.8362 7.33038 12.8434 7.46464 12.8434 7.6045H13.2622C13.2622 7.45057 13.2542 7.30346 13.2422 7.17325L12.8252 7.21159ZM12.8434 7.6045C12.8434 7.74422 12.8362 7.87609 12.8252 7.99781L13.2423 8.03541C13.2542 7.90317 13.2622 7.75862 13.2622 7.6045H12.8434ZM12.9069 8.18318L14.0856 9.08084L14.3393 8.74769L13.1606 7.85004L12.9069 8.18318ZM14.0846 9.08009C14.3271 9.26705 14.393 9.59642 14.244 9.85755L14.6077 10.0651C14.8615 9.62034 14.7463 9.0615 14.3402 8.74844L14.0846 9.08009ZM14.2457 9.85461L12.9146 12.1019L13.2748 12.3153L14.606 10.068L14.2457 9.85461ZM12.9138 12.1032C12.7611 12.3653 12.4324 12.481 12.1409 12.3692L11.9909 12.7601C12.4705 12.9441 13.0176 12.7568 13.2756 12.314L12.9138 12.1032ZM12.1423 12.3697L10.7452 11.8219L10.5923 12.2118L11.9895 12.7596L12.1423 12.3697ZM10.552 11.843C10.3284 11.9933 10.0933 12.1267 9.84901 12.2421L10.0279 12.6207C10.2911 12.4964 10.5444 12.3526 10.7855 12.1907L10.552 11.843ZM9.73141 12.4003L9.51421 13.8445L9.92831 13.9068L10.1455 12.4626L9.73141 12.4003ZM9.5141 13.8453C9.47065 14.1419 9.20868 14.3669 8.89459 14.3647L8.89168 14.7835C9.40835 14.7871 9.85378 14.4155 9.92842 13.906L9.5141 13.8453Z" fill="#EEEEEE"/>
</svg>
