<svg width="98" height="41" viewBox="0 0 98 41" fill="none" xmlns="http://www.w3.org/2000/svg">
<path fill-rule="evenodd" clip-rule="evenodd" d="M8.81289 24.8127C6.3827 24.8127 1.78295 24.0265 1.98648 22.5417C2.21857 20.8487 12.4909 21.1364 15.2488 21.6628C13.6316 23.8241 12.1442 24.8127 8.81289 24.8127ZM9.11325 19.7454C1.70995 19.7061 0 21.179 0 22.7275C0 24.5237 3.25618 27.0685 9.02176 27.0685C15.3662 27.0685 17.6335 22.1256 17.6335 22.1256L19.1071 22.5692L19.4119 21.4188C19.4119 21.4188 14.7624 19.7753 9.11325 19.7454Z" fill="#F11A64"/>
<mask id="mask0" mask-type="alpha" maskUnits="userSpaceOnUse" x="2" y="0" width="22" height="23">
<path fill-rule="evenodd" clip-rule="evenodd" d="M2.36597 0.0325317H23.7865V22.642H2.36597V0.0325317H2.36597Z" fill="white"/>
</mask>
<g mask="url(#mask0)">
<path fill-rule="evenodd" clip-rule="evenodd" d="M15.2487 21.6628C15.2487 21.6628 16.6188 19.8061 14.9702 17.4077C13.061 14.6302 6.70599 12.6532 3.7545 8.78018C1.28778 5.54327 1.98116 1.58618 6.85532 0.502159C11.228 -0.470336 18.3698 -0.230626 23.1619 4.12564C24.9042 5.70949 22.4861 6.78549 22.1278 6.7339C22.0356 6.70981 21.7321 6.44116 21.5782 6.30033C19.8977 4.76231 15.9972 1.69246 8.58078 2.78366C1.9982 3.75221 5.98859 8.45218 10.1508 10.9938C14.2839 13.5176 20.2287 16.6762 17.3455 22.6421" fill="#F11A64"/>
</g>
<path fill-rule="evenodd" clip-rule="evenodd" d="M15.8625 10.6178C15.8625 10.6178 35.6992 6.12738 35.9787 6.07449C36.2584 6.02156 37.7302 5.60253 38.04 6.81297C38.1747 7.339 38.0558 8.31058 37.953 8.48442C37.9277 8.52722 36.7143 8.69014 36.7143 8.69014L15.8714 11.5955C15.8714 11.5955 15.3486 11.6621 15.308 11.1628C15.2719 10.7187 15.8625 10.6178 15.8625 10.6178Z" fill="#F11A64"/>
<mask id="mask1" mask-type="alpha" maskUnits="userSpaceOnUse" x="74" y="5" width="24" height="7">
<path fill-rule="evenodd" clip-rule="evenodd" d="M97.4953 5.96179V11.5985H74.7014V5.96179H97.4953Z" fill="white"/>
</mask>
<g mask="url(#mask1)">
<path fill-rule="evenodd" clip-rule="evenodd" d="M75.2575 10.6178C75.2575 10.6178 95.0942 6.12738 95.3738 6.07449C95.6534 6.02156 97.1252 5.60253 97.4351 6.81297C97.5697 7.339 97.4509 8.31058 97.348 8.48442C97.3227 8.52722 96.1093 8.69014 96.1093 8.69014L75.2664 11.5955C75.2664 11.5955 74.7436 11.6621 74.703 11.1628C74.6669 10.7187 75.2575 10.6178 75.2575 10.6178Z" fill="#F11A64"/>
</g>
<path fill-rule="evenodd" clip-rule="evenodd" d="M84.4187 21.8529C84.4187 21.8529 81.2954 27.8868 78.5495 26.1453C74.9957 23.5948 85.1041 7.90772 86.5841 5.07826C87.613 3.11124 89.1983 4.03126 89.8372 4.95141C89.9089 5.05463 89.6228 5.48187 89.2323 6.14087C84.9817 12.8655 78.8319 23.7506 80.1404 24.441C81.2491 25.0261 83.3897 21.3717 83.3897 21.3717C83.9205 20.4714 84.8102 21.1091 84.4187 21.8529Z" fill="#F11A64"/>
<path fill-rule="evenodd" clip-rule="evenodd" d="M25.4792 22.0402C25.4792 22.0402 22.5272 28.0334 19.527 26.0927C16.2119 23.6271 25.955 7.90774 27.435 5.07832C28.4639 3.1113 30.0492 4.03132 30.6881 4.95147C30.7598 5.05469 30.4737 5.48193 30.0832 6.14093C25.8326 12.8656 19.8491 23.7497 20.9913 24.4411C21.9341 25.0118 24.2406 21.3718 24.2406 21.3718C24.9232 20.3119 26.3188 20.9047 25.4792 22.0402Z" fill="#F11A64"/>
<path fill-rule="evenodd" clip-rule="evenodd" d="M61.3184 24.3585C60.601 24.0098 61.6051 21.3855 63.5973 18.8173C67.9411 13.2176 67.7935 16.1434 67.7935 16.1434C64.4734 22.0322 62.1338 24.7547 61.3184 24.3585ZM68.6773 15.076C68.6773 15.076 69.0721 13.6983 67.94 13.2823C66.8079 12.8663 64.4205 13.6649 61.414 18.0683C59.2432 21.2478 57.9325 25.2806 60.6358 26.4165C63.3284 27.548 68.9776 19.1419 68.6773 15.076Z" fill="#F11A64"/>
<path fill-rule="evenodd" clip-rule="evenodd" d="M34.4364 22.0074C34.4364 22.0074 32.6095 25.3156 31.4628 24.5374C30.3161 23.7593 34.4849 16.9179 35.7361 14.6557C36.0829 14.0288 36.2396 13.755 36.2295 13.725C35.9097 13.1852 34.7064 12.5139 33.9329 13.6357C33.9329 13.6357 26.2095 24.4585 30.5754 26.368C33.1971 27.2866 34.9158 23.6393 34.9158 23.6393L34.4364 22.0074Z" fill="#F11A64"/>
<path fill-rule="evenodd" clip-rule="evenodd" d="M44.8399 22.0074C44.8399 22.0074 43.0131 25.3156 41.8664 24.5374C40.7197 23.7593 44.8885 16.9179 46.1397 14.6557C46.4864 14.0288 46.6431 13.755 46.6331 13.725C46.3133 13.1852 45.1099 12.5139 44.3364 13.6357C44.3364 13.6357 36.6131 24.4585 40.9789 26.368C43.6006 27.2866 45.4495 23.578 45.4495 23.578L44.8399 22.0074Z" fill="#F11A64"/>
<path fill-rule="evenodd" clip-rule="evenodd" d="M69.8713 21.7943C69.8713 21.7943 68.1447 25.3156 66.998 24.5374C65.8513 23.7593 70.0201 16.9179 71.2713 14.6557C71.618 14.0288 71.7747 13.755 71.7647 13.725C71.4449 13.1852 70.2415 12.5139 69.468 13.6357C69.468 13.6357 61.7447 24.4585 66.1105 26.368C68.7322 27.2866 70.6821 23.8385 70.6821 23.8385L69.8713 21.7943Z" fill="#F11A64"/>
<path fill-rule="evenodd" clip-rule="evenodd" d="M25.8106 24.3722C25.0932 24.0236 26.07 21.3855 28.0622 18.8173C32.406 13.2176 32.2583 16.1434 32.2583 16.1434C28.9382 22.0322 26.626 24.7685 25.8106 24.3722ZM33.1421 15.076C33.1421 15.076 33.5369 13.6983 32.4049 13.2823C31.2728 12.8663 28.8853 13.6649 25.8788 18.0684C23.708 21.2478 22.3974 25.2806 25.1006 26.4165C27.7933 27.548 33.4425 19.142 33.1421 15.076Z" fill="#F11A64"/>
<path fill-rule="evenodd" clip-rule="evenodd" d="M36.1866 24.386C35.4692 24.0373 36.4735 21.3854 38.4657 18.8173C42.8096 13.2176 42.6619 16.1434 42.6619 16.1434C39.3418 22.0322 37.0019 24.7823 36.1866 24.386ZM43.5457 15.076C43.5457 15.076 43.9405 13.6983 42.8084 13.2823C41.6763 12.8663 39.2889 13.6649 36.2824 18.0684C34.1116 21.2478 32.8009 25.2806 35.5042 26.4165C38.1968 27.548 43.846 19.142 43.5457 15.076Z" fill="#F11A64"/>
<path fill-rule="evenodd" clip-rule="evenodd" d="M29.9201 37.9158C30.6027 33.9243 37.4974 25.9895 37.4974 25.9895C36.0638 32.3415 29.9201 37.9158 29.9201 37.9158ZM36.6987 25.143C36.6987 25.143 27.4892 35.0281 27.353 39.2935C27.353 39.2935 28.1349 40.9879 29.6518 40.9879C31.3941 40.9879 37.7705 34.8094 39.6955 24.8127L39.9139 23.4789L36.6987 25.143Z" fill="#F11A64"/>
<path fill-rule="evenodd" clip-rule="evenodd" d="M47.0876 21.0771C47.0876 21.0771 49.3979 16.5325 50.8293 15.2537C50.8293 15.2537 51.29 18.3402 47.0876 21.0771ZM52.8709 16.1124C53.3074 13.6602 51.8483 10.9466 48.3513 15.0266C45.2223 18.6772 43.4756 23.981 45.8392 25.9138C48.5763 28.1521 52.3754 23.1367 52.3754 23.1367L52.1877 21.5782C46.7129 27.6618 46.6856 22.9408 46.6856 22.9408C49.2728 22.2629 52.458 18.4319 52.8709 16.1124Z" fill="#F11A64"/>
<path fill-rule="evenodd" clip-rule="evenodd" d="M60.6662 20.2293C60.6662 20.2293 56.1885 26.0098 54.5975 24.2139C53.0065 22.418 56.3405 17.575 57.7317 16.281C59.3961 14.733 58.9031 16.253 58.5679 16.7976C58.3632 17.1302 58.3632 17.1302 58.3722 17.2226C58.4394 17.9162 59.2973 18.8319 60.0738 17.921C61.228 16.5671 62.1012 13.45 59.643 12.944C56.7888 12.3564 48.7038 21.8885 53.4302 26.0204C55.6495 27.8434 59.1663 24.0092 60.395 22.3438C61.6238 20.6784 60.6662 20.2293 60.6662 20.2293Z" fill="#F11A64"/>
<path fill-rule="evenodd" clip-rule="evenodd" d="M74.0081 24.7121C72.8157 25.1447 72.1122 22.0325 72.1122 22.0325C72.1122 22.0325 74.3371 17.5316 75.1699 16.7746C75.1699 16.7746 75.6646 24.1968 74.0081 24.7121ZM77.0449 14.6875C77.1106 14.2169 77.2274 13.7915 77.1955 13.7159C76.8039 12.7877 75.1541 12.6947 74.515 13.8222C73.176 16.1846 68.5303 23.9236 68.5303 23.9236L69.213 23.9632L69.0757 24.2346C69.0757 24.2346 69.1417 25.1224 69.3301 24.9435C69.5185 24.7646 70.7538 23.7609 70.7538 23.7609C71.102 25.2887 72.4828 26.5817 74.01 26.5204C78.9777 26.17 76.7482 16.8143 77.0449 14.6875Z" fill="#F11A64"/>
</svg>
