<svg width="137" height="130" viewBox="0 0 137 130" fill="none" xmlns="http://www.w3.org/2000/svg">
<g filter="url(#filter0_d)">
<path d="M46.5634 36H79.7493C83.3629 36 86.3127 38.9499 86.3127 42.5634V76.708C86.3127 80.3216 83.3628 83.2713 79.7493 83.2713H46.5634C42.9499 83.2714 40 80.3216 40 76.708V42.4897C40 38.9499 42.9499 36 46.5634 36Z" fill="#45577D"/>
<path d="M61.4602 66.8998L51.7257 57.1652L40 68.8909V71.3246V76.6344C40 80.248 42.9499 83.1978 46.5634 83.1978H79.7493C83.3629 83.1978 86.3127 80.2479 86.3127 76.6344V71.3246V64.0237L75.3245 52.9617L61.4602 66.8998Z" fill="#8070FF"/>
<path d="M61.165 55.764C63.4458 55.764 65.2948 53.9151 65.2948 51.6342C65.2948 49.3534 63.4458 47.5044 61.165 47.5044C58.8841 47.5044 57.0352 49.3534 57.0352 51.6342C57.0352 53.9151 58.8841 55.764 61.165 55.764Z" fill="#8070FF"/>
<path d="M86.3128 86C92.1778 86 96.9323 81.2455 96.9323 75.3806C96.9323 69.5156 92.1778 64.7611 86.3128 64.7611C80.4478 64.7611 75.6934 69.5156 75.6934 75.3806C75.6934 81.2455 80.4478 86 86.3128 86Z" fill="#2D3952"/>
<path d="M84.7637 70.4396C84.7637 69.5546 85.4274 68.8909 86.3124 68.8909C87.1236 68.8909 87.8611 69.5546 87.8611 70.4396V80.469C87.8611 81.354 87.1973 82.0178 86.3124 82.0178C85.4274 82.0178 84.7637 81.354 84.7637 80.469V70.4396Z" fill="#8070FF"/>
<path d="M85.2062 71.4721C84.6162 70.8821 84.6162 69.9234 85.2062 69.3334C85.7961 68.7434 86.7549 68.7434 87.3448 69.3334L90.8847 72.8733C91.4747 73.4632 91.4747 74.422 90.8847 75.0119C90.2947 75.6019 89.336 75.6019 88.746 75.0119L85.2062 71.4721Z" fill="#8070FF"/>
<path d="M85.2054 69.3338C85.7954 68.7439 86.7541 68.7439 87.3441 69.3338C87.9341 69.9238 87.9341 70.8825 87.3441 71.4725L83.878 75.0124C83.2881 75.6023 82.3293 75.6023 81.7394 75.0124C81.1494 74.4224 81.1494 73.4637 81.7394 72.8737L85.2054 69.3338Z" fill="#8070FF"/>
</g>
<defs>
<filter id="filter0_d" x="0" y="0" width="136.932" height="130" filterUnits="userSpaceOnUse" color-interpolation-filters="sRGB">
<feFlood flood-opacity="0" result="BackgroundImageFix"/>
<feColorMatrix in="SourceAlpha" type="matrix" values="0 0 0 0 0 0 0 0 0 0 0 0 0 0 0 0 0 0 127 0"/>
<feOffset dy="4"/>
<feGaussianBlur stdDeviation="20"/>
<feColorMatrix type="matrix" values="0 0 0 0 0.12549 0 0 0 0 0.160784 0 0 0 0 0.231373 0 0 0 1 0"/>
<feBlend mode="normal" in2="BackgroundImageFix" result="effect1_dropShadow"/>
<feBlend mode="normal" in="SourceGraphic" in2="effect1_dropShadow" result="shape"/>
</filter>
</defs>
</svg>
