<svg width="25" height="25" viewBox="0 0 25 25" fill="none" xmlns="http://www.w3.org/2000/svg">
<rect x="6" y="19.5" width="5" height="0.7" rx="0.35" fill="var(--svg-color)"/>
<rect x="6" y="17.5" width="13" height="0.7" rx="0.35" fill="var(--svg-color)"/>
<rect x="6" y="15.5" width="13" height="0.7" rx="0.35" fill="var(--svg-color)"/>
<rect x="10" y="13.5" width="9" height="0.7" rx="0.35" fill="var(--svg-color)"/>
<rect x="6" y="13.5" width="2" height="0.7" rx="0.35" fill="var(--svg-color)"/>
<rect x="6" y="5" width="13" height="7" rx="0.730435" stroke="var(--svg-color)" stroke-width="0.608696"/>
<path fill-rule="evenodd" clip-rule="evenodd" d="M8.99087 7.13809L6.04863 11.6141C6.0309 11.6411 6.01502 11.7 6 11.7H13.6671C13.6555 11.7 13.6434 11.6584 13.6305 11.6404L10.4071 7.11474C10.0071 6.55346 9.36974 6.56237 8.99087 7.13809" fill="var(--svg-color)"/>
<path fill-rule="evenodd" clip-rule="evenodd" d="M17.785 12.2226V12.0693L15.8358 9.2751C15.5653 8.89573 15.1529 8.91261 14.8968 9.30171L13 12.2226H17.785Z" fill="var(--svg-color)"/>
<path fill-rule="evenodd" clip-rule="evenodd" d="M17.5 7.25C17.5 7.66422 17.1642 8 16.75 8C16.3358 8 16 7.66422 16 7.25C16 6.83578 16.3358 6.5 16.75 6.5C17.1642 6.5 17.5 6.83578 17.5 7.25Z" fill="var(--svg-color)"/>
</svg>
