<svg width="70" height="70" viewBox="0 0 70 70" fill="none" xmlns="http://www.w3.org/2000/svg">
<path fill-rule="evenodd" clip-rule="evenodd" d="M35.1832 41.7977C35.1832 41.2844 35.5993 40.8684 36.1125 40.8684H47.9145C48.4277 40.8684 48.8438 41.2844 48.8438 41.7977V50.9976C48.8438 51.5108 48.4277 51.9269 47.9145 51.9269H36.1125C35.5993 51.9269 35.1832 51.5108 35.1832 50.9976V41.7977ZM39.7349 44.121C39.7349 43.7617 40.0261 43.4705 40.3854 43.4705C40.7446 43.4705 41.0359 43.7617 41.0359 44.121V48.6745C41.0359 49.0338 40.7446 49.325 40.3854 49.325C40.0261 49.325 39.7349 49.0338 39.7349 48.6745V44.121ZM43.64 43.4705C43.2807 43.4705 42.9895 43.7617 42.9895 44.121V48.6745C42.9895 49.0338 43.2807 49.325 43.64 49.325C43.9992 49.325 44.2905 49.0338 44.2905 48.6745V44.121C44.2905 43.7617 43.9992 43.4705 43.64 43.4705Z" fill="var(--svg-color)"/>
<path fill-rule="evenodd" clip-rule="evenodd" d="M33.8855 43.4705H15.994C14.3774 43.4705 13.0668 44.781 13.0668 46.3977C13.0668 48.0144 14.3773 49.325 15.994 49.325H33.8855V43.4705ZM50.148 49.325H53.0727C54.6894 49.325 56 48.0144 56 46.3977C56 44.781 54.6894 43.4705 53.0727 43.4705H50.148V49.325Z" fill="var(--svg-color)"/>
<path d="M45.9159 16.8C40.3474 16.8 35.8331 21.3142 35.8331 26.8828C35.8331 32.4514 40.3474 36.9656 45.9159 36.9656C51.4845 36.9656 55.9987 32.4514 55.9987 26.8828C55.9987 21.3142 51.4845 16.8 45.9159 16.8ZM40.8745 22.1811C41.264 21.9562 41.6994 21.8439 42.1349 21.8439C42.5703 21.8439 43.0057 21.9562 43.3952 22.1811C44.1743 22.6308 44.6556 23.4626 44.6556 24.3621C44.6557 24.3681 44.6557 24.374 44.6556 24.3799C44.6506 24.728 44.3645 25.0061 44.0165 25.0012C43.6684 24.9963 43.3903 24.7101 43.3952 24.3621C43.3952 23.9109 43.1559 23.4972 42.7651 23.2716C42.3742 23.046 41.8955 23.046 41.5047 23.2716C41.1139 23.4972 40.8745 23.9109 40.8745 24.3621C40.8746 24.3687 40.8746 24.3752 40.8745 24.3818C40.8691 24.7298 40.5825 25.0076 40.2345 25.0021H40.2345C39.8865 24.9967 39.6087 24.7101 39.6142 24.3621C39.6142 23.4626 40.0955 22.6308 40.8745 22.1811ZM50.9573 28.1431C50.9577 29.9446 49.9967 31.6093 48.4366 32.5101C46.8768 33.4106 44.955 33.4106 43.3952 32.5101C41.8351 31.6093 40.8742 29.9446 40.8745 28.1431H50.9573ZM50.9573 24.3621C50.9573 23.9109 50.718 23.4972 50.3271 23.2716C49.9363 23.046 49.4576 23.046 49.0668 23.2716C48.676 23.4972 48.4366 23.9109 48.4366 24.3621C48.4367 24.3687 48.4367 24.3752 48.4366 24.3818C48.4312 24.7298 48.1446 25.0076 47.7966 25.0021H47.7966C47.4486 24.9967 47.1708 24.7101 47.1763 24.3621C47.1763 23.4626 47.6576 22.6308 48.4366 22.1811C48.8261 21.9562 49.2615 21.8439 49.697 21.8439C50.1324 21.8439 50.5678 21.9562 50.9573 22.1811C51.7364 22.6308 52.2177 23.4626 52.2177 24.3621C52.2178 24.3681 52.2178 24.374 52.2177 24.3799C52.2127 24.728 51.9266 25.0061 51.5786 25.0012C51.2306 24.9963 50.9524 24.7101 50.9573 24.3621Z" fill="var(--svg-color)"/>
<path d="M23.0826 16.8C17.5573 16.8 13.0648 21.2926 13.0648 26.8177C13.0648 32.343 17.5573 36.8355 23.0826 36.8355C28.6078 36.8355 33.1003 32.343 33.1003 26.8177C33.1003 21.2926 28.6078 16.8 23.0826 16.8ZM23.0826 18.0522C27.931 18.0522 31.8481 21.9693 31.8481 26.8177C31.8481 31.6662 27.931 35.5833 23.0826 35.5833C18.2341 35.5833 14.317 31.6662 14.317 26.8177C14.317 21.9693 18.2341 18.0522 23.0826 18.0522ZM17.4378 23.0611C17.092 23.0665 16.8161 23.3512 16.8215 23.697V23.697C16.8215 24.5908 17.2997 25.4194 18.0737 25.8664C18.8477 26.3131 19.8041 26.3131 20.5781 25.8664C21.3521 25.4194 21.8303 24.5908 21.8303 23.697C21.8352 23.3512 21.5589 23.0669 21.2131 23.062C20.8673 23.0571 20.583 23.3335 20.5781 23.6793C20.578 23.6852 20.578 23.6911 20.5781 23.697C20.5781 24.1454 20.3403 24.5562 19.952 24.7805C19.5637 25.0046 19.0881 25.0046 18.6998 24.7805C18.3115 24.5562 18.0737 24.1454 18.0737 23.697C18.0791 23.3512 17.8032 23.0665 17.4574 23.0611C17.4509 23.061 17.4443 23.061 17.4378 23.0611ZM24.9511 23.0611C24.6053 23.0665 24.3294 23.3512 24.3348 23.697V23.697C24.3348 24.5908 24.813 25.4194 25.587 25.8664C26.361 26.3131 27.3174 26.3131 28.0914 25.8664C28.8654 25.4194 29.3437 24.5908 29.3437 23.697C29.3485 23.3512 29.0722 23.0669 28.7264 23.062C28.3806 23.0571 28.0963 23.3335 28.0914 23.6793C28.0913 23.6852 28.0913 23.6911 28.0914 23.697C28.0914 24.1454 27.8536 24.5562 27.4653 24.7805C27.077 25.0046 26.6014 25.0046 26.2131 24.7805C25.8248 24.5562 25.587 24.1454 25.587 23.697C25.5924 23.3512 25.3165 23.0665 24.9707 23.0611C24.9642 23.061 24.9576 23.061 24.9511 23.0611ZM23.0875 28.07C20.8806 28.0691 18.8333 29.2333 17.7044 31.1296C17.5154 31.4192 17.5971 31.8072 17.8867 31.9961C18.1764 32.1851 18.5644 32.1034 18.7533 31.8138C18.763 31.7989 18.7721 31.7836 18.7805 31.7679C19.6845 30.2495 21.3203 29.3215 23.0874 29.3222C24.8546 29.3228 26.4866 30.2536 27.3895 31.7728C27.562 32.0725 27.9448 32.1757 28.2445 32.0032C28.2449 32.0031 28.2452 32.0029 28.2455 32.0027C28.545 31.8298 28.6477 31.4468 28.4748 31.1473C28.4718 31.1422 28.4687 31.1371 28.4656 31.132C27.3382 29.2349 25.2943 28.0708 23.0875 28.07Z" fill="var(--svg-color)"/>
</svg>
