<svg width="96" height="95" viewBox="0 0 96 95" fill="none" xmlns="http://www.w3.org/2000/svg">
<path fill-rule="evenodd" clip-rule="evenodd" d="M94.6558 44.4766C95.398 44.4766 95.9999 43.8732 95.9999 43.1292V1.34706C95.9999 0.602986 95.398 0 94.6558 0H53.3416C52.5994 0 51.9976 0.602986 51.9976 1.34706V43.1292C51.9976 43.8732 52.5994 44.4766 53.3416 44.4766H94.6558ZM92.3634 33.1752H55.6342V4.01019H92.3634V33.1752Z" fill="var(--svg-color)"/>
<path fill-rule="evenodd" clip-rule="evenodd" d="M66.498 16.6488L55.4531 33.4934C55.3865 33.5948 55.3269 33.8164 55.2705 33.8164H84.0524C84.0087 33.8164 83.9633 33.66 83.9149 33.5922L71.8143 16.561C70.3128 14.4487 67.9203 14.4822 66.498 16.6488Z" fill="var(--svg-color)"/>
<path fill-rule="evenodd" clip-rule="evenodd" d="M92.2821 33.6492V33.1265L85.649 23.5942C84.7286 22.3001 83.3252 22.3577 82.4535 23.685L75.999 33.6492H92.2821Z" fill="var(--svg-color)"/>
<path fill-rule="evenodd" clip-rule="evenodd" d="M86.6245 10.7943C86.6245 12.7291 85.06 14.2974 83.1301 14.2974C81.2002 14.2974 79.6357 12.7291 79.6357 10.7943C79.6357 8.85961 81.2002 7.29126 83.1301 7.29126C85.06 7.29126 86.6245 8.85961 86.6245 10.7943Z" fill="var(--svg-color)"/>
<path fill-rule="evenodd" clip-rule="evenodd" d="M42.6582 44.4766C43.4005 44.4766 44.0023 43.8732 44.0023 43.1292V1.34706C44.0023 0.602986 43.4005 0 42.6582 0H1.34407C0.60185 0 0 0.602986 0 1.34706V43.1292C0 43.8732 0.60185 44.4766 1.34407 44.4766H42.6582ZM40.3658 33.1752H3.63656V4.01019H40.3658V33.1752Z" fill="var(--svg-color)"/>
<path d="M32.4578 15.4358C32.2764 14.8687 31.7991 14.4617 31.2098 14.3735L25.8966 13.5937L23.5216 8.75508C23.2591 8.22041 22.7278 7.88831 22.135 7.88831C21.5455 7.88831 21.0135 8.2179 20.7434 8.75524L18.3686 13.5937L13.0519 14.374C12.4664 14.4627 11.9901 14.8708 11.8089 15.4391C11.6284 16.0051 11.7793 16.6136 12.2012 17.0256L16.0428 20.7984L15.1372 26.1207C15.0599 26.5725 15.1829 27.0314 15.4747 27.3798C15.7715 27.7341 16.2036 27.9373 16.6605 27.9373C16.9079 27.9373 17.1566 27.8752 17.3801 27.7573L22.1326 25.2475L26.8857 27.7576C27.1087 27.8751 27.3574 27.9373 27.6048 27.9373C28.0617 27.9373 28.4939 27.7341 28.7906 27.3797C29.0823 27.0313 29.2054 26.5724 29.1282 26.1213L28.2225 20.7985L32.0625 17.0272C32.4874 16.6121 32.6389 16.0024 32.4578 15.4358Z" fill="var(--svg-color)"/>
<path fill-rule="evenodd" clip-rule="evenodd" d="M42.6582 95C43.4005 95 44.0023 94.3967 44.0023 93.6526V51.8705C44.0023 51.1264 43.4005 50.5234 42.6582 50.5234H1.34407C0.60185 50.5234 0 51.1264 0 51.8705V93.6526C0 94.3967 0.60185 95 1.34407 95H42.6582ZM40.3658 83.6986H3.63656V54.5336H40.3658V83.6986Z" fill="var(--svg-color)"/>
<path fill-rule="evenodd" clip-rule="evenodd" d="M14.5273 66.6649L3.18743 83.6738C3.1191 83.7762 3.05787 84 3 84H32.5505C32.5057 84 32.4591 83.8421 32.4094 83.7736L19.9856 66.5762C18.444 64.4433 15.9876 64.4772 14.5273 66.6649Z" fill="var(--svg-color)"/>
<path fill-rule="evenodd" clip-rule="evenodd" d="M41.0001 83.8312V83.3033L34.1899 73.6781C33.2449 72.3713 31.8041 72.4295 30.9091 73.7698L24.2822 83.8312H41.0001Z" fill="var(--svg-color)"/>
<path fill-rule="evenodd" clip-rule="evenodd" d="M34.6264 61.3178C34.6264 63.2525 33.062 64.8209 31.1321 64.8209C29.2021 64.8209 27.6377 63.2525 27.6377 61.3178C27.6377 59.383 29.2021 57.8147 31.1321 57.8147C33.062 57.8147 34.6264 59.383 34.6264 61.3178Z" fill="var(--svg-color)"/>
<path fill-rule="evenodd" clip-rule="evenodd" d="M94.6558 95C95.398 95 95.9999 94.3967 95.9999 93.6526V51.8705C95.9999 51.1264 95.398 50.5234 94.6558 50.5234H53.3416C52.5994 50.5234 51.9976 51.1264 51.9976 51.8705V93.6526C51.9976 94.3967 52.5994 95 53.3416 95H94.6558ZM92.3634 83.6986H55.6342V54.5336H92.3634V83.6986Z" fill="var(--svg-color)"/>
<path d="M84.4553 65.9593C84.2739 65.3921 83.7967 64.9852 83.2073 64.8969L77.8942 64.1172L75.5191 59.2785C75.2566 58.7439 74.7253 58.4117 74.1326 58.4117C73.543 58.4117 73.0111 58.7413 72.741 59.2787L70.3662 64.1172L65.0495 64.8974C64.4639 64.9861 63.9877 65.3942 63.8065 65.9625C63.6259 66.5285 63.7769 67.1371 64.1988 67.5491L68.0404 71.3218L67.1347 76.6441C67.0575 77.096 67.1805 77.5548 67.4723 77.9032C67.769 78.2575 68.2012 78.4607 68.6581 78.4607C68.9055 78.4607 69.1542 78.3986 69.3777 78.2807L74.1301 75.771L78.8833 78.281C79.1063 78.3985 79.3549 78.4607 79.6024 78.4607C80.0593 78.4607 80.4914 78.2575 80.7881 77.9032C81.0799 77.5548 81.2029 77.0959 81.1257 76.6447L80.2201 71.3219L84.06 67.5507C84.4849 67.1356 84.6364 66.5258 84.4553 65.9593Z" fill="var(--svg-color)"/>
</svg>
