<svg width="194" height="194" viewBox="0 0 194 194" fill="none" xmlns="http://www.w3.org/2000/svg">
<path fill-rule="evenodd" clip-rule="evenodd" d="M143.656 93.4766C144.398 93.4766 145 92.8732 145 92.1292V50.3471C145 49.603 144.398 49 143.656 49H102.342C101.599 49 100.998 49.603 100.998 50.3471V92.1292C100.998 92.8732 101.599 93.4766 102.342 93.4766H143.656ZM141.363 82.1752H104.634V53.0102H141.363V82.1752Z" fill="var(--svg-color)"/>
<path fill-rule="evenodd" clip-rule="evenodd" d="M115.498 65.6488L104.453 82.4934C104.387 82.5948 104.327 82.8164 104.271 82.8164H133.052C133.009 82.8164 132.963 82.66 132.915 82.5922L120.814 65.561C119.313 63.4487 116.92 63.4822 115.498 65.6488Z" fill="var(--svg-color)"/>
<path fill-rule="evenodd" clip-rule="evenodd" d="M141.282 82.6492V82.1265L134.649 72.5942C133.729 71.3001 132.325 71.3577 131.454 72.685L124.999 82.6492H141.282Z" fill="var(--svg-color)"/>
<path fill-rule="evenodd" clip-rule="evenodd" d="M135.624 59.7943C135.624 61.7291 134.06 63.2974 132.13 63.2974C130.2 63.2974 128.636 61.7291 128.636 59.7943C128.636 57.8596 130.2 56.2913 132.13 56.2913C134.06 56.2913 135.624 57.8596 135.624 59.7943Z" fill="var(--svg-color)"/>
<path fill-rule="evenodd" clip-rule="evenodd" d="M91.6582 93.4766C92.4005 93.4766 93.0023 92.8732 93.0023 92.1292V50.3471C93.0023 49.603 92.4005 49 91.6582 49H50.3441C49.6018 49 49 49.603 49 50.3471V92.1292C49 92.8732 49.6018 93.4766 50.3441 93.4766H91.6582ZM89.3658 82.1752H52.6366V53.0102H89.3658V82.1752Z" fill="var(--svg-color)"/>
<path d="M81.4578 64.4358C81.2764 63.8687 80.7991 63.4617 80.2098 63.3735L74.8966 62.5937L72.5216 57.7551C72.2591 57.2204 71.7278 56.8883 71.135 56.8883C70.5455 56.8883 70.0135 57.2179 69.7434 57.7552L67.3686 62.5937L62.0519 63.374C61.4664 63.4627 60.9901 63.8708 60.8089 64.4391C60.6284 65.0051 60.7793 65.6136 61.2012 66.0256L65.0428 69.7984L64.1372 75.1207C64.0599 75.5725 64.1829 76.0314 64.4747 76.3798C64.7715 76.7341 65.2036 76.9373 65.6605 76.9373C65.9079 76.9373 66.1566 76.8752 66.3801 76.7573L71.1326 74.2475L75.8857 76.7576C76.1087 76.8751 76.3574 76.9373 76.6048 76.9373C77.0617 76.9373 77.4939 76.7341 77.7906 76.3797C78.0823 76.0313 78.2054 75.5724 78.1282 75.1213L77.2225 69.7985L81.0625 66.0272C81.4874 65.6121 81.6389 65.0024 81.4578 64.4358Z" fill="var(--svg-color)"/>
<path fill-rule="evenodd" clip-rule="evenodd" d="M91.6582 144C92.4005 144 93.0023 143.397 93.0023 142.653V100.87C93.0023 100.126 92.4005 99.5234 91.6582 99.5234H50.3441C49.6018 99.5234 49 100.126 49 100.87V142.653C49 143.397 49.6018 144 50.3441 144H91.6582ZM89.3658 132.699H52.6366V103.534H89.3658V132.699Z" fill="var(--svg-color)"/>
<path fill-rule="evenodd" clip-rule="evenodd" d="M63.5273 115.665L52.1874 132.674C52.1191 132.776 52.0579 133 52 133H81.5505C81.5057 133 81.4591 132.842 81.4094 132.774L68.9856 115.576C67.444 113.443 64.9876 113.477 63.5273 115.665Z" fill="var(--svg-color)"/>
<path fill-rule="evenodd" clip-rule="evenodd" d="M90.0001 132.831V132.303L83.1899 122.678C82.2449 121.371 80.8041 121.429 79.9091 122.77L73.2822 132.831H90.0001Z" fill="var(--svg-color)"/>
<path fill-rule="evenodd" clip-rule="evenodd" d="M83.6264 110.318C83.6264 112.253 82.062 113.821 80.1321 113.821C78.2021 113.821 76.6377 112.253 76.6377 110.318C76.6377 108.383 78.2021 106.815 80.1321 106.815C82.062 106.815 83.6264 108.383 83.6264 110.318Z" fill="var(--svg-color)"/>
<path fill-rule="evenodd" clip-rule="evenodd" d="M143.656 144C144.398 144 145 143.397 145 142.653V100.87C145 100.126 144.398 99.5234 143.656 99.5234H102.342C101.599 99.5234 100.998 100.126 100.998 100.87V142.653C100.998 143.397 101.599 144 102.342 144H143.656ZM141.363 132.699H104.634V103.534H141.363V132.699Z" fill="var(--svg-color)"/>
<path d="M133.455 114.959C133.274 114.392 132.797 113.985 132.207 113.897L126.894 113.117L124.519 108.279C124.257 107.744 123.725 107.412 123.133 107.412C122.543 107.412 122.011 107.741 121.741 108.279L119.366 113.117L114.049 113.897C113.464 113.986 112.988 114.394 112.806 114.963C112.626 115.528 112.777 116.137 113.199 116.549L117.04 120.322L116.135 125.644C116.057 126.096 116.181 126.555 116.472 126.903C116.769 127.257 117.201 127.461 117.658 127.461C117.906 127.461 118.154 127.399 118.378 127.281L123.13 124.771L127.883 127.281C128.106 127.399 128.355 127.461 128.602 127.461C129.059 127.461 129.491 127.257 129.788 126.903C130.08 126.555 130.203 126.096 130.126 125.645L129.22 120.322L133.06 116.551C133.485 116.136 133.636 115.526 133.455 114.959Z" fill="var(--svg-color)"/>
</svg>
