<svg width="194" height="194" viewBox="0 0 194 194" fill="none" xmlns="http://www.w3.org/2000/svg">
<path fill-rule="evenodd" clip-rule="evenodd" d="M143.656 93.4766C144.398 93.4766 145 92.8732 145 92.1292V50.3471C145 49.603 144.398 49 143.656 49H102.342C101.599 49 100.998 49.603 100.998 50.3471V92.1292C100.998 92.8732 101.599 93.4766 102.342 93.4766H143.656ZM141.363 82.1752H104.634V53.0102H141.363V82.1752Z" fill="var(--svg-color)"/>
<path fill-rule="evenodd" clip-rule="evenodd" d="M115.498 65.6488L104.453 82.4934C104.387 82.5948 104.327 82.8164 104.271 82.8164H133.052C133.009 82.8164 132.963 82.66 132.915 82.5922L120.814 65.561C119.313 63.4487 116.92 63.4822 115.498 65.6488Z" fill="var(--svg-color)"/>
<path fill-rule="evenodd" clip-rule="evenodd" d="M141.282 82.6492V82.1265L134.649 72.5942C133.729 71.3001 132.325 71.3577 131.454 72.685L124.999 82.6492H141.282Z" fill="var(--svg-color)"/>
<path fill-rule="evenodd" clip-rule="evenodd" d="M135.624 59.7943C135.624 61.7291 134.06 63.2974 132.13 63.2974C130.2 63.2974 128.636 61.7291 128.636 59.7943C128.636 57.8596 130.2 56.2913 132.13 56.2913C134.06 56.2913 135.624 57.8596 135.624 59.7943Z" fill="var(--svg-color)"/>
<path fill-rule="evenodd" clip-rule="evenodd" d="M91.6582 93.4766C92.4005 93.4766 93.0023 92.8732 93.0023 92.1292V50.3471C93.0023 49.603 92.4005 49 91.6582 49H50.3441C49.6018 49 49 49.603 49 50.3471V92.1292C49 92.8732 49.6018 93.4766 50.3441 93.4766H91.6582ZM89.3659 82.1752H52.6367V53.0102H89.3659V82.1752Z" fill="var(--svg-color)"/>
<path fill-rule="evenodd" clip-rule="evenodd" d="M63.5004 65.6488L52.4555 82.4934C52.389 82.5948 52.3293 82.8164 52.2729 82.8164H81.0548C81.0112 82.8164 80.9657 82.66 80.9174 82.5922L68.8167 65.561C67.3152 63.4487 64.9227 63.4822 63.5004 65.6488Z" fill="var(--svg-color)"/>
<path fill-rule="evenodd" clip-rule="evenodd" d="M89.2845 82.6492V82.1265L82.6514 72.5942C81.731 71.3001 80.3277 71.3577 79.456 72.685L73.0015 82.6492H89.2845Z" fill="var(--svg-color)"/>
<path fill-rule="evenodd" clip-rule="evenodd" d="M83.6269 59.7943C83.6269 61.7291 82.0625 63.2974 80.1325 63.2974C78.2026 63.2974 76.6382 61.7291 76.6382 59.7943C76.6382 57.8596 78.2026 56.2913 80.1325 56.2913C82.0625 56.2913 83.6269 57.8596 83.6269 59.7943Z" fill="var(--svg-color)"/>
<path fill-rule="evenodd" clip-rule="evenodd" d="M91.6582 144C92.4005 144 93.0023 143.397 93.0023 142.653V100.87C93.0023 100.126 92.4005 99.5234 91.6582 99.5234H50.3441C49.6018 99.5234 49 100.126 49 100.87V142.653C49 143.397 49.6018 144 50.3441 144H91.6582ZM89.3658 132.699H52.6366V103.534H89.3658V132.699Z" fill="var(--svg-color)"/>
<path fill-rule="evenodd" clip-rule="evenodd" d="M63.5273 115.665L52.1874 132.674C52.1191 132.776 52.0579 133 52 133H81.5505C81.5057 133 81.4591 132.842 81.4094 132.774L68.9856 115.576C67.444 113.443 64.9876 113.477 63.5273 115.665Z" fill="var(--svg-color)"/>
<path fill-rule="evenodd" clip-rule="evenodd" d="M90.0001 132.831V132.303L83.1899 122.678C82.2449 121.371 80.8041 121.429 79.9091 122.77L73.2822 132.831H90.0001Z" fill="var(--svg-color)"/>
<path fill-rule="evenodd" clip-rule="evenodd" d="M83.6264 110.318C83.6264 112.253 82.062 113.821 80.1321 113.821C78.2021 113.821 76.6377 112.253 76.6377 110.318C76.6377 108.383 78.2021 106.815 80.1321 106.815C82.062 106.815 83.6264 108.383 83.6264 110.318Z" fill="var(--svg-color)"/>
<path fill-rule="evenodd" clip-rule="evenodd" d="M143.658 144C144.4 144 145.002 143.397 145.002 142.653V100.87C145.002 100.126 144.4 99.5234 143.658 99.5234H102.344C101.602 99.5234 101 100.126 101 100.87V142.653C101 143.397 101.602 144 102.344 144H143.658ZM141.366 132.699H104.637V103.534H141.366V132.699Z" fill="var(--svg-color)"/>
<path fill-rule="evenodd" clip-rule="evenodd" d="M115.527 115.665L104.187 132.674C104.119 132.776 104.058 133 104 133H133.551C133.506 133 133.459 132.842 133.409 132.774L120.986 115.576C119.444 113.443 116.988 113.477 115.527 115.665Z" fill="var(--svg-color)"/>
<path fill-rule="evenodd" clip-rule="evenodd" d="M142 132.831V132.303L135.19 122.678C134.245 121.371 132.804 121.429 131.909 122.77L125.282 132.831H142Z" fill="var(--svg-color)"/>
<path fill-rule="evenodd" clip-rule="evenodd" d="M135.626 110.318C135.626 112.253 134.062 113.821 132.132 113.821C130.202 113.821 128.638 112.253 128.638 110.318C128.638 108.383 130.202 106.815 132.132 106.815C134.062 106.815 135.626 108.383 135.626 110.318Z" fill="var(--svg-color)"/>
</svg>
