<svg width="97" height="95" viewBox="0 0 97 95" fill="none" xmlns="http://www.w3.org/2000/svg">
<path fill-rule="evenodd" clip-rule="evenodd" d="M94.6558 44.4766C95.398 44.4766 95.9999 43.8732 95.9999 43.1292V1.34706C95.9999 0.602986 95.398 0 94.6558 0H53.3416C52.5994 0 51.9976 0.602986 51.9976 1.34706V43.1292C51.9976 43.8732 52.5994 44.4766 53.3416 44.4766H94.6558ZM92.3634 33.1752H55.6342V4.01019H92.3634V33.1752Z" fill="var(--svg-color)"/>
<path fill-rule="evenodd" clip-rule="evenodd" d="M66.498 16.6488L55.4531 33.4934C55.3865 33.5948 55.3269 33.8164 55.2705 33.8164H84.0524C84.0087 33.8164 83.9633 33.66 83.9149 33.5922L71.8143 16.561C70.3128 14.4487 67.9203 14.4822 66.498 16.6488Z" fill="var(--svg-color)"/>
<path fill-rule="evenodd" clip-rule="evenodd" d="M92.2821 33.6492V33.1265L85.649 23.5942C84.7286 22.3001 83.3252 22.3577 82.4535 23.685L75.999 33.6492H92.2821Z" fill="var(--svg-color)"/>
<path fill-rule="evenodd" clip-rule="evenodd" d="M86.6245 10.7943C86.6245 12.7291 85.06 14.2974 83.1301 14.2974C81.2002 14.2974 79.6357 12.7291 79.6357 10.7943C79.6357 8.85961 81.2002 7.29126 83.1301 7.29126C85.06 7.29126 86.6245 8.85961 86.6245 10.7943Z" fill="var(--svg-color)"/>
<path fill-rule="evenodd" clip-rule="evenodd" d="M42.6582 44.4766C43.4005 44.4766 44.0023 43.8732 44.0023 43.1292V1.34706C44.0023 0.602986 43.4005 0 42.6582 0H1.34407C0.60185 0 0 0.602986 0 1.34706V43.1292C0 43.8732 0.60185 44.4766 1.34407 44.4766H42.6582ZM40.3659 33.1752H3.63669V4.01019H40.3659V33.1752Z" fill="var(--svg-color)"/>
<path fill-rule="evenodd" clip-rule="evenodd" d="M14.5004 16.6488L3.4555 33.4934C3.38896 33.5948 3.32932 33.8164 3.27295 33.8164H32.0548C32.0112 33.8164 31.9657 33.66 31.9174 33.5922L19.8167 16.561C18.3152 14.4487 15.9227 14.4822 14.5004 16.6488Z" fill="var(--svg-color)"/>
<path fill-rule="evenodd" clip-rule="evenodd" d="M40.2845 33.6492V33.1265L33.6514 23.5942C32.731 22.3001 31.3277 22.3577 30.456 23.685L24.0015 33.6492H40.2845Z" fill="var(--svg-color)"/>
<path fill-rule="evenodd" clip-rule="evenodd" d="M34.6269 10.7943C34.6269 12.7291 33.0625 14.2974 31.1325 14.2974C29.2026 14.2974 27.6382 12.7291 27.6382 10.7943C27.6382 8.85961 29.2026 7.29126 31.1325 7.29126C33.0625 7.29126 34.6269 8.85961 34.6269 10.7943Z" fill="var(--svg-color)"/>
<path fill-rule="evenodd" clip-rule="evenodd" d="M42.6582 95C43.4005 95 44.0023 94.3967 44.0023 93.6526V51.8705C44.0023 51.1264 43.4005 50.5234 42.6582 50.5234H1.34407C0.60185 50.5234 0 51.1264 0 51.8705V93.6526C0 94.3967 0.60185 95 1.34407 95H42.6582ZM40.3658 83.6986H3.63656V54.5336H40.3658V83.6986Z" fill="var(--svg-color)"/>
<path fill-rule="evenodd" clip-rule="evenodd" d="M14.5273 66.6649L3.18743 83.6738C3.1191 83.7762 3.05787 84 3 84H32.5505C32.5057 84 32.4591 83.8421 32.4094 83.7736L19.9856 66.5762C18.444 64.4433 15.9876 64.4772 14.5273 66.6649Z" fill="var(--svg-color)"/>
<path fill-rule="evenodd" clip-rule="evenodd" d="M41.0001 83.8312V83.3033L34.1899 73.6781C33.2449 72.3713 31.8041 72.4295 30.9091 73.7698L24.2822 83.8312H41.0001Z" fill="var(--svg-color)"/>
<path fill-rule="evenodd" clip-rule="evenodd" d="M34.6264 61.3178C34.6264 63.2525 33.062 64.8209 31.1321 64.8209C29.2021 64.8209 27.6377 63.2525 27.6377 61.3178C27.6377 59.383 29.2021 57.8147 31.1321 57.8147C33.062 57.8147 34.6264 59.383 34.6264 61.3178Z" fill="var(--svg-color)"/>
<path fill-rule="evenodd" clip-rule="evenodd" d="M94.6582 95C95.4005 95 96.0023 94.3967 96.0023 93.6526V51.8705C96.0023 51.1264 95.4005 50.5234 94.6582 50.5234H53.3441C52.6018 50.5234 52 51.1264 52 51.8705V93.6526C52 94.3967 52.6018 95 53.3441 95H94.6582ZM92.3658 83.6986H55.6366V54.5336H92.3658V83.6986Z" fill="var(--svg-color)"/>
<path fill-rule="evenodd" clip-rule="evenodd" d="M66.5273 66.6649L55.1874 83.6738C55.1191 83.7762 55.0579 84 55 84H84.5505C84.5057 84 84.4591 83.8421 84.4094 83.7736L71.9856 66.5762C70.444 64.4433 67.9876 64.4772 66.5273 66.6649Z" fill="var(--svg-color)"/>
<path fill-rule="evenodd" clip-rule="evenodd" d="M93.0001 83.8312V83.3033L86.1899 73.6781C85.2449 72.3713 83.8041 72.4295 82.9091 73.7698L76.2822 83.8312H93.0001Z" fill="var(--svg-color)"/>
<path fill-rule="evenodd" clip-rule="evenodd" d="M86.6264 61.3178C86.6264 63.2525 85.062 64.8209 83.1321 64.8209C81.2021 64.8209 79.6377 63.2525 79.6377 61.3178C79.6377 59.383 81.2021 57.8147 83.1321 57.8147C85.062 57.8147 86.6264 59.383 86.6264 61.3178Z" fill="var(--svg-color)"/>
</svg>
