<svg width="86" height="106" viewBox="0 0 86 106" fill="none" xmlns="http://www.w3.org/2000/svg">
<path fill-rule="evenodd" clip-rule="evenodd" d="M36.7627 57.3784H33.5659V48.4294C33.5659 48.283 33.6107 36.0202 47.1402 36.0202H74.3862C74.4685 36.0202 82.8033 35.9008 82.8033 25.5357C82.8033 15.9309 75.923 15.8209 75.923 15.8209V12.6567C79.1198 12.6567 86 15.3479 86 25.5357C86 31.6545 83.4322 34.9484 81.3527 36.6325C79.0303 38.5136 76.1884 39.1844 74.3862 39.1844H47.1402C36.9737 39.1844 36.7627 47.5078 36.7627 48.4578V57.3784Z" fill="var(--svg-color)"/>
<path fill-rule="evenodd" clip-rule="evenodd" d="M76.4751 12.6159C76.4751 19.5835 70.2337 25.2319 62.5344 25.2319H13.9408C6.24149 25.2319 0 19.5835 0 12.6159C0 5.64834 6.24149 0 13.9408 0H62.5344C70.2337 0 76.4751 5.64834 76.4751 12.6159Z" fill="var(--svg-color)"/>
<path fill-rule="evenodd" clip-rule="evenodd" d="M7.28335 25.4553C7.28335 27.8197 5.79673 29.7375 3.96214 29.7375H3.32121C1.48661 29.7375 0 27.8197 0 25.4553V14.1936C0 11.8292 1.48661 9.91248 3.32121 9.91248H3.96214C5.79673 9.91248 7.28335 11.8292 7.28335 14.1936V25.4553Z" fill="var(--svg-color)"/>
<path fill-rule="evenodd" clip-rule="evenodd" d="M23.9759 37.8879C23.9759 39.6804 22.5078 41.1344 20.696 41.1344H20.0631C18.2513 41.1344 16.7832 39.6804 16.7832 37.8879V21.4397C16.7832 19.6472 18.2513 18.1941 20.0631 18.1941H20.696C22.5078 18.1941 23.9759 19.6472 23.9759 21.4397V37.8879Z" fill="var(--svg-color)"/>
<path fill-rule="evenodd" clip-rule="evenodd" d="M23.9759 52.9177C23.9759 54.7103 22.5078 56.1642 20.696 56.1642H20.0631C18.2513 56.1642 16.7832 54.7103 16.7832 52.9177V49.1263C16.7832 47.3338 18.2513 45.8806 20.0631 45.8806H20.696C22.5078 45.8806 23.9759 47.3338 23.9759 49.1263V52.9177Z" fill="var(--svg-color)"/>
<path fill-rule="evenodd" clip-rule="evenodd" d="M41.879 25.6501C41.879 27.907 40.3924 29.7376 38.5578 29.7376H37.9169C36.0823 29.7376 34.5957 27.907 34.5957 25.6501V14.9003C34.5957 12.6434 36.0823 10.8137 37.9169 10.8137H38.5578C40.3924 10.8137 41.879 12.6434 41.879 14.9003V25.6501Z" fill="var(--svg-color)"/>
<path fill-rule="evenodd" clip-rule="evenodd" d="M52.7464 29.9775C52.7464 31.77 51.2783 33.2239 49.4665 33.2239H48.8336C47.0218 33.2239 45.5537 31.77 45.5537 29.9775V21.4397C45.5537 19.6472 47.0218 18.1941 48.8336 18.1941H49.4665C51.2783 18.1941 52.7464 19.6472 52.7464 21.4397V29.9775Z" fill="var(--svg-color)"/>
<path fill-rule="evenodd" clip-rule="evenodd" d="M63.9354 29.9775C63.9354 31.77 62.4673 33.2239 60.6555 33.2239H60.0226C58.2108 33.2239 56.7427 31.77 56.7427 29.9775V21.4397C56.7427 19.6472 58.2108 18.1941 60.0226 18.1941H60.6555C62.4673 18.1941 63.9354 19.6472 63.9354 21.4397V29.9775Z" fill="var(--svg-color)"/>
<path fill-rule="evenodd" clip-rule="evenodd" d="M42.3571 99.2579C42.3571 102.981 39.3074 106 35.5456 106H34.7832C31.0214 106 27.9717 102.981 27.9717 99.2579V62.1152C27.9717 58.3918 31.0214 55.3732 34.7832 55.3732H35.5456C39.3074 55.3732 42.3571 58.3918 42.3571 62.1152V99.2579Z" fill="var(--svg-color)"/>
</svg>
