<svg width="194" height="194" viewBox="0 0 194 194" fill="none" xmlns="http://www.w3.org/2000/svg">
<path fill-rule="evenodd" clip-rule="evenodd" d="M93.7627 101.378H90.5659V92.4294C90.5659 92.283 90.6107 80.0202 104.14 80.0202H131.386C131.468 80.0202 139.803 79.9008 139.803 69.5357C139.803 59.9309 132.923 59.8209 132.923 59.8209V56.6567C136.12 56.6567 143 59.3479 143 69.5357C143 75.6545 140.432 78.9484 138.353 80.6325C136.03 82.5136 133.188 83.1844 131.386 83.1844H104.14C93.9737 83.1844 93.7627 91.5078 93.7627 92.4578V101.378Z" fill="var(--svg-color)"/>
<path fill-rule="evenodd" clip-rule="evenodd" d="M133.475 56.6159C133.475 63.5835 127.234 69.2319 119.534 69.2319H70.9408C63.2415 69.2319 57 63.5835 57 56.6159C57 49.6483 63.2415 44 70.9408 44H119.534C127.234 44 133.475 49.6483 133.475 56.6159Z" fill="var(--svg-color)"/>
<path fill-rule="evenodd" clip-rule="evenodd" d="M64.2833 69.4553C64.2833 71.8197 62.7967 73.7375 60.9621 73.7375H60.3212C58.4866 73.7375 57 71.8197 57 69.4553V58.1936C57 55.8292 58.4866 53.9125 60.3212 53.9125H60.9621C62.7967 53.9125 64.2833 55.8292 64.2833 58.1936V69.4553Z" fill="var(--svg-color)"/>
<path fill-rule="evenodd" clip-rule="evenodd" d="M80.9759 81.8879C80.9759 83.6804 79.5078 85.1344 77.696 85.1344H77.0631C75.2513 85.1344 73.7832 83.6804 73.7832 81.8879V65.4397C73.7832 63.6472 75.2513 62.1941 77.0631 62.1941H77.696C79.5078 62.1941 80.9759 63.6472 80.9759 65.4397V81.8879Z" fill="var(--svg-color)"/>
<path fill-rule="evenodd" clip-rule="evenodd" d="M80.9759 96.9177C80.9759 98.7103 79.5078 100.164 77.696 100.164H77.0631C75.2513 100.164 73.7832 98.7103 73.7832 96.9177V93.1263C73.7832 91.3338 75.2513 89.8806 77.0631 89.8806H77.696C79.5078 89.8806 80.9759 91.3338 80.9759 93.1263V96.9177Z" fill="var(--svg-color)"/>
<path fill-rule="evenodd" clip-rule="evenodd" d="M98.879 69.6501C98.879 71.907 97.3924 73.7376 95.5578 73.7376H94.9169C93.0823 73.7376 91.5957 71.907 91.5957 69.6501V58.9003C91.5957 56.6434 93.0823 54.8137 94.9169 54.8137H95.5578C97.3924 54.8137 98.879 56.6434 98.879 58.9003V69.6501Z" fill="var(--svg-color)"/>
<path fill-rule="evenodd" clip-rule="evenodd" d="M109.746 73.9775C109.746 75.77 108.278 77.2239 106.467 77.2239H105.834C104.022 77.2239 102.554 75.77 102.554 73.9775V65.4397C102.554 63.6472 104.022 62.1941 105.834 62.1941H106.467C108.278 62.1941 109.746 63.6472 109.746 65.4397V73.9775Z" fill="var(--svg-color)"/>
<path fill-rule="evenodd" clip-rule="evenodd" d="M120.935 73.9775C120.935 75.77 119.467 77.2239 117.656 77.2239H117.023C115.211 77.2239 113.743 75.77 113.743 73.9775V65.4397C113.743 63.6472 115.211 62.1941 117.023 62.1941H117.656C119.467 62.1941 120.935 63.6472 120.935 65.4397V73.9775Z" fill="var(--svg-color)"/>
<path fill-rule="evenodd" clip-rule="evenodd" d="M99.3571 143.258C99.3571 146.981 96.3074 150 92.5456 150H91.7832C88.0214 150 84.9717 146.981 84.9717 143.258V106.115C84.9717 102.392 88.0214 99.3732 91.7832 99.3732H92.5456C96.3074 99.3732 99.3571 102.392 99.3571 106.115V143.258Z" fill="var(--svg-color)"/>
</svg>
