<svg width="194" height="194" viewBox="0 0 194 194" fill="none" xmlns="http://www.w3.org/2000/svg">
<path fill-rule="evenodd" clip-rule="evenodd" d="M140.76 82.8502L155.448 93.8962C156.425 94.6316 157.001 95.7777 157 96.9993C157 98.2202 156.424 99.3705 155.447 100.102L140.759 111.152L146.12 128.691C146.473 129.857 146.262 131.122 145.54 132.11C144.825 133.098 143.677 133.691 142.45 133.715L124.037 134.046L118.033 151.376C117.633 152.534 116.711 153.427 115.544 153.807C115.147 153.936 114.742 154 114.337 154C113.543 154 112.761 153.759 112.098 153.296L97.0004 142.784L81.9031 153.296C80.8983 153.992 79.6199 154.186 78.4562 153.806C77.2891 153.43 76.368 152.533 75.9666 151.375L69.9628 134.046L51.5498 133.714C50.3266 133.69 49.1829 133.097 48.4603 132.109C47.737 131.121 47.5229 129.856 47.8803 128.691L53.241 111.151L38.5529 100.101C37.5758 99.3698 37 98.2159 37 96.9986C37 95.7812 37.5758 94.6316 38.5529 93.8962L53.241 82.8474L47.8803 65.3158C47.5271 64.1457 47.7377 62.881 48.4603 61.893C49.1751 60.9092 50.3231 60.3164 51.5498 60.2924L69.9628 59.9565L75.9666 42.6225C76.3673 41.4686 77.2891 40.5674 78.4562 40.192C79.6199 39.8123 80.8983 40.0021 81.9031 40.7057L97.0004 51.214L112.098 40.7057C113.102 40.0064 114.381 39.8165 115.544 40.192C116.712 40.5674 117.633 41.4686 118.034 42.6225L124.038 59.96L142.451 60.2917C143.674 60.3157 144.821 60.9085 145.54 61.8923C146.264 62.8803 146.478 64.1492 146.12 65.3151L140.76 82.8502ZM85.3893 82.6343C85.3893 84.6404 83.7479 86.3246 81.6513 86.3246C79.5548 86.3246 77.9134 84.6404 77.9134 82.6343C77.9134 80.6283 79.5548 78.944 81.6513 78.944C83.7479 78.944 85.3893 80.6283 85.3893 82.6343ZM94.6746 82.6343C94.6746 89.8005 88.8439 95.6099 81.6513 95.6099C74.4588 95.6099 68.6281 89.8005 68.6281 82.6343C68.6281 75.4681 74.4588 69.6587 81.6513 69.6587C88.8439 69.6587 94.6746 75.4681 94.6746 82.6343ZM113.279 117.837C115.375 117.837 117.017 116.152 117.017 114.146C117.017 112.14 115.375 110.456 113.279 110.456C111.182 110.456 109.541 112.14 109.541 114.146C109.541 116.152 111.182 117.837 113.279 117.837ZM113.279 127.122C120.471 127.122 126.302 121.312 126.302 114.146C126.302 106.98 120.471 101.171 113.279 101.171C106.086 101.171 100.256 106.98 100.256 114.146C100.256 121.312 106.086 127.122 113.279 127.122ZM70.9751 117.223C69.0604 119.131 69.0604 122.224 70.9751 124.131C72.8897 126.039 75.994 126.039 77.9086 124.131L121.324 80.8748C123.239 78.9672 123.239 75.8743 121.324 73.9666C119.409 72.059 116.305 72.059 114.39 73.9666L70.9751 117.223Z" fill="var(--svg-color)"/>
</svg>
