<svg width="194" height="194" viewBox="0 0 194 194" fill="none" xmlns="http://www.w3.org/2000/svg">
<path fill-rule="evenodd" clip-rule="evenodd" d="M94.3872 128.811C93.9285 128.354 93.6982 127.695 93.6982 126.833V120.299C93.6982 119.382 93.9285 118.709 94.3872 118.278C94.8458 117.849 95.505 117.635 96.3646 117.635H118.547C118.776 117.635 118.99 117.591 119.191 117.506C119.393 117.421 119.578 117.29 119.749 117.117L120.352 116.517C120.525 116.344 120.652 116.158 120.737 115.957C120.823 115.757 120.868 115.57 120.868 115.399V115.141C120.868 114.911 120.823 114.711 120.737 114.54C120.652 114.369 120.525 114.196 120.352 114.024L119.749 113.422C119.578 113.249 119.393 113.122 119.191 113.035C118.99 112.949 118.776 112.906 118.547 112.906H104.272C102.783 112.906 101.539 112.733 100.536 112.39C99.5313 112.046 98.5148 111.357 97.4844 110.325L96.3646 109.209C95.2746 108.119 94.5599 107.146 94.2144 106.285C93.871 105.427 93.6982 104.395 93.6982 103.191V98.893C93.6982 97.0585 93.9424 95.5377 94.4289 94.3346C94.9173 93.1315 95.7928 91.8985 97.0536 90.6378L99.1164 88.573C100.435 87.2547 101.695 86.3256 102.899 85.7796C104.104 85.2356 105.678 84.9636 107.628 84.9636H131.873C132.791 84.9636 133.464 85.178 133.893 85.6089C134.321 86.0377 134.54 86.7127 134.54 87.63V94.1639C134.54 95.0215 134.321 95.6807 133.893 96.1413C133.464 96.5979 132.791 96.8282 131.873 96.8282H110.981C110.751 96.8282 110.536 96.8719 110.336 96.9573C110.137 97.0427 109.949 97.1717 109.776 97.3424L109.174 97.946C109.004 98.1187 108.875 98.2895 108.787 98.4622C108.702 98.6349 108.658 98.8335 108.658 99.0638V99.2365C108.658 99.4072 108.702 99.5939 108.787 99.7944C108.875 99.9949 109.004 100.182 109.174 100.352L109.776 100.956C109.949 101.129 110.137 101.256 110.336 101.341C110.536 101.428 110.751 101.47 110.981 101.47H125.252C126.743 101.47 127.99 101.643 128.995 101.986C129.995 102.33 131.014 103.019 132.046 104.049L133.162 105.169C134.252 106.257 134.969 107.232 135.31 108.089C135.656 108.951 135.826 109.983 135.826 111.186V115.57C135.826 117.405 135.584 118.925 135.098 120.129C134.609 121.33 133.736 122.565 132.477 123.823L130.412 125.888C129.092 127.206 127.831 128.138 126.628 128.684C125.425 129.228 123.848 129.5 121.899 129.5H96.3646C95.505 129.5 94.8458 129.269 94.3872 128.811Z" fill="var(--svg-color)"/>
<path fill-rule="evenodd" clip-rule="evenodd" d="M65.648 107.451C64.9889 106.965 64.4886 106.062 64.1431 104.743L54.1705 66.7413C53.9421 65.824 54.0255 65.0795 54.4286 64.5058C54.8296 63.934 55.5166 63.6481 56.4934 63.6481H67.153C68.2429 63.6481 69.0153 63.8764 69.4759 64.335C69.9325 64.7936 70.276 65.5957 70.5063 66.7413L76.526 95.5431C76.5816 95.829 76.7404 95.974 76.9985 95.974C77.2566 95.974 77.4135 95.829 77.4711 95.5431L83.4888 66.7413C83.7191 65.5957 84.0606 64.7936 84.5212 64.335C84.9779 63.8764 85.7522 63.6481 86.8421 63.6481H97.1583C98.1331 63.6481 98.822 63.934 99.2231 64.5058C99.6221 65.0795 99.7095 65.824 99.4812 66.7413L89.5085 104.743C89.1631 106.062 88.6627 106.965 88.0036 107.451C87.3444 107.938 86.2406 108.182 84.692 108.182H68.9597C67.4111 108.182 66.3072 107.938 65.648 107.451Z" fill="var(--svg-color)"/>
<mask id="mask0" mask-type="alpha" maskUnits="userSpaceOnUse" x="47" y="61" width="23" height="11">
<path fill-rule="evenodd" clip-rule="evenodd" d="M51.1705 61.9469C49.0124 61.9469 47.2612 63.696 47.2612 65.8541V67.4662C47.2612 69.6244 49.0124 71.3735 51.1705 71.3735H66.0907C68.2489 71.3735 69.998 69.6244 69.998 67.4662V65.8541C69.998 63.696 68.2489 61.9469 66.0907 61.9469H51.1705Z" fill="var(--svg-color)"/>
</mask>
<g mask="url(#mask0)">
<path fill-rule="evenodd" clip-rule="evenodd" d="M37.3345 81.3004H79.9252V52.02H37.3345V81.3004Z" fill="var(--svg-color)"/>
</g>
<mask id="mask1" mask-type="alpha" maskUnits="userSpaceOnUse" x="38" y="77" width="96" height="79">
<path fill-rule="evenodd" clip-rule="evenodd" d="M38 77.8268H133.043V156H38V77.8268Z" fill="var(--svg-color)"/>
</mask>
<g mask="url(#mask1)">
<path fill-rule="evenodd" clip-rule="evenodd" d="M126.616 137.192C118.323 143.318 108.079 146.95 96.998 146.95C69.4566 146.95 47.0494 124.543 47.0494 96.9996C47.0494 90.2096 48.4174 83.7333 50.8832 77.8268H41.2144C39.1416 83.8425 38 90.289 38 96.9996C38 129.532 64.4673 156.001 96.998 156.001C110.564 156.001 123.066 151.387 133.043 143.662C130.238 142.29 127.97 140.007 126.616 137.192Z" fill="var(--svg-color)"/>
</g>
<mask id="mask2" mask-type="alpha" maskUnits="userSpaceOnUse" x="55" y="38" width="101" height="85">
<path fill-rule="evenodd" clip-rule="evenodd" d="M55.1152 38H156V122.68H55.1152V38Z" fill="var(--svg-color)"/>
</mask>
<g mask="url(#mask2)">
<path fill-rule="evenodd" clip-rule="evenodd" d="M96.9992 38C80.6375 38 65.8125 44.6987 55.1152 55.4951H69.2453C77.1889 50.1644 86.7366 47.0513 96.9992 47.0513C124.543 47.0513 146.95 69.4583 146.95 96.9994C146.95 104.381 145.328 111.387 142.441 117.699C145.534 118.455 148.216 120.242 150.11 122.68C153.881 114.911 156.001 106.2 156.001 96.9994C156.001 64.4671 129.534 38 96.9992 38Z" fill="var(--svg-color)"/>
</g>
<mask id="mask3" mask-type="alpha" maskUnits="userSpaceOnUse" x="75" y="63" width="24" height="11">
<path fill-rule="evenodd" clip-rule="evenodd" d="M78.9878 63.6696C76.8297 63.6696 75.0806 65.4187 75.0806 67.5768V69.1889C75.0806 71.347 76.8297 73.0961 78.9878 73.0961H94.2992C96.4573 73.0961 98.2085 71.347 98.2085 69.1889V67.5768C98.2085 65.4187 96.4573 63.6696 94.2992 63.6696H78.9878Z" fill="var(--svg-color)"/>
</mask>
<g mask="url(#mask3)">
<path fill-rule="evenodd" clip-rule="evenodd" d="M65.1509 83.0229H108.133V53.7426H65.1509V83.0229Z" fill="var(--svg-color)"/>
</g>
<path fill-rule="evenodd" clip-rule="evenodd" d="M145.962 131.185C145.962 134.955 142.905 138.013 139.134 138.013C135.364 138.013 132.307 134.955 132.307 131.185C132.307 127.415 135.364 124.357 139.134 124.357C142.905 124.357 145.962 127.415 145.962 131.185Z" fill="var(--svg-color)"/>
</svg>
