<svg width="118" height="118" viewBox="0 0 118 118" fill="none" xmlns="http://www.w3.org/2000/svg">
<path fill-rule="evenodd" clip-rule="evenodd" d="M56.3872 90.8107C55.9285 90.354 55.6982 89.6949 55.6982 88.8332V82.2994C55.6982 81.3821 55.9285 80.7091 56.3872 80.2782C56.8458 79.8494 57.505 79.635 58.3646 79.635H80.5475C80.7758 79.635 80.9902 79.5913 81.1907 79.5059C81.3932 79.4206 81.5779 79.2895 81.7486 79.1168L82.3522 78.5172C82.5249 78.3445 82.652 78.1579 82.7374 77.9573C82.8227 77.7568 82.8684 77.5702 82.8684 77.3994V77.1413C82.8684 76.911 82.8227 76.7105 82.7374 76.5398C82.652 76.369 82.5249 76.1963 82.3522 76.0236L81.7486 75.422C81.5779 75.2493 81.3932 75.1222 81.1907 75.0349C80.9902 74.9495 80.7758 74.9058 80.5475 74.9058H66.2725C64.7834 74.9058 63.5386 74.7331 62.5359 74.3896C61.5313 74.0461 60.5148 73.3572 59.4844 72.3248L58.3646 71.209C57.2746 70.1191 56.5599 69.1462 56.2144 68.2846C55.871 67.4269 55.6982 66.3945 55.6982 65.1914V60.893C55.6982 59.0585 55.9424 57.5377 56.4289 56.3346C56.9173 55.1315 57.7928 53.8985 59.0536 52.6378L61.1164 50.573C62.4347 49.2547 63.6954 48.3256 64.8986 47.7796C66.1037 47.2356 67.6781 46.9636 69.6278 46.9636H93.8734C94.7907 46.9636 95.4637 47.178 95.8926 47.6089C96.3214 48.0377 96.5398 48.7127 96.5398 49.63V56.1639C96.5398 57.0215 96.3214 57.6807 95.8926 58.1413C95.4637 58.5979 94.7907 58.8282 93.8734 58.8282H72.9811C72.7508 58.8282 72.5364 58.8719 72.3359 58.9573C72.1373 59.0427 71.9487 59.1717 71.776 59.3424L71.1744 59.946C71.0037 60.1187 70.8746 60.2895 70.7873 60.4622C70.7019 60.6349 70.6582 60.8335 70.6582 61.0638V61.2365C70.6582 61.4072 70.7019 61.5939 70.7873 61.7944C70.8746 61.9949 71.0037 62.1815 71.1744 62.3523L71.776 62.9558C71.9487 63.1286 72.1373 63.2556 72.3359 63.341C72.5364 63.4284 72.7508 63.47 72.9811 63.47H87.2521C88.7432 63.47 89.99 63.6428 90.9946 63.9862C91.9953 64.3297 93.0138 65.0186 94.0462 66.049L95.162 67.1688C96.2519 68.2568 96.9687 69.2316 97.3102 70.0893C97.6556 70.9509 97.8264 71.9833 97.8264 73.1865V77.5702C97.8264 79.4047 97.5842 80.9255 97.0977 82.1286C96.6093 83.3298 95.7357 84.5647 94.477 85.8234L92.4122 87.8882C91.0919 89.2065 89.8312 90.1376 88.628 90.6836C87.4249 91.2276 85.8485 91.4996 83.8988 91.4996H58.3646C57.505 91.4996 56.8458 91.2693 56.3872 90.8107Z" fill="var(--svg-color)"/>
<path fill-rule="evenodd" clip-rule="evenodd" d="M27.648 69.4514C26.9889 68.965 26.4886 68.0617 26.1431 66.7434L16.1705 28.7413C15.9421 27.824 16.0255 27.0795 16.4286 26.5058C16.8296 25.934 17.5166 25.6481 18.4934 25.6481H29.153C30.2429 25.6481 31.0153 25.8764 31.4759 26.335C31.9325 26.7936 32.276 27.5957 32.5063 28.7413L38.526 57.5431C38.5816 57.829 38.7404 57.974 38.9985 57.974C39.2566 57.974 39.4135 57.829 39.4711 57.5431L45.4888 28.7413C45.7191 27.5957 46.0606 26.7936 46.5212 26.335C46.9779 25.8764 47.7522 25.6481 48.8421 25.6481H59.1583C60.1331 25.6481 60.822 25.934 61.2231 26.5058C61.6221 27.0795 61.7095 27.824 61.4812 28.7413L51.5085 66.7434C51.1631 68.0617 50.6627 68.965 50.0036 69.4514C49.3444 69.9378 48.2406 70.182 46.692 70.182H30.9597C29.4111 70.182 28.3072 69.9378 27.648 69.4514Z" fill="var(--svg-color)"/>
<mask id="mask0" mask-type="alpha" maskUnits="userSpaceOnUse" x="9" y="23" width="23" height="11">
<path fill-rule="evenodd" clip-rule="evenodd" d="M13.1705 23.9469C11.0124 23.9469 9.26123 25.696 9.26123 27.8541V29.4662C9.26123 31.6244 11.0124 33.3735 13.1705 33.3735H28.0907C30.2489 33.3735 31.998 31.6244 31.998 29.4662V27.8541C31.998 25.696 30.2489 23.9469 28.0907 23.9469H13.1705Z" fill="var(--svg-color)"/>
</mask>
<g mask="url(#mask0)">
<path fill-rule="evenodd" clip-rule="evenodd" d="M-0.665527 43.3004H41.9252V14.02H-0.665527V43.3004Z" fill="var(--svg-color)"/>
</g>
<mask id="mask1" mask-type="alpha" maskUnits="userSpaceOnUse" x="0" y="39" width="96" height="79">
<path fill-rule="evenodd" clip-rule="evenodd" d="M0 39.8268H95.0429V118H0V39.8268Z" fill="var(--svg-color)"/>
</mask>
<g mask="url(#mask1)">
<path fill-rule="evenodd" clip-rule="evenodd" d="M88.6162 99.1915C80.3232 105.318 70.0785 108.95 58.998 108.95C31.4566 108.95 9.04944 86.5427 9.04944 58.9996C9.04944 52.2096 10.4174 45.7333 12.8832 39.8268H3.21436C1.1416 45.8425 0 52.289 0 58.9996C0 91.5319 26.4673 118.001 58.998 118.001C72.5643 118.001 85.0663 113.387 95.0429 105.662C92.2375 104.29 89.9702 102.007 88.6162 99.1915Z" fill="var(--svg-color)"/>
</g>
<mask id="mask2" mask-type="alpha" maskUnits="userSpaceOnUse" x="17" y="0" width="101" height="85">
<path fill-rule="evenodd" clip-rule="evenodd" d="M17.1152 0H118V84.6803H17.1152V0Z" fill="var(--svg-color)"/>
</mask>
<g mask="url(#mask2)">
<path fill-rule="evenodd" clip-rule="evenodd" d="M58.9992 0C42.6375 0 27.8125 6.69866 17.1152 17.4951H31.2453C39.1889 12.1644 48.7366 9.05133 58.9992 9.05133C86.5426 9.05133 108.95 31.4583 108.95 58.9994C108.95 66.3811 107.328 73.3875 104.441 79.699C107.534 80.4554 110.216 82.2422 112.11 84.6803C115.881 76.9115 118.001 68.1997 118.001 58.9994C118.001 26.4671 91.5339 0 58.9992 0Z" fill="var(--svg-color)"/>
</g>
<mask id="mask3" mask-type="alpha" maskUnits="userSpaceOnUse" x="37" y="25" width="24" height="11">
<path fill-rule="evenodd" clip-rule="evenodd" d="M40.9878 25.6696C38.8297 25.6696 37.0806 27.4187 37.0806 29.5768V31.1889C37.0806 33.347 38.8297 35.0961 40.9878 35.0961H56.2992C58.4573 35.0961 60.2085 33.347 60.2085 31.1889V29.5768C60.2085 27.4187 58.4573 25.6696 56.2992 25.6696H40.9878Z" fill="var(--svg-color)"/>
</mask>
<g mask="url(#mask3)">
<path fill-rule="evenodd" clip-rule="evenodd" d="M27.1509 45.0229H70.1327V15.7426H27.1509V45.0229Z" fill="var(--svg-color)"/>
</g>
<path fill-rule="evenodd" clip-rule="evenodd" d="M107.962 93.1849C107.962 96.9551 104.905 100.013 101.134 100.013C97.3642 100.013 94.3066 96.9551 94.3066 93.1849C94.3066 89.4147 97.3642 86.3572 101.134 86.3572C104.905 86.3572 107.962 89.4147 107.962 93.1849Z" fill="var(--svg-color)"/>
</svg>
