<svg width="25" height="25" viewBox="0 0 25 25" fill="none" xmlns="http://www.w3.org/2000/svg">
<path fill-rule="evenodd" clip-rule="evenodd" d="M12.163 16.5992C12.1039 16.5404 12.0742 16.4555 12.0742 16.3444V15.5024C12.0742 15.3842 12.1039 15.2975 12.163 15.242C12.2221 15.1867 12.307 15.1591 12.4178 15.1591H15.2764C15.3059 15.1591 15.3335 15.1535 15.3593 15.1424C15.3854 15.1314 15.4092 15.1146 15.4312 15.0923L15.509 15.015C15.5313 14.9928 15.5476 14.9687 15.5586 14.9429C15.5696 14.917 15.5755 14.893 15.5755 14.871V14.8377C15.5755 14.8081 15.5696 14.7822 15.5586 14.7602C15.5476 14.7382 15.5313 14.716 15.509 14.6937L15.4312 14.6162C15.4092 14.5939 15.3854 14.5775 15.3593 14.5663C15.3335 14.5553 15.3059 14.5496 15.2764 14.5496H13.4369C13.245 14.5496 13.0846 14.5274 12.9554 14.4831C12.8259 14.4389 12.6949 14.3501 12.5621 14.217L12.4178 14.0733C12.2774 13.9328 12.1853 13.8074 12.1407 13.6964C12.0965 13.5859 12.0742 13.4528 12.0742 13.2978V12.7439C12.0742 12.5075 12.1057 12.3115 12.1684 12.1565C12.2313 12.0014 12.3441 11.8425 12.5066 11.6801L12.7724 11.414C12.9423 11.2441 13.1048 11.1244 13.2598 11.054C13.4151 10.9839 13.618 10.9489 13.8693 10.9489H16.9937C17.1119 10.9489 17.1986 10.9765 17.2539 11.032C17.3092 11.0873 17.3373 11.1743 17.3373 11.2925V12.1344C17.3373 12.245 17.3092 12.3299 17.2539 12.3893C17.1986 12.4481 17.1119 12.4778 16.9937 12.4778H14.3014C14.2717 12.4778 14.2441 12.4834 14.2182 12.4944C14.1927 12.5054 14.1684 12.5221 14.1461 12.5441L14.0686 12.6218C14.0466 12.6441 14.0299 12.6661 14.0187 12.6884C14.0077 12.7106 14.002 12.7362 14.002 12.7659V12.7881C14.002 12.8101 14.0077 12.8342 14.0187 12.86C14.0299 12.8859 14.0466 12.9099 14.0686 12.9319L14.1461 13.0097C14.1684 13.032 14.1927 13.0483 14.2182 13.0593C14.2441 13.0706 14.2717 13.076 14.3014 13.076H16.1404C16.3326 13.076 16.4933 13.0982 16.6227 13.1425C16.7517 13.1868 16.8829 13.2755 17.016 13.4083L17.1598 13.5526C17.3002 13.6928 17.3926 13.8184 17.4366 13.929C17.4811 14.04 17.5031 14.173 17.5031 14.3281V14.893C17.5031 15.1294 17.4719 15.3254 17.4092 15.4804C17.3463 15.6352 17.2337 15.7943 17.0715 15.9566L16.8054 16.2226C16.6353 16.3925 16.4728 16.5125 16.3177 16.5829C16.1627 16.653 15.9596 16.688 15.7083 16.688H12.4178C12.307 16.688 12.2221 16.6583 12.163 16.5992Z" fill="var(--svg-color)"/>
<path fill-rule="evenodd" clip-rule="evenodd" d="M8.46003 13.8468C8.37508 13.7841 8.31061 13.6677 8.26609 13.4978L6.98096 8.60064C6.95153 8.48244 6.96228 8.38649 7.01422 8.31255C7.0659 8.23887 7.15442 8.20203 7.2803 8.20203H8.65396C8.79442 8.20203 8.89395 8.23145 8.9533 8.29055C9.01215 8.34965 9.05641 8.45301 9.08609 8.60064L9.86183 12.3122C9.86899 12.3491 9.88946 12.3677 9.92272 12.3677C9.95598 12.3677 9.97619 12.3491 9.98361 12.3122L10.7591 8.60064C10.7888 8.45301 10.8328 8.34965 10.8921 8.29055C10.951 8.23145 11.0508 8.20203 11.1912 8.20203H12.5206C12.6462 8.20203 12.735 8.23887 12.7867 8.31255C12.8381 8.38649 12.8494 8.48244 12.82 8.60064L11.5348 13.4978C11.4903 13.6677 11.4258 13.7841 11.3409 13.8468C11.256 13.9095 11.1137 13.9409 10.9141 13.9409H8.88678C8.68722 13.9409 8.54497 13.9095 8.46003 13.8468Z" fill="var(--svg-color)"/>
<mask id="mask0" mask-type="alpha" maskUnits="userSpaceOnUse" x="4" y="10" width="14" height="11">
<path fill-rule="evenodd" clip-rule="evenodd" d="M4.89648 10.0292H17.1443V20.103H4.89648V10.0292Z" fill="var(--svg-color)"/>
</mask>
<g mask="url(#mask0)">
<path fill-rule="evenodd" clip-rule="evenodd" d="M16.3161 17.6793C15.2474 18.4688 13.9272 18.9368 12.4993 18.9368C8.95017 18.9368 6.06265 16.0493 6.06265 12.4999C6.06265 11.6249 6.23893 10.7903 6.5567 10.0292H5.31071C5.0436 10.8044 4.89648 11.6351 4.89648 12.4999C4.89648 16.6922 8.30722 20.1032 12.4993 20.1032C14.2476 20.1032 15.8586 19.5086 17.1443 18.5131C16.7828 18.3363 16.4906 18.0421 16.3161 17.6793Z" fill="var(--svg-color)"/>
</g>
<mask id="mask1" mask-type="alpha" maskUnits="userSpaceOnUse" x="7" y="4" width="14" height="12">
<path fill-rule="evenodd" clip-rule="evenodd" d="M7.10156 4.89685H20.1022V15.8093H7.10156V4.89685Z" fill="var(--svg-color)"/>
</mask>
<g mask="url(#mask1)">
<path fill-rule="evenodd" clip-rule="evenodd" d="M12.499 4.89685C10.3905 4.89685 8.48008 5.76008 7.10156 7.15138H8.92245C9.9461 6.46443 11.1765 6.06326 12.499 6.06326C16.0484 6.06326 18.9359 8.95075 18.9359 12.4999C18.9359 13.4511 18.7269 14.354 18.3549 15.1673C18.7535 15.2648 19.0991 15.4951 19.3432 15.8093C19.8291 14.8081 20.1023 13.6855 20.1023 12.4999C20.1023 8.30755 16.6916 4.89685 12.499 4.89685Z" fill="var(--svg-color)"/>
</g>
<path fill-rule="evenodd" clip-rule="evenodd" d="M6.25977 8.7C6.25977 8.97614 6.48362 9.2 6.75977 9.2H8.55977C8.83591 9.2 9.05977 8.97614 9.05977 8.7V8.5C9.05977 8.22386 8.83591 8 8.55977 8H6.75977C6.48362 8 6.25977 8.22386 6.25977 8.5V8.7Z" fill="var(--svg-color)"/>
<path fill-rule="evenodd" clip-rule="evenodd" d="M18.8086 16.9052C18.8086 17.3911 18.4146 17.7851 17.9287 17.7851C17.4428 17.7851 17.0488 17.3911 17.0488 16.9052C17.0488 16.4194 17.4428 16.0254 17.9287 16.0254C18.4146 16.0254 18.8086 16.4194 18.8086 16.9052Z" fill="var(--svg-color)"/>
</svg>
