<svg width="194" height="194" viewBox="0 0 194 194" fill="none" xmlns="http://www.w3.org/2000/svg">
<path fill-rule="evenodd" clip-rule="evenodd" d="M79.5627 69.2288C78.2413 69.2288 76.92 69.349 75.4785 69.349C80.6438 54.6922 96.1397 44 114.278 44C136.741 44 155 60.2185 155 80.1613C155 87.73 152.357 95.1785 147.312 101.185C148.273 102.867 149.474 104.189 151.036 105.27C152.598 106.351 153.438 108.273 152.958 110.076C152.598 111.878 151.036 113.319 149.114 113.559C147.793 113.8 146.471 113.8 145.15 113.8C141.186 113.8 137.582 112.959 134.459 111.517C132.417 112.598 130.255 113.439 127.972 114.16V112.719C127.972 110.676 127.852 108.754 127.492 106.832C129.294 106.111 130.975 105.39 132.657 104.429L134.459 103.468L136.261 104.549C138.063 105.63 140.105 106.351 142.387 106.712C141.306 105.27 140.465 103.708 139.865 102.026L139.144 99.984L140.585 98.4222C145.39 93.2563 147.913 87.0092 147.913 80.2815C147.913 64.3032 132.777 51.2082 114.278 51.2082C100.104 51.2082 87.9713 58.7769 83.0463 69.4691C81.9652 69.2288 80.7639 69.2288 79.5627 69.2288Z" fill="var(--svg-color)"/>
<path fill-rule="evenodd" clip-rule="evenodd" d="M47.2495 135.545C41.4836 129.297 38 121.368 38 112.718C38 92.6556 56.6191 76.3169 79.5626 76.3169C102.506 76.3169 121.125 92.6556 121.125 112.718C121.125 132.781 102.386 149 79.5626 149C71.2741 149 63.4661 146.837 56.9795 143.113C51.0934 146.597 44.847 146.477 41.1232 145.997C40.0421 145.876 39.8018 144.555 40.6427 143.954C44.2464 141.672 46.1684 138.428 47.2495 135.545ZM70.682 107.274C70.3667 106.253 69.5411 105.492 68.6558 105.492H60.6816C59.6682 105.492 58.9464 106.488 59.0402 107.733L58.956 127.153C58.956 127.21 58.9581 127.264 58.9644 127.321C59.1049 128.611 60.0657 129.661 61.1077 129.661H71.2858C72.2795 129.661 72.9834 128.7 72.9225 127.489L70.7141 107.258C70.7028 107.264 70.6924 107.269 70.682 107.274ZM100.715 110.559C101.658 111.329 102.382 112.406 102.503 113.875C102.657 115.753 101.899 117.143 100.451 117.836C100.942 118.533 101.432 119.69 101.149 121.363C100.914 122.747 100.027 123.682 98.6585 124.058C98.6588 124.072 98.6601 124.085 98.6609 124.098C98.6613 124.104 98.6616 124.11 98.6616 124.116L98.6623 124.134C98.6643 124.18 98.667 124.242 98.6706 124.313C99.02 125.147 99.1564 126.125 98.7975 127.162C98.0473 129.315 95.5536 129.482 94.8079 129.482H83.8467C81.6546 129.482 77.4822 127.917 75.6772 127.198L72.9348 106.387C74.2508 105.161 78.3164 98.481 78.7947 95.7175C79.0757 94.1012 78.8107 92.9407 78.5975 92.0068L78.5929 91.9868C78.4293 91.2828 78.2767 90.6148 78.4408 89.9827C78.8134 88.5281 80.7236 87.8653 82.3393 87.8653C82.59 87.8653 82.8362 87.8809 83.0749 87.9114C83.818 88.0054 84.5697 88.4996 85.3113 89.3821C86.7215 91.0558 88.1479 94.2478 88.0135 96.865C87.9223 98.6784 87.9223 100.72 87.9395 102.023H96.7025C98.5865 102.023 99.7702 102.891 100.431 103.62C101.736 105.065 102.061 107.062 101.939 108.334C101.849 109.286 101.425 110.04 100.715 110.559Z" fill="var(--svg-color)"/>
</svg>
