<svg width="117" height="105" viewBox="0 0 117 105" fill="none" xmlns="http://www.w3.org/2000/svg">
<path fill-rule="evenodd" clip-rule="evenodd" d="M41.5627 25.2288C40.2413 25.2288 38.92 25.349 37.4785 25.349C42.6438 10.6922 58.1397 0 76.2783 0C98.7413 0 117 16.2185 117 36.1613C117 43.73 114.357 51.1785 109.312 57.1854C110.273 58.8673 111.474 60.1888 113.036 61.27C114.598 62.3513 115.438 64.2735 114.958 66.0755C114.598 67.8776 113.036 69.3192 111.114 69.5595C109.793 69.7998 108.471 69.7998 107.15 69.7998C103.186 69.7998 99.5822 68.9588 96.459 67.5172C94.4169 68.5984 92.2547 69.4394 89.9724 70.1602V68.7185C89.9724 66.6762 89.8522 64.754 89.4919 62.8318C91.2937 62.111 92.9754 61.3902 94.6572 60.4291L96.459 59.468L98.2609 60.5492C100.063 61.6304 102.105 62.3513 104.387 62.7117C103.306 61.27 102.465 59.7082 101.865 58.0263L101.144 55.984L102.585 54.4222C107.39 49.2563 109.913 43.0092 109.913 36.2815C109.913 20.3032 94.7773 7.20824 76.2783 7.20824C62.1038 7.20824 49.9713 14.7769 45.0463 25.4691C43.9652 25.2288 42.7639 25.2288 41.5627 25.2288Z" fill="var(--svg-color)"/>
<path fill-rule="evenodd" clip-rule="evenodd" d="M9.24949 91.5446C3.48357 85.2974 0 77.3684 0 68.7185C0 48.6556 18.6191 32.3169 41.5626 32.3169C64.5062 32.3169 83.1253 48.6556 83.1253 68.7185C83.1253 88.7814 64.386 105 41.5626 105C33.2741 105 25.4661 102.837 18.9795 99.1132C13.0934 102.597 6.84702 102.477 3.1232 101.997C2.04209 101.876 1.80185 100.555 2.64271 99.9542C6.24641 97.6716 8.16838 94.4279 9.24949 91.5446ZM32.682 63.2739C32.3667 62.2534 31.5411 61.492 30.6558 61.492H22.6816C21.6682 61.492 20.9464 62.4881 21.0402 63.7329L20.956 83.1532C20.956 83.2096 20.9581 83.2638 20.9644 83.3207C21.1049 84.6109 22.0657 85.6608 23.1077 85.6608H33.2858C34.2795 85.6608 34.9834 84.6998 34.9225 83.4887L32.7141 63.2584C32.7028 63.2635 32.6924 63.2693 32.682 63.2739ZM62.7147 66.5593C63.6577 67.329 64.3817 68.4063 64.5031 69.8749C64.6566 71.7529 63.8995 73.1429 62.451 73.836C62.9423 74.5334 63.4317 75.6903 63.1487 77.3625C62.9136 78.7474 62.0275 79.6825 60.6585 80.0578C60.6588 80.0717 60.6601 80.0854 60.6609 80.0982C60.6613 80.1044 60.6616 80.1104 60.6616 80.1162L60.6623 80.134C60.6643 80.1795 60.667 80.2417 60.6706 80.3132C61.02 81.1474 61.1564 82.1255 60.7975 83.1623C60.0473 85.3148 57.5536 85.4818 56.8079 85.4818H45.8467C43.6546 85.4818 39.4822 83.9166 37.6772 83.1975L34.9348 62.3872C36.2508 61.1606 40.3164 54.481 40.7947 51.7175C41.0757 50.1012 40.8107 48.9407 40.5975 48.0068L40.5929 47.9868C40.4293 47.2828 40.2767 46.6148 40.4408 45.9827C40.8134 44.5281 42.7236 43.8653 44.3393 43.8653C44.59 43.8653 44.8362 43.8809 45.0749 43.9114C45.818 44.0054 46.5697 44.4996 47.3113 45.3821C48.7215 47.0558 50.1479 50.2478 50.0135 52.865C49.9223 54.6784 49.9223 56.7202 49.9395 58.0229H58.7025C60.5865 58.0229 61.7702 58.8913 62.4307 59.6202C63.7363 61.0649 64.0605 63.0619 63.9391 64.3345C63.8486 65.2857 63.4251 66.0403 62.7147 66.5593Z" fill="var(--svg-color)"/>
</svg>
