<svg width="124" height="114" viewBox="0 0 124 114" fill="none" xmlns="http://www.w3.org/2000/svg">
<path fill-rule="evenodd" clip-rule="evenodd" d="M61.6784 49.6316C68.2626 43.6546 77.0306 40.0067 86.6594 40.0067C90.8441 40.0067 94.8621 40.7048 98.6136 41.9748C98.8624 40.2583 98.9969 38.5051 98.9969 36.7199C98.9969 16.4398 82.4239 0 61.9795 0C41.5352 0 24.9614 16.4398 24.9614 36.7199C24.9614 38.438 25.0895 40.1257 25.3197 41.7807C28.9054 40.6329 32.7269 40.0067 36.6974 40.0067C46.3254 40.0067 55.0942 43.6546 61.6784 49.6316Z" fill="var(--svg-color)"/>
<path fill-rule="evenodd" clip-rule="evenodd" d="M49.9619 77.2794C49.9619 75.495 50.0972 73.7417 50.3452 72.0252C37.3225 67.617 27.5714 56.2181 25.6404 42.3335C10.7641 47.0964 0 60.9379 0 77.2794C0 97.5595 16.5737 114 37.0181 114C46.6469 114 55.4149 110.351 61.9991 104.375C54.6024 97.6609 49.9619 88.0089 49.9619 77.2794Z" fill="var(--svg-color)"/>
<path fill-rule="evenodd" clip-rule="evenodd" d="M98.9371 42.3335C96.9136 56.3347 86.9314 67.7823 73.68 72.0244C73.9103 73.6802 74.0383 75.3672 74.0383 77.0853C74.0383 87.8148 69.3978 97.4669 62.002 104.181C68.5862 110.157 77.3542 113.806 86.9821 113.806C107.427 113.806 124 97.3654 124 77.0853C124 60.9562 113.513 47.2665 98.9371 42.3335Z" fill="var(--svg-color)"/>
<path fill-rule="evenodd" clip-rule="evenodd" d="M61.5772 49.5222C55.4109 55.119 51.1666 62.7598 49.9233 71.3631C53.6748 72.6323 57.6929 73.3312 61.8784 73.3312C65.8489 73.3312 69.6704 72.7042 73.256 71.5564C72.049 62.8748 67.7894 55.1614 61.5772 49.5222Z" fill="var(--svg-color)"/>
</svg>
