<svg width="194" height="194" viewBox="0 0 194 194" fill="none" xmlns="http://www.w3.org/2000/svg">
<path fill-rule="evenodd" clip-rule="evenodd" d="M94.6784 87.6316C101.263 81.6546 110.031 78.0067 119.659 78.0067C123.844 78.0067 127.862 78.7048 131.614 79.9748C131.862 78.2583 131.997 76.5051 131.997 74.7199C131.997 54.4398 115.424 38 94.9795 38C74.5352 38 57.9614 54.4398 57.9614 74.7199C57.9614 76.438 58.0895 78.1257 58.3197 79.7807C61.9054 78.6329 65.7269 78.0067 69.6974 78.0067C79.3254 78.0067 88.0942 81.6546 94.6784 87.6316Z" fill="var(--svg-color)"/>
<path fill-rule="evenodd" clip-rule="evenodd" d="M82.9619 115.279C82.9619 113.495 83.0972 111.742 83.3452 110.025C70.3225 105.617 60.5714 94.2181 58.6404 80.3335C43.7641 85.0964 33 98.9379 33 115.279C33 135.56 49.5737 152 70.0181 152C79.6469 152 88.4149 148.351 94.9991 142.375C87.6024 135.661 82.9619 126.009 82.9619 115.279Z" fill="var(--svg-color)"/>
<path fill-rule="evenodd" clip-rule="evenodd" d="M131.937 80.3335C129.914 94.3347 119.931 105.782 106.68 110.024C106.91 111.68 107.038 113.367 107.038 115.085C107.038 125.815 102.398 135.467 95.002 142.181C101.586 148.157 110.354 151.806 119.982 151.806C140.427 151.806 157 135.365 157 115.085C157 98.9562 146.513 85.2665 131.937 80.3335Z" fill="var(--svg-color)"/>
<path fill-rule="evenodd" clip-rule="evenodd" d="M94.5772 87.5222C88.4109 93.119 84.1666 100.76 82.9233 109.363C86.6748 110.632 90.6929 111.331 94.8784 111.331C98.8489 111.331 102.67 110.704 106.256 109.556C105.049 100.875 100.789 93.1614 94.5772 87.5222Z" fill="var(--svg-color)"/>
</svg>
