<svg width="194" height="194" viewBox="0 0 194 194" fill="none" xmlns="http://www.w3.org/2000/svg">
<path fill-rule="evenodd" clip-rule="evenodd" d="M118.415 128.407C114.137 128.407 110.658 124.94 110.658 120.676C110.658 116.413 114.137 112.945 118.415 112.945C122.353 112.945 125.578 115.893 126.073 119.684V120.931C126.073 121.057 126.093 121.179 126.109 121.3C125.784 125.267 122.478 128.407 118.415 128.407ZM117.23 83.8378L116.591 84.0667L109.097 86.7507L108.107 87.1045L101.298 89.5435L99.9772 90.0174L96.357 91.3127L92.1758 92.8102L90.8681 93.278V89.0476V86.1503L94.0111 85.024L98.1925 83.5265L101.813 82.2295L103.133 81.7573L109.942 79.3183L110.933 78.9627L118.427 76.2787L119.066 76.0498L126.07 73.5412V79.5726V80.1808V80.7099C125.949 80.7351 125.83 80.7574 125.711 80.7999L117.23 83.8378ZM77.7818 145.784C73.504 145.784 70.0248 142.316 70.0248 138.053C70.0248 133.789 73.504 130.322 77.7818 130.322C81.7191 130.322 84.9446 133.269 85.4392 137.061V138.307C85.4392 138.433 85.4598 138.555 85.4755 138.677C85.1507 142.643 81.8442 145.784 77.7818 145.784ZM128.788 67.207C128.144 67.207 126.174 67.7536 125.714 67.9194L117.231 70.9572L116.593 71.1861L109.099 73.8701L108.108 74.2239L101.299 76.6629L99.9785 77.1368L96.3585 78.4321L92.1771 79.9299L87.641 81.5553C86.4696 81.7796 85.5787 82.7528 85.4646 83.9549C85.4583 84.0212 85.4472 84.0843 85.4455 84.1508C85.4455 84.1713 85.4394 84.1902 85.4394 84.2107V89.0478V93.8706V97.5591V98.7091V102.793V107.221V111.054V112.454V119.665V120.714V127.624C83.29 126.052 80.6478 125.112 77.782 125.112C70.621 125.112 64.7944 130.919 64.7944 138.056C64.7944 145.193 70.621 151 77.782 151C84.5612 151 90.1358 145.795 90.7126 139.184C90.8078 138.909 90.8696 138.618 90.8696 138.31V129.325V128.649V120.714V119.662V112.451V111.051V107.217V102.791V99.0314L94.0127 97.9051L98.1938 96.4076L101.814 95.1106L103.134 94.6384L109.944 92.1992L110.934 91.8439L118.428 89.1598L119.067 88.931L126.071 86.4223V89.8409V93.6747V95.0744V102.285V103.335V110.244C123.922 108.672 121.28 107.732 118.414 107.732C111.253 107.732 105.426 113.539 105.426 120.676C105.426 127.813 111.253 133.62 118.414 133.62C125.193 133.62 130.768 128.415 131.344 121.804C131.44 121.529 131.501 121.239 131.501 120.931V111.945V111.269V103.335V102.285V95.0744V93.6747V89.8409V85.4146V82.9313V80.1825V79.5743V73.2715V69.9145C131.503 68.4187 130.286 67.207 128.788 67.207Z" fill="var(--svg-color)"/>
<path fill-rule="evenodd" clip-rule="evenodd" d="M88.8828 83.2372V95.943L129.947 83.2372V69.0691L88.8828 83.2372Z" fill="var(--svg-color)"/>
<path fill-rule="evenodd" clip-rule="evenodd" d="M77.7648 149.138C83.905 149.138 88.8826 144.136 88.8826 137.965C88.8826 131.795 83.905 126.793 77.7648 126.793C71.6246 126.793 66.647 131.795 66.647 137.965C66.647 144.136 71.6246 149.138 77.7648 149.138Z" fill="var(--svg-color)"/>
<path fill-rule="evenodd" clip-rule="evenodd" d="M118.53 132.379C124.671 132.379 129.648 127.377 129.648 121.207C129.648 115.037 124.671 110.035 118.53 110.035C112.39 110.035 107.413 115.037 107.413 121.207C107.413 127.377 112.39 132.379 118.53 132.379Z" fill="var(--svg-color)"/>
<path fill-rule="evenodd" clip-rule="evenodd" d="M111.173 65.0225L129.426 83.3647C129.857 83.7981 130.556 83.7981 130.987 83.3647L149.24 65.0225C154.253 59.9846 154.253 51.8164 149.24 46.7785C144.227 41.7405 136.098 41.7405 131.085 46.7785C130.39 47.4768 130.207 47.7832 130.207 47.7832C130.207 47.7832 129.654 47.1065 129.328 46.7785C124.315 41.7405 116.186 41.7405 111.173 46.7785C106.16 51.8164 106.16 59.9846 111.173 65.0225Z" fill="var(--svg-color)"/>
<rect x="38.853" y="63.4827" width="61.1481" height="5.5862" rx="2.7931" fill="var(--svg-color)"/>
<rect x="38.853" y="80.2415" width="35.2065" height="5.5862" rx="2.7931" fill="var(--svg-color)"/>
<rect x="38.853" y="97" width="35.2065" height="5.5862" rx="2.7931" fill="var(--svg-color)"/>
<rect x="38.853" y="113.758" width="35.2065" height="5.5862" rx="2.7931" fill="var(--svg-color)"/>
<path fill-rule="evenodd" clip-rule="evenodd" d="M79.5601 71.8254C82.598 71.8254 85.0607 69.3506 85.0607 66.2978C85.0607 63.245 82.598 60.7703 79.5601 60.7703C76.5223 60.7703 74.0596 63.245 74.0596 66.2978C74.0596 69.3506 76.5223 71.8254 79.5601 71.8254Z" fill="var(--svg-color)"/>
<path fill-rule="evenodd" clip-rule="evenodd" d="M42.5006 88.5839C45.5384 88.5839 48.0011 86.1091 48.0011 83.0564C48.0011 80.0036 45.5384 77.5288 42.5006 77.5288C39.4627 77.5288 37 80.0036 37 83.0564C37 86.1091 39.4627 88.5839 42.5006 88.5839Z" fill="var(--svg-color)"/>
<path fill-rule="evenodd" clip-rule="evenodd" d="M64.7359 105.343C67.7738 105.343 70.2365 102.868 70.2365 99.8152C70.2365 96.7624 67.7738 94.2876 64.7359 94.2876C61.698 94.2876 59.2354 96.7624 59.2354 99.8152C59.2354 102.868 61.698 105.343 64.7359 105.343Z" fill="var(--svg-color)"/>
<path fill-rule="evenodd" clip-rule="evenodd" d="M53.6182 122.101C56.6561 122.101 59.1188 119.626 59.1188 116.574C59.1188 113.521 56.6561 111.046 53.6182 111.046C50.5804 111.046 48.1177 113.521 48.1177 116.574C48.1177 119.626 50.5804 122.101 53.6182 122.101Z" fill="var(--svg-color)"/>
</svg>
