<svg width="25" height="25" viewBox="0 0 25 25" fill="none" xmlns="http://www.w3.org/2000/svg">
<path fill-rule="evenodd" clip-rule="evenodd" d="M10.459 17.8462V18.4749C10.459 19.2102 10.8507 19.5288 11.4476 19.6561C11.5604 20.052 11.9422 20.3609 12.3688 20.3609C12.7954 20.3609 13.1772 20.052 13.2899 19.6561C13.8868 19.5288 14.2786 19.2102 14.2786 18.4749V17.8462H10.459Z" fill="var(--svg-color)"/>
<path fill-rule="evenodd" clip-rule="evenodd" d="M12.3047 7.78745C14.7874 7.72458 16.8246 9.73632 16.8246 12.1881C16.8246 13.6341 16.1243 14.9543 14.9784 15.7087C14.5328 16.0859 14.2782 16.6517 14.2782 17.2175H10.4586C10.4586 16.6517 10.204 16.0859 9.69468 15.7087C8.5488 14.8914 7.84855 13.5083 7.91221 11.9995C7.97586 9.73632 9.94931 7.85031 12.3047 7.78745ZM12.375 9.75C12.5821 9.75 12.75 9.91789 12.75 10.125V12H14.625C14.8321 12 15 12.1679 15 12.375C15 12.5821 14.8321 12.75 14.625 12.75H12.75V14.625C12.75 14.8321 12.5821 15 12.375 15C12.1679 15 12 14.8321 12 14.625V12.75H10.125C9.91789 12.75 9.75 12.5821 9.75 12.375C9.75 12.1679 9.91789 12 10.125 12H12V10.125C12 9.91789 12.1679 9.75 12.375 9.75Z" fill="var(--svg-color)"/>
<path fill-rule="evenodd" clip-rule="evenodd" d="M15.2366 6.37105L15.6489 5.69654C15.7426 5.53247 15.9488 5.47778 16.1175 5.56893C16.2862 5.66008 16.3425 5.86061 16.2487 6.02468L15.8364 6.69919C15.7801 6.80857 15.6489 6.86326 15.5365 6.86326C15.4802 6.86326 15.424 6.84503 15.3678 6.8268C15.1991 6.73565 15.1428 6.53512 15.2366 6.37105Z" fill="var(--svg-color)"/>
<path fill-rule="evenodd" clip-rule="evenodd" d="M9.1626 6.69919C9.21883 6.80857 9.35004 6.86326 9.4625 6.86326C9.51874 6.86326 9.57497 6.84503 9.6312 6.8268C9.7999 6.73565 9.85613 6.53512 9.76241 6.37105L9.35004 5.69654C9.25632 5.53247 9.05013 5.47778 8.88144 5.56893C8.71274 5.66008 8.65651 5.86061 8.75023 6.02468L9.1626 6.69919Z" fill="var(--svg-color)"/>
<path fill-rule="evenodd" clip-rule="evenodd" d="M12.4991 6.07932C12.6866 6.07932 12.8365 5.93349 12.8365 5.75119V4.9673C12.8365 4.785 12.6866 4.63916 12.4991 4.63916C12.3117 4.63916 12.1617 4.785 12.1617 4.9673V5.75119C12.143 5.93349 12.2929 6.07932 12.4991 6.07932Z" fill="var(--svg-color)"/>
<path fill-rule="evenodd" clip-rule="evenodd" d="M6.42659 11.3113H5.6206C5.43316 11.3113 5.2832 11.4571 5.2832 11.6394C5.2832 11.8217 5.43316 11.9676 5.6206 11.9676H6.42659C6.61403 11.9676 6.76399 11.8217 6.76399 11.6394C6.76399 11.4571 6.61403 11.3113 6.42659 11.3113Z" fill="var(--svg-color)"/>
<path fill-rule="evenodd" clip-rule="evenodd" d="M19.3778 11.3113H18.5718C18.3843 11.3113 18.2344 11.4571 18.2344 11.6394C18.2344 11.8217 18.3843 11.9676 18.5718 11.9676H19.3778C19.5652 11.9676 19.7152 11.8217 19.7152 11.6394C19.7152 11.4571 19.5652 11.3113 19.3778 11.3113Z" fill="var(--svg-color)"/>
<path fill-rule="evenodd" clip-rule="evenodd" d="M18.7604 8.13929C18.6666 7.97522 18.4605 7.92053 18.2918 8.01168L17.5982 8.41274C17.4295 8.50389 17.3733 8.70442 17.467 8.86849C17.5233 8.97787 17.6545 9.03256 17.7669 9.03256C17.8232 9.03256 17.8794 9.01433 17.9356 8.9961L18.6292 8.59504C18.7978 8.50389 18.8541 8.30336 18.7604 8.13929Z" fill="var(--svg-color)"/>
<path fill-rule="evenodd" clip-rule="evenodd" d="M7.40064 8.41274L6.70711 8.01168C6.53841 7.92053 6.33223 7.97522 6.23851 8.13929C6.14479 8.30336 6.20102 8.50389 6.36972 8.59504L7.06325 8.9961C7.11948 9.03256 7.17571 9.03256 7.23195 9.03256C7.34441 9.03256 7.47562 8.97787 7.53185 8.86849C7.62557 8.70442 7.56934 8.50389 7.40064 8.41274Z" fill="var(--svg-color)"/>
</svg>
