<svg width="194" height="194" viewBox="0 0 194 194" fill="none" xmlns="http://www.w3.org/2000/svg">
<rect width="194" height="194" rx="50" fill="url(#paint0_linear)"/>
<path fill-rule="evenodd" clip-rule="evenodd" d="M81.1646 138.486V143.365C81.1646 149.071 84.2046 151.543 88.8365 152.531C89.7114 155.603 92.6739 158 95.9845 158C99.2951 158 102.258 155.603 103.133 152.531C107.764 151.543 110.804 149.071 110.804 143.365V138.486H81.1646Z" fill="var(--svg-color)"/>
<path fill-rule="evenodd" clip-rule="evenodd" d="M130.564 94.5799C130.564 75.5538 114.756 59.9427 95.49 60.4306C77.2121 60.9184 61.8981 75.5538 61.4041 93.1163C60.9101 104.825 66.3441 115.557 75.2361 121.899C79.188 124.826 81.164 129.217 81.164 133.608H110.804C110.804 129.217 112.78 124.826 116.238 121.899C125.13 116.045 130.564 105.8 130.564 94.5799Z" fill="var(--svg-color)"/>
<path fill-rule="evenodd" clip-rule="evenodd" d="M118.237 49.4392L121.437 44.205C122.164 42.9318 123.764 42.5074 125.073 43.2148C126.382 43.9221 126.818 45.4782 126.091 46.7514L122.891 51.9856C122.455 52.8343 121.437 53.2587 120.564 53.2587C120.127 53.2587 119.691 53.1173 119.255 52.9758C117.946 52.2685 117.509 50.7124 118.237 49.4392Z" fill="var(--svg-color)"/>
<path fill-rule="evenodd" clip-rule="evenodd" d="M71.1089 51.9856C71.5453 52.8343 72.5635 53.2587 73.4362 53.2587C73.8726 53.2587 74.3089 53.1173 74.7453 52.9758C76.0544 52.2685 76.4908 50.7124 75.7635 49.4392L72.5635 44.205C71.8362 42.9318 70.2362 42.5074 68.9271 43.2148C67.618 43.9221 67.1817 45.4782 67.9089 46.7514L71.1089 51.9856Z" fill="var(--svg-color)"/>
<path fill-rule="evenodd" clip-rule="evenodd" d="M97.0001 47.1757C98.4546 47.1757 99.6183 46.044 99.6183 44.6293V38.5464C99.6183 37.1317 98.4546 36 97.0001 36C95.5455 36 94.3819 37.1317 94.3819 38.5464V44.6293C94.2364 46.044 95.4001 47.1757 97.0001 47.1757Z" fill="var(--svg-color)"/>
<path fill-rule="evenodd" clip-rule="evenodd" d="M49.8727 87.7761H43.6182C42.1636 87.7761 41 88.9078 41 90.3225C41 91.7371 42.1636 92.8688 43.6182 92.8688H49.8727C51.3273 92.8688 52.4909 91.7371 52.4909 90.3225C52.4909 88.9078 51.3273 87.7761 49.8727 87.7761Z" fill="var(--svg-color)"/>
<path fill-rule="evenodd" clip-rule="evenodd" d="M150.382 87.7761H144.127C142.673 87.7761 141.509 88.9078 141.509 90.3225C141.509 91.7371 142.673 92.8688 144.127 92.8688H150.382C151.837 92.8688 153 91.7371 153 90.3225C153 88.9078 151.837 87.7761 150.382 87.7761Z" fill="var(--svg-color)"/>
<path fill-rule="evenodd" clip-rule="evenodd" d="M145.582 63.1613C144.854 61.8881 143.254 61.4637 141.945 62.1711L136.563 65.2833C135.254 65.9906 134.818 67.5467 135.545 68.8199C135.982 69.6687 137 70.0931 137.872 70.0931C138.309 70.0931 138.745 69.9516 139.182 69.8101L144.563 66.6979C145.872 65.9906 146.309 64.4345 145.582 63.1613Z" fill="var(--svg-color)"/>
<path fill-rule="evenodd" clip-rule="evenodd" d="M57.4364 65.2833L52.0546 62.1711C50.7455 61.4637 49.1455 61.8881 48.4182 63.1613C47.691 64.4345 48.1273 65.9906 49.4364 66.6979L54.8182 69.8101C55.2546 70.0931 55.6909 70.0931 56.1273 70.0931C57 70.0931 58.0182 69.6687 58.4546 68.8199C59.1818 67.5467 58.7455 65.9906 57.4364 65.2833Z" fill="var(--svg-color)"/>
<path fill-rule="evenodd" clip-rule="evenodd" d="M78.6905 96.0312H113.385H78.6905Z" fill="var(--svg-color)"/>
<path d="M78.6905 96.0312H113.385" stroke="#F28098" stroke-width="6.11436" stroke-linecap="round"/>
<path fill-rule="evenodd" clip-rule="evenodd" d="M96.0083 78.7341V113.388V78.7341Z" fill="var(--svg-color)"/>
<path d="M96.0083 78.7341V113.388" stroke="#F28098" stroke-width="6.11436" stroke-linecap="round"/>
<defs>
<linearGradient id="paint0_linear" x1="1.44773" y1="2.89546" x2="1.44773" y2="194" gradientUnits="userSpaceOnUse">
<stop stop-color="#F99292"/>
<stop offset="1" stop-color="#EA6C9E"/>
</linearGradient>
</defs>
</svg>
