<svg width="194" height="194" viewBox="0 0 194 194" fill="none" xmlns="http://www.w3.org/2000/svg">
<path fill-rule="evenodd" clip-rule="evenodd" d="M121.912 110.604H109.36C107.376 110.604 105.769 108.999 105.769 107.017C105.769 105.036 107.376 103.43 109.36 103.43H121.912C123.895 103.43 125.503 105.036 125.503 107.017C125.503 108.999 123.895 110.604 121.912 110.604Z" fill="var(--svg-color)"/>
<path fill-rule="evenodd" clip-rule="evenodd" d="M89.0452 90.3129C87.0615 90.3129 85.4541 88.7071 85.4541 86.7257V74.1878C85.4541 72.2063 87.0615 70.6006 89.0452 70.6006C91.0289 70.6006 92.6364 72.2063 92.6364 74.1878V86.7257C92.6364 88.7071 91.0289 90.3129 89.0452 90.3129Z" fill="var(--svg-color)"/>
<path fill-rule="evenodd" clip-rule="evenodd" d="M89.7105 56.2794C88.2522 57.7361 86.0149 57.6776 84.6278 56.2945C83.253 54.9212 83.253 52.6022 84.6278 51.2289C86.0396 49.8131 88.3061 49.8346 89.6826 51.2147C91.1446 52.6684 91.0661 54.9339 89.7105 56.2794ZM94.7747 46.1568C90.585 41.9477 83.7382 41.9477 79.5485 46.1568C75.3588 50.3419 75.3588 57.1814 79.5485 61.3666C81.5834 63.3995 84.2888 64.5233 87.1614 64.5233C90.034 64.5233 92.7399 63.3993 94.7745 61.3666C98.9887 57.1816 98.9887 50.3419 94.7747 46.1568Z" fill="var(--svg-color)"/>
<path fill-rule="evenodd" clip-rule="evenodd" d="M134.754 83.1389C136.737 83.1389 138.345 84.745 138.345 86.7261C138.345 88.7074 136.737 90.3134 134.754 90.3134C132.77 90.3134 131.163 88.7074 131.163 86.7261C131.163 84.745 132.77 83.1389 134.754 83.1389Z" fill="var(--svg-color)"/>
<path fill-rule="evenodd" clip-rule="evenodd" d="M109.359 57.7725C111.343 57.7725 112.95 59.3786 112.95 61.3597C112.95 63.3409 111.343 64.9469 109.359 64.9469C107.376 64.9469 105.768 63.3409 105.768 61.3597C105.768 59.3786 107.376 57.7725 109.359 57.7725Z" fill="var(--svg-color)"/>
<path fill-rule="evenodd" clip-rule="evenodd" d="M134.754 123.723C136.737 123.723 138.345 125.329 138.345 127.31C138.345 129.291 136.737 130.897 134.754 130.897C132.77 130.897 131.163 129.291 131.163 127.31C131.163 125.329 132.77 123.723 134.754 123.723Z" fill="var(--svg-color)"/>
<path fill-rule="evenodd" clip-rule="evenodd" d="M68.7318 57.7725C70.7151 57.7725 72.3229 59.3786 72.3229 61.3597C72.3229 63.3409 70.7151 64.9469 68.7318 64.9469C66.7484 64.9469 65.1406 63.3409 65.1406 61.3597C65.1406 59.3786 66.7484 57.7725 68.7318 57.7725Z" fill="var(--svg-color)"/>
<path fill-rule="evenodd" clip-rule="evenodd" d="M138.345 54.1846C136.361 54.1846 134.754 52.5789 134.754 50.5974V47.0102C134.754 45.0286 136.361 43.4229 138.345 43.4229C140.329 43.4229 141.936 45.0286 141.936 47.0102V50.5974C141.936 52.5789 140.329 54.1846 138.345 54.1846Z" fill="var(--svg-color)"/>
<path fill-rule="evenodd" clip-rule="evenodd" d="M138.345 72.1206C136.361 72.1206 134.754 70.515 134.754 68.5334V64.9462C134.754 62.9647 136.361 61.3589 138.345 61.3589C140.329 61.3589 141.936 62.9647 141.936 64.9462V68.5334C141.936 70.515 140.329 72.1206 138.345 72.1206Z" fill="var(--svg-color)"/>
<path fill-rule="evenodd" clip-rule="evenodd" d="M131.163 61.359H127.572C125.588 61.359 123.98 59.7533 123.98 57.7718C123.98 55.7903 125.588 54.1846 127.572 54.1846H131.163C133.146 54.1846 134.754 55.7903 134.754 57.7718C134.754 59.7533 133.147 61.359 131.163 61.359Z" fill="var(--svg-color)"/>
<path fill-rule="evenodd" clip-rule="evenodd" d="M149.119 61.359H145.528C143.544 61.359 141.937 59.7533 141.937 57.7718C141.937 55.7903 143.544 54.1846 145.528 54.1846H149.119C151.101 54.1846 152.71 55.7903 152.71 57.7718C152.71 59.7533 151.101 61.359 149.119 61.359Z" fill="var(--svg-color)"/>
<path fill-rule="evenodd" clip-rule="evenodd" d="M144.775 108.891C143.323 110.344 141.086 110.297 139.693 108.907C138.318 107.534 138.318 105.215 139.693 103.842C141.104 102.426 143.371 102.448 144.747 103.828C146.203 105.277 146.137 107.539 144.775 108.891ZM149.84 98.7702C145.65 94.5613 138.803 94.5613 134.613 98.7702C130.424 102.955 130.424 109.795 134.613 113.98C136.648 116.013 139.354 117.137 142.227 117.137C145.099 117.137 147.805 116.013 149.84 113.98C154.053 109.795 154.053 102.955 149.84 98.7702Z" fill="var(--svg-color)"/>
<path fill-rule="evenodd" clip-rule="evenodd" d="M100.691 98.9727C99.7724 98.9727 98.8535 98.6223 98.1522 97.9217C96.7494 96.5217 96.7494 94.2493 98.1522 92.849L120.57 70.4554C121.973 69.0542 124.246 69.0542 125.648 70.4554C127.051 71.8554 127.051 74.1278 125.648 75.5282L103.23 97.9215C102.529 98.6223 101.61 98.9727 100.691 98.9727Z" fill="var(--svg-color)"/>
<path fill-rule="evenodd" clip-rule="evenodd" d="M98.1519 97.9216C98.8533 98.6222 99.7722 98.9726 100.691 98.9726C101.609 98.9726 102.529 98.6222 103.23 97.9216L125.648 75.5281C127.051 74.1281 127.051 71.8557 125.648 70.4553L98.1519 97.9216Z" fill="var(--svg-color)"/>
<path fill-rule="evenodd" clip-rule="evenodd" d="M70.8826 134.539V144.667L47.7915 152.789C46.3717 153.289 44.9809 152.858 44.0663 151.95C43.1445 151.034 42.709 149.637 43.2116 148.212L51.3517 125.172H61.5145L66.1901 129.847L70.8826 134.539Z" fill="var(--svg-color)"/>
<path fill-rule="evenodd" clip-rule="evenodd" d="M70.8822 134.539V144.667L47.791 152.789C46.3713 153.288 44.9804 152.858 44.0659 151.949L66.1899 129.847L70.8822 134.539Z" fill="var(--svg-color)"/>
<path fill-rule="evenodd" clip-rule="evenodd" d="M60.6357 111.613L84.4704 135.431H97.1019L110.553 130.696C112.425 130.025 113.401 127.992 112.755 126.104L69.9252 83.3446C68.0626 82.6767 65.9998 83.6526 65.3524 85.521L60.6357 98.8696V111.614V111.613Z" fill="var(--svg-color)"/>
<path fill-rule="evenodd" clip-rule="evenodd" d="M84.4702 135.431H97.1017L110.553 130.696C112.425 130.025 113.401 127.993 112.755 126.105L91.3408 104.725L72.5381 123.508L84.4702 135.431Z" fill="var(--svg-color)"/>
<path fill-rule="evenodd" clip-rule="evenodd" d="M60.6113 98.9131L51.3467 125.172L70.8823 144.663L70.9542 144.639L97.1455 135.407L60.6113 98.9131Z" fill="var(--svg-color)"/>
<path fill-rule="evenodd" clip-rule="evenodd" d="M70.8821 144.663L70.9539 144.639L97.145 135.408L78.8851 117.167L61.1147 134.918L70.8821 144.663Z" fill="var(--svg-color)"/>
<path fill-rule="evenodd" clip-rule="evenodd" d="M114.439 135.971C113.521 135.971 112.602 135.62 111.9 134.919L61.1131 84.188C59.7103 82.7881 59.7103 80.5157 61.1131 79.1154C62.5158 77.7141 64.7886 77.7141 66.1913 79.1154L116.978 129.847C118.381 131.247 118.381 133.519 116.978 134.92C116.277 135.62 115.358 135.971 114.439 135.971Z" fill="var(--svg-color)"/>
<path fill-rule="evenodd" clip-rule="evenodd" d="M111.9 134.92C112.602 135.62 113.521 135.971 114.439 135.971C115.358 135.971 116.277 135.62 116.978 134.92C118.381 133.52 118.381 131.247 116.978 129.847L91.5851 104.481L86.5068 109.554L111.9 134.92Z" fill="var(--svg-color)"/>
</svg>
