<svg width="110" height="110" viewBox="0 0 110 110" fill="none" xmlns="http://www.w3.org/2000/svg">
<path fill-rule="evenodd" clip-rule="evenodd" d="M78.9117 67.6044H66.3602C64.3765 67.6044 62.769 65.9987 62.769 64.0172C62.769 62.0356 64.3765 60.4299 66.3602 60.4299H78.9117C80.8954 60.4299 82.5028 62.0356 82.5028 64.0172C82.5028 65.9989 80.8954 67.6044 78.9117 67.6044Z" fill="var(--svg-color)"/>
<path fill-rule="evenodd" clip-rule="evenodd" d="M46.0452 47.3129C44.0615 47.3129 42.4541 45.7071 42.4541 43.7257V31.1878C42.4541 29.2063 44.0615 27.6006 46.0452 27.6006C48.0289 27.6006 49.6364 29.2063 49.6364 31.1878V43.7257C49.6364 45.7071 48.0289 47.3129 46.0452 47.3129Z" fill="var(--svg-color)"/>
<path fill-rule="evenodd" clip-rule="evenodd" d="M46.7105 13.2794C45.2522 14.7361 43.0149 14.6776 41.6278 13.2945C40.253 11.9212 40.253 9.60217 41.6278 8.2289C43.0396 6.81306 45.3061 6.83455 46.6826 8.21474C48.1446 9.66837 48.0661 11.9339 46.7105 13.2794ZM51.7747 3.15677C47.585 -1.05226 40.7382 -1.05226 36.5485 3.15677C32.3588 7.34186 32.3588 14.1814 36.5485 18.3666C38.5834 20.3995 41.2888 21.5233 44.1614 21.5233C47.034 21.5233 49.7399 20.3993 51.7745 18.3666C55.9887 14.1816 55.9887 7.34186 51.7747 3.15677Z" fill="var(--svg-color)"/>
<path fill-rule="evenodd" clip-rule="evenodd" d="M91.7537 40.1389C93.7371 40.1389 95.3448 41.745 95.3448 43.7261C95.3448 45.7074 93.7371 47.3134 91.7537 47.3134C89.7703 47.3134 88.1626 45.7074 88.1626 43.7261C88.1626 41.745 89.7703 40.1389 91.7537 40.1389Z" fill="var(--svg-color)"/>
<path fill-rule="evenodd" clip-rule="evenodd" d="M66.3592 14.7725C68.3426 14.7725 69.9503 16.3786 69.9503 18.3597C69.9503 20.3409 68.3426 21.9469 66.3592 21.9469C64.3758 21.9469 62.7681 20.3409 62.7681 18.3597C62.7681 16.3786 64.3758 14.7725 66.3592 14.7725Z" fill="var(--svg-color)"/>
<path fill-rule="evenodd" clip-rule="evenodd" d="M91.7537 80.7227C93.7371 80.7227 95.3448 82.3288 95.3448 84.3099C95.3448 86.2911 93.7371 87.8971 91.7537 87.8971C89.7703 87.8971 88.1626 86.2911 88.1626 84.3099C88.1626 82.3288 89.7703 80.7227 91.7537 80.7227Z" fill="var(--svg-color)"/>
<path fill-rule="evenodd" clip-rule="evenodd" d="M25.7318 14.7725C27.7151 14.7725 29.3229 16.3786 29.3229 18.3597C29.3229 20.3409 27.7151 21.9469 25.7318 21.9469C23.7484 21.9469 22.1406 20.3409 22.1406 18.3597C22.1406 16.3786 23.7484 14.7725 25.7318 14.7725Z" fill="var(--svg-color)"/>
<path fill-rule="evenodd" clip-rule="evenodd" d="M95.345 11.1846C93.3613 11.1846 91.7539 9.57892 91.7539 7.59739V4.01017C91.7539 2.02865 93.3613 0.422852 95.345 0.422852C97.3287 0.422852 98.9362 2.02865 98.9362 4.01017V7.59739C98.9362 9.57892 97.3289 11.1846 95.345 11.1846Z" fill="var(--svg-color)"/>
<path fill-rule="evenodd" clip-rule="evenodd" d="M95.345 29.1206C93.3613 29.1206 91.7539 27.515 91.7539 25.5334V21.9462C91.7539 19.9647 93.3613 18.3589 95.345 18.3589C97.3287 18.3589 98.9362 19.9647 98.9362 21.9462V25.5334C98.9362 27.515 97.3289 29.1206 95.345 29.1206Z" fill="var(--svg-color)"/>
<path fill-rule="evenodd" clip-rule="evenodd" d="M88.1627 18.359H84.5716C82.5879 18.359 80.9805 16.7533 80.9805 14.7718C80.9805 12.7903 82.5879 11.1846 84.5716 11.1846H88.1627C90.1464 11.1846 91.7538 12.7903 91.7538 14.7718C91.7538 16.7533 90.1466 18.359 88.1627 18.359Z" fill="var(--svg-color)"/>
<path fill-rule="evenodd" clip-rule="evenodd" d="M106.119 18.359H102.528C100.544 18.359 98.9365 16.7533 98.9365 14.7718C98.9365 12.7903 100.544 11.1846 102.528 11.1846H106.119C108.101 11.1846 109.71 12.7903 109.71 14.7718C109.71 16.7533 108.101 18.359 106.119 18.359Z" fill="var(--svg-color)"/>
<path fill-rule="evenodd" clip-rule="evenodd" d="M101.775 65.8911C100.323 67.3441 98.0863 67.2973 96.6925 65.9074C95.3178 64.5341 95.3178 62.2152 96.6925 60.8418C98.1043 59.4261 100.371 59.4475 101.747 60.8276C103.203 62.277 103.137 64.5393 101.775 65.8911ZM106.84 55.7702C102.65 51.5613 95.8032 51.5613 91.6134 55.7702C87.4238 59.9554 87.4238 66.795 91.6134 70.9802C93.6483 73.0129 96.3538 74.1368 99.2266 74.1368C102.099 74.1368 104.805 73.0127 106.84 70.9802C111.053 66.795 111.053 59.9552 106.84 55.7702Z" fill="var(--svg-color)"/>
<path fill-rule="evenodd" clip-rule="evenodd" d="M57.6912 55.9727C56.7724 55.9727 55.8535 55.6223 55.1522 54.9217C53.7494 53.5217 53.7494 51.2493 55.1522 49.849L77.5701 27.4554C78.9729 26.0542 81.2456 26.0542 82.6484 27.4554C84.0511 28.8554 84.0511 31.1278 82.6484 32.5282L60.2304 54.9215C59.5287 55.6223 58.61 55.9727 57.6912 55.9727Z" fill="var(--svg-color)"/>
<path fill-rule="evenodd" clip-rule="evenodd" d="M55.1519 54.9216C55.8533 55.6222 56.7722 55.9726 57.6908 55.9726C58.6094 55.9726 59.5285 55.6222 60.2298 54.9216L82.6478 32.5281C84.0505 31.1281 84.0505 28.8557 82.6478 27.4553L55.1519 54.9216Z" fill="var(--svg-color)"/>
<path fill-rule="evenodd" clip-rule="evenodd" d="M27.8826 91.5395V101.667L4.79145 109.789C3.37173 110.289 1.98085 109.858 1.06635 108.95C0.144504 108.034 -0.290979 106.637 0.211596 105.212L8.35168 82.1719H18.5145L23.1901 86.8473L27.8826 91.5395Z" fill="var(--svg-color)"/>
<path fill-rule="evenodd" clip-rule="evenodd" d="M27.8822 91.5391V101.667L4.79102 109.789C3.37129 110.288 1.98042 109.858 1.06592 108.949L23.1899 86.8469L27.8822 91.5391Z" fill="var(--svg-color)"/>
<path fill-rule="evenodd" clip-rule="evenodd" d="M17.6357 68.6135L41.4704 92.4312H54.1019L67.5529 87.6961C69.4253 87.0247 70.4011 84.9925 69.7553 83.1044L26.9252 40.3446C25.0626 39.6767 22.9998 40.6526 22.3524 42.521L17.6357 55.8696V68.6137V68.6135Z" fill="var(--svg-color)"/>
<path fill-rule="evenodd" clip-rule="evenodd" d="M41.4702 92.4314H54.1017L67.5526 87.6962C69.4251 87.0249 70.4009 84.9927 69.755 83.1046L48.3408 61.7253L29.5381 80.5076L41.4702 92.4314Z" fill="var(--svg-color)"/>
<path fill-rule="evenodd" clip-rule="evenodd" d="M17.6113 55.9131L8.34668 82.1719L27.8823 101.663L27.9542 101.639L54.1455 92.4075L17.6113 55.9131Z" fill="var(--svg-color)"/>
<path fill-rule="evenodd" clip-rule="evenodd" d="M27.8821 101.663L27.9539 101.639L54.145 92.4077L35.8851 74.1675L18.1147 91.9181L27.8821 101.663Z" fill="var(--svg-color)"/>
<path fill-rule="evenodd" clip-rule="evenodd" d="M71.4394 92.9705C70.5206 92.9705 69.6018 92.6201 68.9004 91.9195L18.1131 41.188C16.7103 39.7881 16.7103 37.5157 18.1131 36.1154C19.5158 34.7141 21.7886 34.7141 23.1913 36.1154L73.9782 86.8471C75.3809 88.2469 75.3809 90.5193 73.9782 91.9197C73.2768 92.6201 72.3582 92.9705 71.4394 92.9705Z" fill="var(--svg-color)"/>
<path fill-rule="evenodd" clip-rule="evenodd" d="M68.9004 91.9196C69.6018 92.6203 70.5208 92.9707 71.4394 92.9707C72.358 92.9707 73.2771 92.6203 73.9784 91.9196C75.3812 90.5197 75.3812 88.2473 73.9784 86.847L48.5851 61.4814L43.5068 66.5542L68.9004 91.9196Z" fill="var(--svg-color)"/>
</svg>
