<svg width="25" height="25" viewBox="0 0 25 25" fill="none" xmlns="http://www.w3.org/2000/svg">
<path fill-rule="evenodd" clip-rule="evenodd" d="M12.5757 5.46598C11.2157 5.46598 10.1058 6.57218 10.1058 7.91208V8.73783H15.0456V7.91208C15.0456 6.57218 13.9357 5.46598 12.5757 5.46598ZM18.0151 9.0027L18.9999 17.6653C18.9999 17.6809 18.9999 17.7121 18.9843 17.7121C18.9843 18.6313 18.234 19.3792 17.3117 19.3792H7.82302C6.90073 19.3792 6.15039 18.6313 6.15039 17.7121V17.6653L7.13521 9.0027C7.15084 8.87806 7.2759 8.75341 7.43222 8.75341H9.12048V7.92766C9.12048 6.04245 10.6837 4.5 12.5752 4.5C14.4666 4.5 16.0299 6.04245 16.0299 7.92766V8.75341H17.7181C17.8744 8.75341 17.9995 8.84689 18.0151 9.0027ZM12.3993 17.018L9.88511 14.4883C9.19455 13.7935 9.19455 12.667 9.88511 11.9722C10.5757 11.2773 11.6953 11.2773 12.3858 11.9722C12.4308 12.0174 12.5068 12.1107 12.5068 12.1107C12.5068 12.1107 12.5321 12.0685 12.6279 11.9722C13.3184 11.2773 14.438 11.2773 15.1286 11.9722C15.8192 12.667 15.8192 13.7935 15.1286 14.4883L12.6144 17.018C12.555 17.0778 12.4587 17.0778 12.3993 17.018Z" fill="var(--svg-color)"/>
</svg>
