<svg width="110" height="110" viewBox="0 0 110 110" fill="none" xmlns="http://www.w3.org/2000/svg">
<path d="M66.2215 38.3567C66.6732 39.4907 67.9588 40.0439 69.093 39.592C69.657 39.3674 70.1037 38.9206 70.3283 38.3567L73.7631 29.763L82.3568 26.3282C83.4908 25.8765 84.044 24.5909 83.5922 23.4567C83.3675 22.8927 82.9207 22.4461 82.3568 22.2214L73.7631 18.7866L70.3283 10.1931C69.8764 9.05891 68.5908 8.50584 67.4568 8.95757C66.8928 9.1822 66.4462 9.62901 66.2215 10.1929L62.7867 18.7866L54.193 22.2214C53.0588 22.6733 52.5058 23.9589 52.9575 25.0929C53.1821 25.6569 53.6289 26.1036 54.1928 26.3282L62.7865 29.763L66.2215 38.3567ZM65.3065 22.5397C65.8684 22.3138 66.3139 21.8683 66.5398 21.3064L68.275 16.9653L70.01 21.3064C70.2359 21.8683 70.6815 22.3138 71.2434 22.5397L75.5844 24.2747L71.2434 26.0097C70.6815 26.2357 70.2359 26.6812 70.01 27.2431L68.2748 31.5843L66.5396 27.2433C66.3137 26.6814 65.8682 26.2358 65.3063 26.0099L60.9654 24.2749L65.3065 22.5397Z" fill="var(--svg-color)"/>
<path fill-rule="evenodd" clip-rule="evenodd" d="M35.7808 68.8817C32.3919 65.21 30.3445 60.5499 30.3445 55.466C30.3445 43.6744 41.2876 34.0716 54.7723 34.0716C68.2569 34.0716 79.2 43.6744 79.2 55.466C79.2 67.2577 68.1863 76.7899 54.7723 76.7899C49.9008 76.7899 45.3118 75.5189 41.4994 73.33C38.04 75.3777 34.3688 75.3071 32.1801 75.0247C31.5447 74.954 31.4035 74.1773 31.8977 73.8243C34.0158 72.4827 35.1454 70.5763 35.7808 68.8817" fill="var(--svg-color)"/>
<path d="M78.0324 91.608C78.2893 92.2528 79.0203 92.5674 79.6653 92.3105C79.986 92.1827 80.24 91.9286 80.3678 91.608L82.321 86.721L87.208 84.7678C87.8529 84.5109 88.1675 83.7798 87.9105 83.1349C87.7827 82.8141 87.5287 82.5601 87.208 82.4324L82.321 80.4791L80.3678 75.5922C80.1108 74.9473 79.3797 74.6328 78.7349 74.8896C78.4141 75.0174 78.1601 75.2715 78.0324 75.5921L76.0791 80.4791L71.1921 82.4324C70.5472 82.6893 70.2327 83.4204 70.4896 84.0653C70.6173 84.386 70.8714 84.64 71.1921 84.7678L76.079 86.721L78.0324 91.608ZM77.512 82.6134C77.8316 82.4849 78.0849 82.2315 78.2134 81.912L79.2001 79.4434L80.1868 81.912C80.3153 82.2315 80.5686 82.4849 80.8881 82.6134L83.3568 83.6L80.8881 84.5867C80.5686 84.7151 80.3153 84.9685 80.1868 85.288L79.2 87.7567L78.2133 85.2881C78.0848 84.9686 77.8315 84.7152 77.5119 84.5868L75.0434 83.6001L77.512 82.6134Z" fill="var(--svg-color)"/>
<path d="M29.6324 38.808C29.8893 39.4528 30.6203 39.7674 31.2653 39.5105C31.586 39.3827 31.84 39.1286 31.9678 38.808L33.921 33.921L38.808 31.9677C39.4529 31.7109 39.7675 30.9798 39.5105 30.3348C39.3827 30.0141 39.1287 29.7601 38.808 29.6324L33.921 27.6791L31.9678 22.7922C31.7108 22.1473 30.9797 21.8328 30.3349 22.0896C30.0141 22.2174 29.7601 22.4715 29.6324 22.7921L27.6791 27.6791L22.7921 29.6324C22.1472 29.8893 21.8327 30.6204 22.0896 31.2653C22.2173 31.586 22.4714 31.84 22.7921 31.9677L27.679 33.921L29.6324 38.808ZM29.112 29.8134C29.4316 29.6849 29.6849 29.4315 29.8134 29.112L30.8001 26.6434L31.7868 29.112C31.9153 29.4315 32.1686 29.6849 32.4881 29.8134L34.9568 30.8L32.4881 31.7866C32.1686 31.9151 31.9153 32.1685 31.7868 32.488L30.8 34.9567L29.8133 32.4881C29.6848 32.1686 29.4315 31.9152 29.1119 31.7867L26.6434 30.8001L29.112 29.8134Z" fill="var(--svg-color)"/>
</svg>