<svg width="66" height="85" viewBox="0 0 66 85" fill="none" xmlns="http://www.w3.org/2000/svg">
<path d="M44.2215 30.3567C44.6732 31.4907 45.9588 32.0439 47.093 31.592C47.657 31.3674 48.1037 30.9206 48.3283 30.3567L51.7631 21.763L60.3568 18.3282C61.4908 17.8765 62.044 16.5909 61.5922 15.4567C61.3675 14.8927 60.9207 14.4461 60.3568 14.2214L51.7631 10.7866L48.3283 2.19305C47.8764 1.05891 46.5908 0.505843 45.4568 0.957566C44.8928 1.1822 44.4462 1.62901 44.2215 2.19289L40.7867 10.7866L32.193 14.2214C31.0588 14.6733 30.5058 15.9589 30.9575 17.0929C31.1821 17.6569 31.6289 18.1036 32.1928 18.3282L40.7865 21.763L44.2215 30.3567ZM43.3065 14.5397C43.8684 14.3138 44.3139 13.8683 44.5398 13.3064L46.275 8.96529L48.01 13.3064C48.2359 13.8683 48.6815 14.3138 49.2434 14.5397L53.5844 16.2747L49.2434 18.0097C48.6815 18.2357 48.2359 18.6812 48.01 19.2431L46.2748 23.5843L44.5396 19.2433C44.3137 18.6814 43.8682 18.2358 43.3063 18.0099L38.9654 16.2749L43.3065 14.5397Z" fill="var(--svg-color)"/>
<path fill-rule="evenodd" clip-rule="evenodd" d="M13.7808 60.8817C10.3919 57.21 8.34453 52.5499 8.34453 47.466C8.34453 35.6744 19.2876 26.0716 32.7723 26.0716C46.2569 26.0716 57.2 35.6744 57.2 47.466C57.2 59.2577 46.1863 68.7899 32.7723 68.7899C27.9008 68.7899 23.3118 67.5189 19.4994 65.33C16.04 67.3777 12.3688 67.3071 10.1801 67.0247C9.54474 66.954 9.40354 66.1773 9.89774 65.8243C12.0158 64.4827 13.1454 62.5763 13.7808 60.8817" fill="var(--svg-color)"/>
<path d="M56.0324 83.608C56.2893 84.2528 57.0203 84.5674 57.6653 84.3105C57.986 84.1827 58.24 83.9286 58.3678 83.608L60.321 78.721L65.208 76.7678C65.8529 76.5109 66.1675 75.7798 65.9105 75.1349C65.7827 74.8141 65.5287 74.5601 65.208 74.4324L60.321 72.4791L58.3678 67.5922C58.1108 66.9473 57.3797 66.6328 56.7349 66.8896C56.4141 67.0174 56.1601 67.2715 56.0324 67.5921L54.0791 72.4791L49.1921 74.4324C48.5472 74.6893 48.2327 75.4204 48.4896 76.0653C48.6173 76.386 48.8714 76.64 49.1921 76.7678L54.079 78.721L56.0324 83.608ZM55.512 74.6134C55.8316 74.4849 56.0849 74.2315 56.2134 73.912L57.2001 71.4434L58.1868 73.912C58.3153 74.2315 58.5686 74.4849 58.8881 74.6134L61.3568 75.6L58.8881 76.5867C58.5686 76.7151 58.3153 76.9685 58.1868 77.288L57.2 79.7567L56.2133 77.2881C56.0848 76.9686 55.8315 76.7152 55.5119 76.5868L53.0434 75.6001L55.512 74.6134Z" fill="var(--svg-color)"/>
<path d="M7.63238 30.808C7.88926 31.4528 8.62033 31.7674 9.26528 31.5105C9.58603 31.3827 9.84002 31.1286 9.96776 30.808L11.921 25.921L16.808 23.9677C17.4529 23.7109 17.7675 22.9798 17.5105 22.3348C17.3827 22.0141 17.1287 21.7601 16.808 21.6324L11.921 19.6791L9.96776 14.7922C9.71079 14.1473 8.97972 13.8328 8.33487 14.0896C8.01412 14.2174 7.76012 14.4715 7.63238 14.7921L5.67911 19.6791L0.792146 21.6324C0.147199 21.8893 -0.167314 22.6204 0.0895659 23.2653C0.217308 23.586 0.471395 23.84 0.792052 23.9677L5.67901 25.921L7.63238 30.808ZM7.11201 21.8134C7.43155 21.6849 7.68489 21.4315 7.81338 21.112L8.80012 18.6434L9.78677 21.112C9.91525 21.4315 10.1686 21.6849 10.4881 21.8134L12.9568 22.8L10.4881 23.7866C10.1686 23.9151 9.91525 24.1685 9.78677 24.488L8.80003 26.9567L7.81329 24.4881C7.6848 24.1686 7.43146 23.9152 7.11192 23.7867L4.64339 22.8001L7.11201 21.8134Z" fill="var(--svg-color)"/>
</svg>
