<svg width="67" height="63" viewBox="0 0 67 63" fill="none" xmlns="http://www.w3.org/2000/svg">
<path fill-rule="evenodd" clip-rule="evenodd" d="M35.0162 0.68C26.8773 0.68 20.2211 7.27789 20.2211 15.4168C20.2211 23.5557 26.8773 30.1536 35.0162 30.1536C43.1551 30.1536 49.8114 23.5557 49.8114 15.4168C49.8114 7.27789 43.1551 0.68 35.0162 0.68ZM39.2751 9.46961C39.5113 9.10991 39.8923 8.87735 40.3137 8.83591V8.83584C40.6615 8.79641 41.0113 8.89043 41.2953 9.09978C41.9294 9.56712 42.0736 10.4723 41.6174 11.1217L35.2532 20.5368L35.2517 20.5392C34.8121 21.2005 33.9323 21.3718 33.2866 20.9216L29.0438 18.0247C28.3909 17.5747 28.2177 16.6678 28.657 15.999C29.0964 15.3303 29.9819 15.1529 30.6348 15.603L33.7064 17.7078L39.2751 9.46961Z" fill="var(--svg-color)"/>
<path fill-rule="evenodd" clip-rule="evenodd" d="M36.4117 47.7776C36.4117 39.6387 43.068 33.0408 51.2069 33.0408C59.3458 33.0408 66.0021 39.6387 66.0021 47.7776C66.0021 55.9166 59.3458 62.5144 51.2069 62.5144C43.068 62.5144 36.4117 55.9166 36.4117 47.7776ZM44.6728 41.1713C45.2742 40.5699 46.2493 40.5699 46.8507 41.1713L51.2617 45.5823L55.6728 41.1713C56.2742 40.5699 57.2493 40.5699 57.8507 41.1713C58.4521 41.7727 58.4521 42.7478 57.8507 43.3492L53.4396 47.7602L57.8507 52.1713C58.4521 52.7727 58.4521 53.7478 57.8507 54.3492C57.2493 54.9506 56.2742 54.9506 55.6728 54.3492L51.2617 49.9381L46.8507 54.3492C46.2493 54.9506 45.2742 54.9506 44.6728 54.3492C44.0714 53.7478 44.0714 52.7727 44.6728 52.1713L49.0838 47.7602L44.6728 43.3492C44.0714 42.7478 44.0714 41.7727 44.6728 41.1713Z" fill="var(--svg-color)"/>
<path fill-rule="evenodd" clip-rule="evenodd" d="M0 47.537C0 39.3981 6.65624 32.8002 14.7952 32.8002C22.9341 32.8002 29.5903 39.3981 29.5903 47.537C29.5903 55.6759 22.9341 62.2738 14.7952 62.2738C6.65624 62.2738 0 55.6759 0 47.537ZM8.26106 40.9306C8.86246 40.3292 9.83754 40.3292 10.4389 40.9306L14.85 45.3417L19.2611 40.9306C19.8625 40.3292 20.8376 40.3292 21.439 40.9306C22.0404 41.5321 22.0404 42.5071 21.439 43.1085L17.0279 47.5196L21.4389 51.9306C22.0404 52.5321 22.0404 53.5071 21.4389 54.1085C20.8375 54.7099 19.8625 54.7099 19.2611 54.1085L14.85 49.6975L10.439 54.1085C9.83756 54.7099 8.86249 54.7099 8.26108 54.1085C7.65967 53.5071 7.65967 52.5321 8.26108 51.9306L12.6721 47.5196L8.26106 43.1085C7.65965 42.5071 7.65965 41.5321 8.26106 40.9306Z" fill="var(--svg-color)"/>
</svg>
