<svg width="110" height="110" viewBox="0 0 110 110" fill="none" xmlns="http://www.w3.org/2000/svg">
<path fill-rule="evenodd" clip-rule="evenodd" d="M57.0162 20.68C48.8773 20.68 42.2211 27.2779 42.2211 35.4168C42.2211 43.5557 48.8773 50.1536 57.0162 50.1536C65.1551 50.1536 71.8114 43.5557 71.8114 35.4168C71.8114 27.2779 65.1551 20.68 57.0162 20.68ZM61.2751 29.4696C61.5113 29.1099 61.8923 28.8774 62.3137 28.8359V28.8358C62.6615 28.7964 63.0113 28.8904 63.2953 29.0998C63.9294 29.5671 64.0736 30.4723 63.6174 31.1217L57.2532 40.5368L57.2517 40.5392C56.8121 41.2005 55.9323 41.3718 55.2866 40.9216L51.0438 38.0247C50.3909 37.5747 50.2177 36.6678 50.657 35.999C51.0964 35.3303 51.9819 35.1529 52.6348 35.603L55.7064 37.7078L61.2751 29.4696Z" fill="var(--svg-color)"/>
<path fill-rule="evenodd" clip-rule="evenodd" d="M58.4117 67.7776C58.4117 59.6387 65.068 53.0408 73.2069 53.0408C81.3458 53.0408 88.0021 59.6387 88.0021 67.7776C88.0021 75.9166 81.3458 82.5144 73.2069 82.5144C65.068 82.5144 58.4117 75.9166 58.4117 67.7776ZM66.6728 61.1713C67.2742 60.5699 68.2493 60.5699 68.8507 61.1713L73.2617 65.5823L77.6728 61.1713C78.2742 60.5699 79.2493 60.5699 79.8507 61.1713C80.4521 61.7727 80.4521 62.7478 79.8507 63.3492L75.4396 67.7602L79.8507 72.1713C80.4521 72.7727 80.4521 73.7478 79.8507 74.3492C79.2493 74.9506 78.2742 74.9506 77.6728 74.3492L73.2617 69.9381L68.8507 74.3492C68.2493 74.9506 67.2742 74.9506 66.6728 74.3492C66.0714 73.7478 66.0714 72.7727 66.6728 72.1713L71.0838 67.7602L66.6728 63.3492C66.0714 62.7478 66.0714 61.7727 66.6728 61.1713Z" fill="var(--svg-color)"/>
<path fill-rule="evenodd" clip-rule="evenodd" d="M22 67.537C22 59.3981 28.6562 52.8002 36.7952 52.8002C44.9341 52.8002 51.5903 59.3981 51.5903 67.537C51.5903 75.6759 44.9341 82.2738 36.7952 82.2738C28.6562 82.2738 22 75.6759 22 67.537ZM30.2611 60.9306C30.8625 60.3292 31.8375 60.3292 32.4389 60.9306L36.85 65.3417L41.2611 60.9306C41.8625 60.3292 42.8376 60.3292 43.439 60.9306C44.0404 61.5321 44.0404 62.5071 43.439 63.1085L39.0279 67.5196L43.4389 71.9306C44.0404 72.5321 44.0404 73.5071 43.4389 74.1085C42.8375 74.7099 41.8625 74.7099 41.2611 74.1085L36.85 69.6975L32.439 74.1085C31.8376 74.7099 30.8625 74.7099 30.2611 74.1085C29.6597 73.5071 29.6597 72.5321 30.2611 71.9306L34.6721 67.5196L30.2611 63.1085C29.6596 62.5071 29.6596 61.5321 30.2611 60.9306Z" fill="var(--svg-color)"/>
</svg>
