<svg width="43" height="36" viewBox="0 0 43 36" fill="none" xmlns="http://www.w3.org/2000/svg">
<path fill-rule="evenodd" clip-rule="evenodd" d="M22.1832 25.7977C22.1832 25.2844 22.5993 24.8684 23.1125 24.8684H34.9145C35.4277 24.8684 35.8438 25.2844 35.8438 25.7977V34.9976C35.8438 35.5108 35.4277 35.9269 34.9145 35.9269H23.1125C22.5993 35.9269 22.1832 35.5108 22.1832 34.9976V25.7977ZM26.7349 28.121C26.7349 27.7617 27.0261 27.4705 27.3854 27.4705C27.7446 27.4705 28.0359 27.7617 28.0359 28.121V32.6745C28.0359 33.0338 27.7446 33.325 27.3854 33.325C27.0261 33.325 26.7349 33.0338 26.7349 32.6745V28.121ZM30.64 27.4705C30.2807 27.4705 29.9895 27.7617 29.9895 28.121V32.6745C29.9895 33.0338 30.2807 33.325 30.64 33.325C30.9992 33.325 31.2905 33.0338 31.2905 32.6745V28.121C31.2905 27.7617 30.9992 27.4705 30.64 27.4705Z" fill="var(--svg-color)"/>
<path fill-rule="evenodd" clip-rule="evenodd" d="M20.8855 27.4705H2.99403C1.37735 27.4705 0.0667725 28.781 0.0667725 30.3977C0.0667725 32.0144 1.37735 33.325 2.99403 33.325H20.8855V27.4705ZM37.148 33.325H40.0727C41.6894 33.325 43 32.0144 43 30.3977C43 28.781 41.6894 27.4705 40.0727 27.4705H37.148V33.325Z" fill="var(--svg-color)"/>
<path d="M32.9159 0.800003C27.3474 0.800003 22.8331 5.31422 22.8331 10.8828C22.8331 16.4514 27.3474 20.9656 32.9159 20.9656C38.4845 20.9656 42.9987 16.4514 42.9987 10.8828C42.9987 5.31422 38.4845 0.800003 32.9159 0.800003ZM27.8745 6.18111C28.264 5.95621 28.6994 5.84387 29.1349 5.84387C29.5703 5.84387 30.0057 5.95621 30.3952 6.18111C31.1743 6.6308 31.6556 7.46261 31.6556 8.3621C31.6557 8.36805 31.6557 8.37398 31.6556 8.37993C31.6506 8.72797 31.3645 9.00611 31.0165 9.00119C30.6684 8.99626 30.3903 8.71014 30.3952 8.3621C30.3952 7.91089 30.1559 7.4972 29.7651 7.27159C29.3742 7.04599 28.8955 7.04599 28.5047 7.27159C28.1139 7.4972 27.8745 7.91089 27.8745 8.3621C27.8746 8.36868 27.8746 8.37524 27.8745 8.38182C27.8691 8.72984 27.5825 9.00756 27.2345 9.00212H27.2345C26.8865 8.99668 26.6087 8.71014 26.6142 8.3621C26.6142 7.46258 27.0955 6.6308 27.8745 6.18111ZM37.9573 12.1431C37.9577 13.9446 36.9967 15.6093 35.4366 16.5101C33.8768 17.4106 31.955 17.4106 30.3952 16.5101C28.8351 15.6093 27.8742 13.9446 27.8745 12.1431H37.9573ZM37.9573 8.3621C37.9573 7.91089 37.718 7.4972 37.3271 7.27159C36.9363 7.04599 36.4576 7.04599 36.0668 7.27159C35.676 7.4972 35.4366 7.91089 35.4366 8.3621C35.4367 8.36868 35.4367 8.37524 35.4366 8.38182C35.4312 8.72984 35.1446 9.00756 34.7966 9.00212H34.7966C34.4486 8.99668 34.1708 8.71014 34.1763 8.3621C34.1763 7.46258 34.6576 6.6308 35.4366 6.18111C35.8261 5.95621 36.2615 5.84387 36.697 5.84387C37.1324 5.84387 37.5678 5.95621 37.9573 6.18111C38.7364 6.6308 39.2177 7.46261 39.2177 8.3621C39.2178 8.36805 39.2178 8.37398 39.2177 8.37993C39.2127 8.72797 38.9266 9.00611 38.5786 9.00119C38.2306 8.99626 37.9524 8.71014 37.9573 8.3621Z" fill="var(--svg-color)"/>
<path d="M10.0826 0.800003C4.55734 0.800003 0.0648193 5.29259 0.0648193 10.8177C0.0648193 16.343 4.55734 20.8355 10.0826 20.8355C15.6078 20.8355 20.1003 16.343 20.1003 10.8177C20.1003 5.29259 15.6078 0.800003 10.0826 0.800003ZM10.0826 2.05222C14.931 2.05222 18.8481 5.96927 18.8481 10.8177C18.8481 15.6662 14.931 19.5833 10.0826 19.5833C5.23409 19.5833 1.31704 15.6662 1.31704 10.8177C1.31704 5.96927 5.23409 2.05222 10.0826 2.05222ZM4.4378 7.06109C4.09202 7.0665 3.81607 7.35116 3.82147 7.69696V7.69699C3.82147 8.59082 4.29968 9.41943 5.07369 9.86636C5.8477 10.3131 6.80412 10.3131 7.57813 9.86636C8.35214 9.41943 8.83035 8.59082 8.83035 7.69699C8.83524 7.35119 8.55889 7.06691 8.21309 7.06202C7.8673 7.05712 7.58302 7.33347 7.57813 7.67927C7.57803 7.68518 7.57803 7.69107 7.57813 7.69699C7.57813 8.1454 7.34032 8.55617 6.95202 8.78045C6.56371 9.0046 6.0881 9.0046 5.6998 8.78045C5.3115 8.55619 5.07369 8.14542 5.07369 7.69699C5.07909 7.35121 4.80317 7.06652 4.45739 7.06109C4.45085 7.061 4.44434 7.061 4.4378 7.06109ZM11.9511 7.06109C11.6053 7.0665 11.3294 7.35116 11.3348 7.69696V7.69699C11.3348 8.59082 11.813 9.41943 12.587 9.86636C13.361 10.3131 14.3174 10.3131 15.0914 9.86636C15.8654 9.41943 16.3437 8.59082 16.3437 7.69699C16.3485 7.35119 16.0722 7.06691 15.7264 7.06202C15.3806 7.05712 15.0963 7.33347 15.0914 7.67927C15.0913 7.68518 15.0913 7.69107 15.0914 7.69699C15.0914 8.1454 14.8536 8.55617 14.4653 8.78045C14.077 9.0046 13.6014 9.0046 13.2131 8.78045C12.8248 8.55619 12.587 8.14542 12.587 7.69699C12.5924 7.35121 12.3165 7.06652 11.9707 7.06109C11.9642 7.061 11.9576 7.061 11.9511 7.06109ZM10.0875 12.07C7.88061 12.0691 5.83332 13.2333 4.70438 15.1296C4.51543 15.4192 4.59708 15.8072 4.88674 15.9961C5.1764 16.1851 5.56438 16.1034 5.7533 15.8138C5.76301 15.7989 5.77208 15.7836 5.7805 15.7679C6.68451 14.2495 8.32028 13.3215 10.0874 13.3222C11.8546 13.3228 13.4866 14.2536 14.3895 15.7728C14.562 16.0725 14.9448 16.1757 15.2445 16.0032C15.2449 16.0031 15.2452 16.0029 15.2455 16.0027C15.545 15.8298 15.6477 15.4468 15.4748 15.1473C15.4718 15.1422 15.4687 15.1371 15.4656 15.132C14.3382 13.2349 12.2943 12.0708 10.0875 12.07Z" fill="var(--svg-color)"/>
</svg>
