<svg width="25" height="25" viewBox="0 0 25 25" fill="none" xmlns="http://www.w3.org/2000/svg">
<path d="M13.7945 13.1478L18.4897 16.904C18.6846 17.0599 18.6427 17.1882 18.3933 17.1882H6.6065C6.35931 17.1882 6.31387 17.0609 6.51009 16.904L11.2053 13.1478C11.2718 13.0946 11.3754 13.0952 11.4401 13.1465L11.5499 13.2334C12.075 13.6491 12.9252 13.6487 13.4499 13.2334L13.5597 13.1465C13.6232 13.0962 13.7295 13.0959 13.7945 13.1478ZM18.3871 7.81006C18.6363 7.81006 18.6784 7.9366 18.4839 8.09059L13.2116 12.2645C12.8185 12.5757 12.1812 12.5757 11.7882 12.2645L6.51588 8.09059C6.32018 7.93564 6.36576 7.81006 6.6127 7.81006H18.3871ZM14.6441 12.6653C14.5131 12.5606 14.5109 12.3934 14.6441 12.288L19.2516 8.64041C19.449 8.48409 19.6091 8.56199 19.6091 8.80837V16.1863C19.6091 16.4355 19.4506 16.5106 19.2557 16.3546L14.6441 12.6653ZM5.39062 8.80837C5.39062 8.55925 5.55203 8.4851 5.7482 8.64041L10.3557 12.288C10.4866 12.3916 10.4888 12.5588 10.3557 12.6653L5.74408 16.3546C5.54888 16.5108 5.39062 16.4327 5.39062 16.1863V8.80837Z" fill="var(--svg-color)"/>
</svg>
