<svg width="194" height="194" viewBox="0 0 194 194" fill="none" xmlns="http://www.w3.org/2000/svg">
<rect x="47.4756" y="44" width="22.4262" height="22.3158" rx="3.54789" fill="var(--svg-color)"/>
<rect x="47.4756" y="127.684" width="22.4262" height="22.3158" rx="3.54789" fill="var(--svg-color)"/>
<path fill-rule="evenodd" clip-rule="evenodd" d="M45.3218 77.4736C42.3827 77.4736 40 79.8563 40 82.7955V110.852C40 113.791 42.3827 116.174 45.3218 116.174H73.4486C76.3877 116.174 78.7704 113.791 78.7704 110.852V82.7955C78.7704 79.8563 76.3877 77.4736 73.4486 77.4736H45.3218ZM67.0653 86.0737C67.4912 85.4235 68.1786 85.0031 68.9385 84.9282V84.9281C69.566 84.8568 70.1968 85.0268 70.7091 85.4052C71.8529 86.2499 72.113 87.8862 71.2901 89.06L59.8111 106.078L59.8082 106.083C59.0154 107.278 57.4286 107.588 56.2638 106.774L48.6111 101.537C47.4335 100.724 47.1211 99.0849 47.9135 97.876C48.7061 96.6672 50.3032 96.3466 51.4809 97.1601L57.0212 100.965L67.0653 86.0737Z" fill="var(--svg-color)"/>
<rect x="84.8525" y="49.5789" width="59.8032" height="3.7193" rx="1.85965" fill="var(--svg-color)"/>
<rect x="84.8525" y="131.403" width="59.8032" height="3.7193" rx="1.85965" fill="var(--svg-color)"/>
<rect x="94.1968" y="88.6316" width="59.8032" height="5.57895" rx="2.78947" fill="var(--svg-color)"/>
<rect x="84.8525" y="58.8772" width="33.6393" height="3.7193" rx="1.85965" fill="var(--svg-color)"/>
<rect x="84.8525" y="140.702" width="33.6393" height="3.7193" rx="1.85965" fill="var(--svg-color)"/>
<rect x="94.1968" y="99.7896" width="33.6393" height="5.57895" rx="2.78947" fill="var(--svg-color)"/>
</svg>
