<svg width="194" height="194" viewBox="0 0 194 194" fill="none" xmlns="http://www.w3.org/2000/svg">
<path fill-rule="evenodd" clip-rule="evenodd" d="M79.5627 69.2288C78.2413 69.2288 76.92 69.349 75.4785 69.349C80.6438 54.6922 96.1397 44 114.278 44C136.741 44 155 60.2185 155 80.1613C155 87.73 152.357 95.1785 147.312 101.185C148.273 102.867 149.474 104.189 151.036 105.27C152.598 106.351 153.438 108.273 152.958 110.076C152.598 111.878 151.036 113.319 149.114 113.559C147.793 113.8 146.471 113.8 145.15 113.8C141.186 113.8 137.582 112.959 134.459 111.517C132.417 112.598 130.255 113.439 127.972 114.16V112.719C127.972 110.676 127.852 108.754 127.492 106.832C129.294 106.111 130.975 105.39 132.657 104.429L134.459 103.468L136.261 104.549C138.063 105.63 140.105 106.351 142.387 106.712C141.306 105.27 140.465 103.708 139.865 102.026L139.144 99.984L140.585 98.4222C145.39 93.2563 147.913 87.0092 147.913 80.2815C147.913 64.3032 132.777 51.2082 114.278 51.2082C100.104 51.2082 87.9713 58.7769 83.0463 69.4691C81.9652 69.2288 80.7639 69.2288 79.5627 69.2288Z" fill="var(--svg-color)"/>
<path fill-rule="evenodd" clip-rule="evenodd" d="M47.2495 135.545C41.4836 129.297 38 121.368 38 112.718C38 92.6556 56.6191 76.3169 79.5626 76.3169C102.506 76.3169 121.125 92.6556 121.125 112.718C121.125 132.781 102.386 149 79.5626 149C71.2741 149 63.4661 146.837 56.9795 143.113C51.0934 146.597 44.847 146.477 41.1232 145.997C40.0421 145.876 39.8018 144.555 40.6427 143.954C44.2464 141.672 46.1684 138.428 47.2495 135.545ZM77.9398 108.925H64.341V96H57V130H64.341V114.863H77.9398V130H85.2808V96H77.9398V108.925ZM91.6592 96H99.0001V130H91.6592V96Z" fill="var(--svg-color)"/>
</svg>
