<svg width="120" height="114" viewBox="0 0 120 114" fill="none" xmlns="http://www.w3.org/2000/svg">
<path fill-rule="evenodd" clip-rule="evenodd" d="M103.76 42.8502L118.448 53.8962C119.425 54.6316 120.001 55.7777 120 56.9993C120 58.2202 119.424 59.3705 118.447 60.1016L103.759 71.1519L109.12 88.6913C109.473 89.8571 109.262 91.1218 108.54 92.1098C107.825 93.0978 106.677 93.6906 105.45 93.7146L87.0372 94.0463L81.0334 111.376C80.6327 112.534 79.7109 113.427 78.5438 113.807C78.1467 113.936 77.7418 114 77.3369 114C76.5427 114 75.7606 113.759 75.0976 113.296L60.0004 102.784L44.9031 113.296C43.8983 113.992 42.6199 114.186 41.4562 113.806C40.2891 113.43 39.368 112.533 38.9666 111.375L32.9628 94.0456L14.5498 93.7139C13.3266 93.6899 12.1829 93.0971 11.4603 92.1091C10.737 91.1211 10.5229 89.8564 10.8803 88.6906L16.241 71.1512L1.55291 60.1009C0.575781 59.3698 0 58.2159 0 56.9986C0 55.7812 0.575781 54.6316 1.55291 53.8962L16.241 42.8474L10.8803 25.3158C10.5271 24.1457 10.7377 22.881 11.4603 21.893C12.1751 20.9092 13.3231 20.3164 14.5498 20.2924L32.9628 19.9565L38.9666 2.62247C39.3673 1.46861 40.2891 0.567403 41.4562 0.191957C42.6199 -0.187723 43.8983 0.00211715 44.9031 0.705725L60.0004 11.214L75.0976 0.705725C76.1024 0.00635149 77.3809 -0.183489 78.5445 0.191957C79.7116 0.567403 80.6327 1.46861 81.0341 2.62247L87.038 19.96L105.451 20.2917C106.674 20.3157 107.821 20.9085 108.54 21.8923C109.264 22.8803 109.478 24.1492 109.12 25.3151L103.76 42.8502ZM48.3893 42.6343C48.3893 44.6404 46.7479 46.3246 44.6513 46.3246C42.5548 46.3246 40.9134 44.6404 40.9134 42.6343C40.9134 40.6283 42.5548 38.944 44.6513 38.944C46.7479 38.944 48.3893 40.6283 48.3893 42.6343ZM57.6746 42.6343C57.6746 49.8005 51.8439 55.6099 44.6513 55.6099C37.4588 55.6099 31.6281 49.8005 31.6281 42.6343C31.6281 35.4681 37.4588 29.6587 44.6513 29.6587C51.8439 29.6587 57.6746 35.4681 57.6746 42.6343ZM76.2789 77.8365C78.3755 77.8365 80.0169 76.1522 80.0169 74.1462C80.0169 72.1402 78.3755 70.4559 76.2789 70.4559C74.1824 70.4559 72.541 72.1402 72.541 74.1462C72.541 76.1522 74.1824 77.8365 76.2789 77.8365ZM76.2789 87.1218C83.4715 87.1218 89.3022 81.3124 89.3022 74.1462C89.3022 66.98 83.4715 61.1706 76.2789 61.1706C69.0864 61.1706 63.2557 66.98 63.2557 74.1462C63.2557 81.3124 69.0864 87.1218 76.2789 87.1218ZM33.9751 77.223C32.0604 79.1307 32.0604 82.2236 33.9751 84.1312C35.8897 86.0389 38.994 86.0389 40.9086 84.1312L84.3239 40.8748C86.2385 38.9672 86.2385 35.8743 84.3239 33.9666C82.4092 32.059 79.305 32.059 77.3903 33.9666L33.9751 77.223Z" fill="var(--svg-color)"/>
</svg>
