<svg width="116" height="108" viewBox="0 0 116 108" fill="none" xmlns="http://www.w3.org/2000/svg">
<path fill-rule="evenodd" clip-rule="evenodd" d="M81.4154 85.4072C77.1373 85.4072 73.6584 81.9397 73.6584 77.6763C73.6584 73.4126 77.1373 69.9453 81.4154 69.9453C85.3526 69.9453 88.5781 72.893 89.0725 76.6842V77.9306C89.0725 78.057 89.0931 78.1786 89.1091 78.3001C88.7842 82.2669 85.4778 85.4072 81.4154 85.4072ZM80.2301 40.8378L79.5914 41.0667L72.0974 43.7507L71.1067 44.1045L64.2975 46.5435L62.9772 47.0174L59.357 48.3127L55.1758 49.8102L53.8681 50.278V46.0476V43.1503L57.0111 42.024L61.1925 40.5265L64.8125 39.2295L66.133 38.7573L72.9422 36.3183L73.9327 35.9627L81.4267 33.2787L82.0656 33.0498L89.0696 30.5412V36.5726V37.1808V37.7099C88.9491 37.7351 88.8304 37.7574 88.7114 37.7999L80.2301 40.8378ZM40.7818 102.784C36.504 102.784 33.0248 99.3162 33.0248 95.0527C33.0248 90.789 36.504 87.3218 40.7818 87.3218C44.7191 87.3218 47.9446 90.2694 48.4392 94.0607V95.3071C48.4392 95.4335 48.4598 95.555 48.4755 95.6768C48.1507 99.6434 44.8442 102.784 40.7818 102.784ZM91.7878 24.207C91.1442 24.207 89.1742 24.7536 88.7144 24.9194L80.2314 27.9572L79.5927 28.1861L72.0988 30.8701L71.1082 31.2239L64.2988 33.6629L62.9785 34.1368L59.3585 35.4321L55.1771 36.9299L50.641 38.5553C49.4696 38.7796 48.5787 39.7528 48.4646 40.9549C48.4583 41.0212 48.4472 41.0843 48.4455 41.1508C48.4455 41.1713 48.4394 41.1902 48.4394 41.2107V46.0478V50.8706V54.5591V55.7091V59.7926V64.2206V68.0545V69.4539V76.6652V77.7143V84.6239C46.29 83.052 43.6478 82.112 40.782 82.112C33.621 82.112 27.7944 87.9189 27.7944 95.0562C27.7944 102.193 33.621 108 40.782 108C47.5612 108 53.1358 102.795 53.7126 96.184C53.8078 95.9091 53.8696 95.6184 53.8696 95.3105V86.3251V85.6489V77.7143V76.6621V69.451V68.0513V64.2175V59.7912V56.0314L57.0127 54.9051L61.1938 53.4076L64.8141 52.1106L66.1343 51.6384L72.9435 49.1992L73.9343 48.8439L81.4282 46.1598L82.0669 45.931L89.0712 43.4223V46.8409V50.6747V52.0744V59.2855V60.3345V67.2441C86.9218 65.6722 84.2796 64.7325 81.4138 64.7325C74.2528 64.7325 68.4262 70.5392 68.4262 77.6764C68.4262 84.8134 74.2528 90.6203 81.4138 90.6203C88.193 90.6203 93.7676 85.4152 94.3444 78.8042C94.4396 78.5293 94.5014 78.2388 94.5014 77.9307V68.9453V68.2692V60.3345V59.2855V52.0744V50.6747V46.8409V42.4146V39.9313V37.1825V36.5743V30.2715V26.9145C94.5029 25.4187 93.2857 24.207 91.7878 24.207Z" fill="var(--svg-color)"/>
<path fill-rule="evenodd" clip-rule="evenodd" d="M51.8828 40.2375V52.9432L92.9465 40.2375V26.0693L51.8828 40.2375Z" fill="var(--svg-color)"/>
<path fill-rule="evenodd" clip-rule="evenodd" d="M40.7648 106.138C46.905 106.138 51.8826 101.136 51.8826 94.9654C51.8826 88.795 46.905 83.793 40.7648 83.793C34.6246 83.793 29.647 88.795 29.647 94.9654C29.647 101.136 34.6246 106.138 40.7648 106.138Z" fill="var(--svg-color)"/>
<path fill-rule="evenodd" clip-rule="evenodd" d="M81.5304 89.3795C87.6706 89.3795 92.6483 84.3774 92.6483 78.2071C92.6483 72.0367 87.6706 67.0347 81.5304 67.0347C75.3902 67.0347 70.4126 72.0367 70.4126 78.2071C70.4126 84.3774 75.3902 89.3795 81.5304 89.3795Z" fill="var(--svg-color)"/>
<path fill-rule="evenodd" clip-rule="evenodd" d="M74.1731 22.0225L92.4257 40.3647C92.8569 40.7981 93.5561 40.7981 93.9874 40.3647L112.24 22.0225C117.253 16.9846 117.253 8.81639 112.24 3.77849C107.227 -1.2595 99.0983 -1.2595 94.085 3.77849C93.39 4.47684 93.2065 4.78325 93.2065 4.78325C93.2065 4.78325 92.6544 4.10647 92.3281 3.77849C87.3148 -1.2595 79.1864 -1.2595 74.1731 3.77849C69.1597 8.81639 69.1597 16.9846 74.1731 22.0225Z" fill="var(--svg-color)"/>
<rect x="16" y="21" width="47" height="5.59" rx="2.795" fill="var(--svg-color)"/>
<rect x="17" y="38" width="20" height="5.59" rx="2.795" fill="var(--svg-color)"/>
<rect x="17" y="55" width="20" height="5.59" rx="2.795" fill="var(--svg-color)"/>
<rect x="17" y="72" width="20" height="5.59" rx="2.795" fill="var(--svg-color)"/>
<path fill-rule="evenodd" clip-rule="evenodd" d="M5.50056 28.8256C8.53843 28.8256 11.0011 26.3508 11.0011 23.2981C11.0011 20.2453 8.53843 17.7705 5.50056 17.7705C2.46268 17.7705 0 20.2453 0 23.2981C0 26.3508 2.46268 28.8256 5.50056 28.8256Z" fill="var(--svg-color)"/>
<path fill-rule="evenodd" clip-rule="evenodd" d="M5.50056 45.5839C8.53843 45.5839 11.0011 43.1091 11.0011 40.0564C11.0011 37.0036 8.53843 34.5288 5.50056 34.5288C2.46268 34.5288 0 37.0036 0 40.0564C0 43.1091 2.46268 45.5839 5.50056 45.5839Z" fill="var(--svg-color)"/>
<path fill-rule="evenodd" clip-rule="evenodd" d="M5.50056 62.3427C8.53843 62.3427 11.0011 59.8679 11.0011 56.8152C11.0011 53.7624 8.53843 51.2876 5.50056 51.2876C2.46268 51.2876 0 53.7624 0 56.8152C0 59.8679 2.46268 62.3427 5.50056 62.3427Z" fill="var(--svg-color)"/>
<path fill-rule="evenodd" clip-rule="evenodd" d="M5.50056 79.1015C8.53843 79.1015 11.0011 76.6267 11.0011 73.5739C11.0011 70.5212 8.53843 68.0464 5.50056 68.0464C2.46268 68.0464 0 70.5212 0 73.5739C0 76.6267 2.46268 79.1015 5.50056 79.1015Z" fill="var(--svg-color)"/>
</svg>
