<svg width="112" height="122" viewBox="0 0 112 122" fill="none" xmlns="http://www.w3.org/2000/svg">
<path fill-rule="evenodd" clip-rule="evenodd" d="M40.1646 102.486V107.365C40.1646 113.071 43.2046 115.543 47.8365 116.531C48.7114 119.603 51.6739 122 54.9845 122C58.2951 122 61.2576 119.603 62.1326 116.531C66.7644 115.543 69.8045 113.071 69.8045 107.365V102.486H40.1646Z" fill="var(--svg-color)"/>
<path fill-rule="evenodd" clip-rule="evenodd" d="M89.5639 58.5799C89.5639 39.5538 73.7559 23.9427 54.49 24.4306C36.2121 24.9184 20.8981 39.5538 20.4041 57.1163C19.9101 68.8247 25.3441 79.5573 34.2361 85.8993C38.188 88.8264 40.164 93.217 40.164 97.6077H69.804C69.804 93.217 71.7799 88.8264 75.2379 85.8993C84.1299 80.0452 89.5639 69.8004 89.5639 58.5799Z" fill="var(--svg-color)"/>
<path fill-rule="evenodd" clip-rule="evenodd" d="M77.2366 13.4392L80.4366 8.20502C81.1638 6.93184 82.7638 6.50744 84.0729 7.21476C85.382 7.92209 85.8184 9.4782 85.0911 10.7514L81.8911 15.9856C81.4548 16.8343 80.4366 17.2587 79.5639 17.2587C79.1275 17.2587 78.6911 17.1173 78.2548 16.9758C76.9457 16.2685 76.5093 14.7124 77.2366 13.4392Z" fill="var(--svg-color)"/>
<path fill-rule="evenodd" clip-rule="evenodd" d="M30.1089 15.9856C30.5453 16.8343 31.5635 17.2587 32.4362 17.2587C32.8726 17.2587 33.3089 17.1173 33.7453 16.9758C35.0544 16.2685 35.4908 14.7124 34.7635 13.4392L31.5635 8.20502C30.8362 6.93184 29.2362 6.50744 27.9271 7.21476C26.618 7.92209 26.1817 9.4782 26.9089 10.7514L30.1089 15.9856Z" fill="var(--svg-color)"/>
<path fill-rule="evenodd" clip-rule="evenodd" d="M56.0001 11.1757C57.4546 11.1757 58.6183 10.044 58.6183 8.62933V2.54636C58.6183 1.13172 57.4546 0 56.0001 0C54.5455 0 53.3819 1.13172 53.3819 2.54636V8.62933C53.2364 10.044 54.4001 11.1757 56.0001 11.1757Z" fill="var(--svg-color)"/>
<path fill-rule="evenodd" clip-rule="evenodd" d="M8.87271 51.7761H2.61818C1.16363 51.7761 0 52.9078 0 54.3225C0 55.7371 1.16363 56.8688 2.61818 56.8688H8.87271C10.3273 56.8688 11.4909 55.7371 11.4909 54.3225C11.4909 52.9078 10.3273 51.7761 8.87271 51.7761Z" fill="var(--svg-color)"/>
<path fill-rule="evenodd" clip-rule="evenodd" d="M109.382 51.7761H103.127C101.673 51.7761 100.509 52.9078 100.509 54.3225C100.509 55.7371 101.673 56.8688 103.127 56.8688H109.382C110.837 56.8688 112 55.7371 112 54.3225C112 52.9078 110.837 51.7761 109.382 51.7761Z" fill="var(--svg-color)"/>
<path fill-rule="evenodd" clip-rule="evenodd" d="M104.582 27.1613C103.854 25.8881 102.254 25.4637 100.945 26.1711L95.5634 29.2833C94.2543 29.9906 93.8179 31.5467 94.5452 32.8199C94.9815 33.6687 95.9997 34.0931 96.8724 34.0931C97.3088 34.0931 97.7452 33.9516 98.1815 33.8101L103.563 30.6979C104.872 29.9906 105.309 28.4345 104.582 27.1613Z" fill="var(--svg-color)"/>
<path fill-rule="evenodd" clip-rule="evenodd" d="M16.4364 29.2833L11.0546 26.1711C9.74549 25.4637 8.14549 25.8881 7.41822 27.1613C6.69095 28.4345 7.12731 29.9906 8.4364 30.6979L13.8182 33.8101C14.2546 34.0931 14.6909 34.0931 15.1273 34.0931C16 34.0931 17.0182 33.6687 17.4546 32.8199C18.1818 31.5467 17.7455 29.9906 16.4364 29.2833Z" fill="var(--svg-color)"/>
<path fill-rule="evenodd" clip-rule="evenodd" d="M37.6905 60.0312H72.3852H37.6905Z" fill="var(--svg-color)"/>
<path d="M37.6905 60.0312H72.3852" stroke="#F28098" stroke-width="6.11436" stroke-linecap="round"/>
<path fill-rule="evenodd" clip-rule="evenodd" d="M55.0083 42.7341V77.3882V42.7341Z" fill="var(--svg-color)"/>
<path d="M55.0083 42.7341V77.3882" stroke="#F28098" stroke-width="6.11436" stroke-linecap="round"/>
</svg>
