<svg width="114" height="106" viewBox="0 0 114 106" fill="none" xmlns="http://www.w3.org/2000/svg">
<rect x="7.47559" width="22.4262" height="22.3158" rx="3.54789" fill="var(--svg-color)"/>
<rect x="7.47559" y="83.6841" width="22.4262" height="22.3158" rx="3.54789" fill="var(--svg-color)"/>
<path fill-rule="evenodd" clip-rule="evenodd" d="M5.32183 33.4736C2.38266 33.4736 0 35.8563 0 38.7955V66.8522C0 69.7914 2.38266 72.174 5.32183 72.174H33.4486C36.3877 72.174 38.7704 69.7914 38.7704 66.8522V38.7955C38.7704 35.8563 36.3877 33.4736 33.4486 33.4736H5.32183ZM27.0653 42.0737C27.4912 41.4235 28.1786 41.0031 28.9385 40.9282V40.9281C29.566 40.8568 30.1968 41.0268 30.7091 41.4052C31.8529 42.2499 32.113 43.8862 31.2901 45.06L19.8111 62.0784L19.8082 62.0826C19.0154 63.278 17.4286 63.5876 16.2638 62.7739L8.61113 57.5375C7.43347 56.7241 7.12111 55.0849 7.91354 53.876C8.70608 52.6672 10.3032 52.3466 11.4809 53.1601L17.0212 56.9648L27.0653 42.0737Z" fill="var(--svg-color)"/>
<rect x="44.8525" y="5.57886" width="59.8032" height="3.7193" rx="1.85965" fill="var(--svg-color)"/>
<rect x="44.8525" y="87.4033" width="59.8032" height="3.7193" rx="1.85965" fill="var(--svg-color)"/>
<rect x="54.1968" y="44.6316" width="59.8032" height="5.57895" rx="2.78947" fill="var(--svg-color)"/>
<rect x="44.8525" y="14.8772" width="33.6393" height="3.7193" rx="1.85965" fill="var(--svg-color)"/>
<rect x="44.8525" y="96.7017" width="33.6393" height="3.7193" rx="1.85965" fill="var(--svg-color)"/>
<rect x="54.1968" y="55.7896" width="33.6393" height="5.57895" rx="2.78947" fill="var(--svg-color)"/>
</svg>
