<svg width="84" height="73" viewBox="0 0 84 73" fill="none" xmlns="http://www.w3.org/2000/svg">
<path fill-rule="evenodd" clip-rule="evenodd" d="M9.24949 59.5446C3.48357 53.2974 0 45.3684 0 36.7185C0 16.6556 18.6191 0.316895 41.5626 0.316895C64.5062 0.316895 83.1253 16.6556 83.1253 36.7185C83.1253 56.7814 64.386 73 41.5626 73C33.2741 73 25.4661 70.8375 18.9795 67.1132C13.0934 70.5972 6.84702 70.4771 3.1232 69.9965C2.04209 69.8764 1.80185 68.5549 2.64271 67.9542C6.24641 65.6716 8.16838 62.4279 9.24949 59.5446ZM39.9398 32.9247H26.341V20H19V54H26.341V38.863H39.9398V54H47.2808V20H39.9398V32.9247ZM53.6592 20H61.0001V54H53.6592V20Z" fill="var(--svg-color)"/>
</svg>
