<?xml version="1.0" encoding="utf-8"?><svg width="23" height="16" xmlns="http://www.w3.org/2000/svg" viewBox="0 0 23 16"><path d="M8.291 8.931l2.011 1.914c.67.636 1.726.636 2.396 0l2.01-1.914 6.358 5.966H1.934L8.29 8.93zm13.614-6.828v12.07l-6.4-6 6.4-6.07zm-20.81 0l6.4 6.07-6.4 6V2.102zm.548-1h19.714l-9.412 8.94c-.21.2-.68.2-.89 0l-9.412-8.94zM1.095 0A1.11 1.11 0 0 0 0 1.103v13.794A1.11 1.11 0 0 0 1.095 16h20.81A1.11 1.11 0 0 0 23 14.897V1.103A1.11 1.11 0 0 0 21.905 0H1.095z" fill="var(--svg-color)" fill-rule="evenodd"/></svg>