<?xml version="1.0" encoding="utf-8"?><svg width="20" height="20" fill="none" xmlns="http://www.w3.org/2000/svg" viewBox="0 0 20 20"><path d="M4.732 18.503h8.95a3.228 3.228 0 0 0 3.231-3.236V9.79a.733.733 0 0 0-.746-.747.733.733 0 0 0-.745.747v5.477c0 .97-.771 1.742-1.74 1.742h-8.95a1.73 1.73 0 0 1-1.74-1.742V6.305c0-.971.77-1.743 1.74-1.743H10.2a.733.733 0 0 0 .746-.747.733.733 0 0 0-.746-.747h-5.47A3.228 3.228 0 0 0 1.5 6.305v8.962a3.228 3.228 0 0 0 3.232 3.236z" fill="var(--svg-color)"/><path d="M18.5 6.828V2.272c0-.05 0-.1-.024-.15 0-.024 0-.05-.025-.05 0-.024-.025-.05-.025-.074 0-.025-.025-.05-.05-.075 0-.025-.025-.05-.025-.05a.757.757 0 0 0-.199-.199l-.05-.025c-.049-.074-.099-.1-.149-.1l-.074-.024c-.05 0-.1-.025-.15-.025H13.18a.733.733 0 0 0-.746.747c0 .423.323.747.746.747h2.76L9.103 9.865c-.299.299-.299.772 0 1.046.298.299.77.299 1.044 0l6.862-6.847v2.764c0 .423.323.747.746.747.397 0 .72-.349.745-.747z" fill="var(--svg-color)"/></svg>