<?xml version="1.0" encoding="utf-8"?><svg width="19" height="24" fill="none" xmlns="http://www.w3.org/2000/svg" viewBox="0 0 19 24"><path d="M15.036 15.565l3.022.47c.63 0 .91.821.381 1.188l-2.141 2.171.484 2.964c.19.601-.514 1.115-1.027.748l-2.7-1.364-2.7 1.364c-.513.367-1.202-.147-1.011-.748l.454-3.037-2.127-2.098c-.513-.367-.25-1.188.396-1.188l3.022-.47 1.35-2.714c.19-.602 1.056-.602 1.247 0l1.35 2.714z" fill="var(--svg-color)"/><g clip-path="url(#akclip0)"><path d="M5.047 15.75a3.148 3.148 0 0 1 2.764-2.205l1.617-.251.716-1.44a3.104 3.104 0 0 1 1.99-1.818V7.655c0-.693-.558-1.25-1.25-1.25h-.034V4.748A4.754 4.754 0 0 0 6.1 0C3.498 0 1.369 2.129 1.369 4.748v1.656H1.25A1.249 1.249 0 0 0 0 7.655v6.911c0 .693.558 1.25 1.25 1.25h3.78c.007-.021.01-.044.017-.066zm1.78-4.344c-.101.068-.118.135-.118.253v1.521a.526.526 0 0 1-.287.507c-.439.22-.879-.085-.879-.507v-1.521c0-.101-.017-.169-.118-.237a1.168 1.168 0 0 1-.389-1.419c.22-.49.76-.777 1.284-.676.575.118.963.575.98 1.149 0 .39-.152.711-.473.93zm-3.38-6.658c0-1.47 1.2-2.67 2.67-2.67s2.67 1.2 2.67 2.67v1.656h-5.34V4.748z" fill="var(--svg-color)"/></g><defs><clipPath id="akclip0"><path fill="var(--svg-color)" d="M0 0h12.133v15.817H0z"/></clipPath></defs></svg>