<?xml version="1.0" encoding="utf-8"?><svg width="20" height="20" fill="none" xmlns="http://www.w3.org/2000/svg" viewBox="0 0 20 20"><path d="M16.435 7h-1.87V4.565a4.565 4.565 0 1 0-9.13 0V7h-1.87a1.93 1.93 0 0 0-1.913 1.913v9.174A1.93 1.93 0 0 0 3.565 20h12.913a1.93 1.93 0 0 0 1.913-1.913V8.913C18.349 7.826 17.479 7 16.436 7zM7.087 4.522c0-1.565 1.304-2.87 2.87-2.87 1.565 0 2.87 1.305 2.87 2.87v2.435h-5.74V4.522zm9.522 13.521c0 .13-.087.218-.218.218H3.479c-.13 0-.217-.087-.217-.217V8.913c0-.13.087-.217.217-.217h12.914c.13 0 .217.087.217.217v9.13z" fill="var(--svg-color)"/><path d="M9.958 11.304c-.957 0-1.74.783-1.74 1.74 0 .652.349 1.173.87 1.521v1.74h1.826v-1.74c.522-.304.87-.87.87-1.521-.087-.957-.87-1.74-1.826-1.74z" fill="var(--svg-color)"/></svg>