<?xml version="1.0" encoding="utf-8"?><svg width="20" height="20" fill="none" xmlns="http://www.w3.org/2000/svg" viewBox="0 0 20 20"><path d="M13.333 0H6.667C5.96 0 5.282.302 4.782.838A2.967 2.967 0 0 0 4 2.858v14.285c0 .757.282 1.484.782 2.02.5.535 1.178.836 1.885.837h6.666c.707 0 1.385-.302 1.885-.838.5-.535.781-1.262.782-2.02V2.858c0-.757-.282-1.484-.782-2.02A2.583 2.583 0 0 0 13.333 0zm1.334 17.143c0 .379-.141.742-.391 1.01-.25.267-.59.418-.943.418H6.667c-.354 0-.693-.15-.943-.419-.25-.267-.39-.63-.39-1.01V2.858c0-.379.14-.742.39-1.01.25-.267.59-.418.943-.418h.666v.714a.758.758 0 0 0 .195.505.665.665 0 0 0 .217.155c.08.036.167.054.255.054h4a.628.628 0 0 0 .255-.054.665.665 0 0 0 .216-.155.76.76 0 0 0 .195-.505v-.714h.667c.354 0 .693.15.943.419.25.267.39.63.39 1.01v14.285z" fill="var(--svg-color)"/></svg>