<?xml version="1.0" encoding="utf-8"?><svg width="30" height="30" fill="none" xmlns="http://www.w3.org/2000/svg" viewBox="0 0 194 194"><path fill-rule="evenodd" clip-rule="evenodd" d="M94.387 128.811c-.459-.457-.689-1.116-.689-1.978v-6.534c0-.917.23-1.59.69-2.021.458-.429 1.117-.643 1.977-.643h22.182a1.635 1.635 0 0 0 1.202-.518l.603-.6c.173-.173.3-.359.385-.56.086-.2.131-.387.131-.558v-.258c0-.23-.045-.43-.131-.601a1.981 1.981 0 0 0-.385-.516l-.603-.602a1.756 1.756 0 0 0-.558-.387 1.617 1.617 0 0 0-.644-.129h-14.275c-1.489 0-2.733-.173-3.736-.516-1.005-.344-2.021-1.033-3.052-2.065l-1.12-1.116c-1.09-1.09-1.804-2.063-2.15-2.924-.343-.858-.516-1.89-.516-3.094v-4.298c0-1.835.244-3.355.73-4.558.49-1.203 1.365-2.436 2.626-3.697l2.062-2.065c1.319-1.318 2.579-2.247 3.783-2.793 1.205-.544 2.779-.816 4.729-.816h24.245c.918 0 1.591.214 2.02.645.428.429.647 1.104.647 2.021v6.534c0 .858-.219 1.517-.647 1.977-.429.457-1.102.687-2.02.687h-20.892c-.23 0-.445.044-.645.13a1.825 1.825 0 0 0-.56.384l-.602.604a2.12 2.12 0 0 0-.387.516 1.34 1.34 0 0 0-.129.602v.173c0 .17.044.357.129.557.088.2.217.388.387.558l.602.604c.173.173.361.3.56.385.2.087.415.129.645.129h14.271c1.491 0 2.738.173 3.743.516 1 .344 2.019 1.033 3.051 2.063l1.116 1.12c1.09 1.088 1.807 2.063 2.148 2.92.346.862.516 1.894.516 3.097v4.384c0 1.835-.242 3.355-.728 4.559-.489 1.201-1.362 2.436-2.621 3.694l-2.065 2.065c-1.32 1.318-2.581 2.25-3.784 2.796-1.203.544-2.78.816-4.729.816H96.365c-.86 0-1.52-.231-1.978-.689zM65.648 107.451c-.66-.486-1.16-1.389-1.505-2.708L54.17 66.741c-.228-.917-.145-1.662.259-2.235.4-.572 1.088-.858 2.064-.858h10.66c1.09 0 1.862.228 2.323.687.457.459.8 1.26 1.03 2.406l6.02 28.802c.056.286.214.431.473.431.258 0 .415-.145.472-.43L83.49 66.74c.23-1.145.572-1.947 1.032-2.406.457-.459 1.231-.687 2.321-.687h10.316c.975 0 1.664.286 2.065.858.4.573.487 1.318.258 2.235l-9.972 38.002c-.346 1.319-.846 2.222-1.505 2.708-.66.487-1.763.731-3.312.731H68.96c-1.549 0-2.653-.244-3.312-.731z" fill="var(--svg-color)"/><mask id="asa" maskUnits="userSpaceOnUse" x="47" y="61" width="23" height="11"><path fill-rule="evenodd" clip-rule="evenodd" d="M51.17 61.947a3.909 3.909 0 0 0-3.909 3.907v1.612a3.909 3.909 0 0 0 3.91 3.908h14.92a3.907 3.907 0 0 0 3.907-3.908v-1.612a3.907 3.907 0 0 0-3.907-3.907H51.17z" fill="var(--svg-color)"/></mask><g mask="url(#asa)"><path fill-rule="evenodd" clip-rule="evenodd" d="M37.334 81.3h42.591V52.02h-42.59V81.3z" fill="var(--svg-color)"/></g><mask id="asb" maskUnits="userSpaceOnUse" x="38" y="77" width="96" height="79"><path fill-rule="evenodd" clip-rule="evenodd" d="M38 77.827h95.043V156H38V77.827z" fill="var(--svg-color)"/></mask><g mask="url(#asb)"><path fill-rule="evenodd" clip-rule="evenodd" d="M126.616 137.192c-8.293 6.126-18.537 9.758-29.618 9.758-27.541 0-49.949-22.407-49.949-49.95 0-6.79 1.368-13.267 3.834-19.173h-9.669A58.74 58.74 0 0 0 38 97C38 129.532 64.467 156 96.998 156c13.566 0 26.068-4.614 36.045-12.339a13.93 13.93 0 0 1-6.427-6.47z" fill="var(--svg-color)"/></g><mask id="asc" maskUnits="userSpaceOnUse" x="55" y="38" width="101" height="85"><path fill-rule="evenodd" clip-rule="evenodd" d="M55.115 38H156v84.68H55.115V38z" fill="var(--svg-color)"/></mask><g mask="url(#asc)"><path fill-rule="evenodd" clip-rule="evenodd" d="M97 38c-16.362 0-31.188 6.699-41.885 17.495h14.13A49.646 49.646 0 0 1 97 47.051c27.544 0 49.951 22.407 49.951 49.948a49.634 49.634 0 0 1-4.509 20.7 13.894 13.894 0 0 1 7.669 4.981A58.648 58.648 0 0 0 156.001 97c0-32.533-26.467-59-59.002-59z" fill="var(--svg-color)"/></g><mask id="asd" maskUnits="userSpaceOnUse" x="75" y="63" width="24" height="11"><path fill-rule="evenodd" clip-rule="evenodd" d="M78.988 63.67a3.907 3.907 0 0 0-3.907 3.907v1.612a3.907 3.907 0 0 0 3.907 3.907h15.311c2.158 0 3.91-1.749 3.91-3.907v-1.612a3.909 3.909 0 0 0-3.91-3.907H78.988z" fill="var(--svg-color)"/></mask><g mask="url(#asd)"><path fill-rule="evenodd" clip-rule="evenodd" d="M65.15 83.023h42.983v-29.28H65.151v29.28z" fill="var(--svg-color)"/></g><path fill-rule="evenodd" clip-rule="evenodd" d="M145.962 131.185a6.829 6.829 0 1 1-13.657-.001 6.829 6.829 0 0 1 13.657.001z" fill="var(--svg-color)"/></svg>