<?xml version="1.0" encoding="utf-8"?><svg width="30" height="29.69" fill="none" xmlns="http://www.w3.org/2000/svg" viewBox="0 0 96 95"><path fill-rule="evenodd" clip-rule="evenodd" d="M94.656 44.477c.742 0 1.344-.604 1.344-1.348V1.347C96 .603 95.398 0 94.656 0H53.342c-.743 0-1.344.603-1.344 1.347V43.13c0 .744.601 1.348 1.344 1.348h41.314zm-2.293-11.302H55.634V4.01h36.73v29.165z" fill="var(--svg-color)"/><path fill-rule="evenodd" clip-rule="evenodd" d="M66.498 16.649L55.453 33.493c-.067.102-.126.323-.183.323h28.782c-.043 0-.089-.156-.137-.224l-12.1-17.031c-1.502-2.112-3.895-2.079-5.317.088z" fill="var(--svg-color)"/><path fill-rule="evenodd" clip-rule="evenodd" d="M92.282 33.65v-.523l-6.633-9.533c-.92-1.294-2.324-1.236-3.195.091l-6.455 9.964h16.283zM86.624 10.794a3.499 3.499 0 0 1-3.494 3.503 3.499 3.499 0 0 1-3.494-3.503 3.499 3.499 0 0 1 3.494-3.503 3.499 3.499 0 0 1 3.495 3.503zM42.658 44.477c.742 0 1.344-.604 1.344-1.348V1.347C44.002.603 43.4 0 42.658 0H1.344C.602 0 0 .603 0 1.347V43.13c0 .744.602 1.348 1.344 1.348h41.314zm-2.292-11.302H3.636V4.01h36.73v29.165z" fill="var(--svg-color)"/><path d="M32.458 15.436a1.541 1.541 0 0 0-1.248-1.063l-5.313-.78-2.375-4.838a1.536 1.536 0 0 0-1.387-.867c-.59 0-1.122.33-1.392.867l-2.374 4.839-5.317.78a1.542 1.542 0 0 0-1.243 1.065c-.18.566-.03 1.175.392 1.587l3.842 3.772-.906 5.323a1.55 1.55 0 0 0 1.523 1.816c.248 0 .497-.062.72-.18l4.753-2.51 4.753 2.51c.223.118.471.18.719.18a1.55 1.55 0 0 0 1.523-1.816l-.905-5.322 3.84-3.772a1.552 1.552 0 0 0 .395-1.591z" fill="var(--svg-color)"/><path fill-rule="evenodd" clip-rule="evenodd" d="M42.658 95c.742 0 1.344-.603 1.344-1.347V51.87c0-.744-.602-1.347-1.344-1.347H1.344C.602 50.523 0 51.126 0 51.87v41.783C0 94.397.602 95 1.344 95h41.314zm-2.292-11.301H3.636V54.534h36.73v29.165z" fill="var(--svg-color)"/><path fill-rule="evenodd" clip-rule="evenodd" d="M14.527 66.665L3.187 83.674C3.12 83.776 3.057 84 3 84h29.55c-.044 0-.09-.158-.14-.226L19.985 66.576c-1.542-2.133-3.998-2.099-5.459.089z" fill="var(--svg-color)"/><path fill-rule="evenodd" clip-rule="evenodd" d="M41 83.831v-.528l-6.81-9.625c-.945-1.307-2.386-1.248-3.28.092L24.281 83.83H41zM34.626 61.318a3.499 3.499 0 0 1-3.494 3.503 3.499 3.499 0 0 1-3.494-3.503 3.499 3.499 0 0 1 3.494-3.503 3.499 3.499 0 0 1 3.494 3.503zM94.656 95c.742 0 1.344-.603 1.344-1.347V51.87c0-.744-.602-1.347-1.344-1.347H53.342c-.743 0-1.344.603-1.344 1.347v41.783c0 .744.601 1.347 1.344 1.347h41.314zm-2.293-11.301H55.634V54.534h36.73v29.165z" fill="var(--svg-color)"/><path d="M84.455 65.96a1.541 1.541 0 0 0-1.248-1.063l-5.313-.78-2.375-4.839a1.536 1.536 0 0 0-1.386-.866c-.59 0-1.122.33-1.392.867l-2.375 4.838-5.317.78a1.541 1.541 0 0 0-1.243 1.066c-.18.566-.03 1.174.393 1.586l3.841 3.773-.905 5.322a1.55 1.55 0 0 0 1.523 1.817c.248 0 .496-.062.72-.18l4.752-2.51 4.753 2.51c.223.117.472.18.72.18a1.55 1.55 0 0 0 1.523-1.816l-.906-5.323 3.84-3.771a1.552 1.552 0 0 0 .395-1.592z" fill="var(--svg-color)"/></svg>