<?xml version="1.0" encoding="utf-8"?><svg width="25" height="25" fill="none" xmlns="http://www.w3.org/2000/svg" viewBox="0 0 25 25"><path fill-rule="evenodd" clip-rule="evenodd" d="M12.576 5.466c-1.36 0-2.47 1.106-2.47 2.446v.826h4.94v-.826c0-1.34-1.11-2.446-2.47-2.446zm5.44 3.537L19 17.665c0 .016 0 .047-.016.047 0 .92-.75 1.667-1.672 1.667H7.823a1.672 1.672 0 0 1-1.673-1.667v-.047l.985-8.662a.304.304 0 0 1 .297-.25H9.12v-.825c0-1.886 1.564-3.428 3.455-3.428 1.892 0 3.455 1.542 3.455 3.428v.825h1.688c.156 0 .282.094.297.25zm-5.617 8.015l-2.514-2.53a1.787 1.787 0 0 1 0-2.516 1.76 1.76 0 0 1 2.622.139s.025-.043.12-.139a1.76 1.76 0 0 1 2.502 0c.69.695.69 1.822 0 2.516l-2.515 2.53a.151.151 0 0 1-.215 0z" fill="var(--svg-color)"/></svg>