<?xml version="1.0" encoding="utf-8"?><svg width="27.54" height="30" fill="none" xmlns="http://www.w3.org/2000/svg" viewBox="0 0 112 122"><path fill-rule="evenodd" clip-rule="evenodd" d="M40.165 102.486v4.879c0 5.706 3.04 8.178 7.672 9.166.874 3.072 3.837 5.469 7.147 5.469 3.311 0 6.274-2.397 7.149-5.469 4.631-.988 7.672-3.46 7.672-9.166v-4.879h-29.64zM89.564 58.58c0-19.026-15.808-34.637-35.074-34.15-18.278.488-33.592 15.124-34.086 32.686-.494 11.709 4.94 22.441 13.832 28.783 3.952 2.927 5.928 7.318 5.928 11.709h29.64c0-4.391 1.976-8.782 5.434-11.709C84.13 80.045 89.564 69.8 89.564 58.58zM77.237 13.44l3.2-5.235c.727-1.273 2.327-1.698 3.636-.99 1.309.707 1.745 2.263 1.018 3.536l-3.2 5.235c-.436.848-1.454 1.273-2.327 1.273-.436 0-.873-.142-1.31-.283-1.308-.707-1.745-2.264-1.017-3.537zM30.109 15.986c.436.848 1.454 1.273 2.327 1.273.437 0 .873-.142 1.31-.283 1.308-.707 1.745-2.264 1.017-3.537l-3.2-5.234c-.727-1.273-2.327-1.698-3.636-.99-1.309.707-1.745 2.263-1.018 3.536l3.2 5.235zM56 11.176c1.455 0 2.618-1.132 2.618-2.547V2.546C58.618 1.132 57.455 0 56 0c-1.455 0-2.618 1.132-2.618 2.546V8.63c-.146 1.415 1.018 2.547 2.618 2.547zM8.873 51.776H2.618C1.164 51.776 0 52.908 0 54.322c0 1.415 1.164 2.547 2.618 2.547h6.255c1.454 0 2.618-1.132 2.618-2.547 0-1.414-1.164-2.546-2.618-2.546zM109.382 51.776h-6.255c-1.454 0-2.618 1.132-2.618 2.546 0 1.415 1.164 2.547 2.618 2.547h6.255c1.455 0 2.618-1.132 2.618-2.547 0-1.414-1.163-2.546-2.618-2.546zM104.582 27.161c-.728-1.273-2.328-1.697-3.637-.99l-5.382 3.112c-1.309.708-1.745 2.264-1.018 3.537.436.849 1.455 1.273 2.327 1.273.437 0 .873-.141 1.31-.283l5.381-3.112c1.309-.707 1.746-2.264 1.019-3.537zM16.436 29.283l-5.381-3.112c-1.31-.707-2.91-.283-3.637.99-.727 1.273-.29 2.83 1.018 3.537l5.382 3.112c.437.283.873.283 1.31.283.872 0 1.89-.424 2.327-1.273.727-1.273.29-2.83-1.019-3.537zM37.69 60.031h34.695H37.69z" fill="var(--svg-color)"/><path d="M37.69 60.031h34.695" stroke="#F28098" stroke-width="6.114" stroke-linecap="round"/><path fill-rule="evenodd" clip-rule="evenodd" d="M55.008 42.734v34.654-34.654z" fill="var(--svg-color)"/><path d="M55.008 42.734v34.654" stroke="#F28098" stroke-width="6.114" stroke-linecap="round"/></svg>