<?xml version="1.0" encoding="utf-8"?><svg width="30" height="30" fill="none" xmlns="http://www.w3.org/2000/svg" viewBox="0 0 194 194"><path fill-rule="evenodd" clip-rule="evenodd" d="M94.678 87.632a37.046 37.046 0 0 1 24.981-9.625c4.185 0 8.203.698 11.955 1.968.248-1.717.383-3.47.383-5.255 0-20.28-16.573-36.72-37.018-36.72-20.444 0-37.018 16.44-37.018 36.72 0 1.718.129 3.406.359 5.06a37.255 37.255 0 0 1 11.377-1.773 37.046 37.046 0 0 1 24.981 9.625zM82.962 115.279c0-1.784.135-3.537.383-5.254-13.022-4.408-22.774-15.807-24.705-29.692C43.764 85.097 33 98.939 33 115.28 33 135.56 49.574 152 70.018 152A37.05 37.05 0 0 0 95 142.375c-7.397-6.714-12.037-16.366-12.037-27.096zM131.937 80.334c-2.023 14-12.006 25.448-25.257 29.69.23 1.656.358 3.343.358 5.061 0 10.73-4.64 20.382-12.036 27.096a37.048 37.048 0 0 0 24.98 9.625c20.445 0 37.018-16.441 37.018-36.721 0-16.129-10.487-29.819-25.063-34.751z" fill="var(--svg-color)"/><path fill-rule="evenodd" clip-rule="evenodd" d="M94.577 87.522c-6.166 5.597-10.41 13.238-11.654 21.841a37.237 37.237 0 0 0 11.955 1.968c3.97 0 7.792-.627 11.378-1.775-1.207-8.681-5.467-16.395-11.679-22.034z" fill="var(--svg-color)"/></svg>