<?xml version="1.0" encoding="utf-8"?><svg width="25" height="25" fill="none" xmlns="http://www.w3.org/2000/svg" viewBox="0 0 25 25"><path d="M13.794 13.148l4.696 3.756c.195.156.153.284-.097.284H6.606c-.247 0-.292-.127-.096-.284l4.695-3.756a.195.195 0 0 1 .235-.002l.11.087c.525.416 1.375.416 1.9 0l.11-.087c.063-.05.17-.05.234.002zm4.593-5.338c.25 0 .291.127.097.28l-5.272 4.175c-.393.31-1.03.31-1.424 0L6.516 8.09c-.196-.155-.15-.28.097-.28h11.774zm-3.743 4.855c-.13-.104-.133-.272 0-.377l4.608-3.648c.197-.156.357-.078.357.168v7.378c0 .25-.158.325-.353.169l-4.612-3.69zM5.391 8.808c0-.249.161-.323.357-.168l4.608 3.648c.13.104.133.27 0 .377l-4.612 3.69c-.195.156-.353.078-.353-.169V8.808z" fill="var(--svg-color)"/></svg>