<?xml version="1.0" encoding="utf-8"?><svg width="30" height="30" fill="none" xmlns="http://www.w3.org/2000/svg" viewBox="0 0 110 110"><path fill-rule="evenodd" clip-rule="evenodd" d="M78.912 67.604H66.36a3.589 3.589 0 0 1-3.591-3.587 3.589 3.589 0 0 1 3.591-3.587h12.552a3.589 3.589 0 0 1 3.59 3.587 3.589 3.589 0 0 1-3.59 3.587zM46.045 47.313a3.589 3.589 0 0 1-3.59-3.587V31.188a3.589 3.589 0 0 1 3.59-3.587 3.589 3.589 0 0 1 3.591 3.587v12.538a3.589 3.589 0 0 1-3.59 3.587zM46.71 13.28a3.565 3.565 0 0 1-5.082.014c-1.375-1.373-1.375-3.692 0-5.065a3.57 3.57 0 0 1 5.055-.014 3.563 3.563 0 0 1 .028 5.064zm5.065-10.123c-4.19-4.21-11.037-4.21-15.227 0-4.19 4.185-4.19 11.024 0 15.21a10.71 10.71 0 0 0 7.613 3.156 10.71 10.71 0 0 0 7.614-3.156c4.214-4.185 4.214-11.025 0-15.21zM91.754 40.139a3.59 3.59 0 0 1 3.59 3.587 3.59 3.59 0 0 1-3.59 3.587 3.59 3.59 0 0 1-3.591-3.587 3.59 3.59 0 0 1 3.59-3.587zM66.36 14.773a3.59 3.59 0 0 1 3.59 3.587 3.59 3.59 0 0 1-3.59 3.587 3.59 3.59 0 0 1-3.592-3.587 3.59 3.59 0 0 1 3.591-3.587zM91.754 80.723a3.59 3.59 0 0 1 3.59 3.587 3.59 3.59 0 0 1-3.59 3.587 3.59 3.59 0 0 1-3.591-3.587 3.59 3.59 0 0 1 3.59-3.587zM25.732 14.773a3.59 3.59 0 0 1 3.59 3.587 3.59 3.59 0 0 1-3.59 3.587 3.59 3.59 0 0 1-3.591-3.587 3.59 3.59 0 0 1 3.59-3.587zM95.345 11.185a3.589 3.589 0 0 1-3.591-3.588V4.01A3.589 3.589 0 0 1 95.345.423a3.589 3.589 0 0 1 3.591 3.587v3.587a3.589 3.589 0 0 1-3.591 3.588zM95.345 29.12a3.589 3.589 0 0 1-3.591-3.587v-3.587a3.589 3.589 0 0 1 3.591-3.587 3.589 3.589 0 0 1 3.591 3.587v3.587a3.589 3.589 0 0 1-3.591 3.588zM88.163 18.359h-3.591a3.589 3.589 0 0 1-3.591-3.587 3.589 3.589 0 0 1 3.59-3.587h3.592a3.589 3.589 0 0 1 3.59 3.587 3.589 3.589 0 0 1-3.59 3.587zM106.119 18.359h-3.591a3.589 3.589 0 0 1-3.592-3.587 3.589 3.589 0 0 1 3.592-3.587h3.591a3.59 3.59 0 0 1 3.591 3.587 3.59 3.59 0 0 1-3.591 3.587zM101.775 65.891a3.562 3.562 0 0 1-5.083.016c-1.374-1.373-1.374-3.692 0-5.065a3.57 3.57 0 0 1 5.055-.014 3.561 3.561 0 0 1 .028 5.063zm5.065-10.12c-4.19-4.21-11.037-4.21-15.227 0-4.19 4.184-4.19 11.024 0 15.21a10.71 10.71 0 0 0 7.614 3.156c2.872 0 5.578-1.124 7.613-3.157 4.213-4.185 4.213-11.025 0-15.21zM57.691 55.973c-.919 0-1.838-.35-2.539-1.051a3.583 3.583 0 0 1 0-5.073L77.57 27.455a3.593 3.593 0 0 1 5.078 0 3.584 3.584 0 0 1 0 5.073L60.23 54.922a3.582 3.582 0 0 1-2.539 1.05z" fill="var(--svg-color)"/><path fill-rule="evenodd" clip-rule="evenodd" d="M55.152 54.922c.701.7 1.62 1.05 2.539 1.05.918 0 1.837-.35 2.539-1.05l22.418-22.394a3.584 3.584 0 0 0 0-5.073L55.152 54.922zM27.883 91.54v10.127L4.79 109.789c-1.42.5-2.81.069-3.725-.839-.921-.916-1.357-2.313-.854-3.738l8.14-23.04h10.163l4.675 4.675 4.693 4.693z" fill="var(--svg-color)"/><path fill-rule="evenodd" clip-rule="evenodd" d="M27.882 91.54v10.127l-23.091 8.122c-1.42.499-2.81.069-3.725-.84L23.19 86.847l4.692 4.692zM17.636 68.614L41.47 92.43h12.632l13.45-4.735a3.615 3.615 0 0 0 2.203-4.592l-42.83-42.76c-1.862-.667-3.925.309-4.573 2.177L17.636 55.87v12.744z" fill="var(--svg-color)"/><path fill-rule="evenodd" clip-rule="evenodd" d="M41.47 92.431h12.632l13.45-4.735a3.615 3.615 0 0 0 2.203-4.591l-21.414-21.38-18.803 18.783L41.47 92.43z" fill="var(--svg-color)"/><path fill-rule="evenodd" clip-rule="evenodd" d="M17.611 55.913L8.347 82.172l19.535 19.491.072-.024 26.191-9.231-36.534-36.495z" fill="var(--svg-color)"/><path fill-rule="evenodd" clip-rule="evenodd" d="M27.882 101.663l.072-.024 26.191-9.231-18.26-18.24-17.77 17.75 9.767 9.745zM71.44 92.97c-.92 0-1.838-.35-2.54-1.05L18.113 41.188a3.583 3.583 0 0 1 0-5.073 3.593 3.593 0 0 1 5.078 0l50.787 50.732a3.583 3.583 0 0 1 0 5.073c-.701.7-1.62 1.05-2.539 1.05z" fill="var(--svg-color)"/><path fill-rule="evenodd" clip-rule="evenodd" d="M68.9 91.92c.702.7 1.62 1.05 2.54 1.05.918 0 1.837-.35 2.538-1.05a3.583 3.583 0 0 0 0-5.073L48.585 61.481l-5.078 5.073L68.9 91.92z" fill="var(--svg-color)"/></svg>