<?xml version="1.0" encoding="utf-8"?><svg width="30" height="30" fill="none" xmlns="http://www.w3.org/2000/svg" viewBox="0 0 194 194"><path fill-rule="evenodd" clip-rule="evenodd" d="M79.563 69.229c-1.322 0-2.643.12-4.085.12C80.644 54.692 96.14 44 114.278 44 136.741 44 155 60.218 155 80.161c0 7.569-2.643 15.017-7.688 21.024.961 1.682 2.162 3.004 3.724 4.085 1.562 1.081 2.402 3.003 1.922 4.806-.36 1.802-1.922 3.243-3.844 3.483-1.321.241-2.643.241-3.964.241-3.964 0-7.568-.841-10.691-2.283-2.042 1.081-4.204 1.922-6.487 2.643v-1.441c0-2.043-.12-3.965-.48-5.887 1.802-.721 3.483-1.442 5.165-2.403l1.802-.961 1.802 1.081c1.802 1.081 3.844 1.802 6.126 2.163a17.67 17.67 0 0 1-2.522-4.686l-.721-2.042 1.441-1.562c4.805-5.166 7.328-11.413 7.328-18.14 0-15.979-15.136-29.074-33.635-29.074-14.174 0-26.307 7.569-31.232 18.261-1.08-.24-2.282-.24-3.483-.24z" fill="var(--svg-color)"/><path fill-rule="evenodd" clip-rule="evenodd" d="M47.25 135.545c-5.766-6.248-9.25-14.177-9.25-22.827 0-20.062 18.62-36.401 41.563-36.401s41.562 16.339 41.562 36.401c0 20.063-18.739 36.282-41.562 36.282-8.289 0-16.097-2.163-22.584-5.887-5.886 3.484-12.132 3.364-15.856 2.884-1.08-.121-1.321-1.442-.48-2.043 3.603-2.282 5.525-5.526 6.606-8.409zm23.432-28.271c-.315-1.021-1.14-1.782-2.026-1.782h-7.974c-1.014 0-1.736.996-1.642 2.241l-.084 19.42c0 .057.002.111.008.168.14 1.29 1.102 2.34 2.144 2.34h10.178c.993 0 1.697-.961 1.636-2.172l-2.208-20.231a.868.868 0 0 1-.032.016zm30.033 3.285c.943.77 1.667 1.847 1.788 3.316.154 1.878-.604 3.268-2.052 3.961.491.697.981 1.854.698 3.527-.235 1.384-1.122 2.319-2.49 2.695l.002.04a.27.27 0 0 1 0 .018l.001.018.009.179c.349.834.485 1.812.126 2.849-.75 2.153-3.243 2.32-3.99 2.32h-10.96c-2.192 0-6.365-1.565-8.17-2.284l-2.742-20.811c1.316-1.226 5.381-7.906 5.86-10.67.28-1.616.016-2.776-.198-3.71l-.004-.02c-.164-.704-.316-1.372-.152-2.004.372-1.455 2.283-2.118 3.898-2.118.251 0 .497.016.736.046.743.094 1.495.589 2.236 1.471 1.41 1.674 2.837 4.866 2.702 7.483-.09 1.813-.09 3.855-.074 5.158h8.764c1.883 0 3.067.868 3.728 1.597 1.305 1.445 1.63 3.442 1.508 4.714-.09.952-.514 1.706-1.224 2.225z" fill="var(--svg-color)"/></svg>