<?xml version="1.0" encoding="utf-8"?><svg width="30" height="30" fill="none" xmlns="http://www.w3.org/2000/svg" viewBox="0 0 110 110"><path fill-rule="evenodd" clip-rule="evenodd" d="M57.016 20.68c-8.139 0-14.795 6.598-14.795 14.737s6.656 14.737 14.795 14.737c8.14 0 14.795-6.598 14.795-14.737 0-8.14-6.656-14.737-14.795-14.737zm4.26 8.79a1.41 1.41 0 0 1 1.038-.634c.347-.04.697.054.981.264.634.467.779 1.372.322 2.022l-6.364 9.415-.001.002c-.44.661-1.32.833-1.965.383l-4.243-2.897a1.482 1.482 0 0 1-.387-2.026 1.404 1.404 0 0 1 1.978-.396l3.071 2.105 5.57-8.238zM58.412 67.778c0-8.14 6.656-14.737 14.795-14.737s14.795 6.598 14.795 14.737-6.656 14.736-14.795 14.736-14.795-6.597-14.795-14.736zm8.26-6.607a1.54 1.54 0 0 1 2.179 0l4.41 4.411 4.412-4.41a1.54 1.54 0 0 1 2.178 2.177L75.44 67.76l4.41 4.411a1.54 1.54 0 0 1-2.177 2.178l-4.411-4.41-4.411 4.41a1.54 1.54 0 0 1-2.178-2.178l4.41-4.41-4.41-4.412a1.54 1.54 0 0 1 0-2.178zM22 67.537C22 59.398 28.656 52.8 36.795 52.8c8.14 0 14.795 6.598 14.795 14.737s-6.656 14.737-14.795 14.737S22 75.676 22 67.537zm8.261-6.606a1.54 1.54 0 0 1 2.178 0l4.411 4.41 4.411-4.41a1.54 1.54 0 0 1 2.178 2.178l-4.411 4.41 4.41 4.412a1.54 1.54 0 1 1-2.177 2.178l-4.411-4.411-4.411 4.41a1.54 1.54 0 0 1-2.178-2.177l4.411-4.411-4.41-4.411a1.54 1.54 0 0 1 0-2.178z" fill="var(--svg-color)"/></svg>