<?xml version="1.0" encoding="utf-8"?><svg width="25" height="25" fill="none" xmlns="http://www.w3.org/2000/svg" viewBox="0 0 25 25"><rect x="5.887" y="14.162" width="13.026" height=".609" rx=".304" fill="var(--svg-color)"/><rect x="6" y="5" width="13" height="15" rx=".73" stroke="var(--svg-color)" stroke-width=".609"/><path fill-rule="evenodd" clip-rule="evenodd" d="M9.675 8.738L5.83 14.585c-.023.035-.044.112-.063.112h10.016c-.015 0-.03-.054-.048-.078l-4.211-5.912c-.523-.733-1.355-.722-1.85.03" fill="var(--svg-color)"/><path fill-rule="evenodd" clip-rule="evenodd" d="M18.953 14.648v-.153l-1.95-2.794c-.27-.38-.682-.363-.938.026l-1.897 2.921h4.785zM16.144 7.982a1.027 1.027 0 1 1-2.054 0 1.027 1.027 0 0 1 2.054 0" fill="var(--svg-color)"/><rect x="7.35" y="16" width="7.67" height=".609" rx=".304" fill="var(--svg-color)"/><rect x="7.35" y="17.7" width="5.113" height=".609" rx=".304" fill="var(--svg-color)"/></svg>