<?xml version="1.0" encoding="utf-8"?><svg width="25" height="25" fill="none" xmlns="http://www.w3.org/2000/svg" viewBox="0 0 25 25"><rect x="6" y="19.5" width="5" height=".7" rx=".35" fill="var(--svg-color)"/><rect x="6" y="17.5" width="13" height=".7" rx=".35" fill="var(--svg-color)"/><rect x="6" y="15.5" width="13" height=".7" rx=".35" fill="var(--svg-color)"/><rect x="10" y="13.5" width="9" height=".7" rx=".35" fill="var(--svg-color)"/><rect x="6" y="13.5" width="2" height=".7" rx=".35" fill="var(--svg-color)"/><rect x="6" y="5" width="13" height="7" rx=".73" stroke="var(--svg-color)" stroke-width=".609"/><path fill-rule="evenodd" clip-rule="evenodd" d="M8.99 7.138L6.05 11.614c-.018.027-.034.086-.049.086h7.667c-.011 0-.024-.042-.037-.06l-3.223-4.525c-.4-.562-1.037-.553-1.416.023" fill="var(--svg-color)"/><path fill-rule="evenodd" clip-rule="evenodd" d="M17.785 12.223v-.154l-1.95-2.794c-.27-.38-.682-.362-.938.027L13 12.222h4.785zM17.5 7.25a.75.75 0 1 1-1.5 0 .75.75 0 0 1 1.5 0z" fill="var(--svg-color)"/></svg>