<?xml version="1.0" encoding="utf-8"?><svg width="30" height="27.93" fill="none" xmlns="http://www.w3.org/2000/svg" viewBox="0 0 116 108"><path fill-rule="evenodd" clip-rule="evenodd" d="M81.415 85.407c-4.278 0-7.757-3.467-7.757-7.73 0-4.264 3.48-7.732 7.757-7.732 3.938 0 7.163 2.948 7.657 6.74v1.246c0 .126.021.248.037.37-.325 3.966-3.631 7.106-7.694 7.106zm-1.185-44.57l-.639.23-7.494 2.684-.99.354-6.81 2.439-1.32.473-3.62 1.296-4.181 1.497-1.308.468V43.15l3.143-1.126 4.181-1.498 3.62-1.297 1.321-.472 6.81-2.439.99-.355 7.494-2.684.639-.23 7.004-2.508v7.169c-.12.025-.24.047-.359.09l-8.48 3.038zm-39.448 61.947c-4.278 0-7.757-3.468-7.757-7.731 0-4.264 3.479-7.731 7.757-7.731 3.937 0 7.163 2.947 7.657 6.739v1.246c0 .126.02.248.036.37-.324 3.966-3.63 7.107-7.693 7.107zm51.006-78.577c-.644 0-2.614.547-3.074.712l-8.483 3.038-.638.23-7.494 2.683-.99.354-6.81 2.439-1.32.474-3.62 1.295-4.182 1.498-4.536 1.625a2.7 2.7 0 0 0-2.176 2.4c-.007.066-.018.13-.02.196 0 .02-.006.04-.006.06v43.413a12.927 12.927 0 0 0-7.657-2.512c-7.161 0-12.988 5.807-12.988 12.944 0 7.137 5.827 12.944 12.988 12.944 6.78 0 12.354-5.205 12.93-11.816.096-.275.158-.566.158-.873V56.03l3.143-1.126 4.18-1.497 3.621-1.297 1.32-.473 6.81-2.439.99-.355 7.494-2.684.639-.229 7.004-2.509v23.823a12.927 12.927 0 0 0-7.657-2.513c-7.161 0-12.988 5.807-12.988 12.944 0 7.137 5.827 12.944 12.988 12.944 6.779 0 12.354-5.205 12.93-11.816.096-.275.157-.565.157-.873V26.915a2.71 2.71 0 0 0-2.713-2.708z" fill="var(--svg-color)"/><path fill-rule="evenodd" clip-rule="evenodd" d="M51.883 40.237v12.706l41.063-12.706V26.07L51.883 40.237zM40.765 106.138c6.14 0 11.118-5.002 11.118-11.173 0-6.17-4.978-11.172-11.118-11.172-6.14 0-11.118 5.002-11.118 11.172 0 6.171 4.978 11.173 11.118 11.173zM81.53 89.38c6.14 0 11.118-5.003 11.118-11.173S87.671 67.035 81.53 67.035c-6.14 0-11.117 5.002-11.117 11.172 0 6.17 4.977 11.172 11.117 11.172z" fill="var(--svg-color)"/><path fill-rule="evenodd" clip-rule="evenodd" d="M74.173 22.023l18.253 18.342a1.1 1.1 0 0 0 1.561 0l18.253-18.343c5.013-5.037 5.013-13.206 0-18.244a12.793 12.793 0 0 0-18.155 0c-.695.699-.878 1.005-.878 1.005s-.553-.677-.879-1.005a12.793 12.793 0 0 0-18.155 0c-5.013 5.038-5.013 13.207 0 18.244z" fill="var(--svg-color)"/><rect x="16" y="21" width="47" height="5.59" rx="2.795" fill="var(--svg-color)"/><rect x="17" y="38" width="20" height="5.59" rx="2.795" fill="var(--svg-color)"/><rect x="17" y="55" width="20" height="5.59" rx="2.795" fill="var(--svg-color)"/><rect x="17" y="72" width="20" height="5.59" rx="2.795" fill="var(--svg-color)"/><path fill-rule="evenodd" clip-rule="evenodd" d="M5.5 28.826c3.038 0 5.501-2.475 5.501-5.528 0-3.053-2.463-5.527-5.5-5.527C2.463 17.77 0 20.244 0 23.297s2.463 5.528 5.5 5.528zM5.5 45.584c3.038 0 5.501-2.475 5.501-5.528 0-3.052-2.463-5.527-5.5-5.527C2.463 34.529 0 37.004 0 40.056c0 3.053 2.463 5.528 5.5 5.528zM5.5 62.343c3.038 0 5.501-2.475 5.501-5.528 0-3.053-2.463-5.527-5.5-5.527C2.463 51.288 0 53.762 0 56.815s2.463 5.528 5.5 5.528zM5.5 79.102c3.038 0 5.501-2.475 5.501-5.528 0-3.053-2.463-5.528-5.5-5.528C2.463 68.046 0 70.521 0 73.574c0 3.053 2.463 5.528 5.5 5.528z" fill="var(--svg-color)"/></svg>