<?xml version="1.0" encoding="utf-8"?><svg width="30" height="30" fill="none" xmlns="http://www.w3.org/2000/svg" viewBox="0 0 194 194"><path fill-rule="evenodd" clip-rule="evenodd" d="M121.912 110.604H109.36a3.588 3.588 0 1 1 0-7.174h12.552a3.59 3.59 0 0 1 3.591 3.587 3.589 3.589 0 0 1-3.591 3.587zM89.045 90.313a3.589 3.589 0 0 1-3.59-3.587V74.188a3.589 3.589 0 0 1 3.59-3.587 3.589 3.589 0 0 1 3.591 3.587v12.538a3.589 3.589 0 0 1-3.59 3.587zM89.71 56.28a3.565 3.565 0 0 1-5.082.014c-1.375-1.373-1.375-3.692 0-5.065a3.57 3.57 0 0 1 5.055-.014 3.563 3.563 0 0 1 .027 5.064zm5.065-10.123c-4.19-4.21-11.037-4.21-15.227 0-4.19 4.185-4.19 11.024 0 15.21a10.71 10.71 0 0 0 7.613 3.156 10.71 10.71 0 0 0 7.614-3.156c4.214-4.185 4.214-11.025 0-15.21zM134.754 83.139a3.59 3.59 0 0 1 3.591 3.587 3.59 3.59 0 0 1-3.591 3.587 3.589 3.589 0 0 1-3.591-3.587 3.589 3.589 0 0 1 3.591-3.587zM109.359 57.773a3.589 3.589 0 0 1 3.591 3.587 3.589 3.589 0 0 1-3.591 3.587 3.59 3.59 0 0 1-3.591-3.587 3.59 3.59 0 0 1 3.591-3.587zM134.754 123.723a3.59 3.59 0 0 1 3.591 3.587 3.59 3.59 0 0 1-3.591 3.587 3.589 3.589 0 0 1-3.591-3.587 3.589 3.589 0 0 1 3.591-3.587zM68.732 57.773a3.59 3.59 0 0 1 3.59 3.587 3.59 3.59 0 0 1-3.59 3.587 3.59 3.59 0 0 1-3.591-3.587 3.59 3.59 0 0 1 3.59-3.587zM138.345 54.185a3.588 3.588 0 0 1-3.591-3.588V47.01a3.588 3.588 0 0 1 3.591-3.587 3.588 3.588 0 0 1 3.591 3.587v3.587a3.588 3.588 0 0 1-3.591 3.588zM138.345 72.12a3.588 3.588 0 0 1-3.591-3.587v-3.587a3.588 3.588 0 0 1 3.591-3.587 3.588 3.588 0 0 1 3.591 3.587v3.587a3.588 3.588 0 0 1-3.591 3.588zM131.163 61.359h-3.591a3.59 3.59 0 0 1-3.592-3.587 3.59 3.59 0 0 1 3.592-3.587h3.591a3.588 3.588 0 0 1 0 7.174zM149.119 61.359h-3.591a3.588 3.588 0 1 1 0-7.174h3.591a3.59 3.59 0 0 1 3.591 3.587 3.59 3.59 0 0 1-3.591 3.587zM144.775 108.891a3.561 3.561 0 0 1-5.082.016c-1.375-1.373-1.375-3.692 0-5.065a3.57 3.57 0 0 1 5.054-.014 3.56 3.56 0 0 1 .028 5.063zm5.065-10.12c-4.19-4.21-11.037-4.21-15.227 0-4.189 4.184-4.189 11.024 0 15.209a10.711 10.711 0 0 0 7.614 3.157 10.71 10.71 0 0 0 7.613-3.157c4.213-4.185 4.213-11.025 0-15.21zM100.691 98.973c-.919 0-1.838-.35-2.539-1.051a3.583 3.583 0 0 1 0-5.073l22.418-22.394a3.593 3.593 0 0 1 5.078 0 3.583 3.583 0 0 1 0 5.073L103.23 97.921a3.58 3.58 0 0 1-2.539 1.052z" fill="var(--svg-color)"/><path fill-rule="evenodd" clip-rule="evenodd" d="M98.152 97.922c.701.7 1.62 1.05 2.539 1.05.918 0 1.838-.35 2.539-1.05l22.418-22.394a3.583 3.583 0 0 0 0-5.073L98.152 97.922zM70.883 134.539v10.128l-23.091 8.122c-1.42.5-2.811.069-3.726-.839-.922-.916-1.357-2.313-.854-3.738l8.14-23.04h10.163l4.675 4.675 4.693 4.692z" fill="var(--svg-color)"/><path fill-rule="evenodd" clip-rule="evenodd" d="M70.882 134.539v10.128l-23.091 8.122c-1.42.499-2.81.069-3.725-.84l22.124-22.102 4.692 4.692zM60.636 111.613l23.834 23.818h12.632l13.451-4.735a3.616 3.616 0 0 0 2.202-4.592l-42.83-42.76c-1.862-.667-3.925.309-4.573 2.177L60.636 98.87v12.744-.001z" fill="var(--svg-color)"/><path fill-rule="evenodd" clip-rule="evenodd" d="M84.47 135.431h12.632l13.451-4.735a3.614 3.614 0 0 0 2.202-4.591l-21.414-21.38-18.803 18.783 11.932 11.923z" fill="var(--svg-color)"/><path fill-rule="evenodd" clip-rule="evenodd" d="M60.611 98.913l-9.264 26.259 19.535 19.491.072-.024 26.192-9.232L60.61 98.913z" fill="var(--svg-color)"/><path fill-rule="evenodd" clip-rule="evenodd" d="M70.882 144.663l.072-.024 26.191-9.231-18.26-18.241-17.77 17.751 9.767 9.745zM114.439 135.971a3.583 3.583 0 0 1-2.539-1.052L61.113 84.188a3.583 3.583 0 0 1 0-5.073 3.593 3.593 0 0 1 5.078 0l50.787 50.732a3.583 3.583 0 0 1 0 5.073 3.583 3.583 0 0 1-2.539 1.051z" fill="var(--svg-color)"/><path fill-rule="evenodd" clip-rule="evenodd" d="M111.9 134.92a3.587 3.587 0 0 0 2.539 1.051c.919 0 1.838-.351 2.539-1.051a3.583 3.583 0 0 0 0-5.073l-25.393-25.366-5.078 5.073L111.9 134.92z" fill="var(--svg-color)"/></svg>