<?xml version="1.0" encoding="utf-8"?><svg width="30" height="27.58" fill="none" xmlns="http://www.w3.org/2000/svg" viewBox="0 0 124 114"><path fill-rule="evenodd" clip-rule="evenodd" d="M61.678 49.632a37.044 37.044 0 0 1 24.981-9.625c4.185 0 8.203.698 11.955 1.968.248-1.717.383-3.47.383-5.255C98.997 16.44 82.424 0 61.98 0 41.535 0 24.96 16.44 24.96 36.72c0 1.718.129 3.406.359 5.06a37.255 37.255 0 0 1 11.377-1.773 37.046 37.046 0 0 1 24.981 9.625zM49.962 77.28c0-1.785.135-3.538.383-5.255-13.023-4.408-22.774-15.807-24.705-29.692C10.764 47.096 0 60.939 0 77.28 0 97.56 16.574 114 37.018 114A37.05 37.05 0 0 0 62 104.375c-7.397-6.714-12.037-16.366-12.037-27.096zM98.937 42.334c-2.023 14-12.006 25.448-25.257 29.69a36.69 36.69 0 0 1 .358 5.061c0 10.73-4.64 20.382-12.036 27.096a37.049 37.049 0 0 0 24.98 9.625c20.445 0 37.018-16.44 37.018-36.72 0-16.13-10.487-29.82-25.063-34.752z" fill="var(--svg-color)"/><path fill-rule="evenodd" clip-rule="evenodd" d="M61.577 49.522c-6.166 5.597-10.41 13.238-11.654 21.841a37.232 37.232 0 0 0 11.955 1.968c3.97 0 7.792-.627 11.378-1.775-1.207-8.681-5.467-16.395-11.679-22.034z" fill="var(--svg-color)"/></svg>