<?xml version="1.0" encoding="utf-8"?><svg width="30" height="28.5" fill="none" xmlns="http://www.w3.org/2000/svg" viewBox="0 0 120 114"><path fill-rule="evenodd" clip-rule="evenodd" d="M103.76 42.85l14.688 11.046a3.879 3.879 0 0 1-.001 6.206l-14.688 11.05 5.361 17.54a3.882 3.882 0 0 1-.58 3.418 3.907 3.907 0 0 1-3.09 1.605l-18.413.331-6.004 17.33a3.9 3.9 0 0 1-2.49 2.431 3.896 3.896 0 0 1-3.445-.511L60 102.784l-15.097 10.512a3.925 3.925 0 0 1-3.447.51 3.893 3.893 0 0 1-2.49-2.431l-6.003-17.33-18.413-.331a3.923 3.923 0 0 1-3.09-1.605 3.864 3.864 0 0 1-.58-3.418l5.361-17.54-14.688-11.05A3.88 3.88 0 0 1 0 56.999c0-1.218.576-2.367 1.553-3.103L16.24 42.847l-5.36-17.531a3.886 3.886 0 0 1 .58-3.423 3.914 3.914 0 0 1 3.089-1.6l18.413-.337 6.004-17.334a3.899 3.899 0 0 1 2.49-2.43 3.903 3.903 0 0 1 3.446.514L60 11.214 75.098.706a3.93 3.93 0 0 1 3.447-.514 3.9 3.9 0 0 1 2.49 2.43l6.003 17.338 18.413.332a3.925 3.925 0 0 1 3.089 1.6 3.87 3.87 0 0 1 .58 3.423l-5.36 17.535zm-55.37-.216c0 2.006-1.642 3.69-3.739 3.69-2.096 0-3.738-1.684-3.738-3.69 0-2.006 1.642-3.69 3.738-3.69 2.097 0 3.738 1.684 3.738 3.69zm9.285 0c0 7.166-5.831 12.976-13.024 12.976-7.192 0-13.023-5.81-13.023-12.976 0-7.166 5.83-12.975 13.023-12.975s13.024 5.81 13.024 12.975zm18.604 35.203c2.097 0 3.738-1.685 3.738-3.69 0-2.007-1.641-3.691-3.738-3.691s-3.738 1.684-3.738 3.69c0 2.006 1.641 3.69 3.738 3.69zm0 9.285c7.193 0 13.023-5.81 13.023-12.976 0-7.166-5.83-12.975-13.023-12.975S63.256 66.98 63.256 74.146c0 7.166 5.83 12.976 13.023 12.976zm-42.304-9.899a4.872 4.872 0 0 0 0 6.908 4.915 4.915 0 0 0 6.934 0l43.415-43.256a4.872 4.872 0 0 0 0-6.908 4.916 4.916 0 0 0-6.934 0L33.975 77.223z" fill="var(--svg-color)"/></svg>