<?xml version="1.0" encoding="utf-8"?><svg width="30" height="30" fill="none" xmlns="http://www.w3.org/2000/svg" viewBox="0 0 194 194"><path fill-rule="evenodd" clip-rule="evenodd" d="M143.656 93.477c.742 0 1.344-.604 1.344-1.348V50.347c0-.744-.602-1.347-1.344-1.347h-41.314c-.743 0-1.344.603-1.344 1.347V92.13c0 .744.601 1.348 1.344 1.348h41.314zm-2.293-11.302h-36.729V53.01h36.729v29.165z" fill="var(--svg-color)"/><path fill-rule="evenodd" clip-rule="evenodd" d="M115.498 65.649l-11.045 16.844c-.066.102-.126.323-.182.323h28.781c-.043 0-.089-.156-.137-.224l-12.101-17.031c-1.501-2.112-3.894-2.079-5.316.088z" fill="var(--svg-color)"/><path fill-rule="evenodd" clip-rule="evenodd" d="M141.282 82.65v-.524l-6.633-9.532c-.92-1.294-2.324-1.236-3.195.091l-6.455 9.964h16.283zM135.624 59.794a3.498 3.498 0 0 1-3.494 3.503 3.498 3.498 0 0 1-3.494-3.503 3.498 3.498 0 0 1 3.494-3.503 3.498 3.498 0 0 1 3.494 3.503zM91.658 93.477c.742 0 1.344-.604 1.344-1.348V50.347c0-.744-.602-1.347-1.344-1.347H50.344c-.742 0-1.344.603-1.344 1.347V92.13c0 .744.602 1.348 1.344 1.348h41.314zm-2.292-11.302h-36.73V53.01h36.73v29.165z" fill="var(--svg-color)"/><path fill-rule="evenodd" clip-rule="evenodd" d="M63.5 65.649L52.456 82.493c-.067.102-.127.323-.183.323h28.782c-.044 0-.09-.156-.138-.224l-12.1-17.031c-1.502-2.112-3.894-2.079-5.317.088z" fill="var(--svg-color)"/><path fill-rule="evenodd" clip-rule="evenodd" d="M89.284 82.65v-.524l-6.633-9.532c-.92-1.294-2.323-1.236-3.195.091l-6.455 9.964h16.283zM83.627 59.794a3.499 3.499 0 0 1-3.495 3.503 3.499 3.499 0 0 1-3.494-3.503 3.499 3.499 0 0 1 3.494-3.503 3.499 3.499 0 0 1 3.495 3.503zM91.658 144c.742 0 1.344-.603 1.344-1.347V100.87c0-.744-.602-1.347-1.344-1.347H50.344c-.742 0-1.344.603-1.344 1.347v41.783c0 .744.602 1.347 1.344 1.347h41.314zm-2.292-11.301h-36.73v-29.165h36.73v29.165z" fill="var(--svg-color)"/><path fill-rule="evenodd" clip-rule="evenodd" d="M63.527 115.665l-11.34 17.009c-.068.102-.13.326-.187.326h29.55c-.044 0-.09-.158-.14-.226l-12.424-17.198c-1.542-2.133-3.998-2.099-5.459.089z" fill="var(--svg-color)"/><path fill-rule="evenodd" clip-rule="evenodd" d="M90 132.831v-.528l-6.81-9.625c-.945-1.307-2.386-1.249-3.28.092l-6.628 10.061H90zM83.626 110.318a3.498 3.498 0 0 1-3.494 3.503 3.498 3.498 0 0 1-3.494-3.503 3.498 3.498 0 0 1 3.494-3.503 3.498 3.498 0 0 1 3.494 3.503zM143.658 144c.742 0 1.344-.603 1.344-1.347V100.87c0-.744-.602-1.347-1.344-1.347h-41.314c-.742 0-1.344.603-1.344 1.347v41.783c0 .744.602 1.347 1.344 1.347h41.314zm-2.292-11.301h-36.729v-29.165h36.729v29.165z" fill="var(--svg-color)"/><path fill-rule="evenodd" clip-rule="evenodd" d="M115.527 115.665l-11.34 17.009c-.068.102-.129.326-.187.326h29.551c-.045 0-.092-.158-.142-.226l-12.423-17.198c-1.542-2.133-3.998-2.099-5.459.089z" fill="var(--svg-color)"/><path fill-rule="evenodd" clip-rule="evenodd" d="M142 132.831v-.528l-6.81-9.625c-.945-1.307-2.386-1.249-3.281.092l-6.627 10.061H142zM135.626 110.318a3.498 3.498 0 0 1-3.494 3.503 3.498 3.498 0 0 1-3.494-3.503 3.498 3.498 0 0 1 3.494-3.503 3.498 3.498 0 0 1 3.494 3.503z" fill="var(--svg-color)"/></svg>