<?xml version="1.0" encoding="utf-8"?><svg width="25" height="25" fill="none" xmlns="http://www.w3.org/2000/svg" viewBox="0 0 25 25"><path fill-rule="evenodd" clip-rule="evenodd" d="M10.459 17.846v.629c0 .735.392 1.054.989 1.181a.983.983 0 0 0 .92.705.982.982 0 0 0 .922-.705c.597-.127.989-.446.989-1.181v-.629h-3.82zM12.305 7.787a4.416 4.416 0 0 1 4.52 4.401c0 1.446-.7 2.766-1.847 3.52-.445.378-.7.944-.7 1.51h-3.82c0-.566-.254-1.132-.763-1.51-1.146-.817-1.846-2.2-1.783-3.709.064-2.263 2.037-4.149 4.393-4.212zm.07 1.963c.207 0 .375.168.375.375V12h1.875a.375.375 0 0 1 0 .75H12.75v1.875a.375.375 0 0 1-.75 0V12.75h-1.875a.375.375 0 0 1 0-.75H12v-1.875c0-.207.168-.375.375-.375zM15.237 6.371l.412-.674a.345.345 0 0 1 .469-.128.326.326 0 0 1 .13.456l-.412.674c-.056.11-.187.164-.3.164a.56.56 0 0 1-.168-.036.326.326 0 0 1-.131-.456zM9.163 6.7c.056.109.187.163.3.163a.56.56 0 0 0 .168-.036.326.326 0 0 0 .131-.456l-.412-.674a.345.345 0 0 0-.469-.128.326.326 0 0 0-.13.456l.412.674zM12.5 6.08a.331.331 0 0 0 .336-.329v-.784a.331.331 0 0 0-.337-.328.332.332 0 0 0-.337.328v.784c-.019.182.13.328.337.328zM6.427 11.311H5.62a.331.331 0 0 0-.338.328c0 .183.15.329.338.329h.806a.332.332 0 0 0 .337-.329.331.331 0 0 0-.337-.328zM19.378 11.311h-.806a.331.331 0 0 0-.338.328c0 .183.15.329.338.329h.806a.332.332 0 0 0 .337-.329.331.331 0 0 0-.337-.328zM18.76 8.14a.346.346 0 0 0-.468-.128l-.694.4a.326.326 0 0 0-.131.456c.056.11.188.165.3.165.056 0 .112-.019.169-.037l.693-.401a.326.326 0 0 0 .131-.456zM7.4 8.413l-.693-.401a.345.345 0 0 0-.468.127.326.326 0 0 0 .13.456l.694.401c.056.037.113.037.169.037.112 0 .244-.055.3-.165a.326.326 0 0 0-.131-.455z" fill="var(--svg-color)"/></svg>