<?xml version="1.0" encoding="utf-8"?><svg width="30" height="30" fill="none" xmlns="http://www.w3.org/2000/svg" viewBox="0 0 70 70"><path fill-rule="evenodd" clip-rule="evenodd" d="M35.183 41.798a.93.93 0 0 1 .93-.93h11.801a.93.93 0 0 1 .93.93v9.2a.93.93 0 0 1-.93.929H36.112a.93.93 0 0 1-.929-.93v-9.2zm4.552 2.323a.65.65 0 1 1 1.3 0v4.553a.65.65 0 0 1-1.3 0v-4.553zm3.905-.65a.65.65 0 0 0-.65.65v4.553a.65.65 0 1 0 1.3 0v-4.553a.65.65 0 0 0-.65-.65zM33.886 43.47H15.994a2.927 2.927 0 1 0 0 5.855h17.892V43.47zm16.262 5.855h2.925a2.927 2.927 0 0 0 0-5.855h-2.925v5.855z" fill="var(--svg-color)"/><path d="M45.916 16.8c-5.569 0-10.083 4.514-10.083 10.083 0 5.568 4.514 10.083 10.083 10.083s10.083-4.515 10.083-10.083c0-5.569-4.515-10.083-10.083-10.083zm-5.041 5.381a2.52 2.52 0 0 1 2.52 0 2.52 2.52 0 0 1 1.26 2.199.63.63 0 0 1-1.26-.018 1.258 1.258 0 1 0-2.52.02.63.63 0 1 1-1.26-.02c0-.9.48-1.731 1.26-2.18zm10.082 5.962a5.041 5.041 0 1 1-10.083 0h10.083zm0-3.78a1.258 1.258 0 1 0-2.52 0v.019a.63.63 0 1 1-1.26-.02 2.52 2.52 0 1 1 5.04.018.63.63 0 0 1-1.26-.018zM23.083 16.8c-5.526 0-10.018 4.493-10.018 10.018s4.492 10.018 10.018 10.018c5.525 0 10.017-4.493 10.017-10.018S28.608 16.8 23.083 16.8zm0 1.252a8.756 8.756 0 0 1 8.765 8.766 8.756 8.756 0 0 1-8.765 8.765 8.756 8.756 0 0 1-8.766-8.765 8.756 8.756 0 0 1 8.766-8.766zm-5.645 5.01a.626.626 0 0 0-.616.635c0 .894.478 1.722 1.252 2.17.774.446 1.73.446 2.504 0a2.508 2.508 0 0 0 1.252-2.17.626.626 0 1 0-1.252 0 1.25 1.25 0 1 1-2.504 0 .626.626 0 0 0-.636-.636zm7.513 0a.626.626 0 0 0-.616.635c0 .894.478 1.722 1.252 2.17.774.446 1.73.446 2.504 0a2.508 2.508 0 0 0 1.253-2.17.626.626 0 1 0-1.253 0 1.25 1.25 0 1 1-2.504 0 .626.626 0 0 0-.636-.636zm-1.864 5.008a6.266 6.266 0 0 0-5.383 3.06.626.626 0 1 0 1.076.638 5.008 5.008 0 0 1 8.61.005c.172.3.555.403.854.23h.002a.626.626 0 0 0 .229-.856l-.01-.015a6.26 6.26 0 0 0-5.378-3.062z" fill="var(--svg-color)"/></svg>