<?xml version="1.0" encoding="utf-8"?><svg width="25" height="25" fill="none" xmlns="http://www.w3.org/2000/svg" viewBox="0 0 25 25"><rect x="6" y="5" width="13" height="15" rx=".73" stroke="var(--svg-color)" stroke-width=".609"/><path fill-rule="evenodd" clip-rule="evenodd" d="M9.675 13.738L5.83 19.585c-.023.035-.044.112-.063.112h10.016c-.015 0-.03-.054-.048-.078l-4.211-5.912c-.523-.733-1.355-.722-1.85.03" fill="var(--svg-color)"/><path fill-rule="evenodd" clip-rule="evenodd" d="M18.953 19.723v-.154l-1.95-2.794c-.27-.38-.682-.362-.938.027l-1.897 2.92h4.785zM16 9.5a1.5 1.5 0 1 1-3 0 1.5 1.5 0 0 1 3 0" fill="var(--svg-color)"/></svg>