<?xml version="1.0" encoding="utf-8"?><svg width="30" height="30" fill="none" xmlns="http://www.w3.org/2000/svg" viewBox="0 0 194 194"><path fill-rule="evenodd" clip-rule="evenodd" d="M93.763 101.378h-3.197v-8.949c0-.146.045-12.409 13.574-12.409h27.246c.082 0 8.417-.12 8.417-10.484 0-9.605-6.88-9.715-6.88-9.715v-3.164c3.197 0 10.077 2.69 10.077 12.879 0 6.118-2.568 9.412-4.647 11.096-2.323 1.882-5.165 2.552-6.967 2.552H104.14c-10.166 0-10.377 8.324-10.377 9.274v8.92z" fill="var(--svg-color)"/><path fill-rule="evenodd" clip-rule="evenodd" d="M133.475 56.616c0 6.968-6.241 12.616-13.941 12.616H70.941C63.24 69.232 57 63.584 57 56.616S63.242 44 70.94 44h48.594c7.7 0 13.941 5.648 13.941 12.616z" fill="var(--svg-color)"/><path fill-rule="evenodd" clip-rule="evenodd" d="M64.283 69.455c0 2.365-1.486 4.282-3.32 4.282h-.642c-1.834 0-3.321-1.917-3.321-4.282V58.194c0-2.365 1.487-4.282 3.321-4.282h.641c1.835 0 3.321 1.917 3.321 4.282v11.261zM80.976 81.888c0 1.792-1.468 3.246-3.28 3.246h-.633c-1.812 0-3.28-1.454-3.28-3.246V65.44c0-1.793 1.468-3.246 3.28-3.246h.633c1.812 0 3.28 1.453 3.28 3.246v16.448zM80.976 96.918c0 1.792-1.468 3.246-3.28 3.246h-.633c-1.812 0-3.28-1.454-3.28-3.246v-3.792c0-1.792 1.468-3.245 3.28-3.245h.633c1.812 0 3.28 1.453 3.28 3.245v3.792zM98.879 69.65c0 2.257-1.487 4.088-3.321 4.088h-.641c-1.835 0-3.321-1.831-3.321-4.088V58.9c0-2.257 1.486-4.086 3.32-4.086h.642c1.834 0 3.321 1.83 3.321 4.086v10.75zM109.746 73.978c0 1.792-1.468 3.246-3.279 3.246h-.633c-1.812 0-3.28-1.454-3.28-3.246V65.44c0-1.793 1.468-3.246 3.28-3.246h.633c1.811 0 3.279 1.453 3.279 3.246v8.538zM120.935 73.978c0 1.792-1.468 3.246-3.279 3.246h-.633c-1.812 0-3.28-1.454-3.28-3.246V65.44c0-1.793 1.468-3.246 3.28-3.246h.633c1.811 0 3.279 1.453 3.279 3.246v8.538zM99.357 143.258c0 3.723-3.05 6.742-6.811 6.742h-.763c-3.762 0-6.811-3.019-6.811-6.742v-37.143c0-3.723 3.05-6.742 6.811-6.742h.763c3.761 0 6.811 3.019 6.811 6.742v37.143z" fill="var(--svg-color)"/></svg>