<?xml version="1.0" encoding="utf-8"?><svg width="23.29" height="30" fill="none" xmlns="http://www.w3.org/2000/svg" viewBox="0 0 66 85"><path d="M44.221 30.357a2.21 2.21 0 0 0 4.107 0l3.435-8.594 8.594-3.435a2.21 2.21 0 0 0 0-4.107l-8.594-3.434-3.435-8.594a2.21 2.21 0 0 0-4.107 0l-3.434 8.594-8.594 3.434a2.21 2.21 0 0 0 0 4.107l8.593 3.435 3.435 8.594zm-.914-15.817a2.223 2.223 0 0 0 1.233-1.234l1.735-4.34 1.735 4.34a2.223 2.223 0 0 0 1.233 1.234l4.341 1.735-4.34 1.735a2.224 2.224 0 0 0-1.234 1.233l-1.735 4.341-1.735-4.34a2.223 2.223 0 0 0-1.234-1.234l-4.34-1.735 4.34-1.735z" fill="var(--svg-color)"/><path fill-rule="evenodd" clip-rule="evenodd" d="M13.78 60.882c-3.388-3.672-5.435-8.332-5.435-13.416 0-11.792 10.943-21.394 24.427-21.394 13.485 0 24.428 9.602 24.428 21.394 0 11.792-11.014 21.324-24.428 21.324-4.871 0-9.46-1.271-13.273-3.46-3.459 2.048-7.13 1.977-9.319 1.695-.635-.071-.776-.848-.282-1.2 2.118-1.342 3.247-3.249 3.883-4.943" fill="var(--svg-color)"/><path d="M56.032 83.608a1.257 1.257 0 0 0 2.336 0l1.953-4.887 4.887-1.953a1.257 1.257 0 0 0 0-2.336l-4.887-1.953-1.953-4.887a1.257 1.257 0 0 0-2.336 0L54.08 72.48l-4.887 1.953a1.257 1.257 0 0 0 0 2.336l4.887 1.953 1.953 4.887zm-.52-8.995c.32-.128.573-.382.701-.701l.987-2.469.987 2.469c.128.32.382.573.701.701l2.469.987-2.469.987c-.32.128-.573.382-.701.701l-.987 2.469-.987-2.469a1.264 1.264 0 0 0-.701-.701l-2.469-.987 2.469-.987zM7.632 30.808a1.257 1.257 0 0 0 2.336 0l1.953-4.887 4.887-1.953a1.257 1.257 0 0 0 0-2.336l-4.887-1.953-1.953-4.887a1.257 1.257 0 0 0-2.336 0L5.68 19.68.792 21.632a1.257 1.257 0 0 0 0 2.336L5.68 25.92l1.953 4.887zm-.52-8.995c.32-.128.573-.381.701-.701l.987-2.469.987 2.469c.128.32.382.573.701.701l2.469.987-2.469.987c-.32.128-.573.382-.701.701L8.8 26.957l-.987-2.469a1.265 1.265 0 0 0-.701-.701L4.643 22.8l2.469-.987z" fill="var(--svg-color)"/></svg>