<?xml version="1.0" encoding="utf-8"?><svg width="30" height="30" fill="none" xmlns="http://www.w3.org/2000/svg" viewBox="0 0 194 194"><path fill-rule="evenodd" clip-rule="evenodd" d="M143.656 93.477c.742 0 1.344-.604 1.344-1.348V50.347c0-.744-.602-1.347-1.344-1.347h-41.314c-.743 0-1.344.603-1.344 1.347V92.13c0 .744.601 1.348 1.344 1.348h41.314zm-2.293-11.302h-36.729V53.01h36.729v29.165z" fill="var(--svg-color)"/><path fill-rule="evenodd" clip-rule="evenodd" d="M115.498 65.649l-11.045 16.844c-.066.102-.126.323-.182.323h28.781c-.043 0-.089-.156-.137-.224l-12.101-17.031c-1.501-2.112-3.894-2.079-5.316.088z" fill="var(--svg-color)"/><path fill-rule="evenodd" clip-rule="evenodd" d="M141.282 82.65v-.524l-6.633-9.532c-.92-1.294-2.324-1.236-3.195.091l-6.455 9.964h16.283zM135.624 59.794a3.498 3.498 0 0 1-3.494 3.503 3.498 3.498 0 0 1-3.494-3.503 3.498 3.498 0 0 1 3.494-3.503 3.498 3.498 0 0 1 3.494 3.503zM91.658 93.477c.742 0 1.344-.604 1.344-1.348V50.347c0-.744-.602-1.347-1.344-1.347H50.344c-.742 0-1.344.603-1.344 1.347V92.13c0 .744.602 1.348 1.344 1.348h41.314zm-2.292-11.302h-36.73V53.01h36.73v29.165z" fill="var(--svg-color)"/><path d="M81.458 64.436a1.541 1.541 0 0 0-1.248-1.063l-5.313-.78-2.375-4.838a1.536 1.536 0 0 0-1.387-.867c-.59 0-1.122.33-1.392.867l-2.374 4.839-5.317.78a1.542 1.542 0 0 0-1.243 1.065c-.18.566-.03 1.175.392 1.587l3.842 3.772-.906 5.323a1.55 1.55 0 0 0 1.523 1.816c.248 0 .497-.062.72-.18l4.753-2.51 4.753 2.51c.223.118.471.18.719.18a1.55 1.55 0 0 0 1.523-1.816l-.906-5.322 3.84-3.772a1.552 1.552 0 0 0 .396-1.591z" fill="var(--svg-color)"/><path fill-rule="evenodd" clip-rule="evenodd" d="M91.658 144c.742 0 1.344-.603 1.344-1.347V100.87c0-.744-.602-1.347-1.344-1.347H50.344c-.742 0-1.344.603-1.344 1.347v41.783c0 .744.602 1.347 1.344 1.347h41.314zm-2.292-11.301h-36.73v-29.165h36.73v29.165z" fill="var(--svg-color)"/><path fill-rule="evenodd" clip-rule="evenodd" d="M63.527 115.665l-11.34 17.009c-.068.102-.13.326-.187.326h29.55c-.044 0-.09-.158-.14-.226l-12.424-17.198c-1.542-2.133-3.998-2.099-5.459.089z" fill="var(--svg-color)"/><path fill-rule="evenodd" clip-rule="evenodd" d="M90 132.831v-.528l-6.81-9.625c-.945-1.307-2.386-1.249-3.28.092l-6.628 10.061H90zM83.626 110.318a3.498 3.498 0 0 1-3.494 3.503 3.498 3.498 0 0 1-3.494-3.503 3.498 3.498 0 0 1 3.494-3.503 3.498 3.498 0 0 1 3.494 3.503zM143.656 144c.742 0 1.344-.603 1.344-1.347V100.87c0-.744-.602-1.347-1.344-1.347h-41.314c-.743 0-1.344.603-1.344 1.347v41.783c0 .744.601 1.347 1.344 1.347h41.314zm-2.293-11.301h-36.729v-29.165h36.729v29.165z" fill="var(--svg-color)"/><path d="M133.455 114.959a1.54 1.54 0 0 0-1.248-1.062l-5.313-.78-2.375-4.838a1.535 1.535 0 0 0-1.386-.867 1.55 1.55 0 0 0-1.392.867l-2.375 4.838-5.317.78a1.544 1.544 0 0 0-1.243 1.066 1.55 1.55 0 0 0 .393 1.586l3.841 3.773-.905 5.322a1.549 1.549 0 0 0 2.243 1.637l4.752-2.51 4.753 2.51c.223.118.472.18.719.18.457 0 .889-.204 1.186-.558.292-.348.415-.807.338-1.258l-.906-5.323 3.84-3.771a1.553 1.553 0 0 0 .395-1.592z" fill="var(--svg-color)"/></svg>