<?xml version="1.0" encoding="utf-8"?><svg width="30" height="26.07" fill="none" xmlns="http://www.w3.org/2000/svg" viewBox="0 0 84 73"><path fill-rule="evenodd" clip-rule="evenodd" d="M9.25 59.545C3.483 53.297 0 45.368 0 36.718 0 16.656 18.62.317 41.563.317s41.562 16.339 41.562 36.401C83.125 56.781 64.386 73 41.563 73c-8.289 0-16.097-2.162-22.584-5.887-5.886 3.484-12.132 3.364-15.856 2.883-1.08-.12-1.321-1.441-.48-2.042 3.603-2.282 5.525-5.526 6.606-8.41zm30.69-26.62H26.34V20H19v34h7.341V38.863H39.94V54h7.34V20h-7.34v12.925zM53.66 20H61v34h-7.34V20z" fill="var(--svg-color)"/></svg>