<?xml version="1.0" encoding="utf-8"?><svg width="30" height="30" fill="none" xmlns="http://www.w3.org/2000/svg" viewBox="0 0 194 194"><rect x="47.476" y="44" width="22.426" height="22.316" rx="3.548" fill="var(--svg-color)"/><rect x="47.476" y="127.684" width="22.426" height="22.316" rx="3.548" fill="var(--svg-color)"/><path fill-rule="evenodd" clip-rule="evenodd" d="M45.322 77.474A5.322 5.322 0 0 0 40 82.796v28.056a5.322 5.322 0 0 0 5.322 5.322h28.127a5.322 5.322 0 0 0 5.321-5.322V82.796a5.322 5.322 0 0 0-5.321-5.322H45.322zm21.743 8.6a2.541 2.541 0 0 1 1.874-1.146 2.502 2.502 0 0 1 1.77.477c1.144.845 1.404 2.481.581 3.655l-11.479 17.018-.003.005c-.793 1.195-2.38 1.505-3.544.691l-7.653-5.237c-1.177-.813-1.49-2.452-.697-3.661.792-1.209 2.39-1.53 3.567-.716l5.54 3.805 10.044-14.891z" fill="var(--svg-color)"/><rect x="84.853" y="49.579" width="59.803" height="3.719" rx="1.86" fill="var(--svg-color)"/><rect x="84.853" y="131.403" width="59.803" height="3.719" rx="1.86" fill="var(--svg-color)"/><rect x="94.197" y="88.632" width="59.803" height="5.579" rx="2.789" fill="var(--svg-color)"/><rect x="84.853" y="58.877" width="33.639" height="3.719" rx="1.86" fill="var(--svg-color)"/><rect x="84.853" y="140.702" width="33.639" height="3.719" rx="1.86" fill="var(--svg-color)"/><rect x="94.197" y="99.79" width="33.639" height="5.579" rx="2.789" fill="var(--svg-color)"/></svg>