<?xml version="1.0" encoding="utf-8"?><svg width="30" height="27.89" fill="none" xmlns="http://www.w3.org/2000/svg" viewBox="0 0 114 106"><rect x="7.476" width="22.426" height="22.316" rx="3.548" fill="var(--svg-color)"/><rect x="7.476" y="83.684" width="22.426" height="22.316" rx="3.548" fill="var(--svg-color)"/><path fill-rule="evenodd" clip-rule="evenodd" d="M5.322 33.474A5.322 5.322 0 0 0 0 38.796v28.056a5.322 5.322 0 0 0 5.322 5.322h28.127a5.322 5.322 0 0 0 5.321-5.322V38.795a5.322 5.322 0 0 0-5.321-5.321H5.322zm21.743 8.6a2.541 2.541 0 0 1 1.873-1.146 2.502 2.502 0 0 1 1.771.477c1.144.845 1.404 2.481.581 3.655L19.811 62.078l-.003.005a2.51 2.51 0 0 1-3.544.69L8.61 57.538c-1.178-.813-1.49-2.452-.697-3.661.792-1.209 2.39-1.53 3.567-.716l5.54 3.805 10.044-14.891z" fill="var(--svg-color)"/><rect x="44.852" y="5.579" width="59.803" height="3.719" rx="1.86" fill="var(--svg-color)"/><rect x="44.852" y="87.403" width="59.803" height="3.719" rx="1.86" fill="var(--svg-color)"/><rect x="54.197" y="44.632" width="59.803" height="5.579" rx="2.789" fill="var(--svg-color)"/><rect x="44.852" y="14.877" width="33.639" height="3.719" rx="1.86" fill="var(--svg-color)"/><rect x="44.852" y="96.702" width="33.639" height="3.719" rx="1.86" fill="var(--svg-color)"/><rect x="54.197" y="55.79" width="33.639" height="5.579" rx="2.789" fill="var(--svg-color)"/></svg>