<?xml version="1.0" encoding="utf-8"?><svg width="30" height="30" fill="none" xmlns="http://www.w3.org/2000/svg" viewBox="0 0 194 194"><rect width="194" height="194" rx="50" fill="url(#bgpaint0_linear)"/><path fill-rule="evenodd" clip-rule="evenodd" d="M81.165 138.486v4.879c0 5.706 3.04 8.178 7.671 9.166.875 3.072 3.838 5.469 7.148 5.469 3.311 0 6.274-2.397 7.149-5.469 4.631-.988 7.671-3.46 7.671-9.166v-4.879h-29.64zM130.564 94.58c0-19.026-15.808-34.637-35.074-34.15-18.278.488-33.592 15.124-34.086 32.686-.494 11.709 4.94 22.441 13.832 28.783 3.952 2.927 5.928 7.318 5.928 11.709h29.64c0-4.391 1.976-8.782 5.434-11.709 8.892-5.854 14.326-16.099 14.326-27.32zM118.237 49.44l3.2-5.235c.727-1.273 2.327-1.698 3.636-.99 1.309.707 1.745 2.263 1.018 3.536l-3.2 5.235c-.436.848-1.454 1.273-2.327 1.273-.437 0-.873-.142-1.309-.283-1.309-.707-1.746-2.264-1.018-3.537zM71.109 51.986c.436.848 1.455 1.273 2.327 1.273.437 0 .873-.142 1.31-.283 1.308-.707 1.745-2.264 1.017-3.537l-3.2-5.234c-.727-1.273-2.327-1.698-3.636-.99-1.309.707-1.745 2.263-1.018 3.536l3.2 5.235zM97 47.176c1.455 0 2.618-1.132 2.618-2.547v-6.083C99.618 37.132 98.455 36 97 36c-1.454 0-2.618 1.132-2.618 2.546v6.083c-.146 1.415 1.018 2.547 2.618 2.547zM49.873 87.776h-6.255c-1.454 0-2.618 1.132-2.618 2.547 0 1.414 1.164 2.546 2.618 2.546h6.255c1.454 0 2.618-1.132 2.618-2.546 0-1.415-1.164-2.547-2.618-2.547zM150.382 87.776h-6.255c-1.454 0-2.618 1.132-2.618 2.547 0 1.414 1.164 2.546 2.618 2.546h6.255c1.455 0 2.618-1.132 2.618-2.546 0-1.415-1.163-2.547-2.618-2.547zM145.582 63.161c-.728-1.273-2.328-1.697-3.637-.99l-5.382 3.112c-1.309.708-1.745 2.264-1.018 3.537.437.849 1.455 1.273 2.327 1.273.437 0 .873-.141 1.31-.283l5.381-3.112c1.309-.707 1.746-2.263 1.019-3.537zM57.436 65.283l-5.381-3.112c-1.31-.707-2.91-.283-3.637.99-.727 1.273-.29 2.83 1.018 3.537l5.382 3.112c.437.283.873.283 1.31.283.872 0 1.89-.424 2.327-1.273.727-1.273.29-2.83-1.019-3.537zM78.69 96.031h34.695H78.69z" fill="var(--svg-color)"/><path d="M78.69 96.031h34.695" stroke="#F28098" stroke-width="6.114" stroke-linecap="round"/><path fill-rule="evenodd" clip-rule="evenodd" d="M96.008 78.734v34.654-34.654z" fill="var(--svg-color)"/><path d="M96.008 78.734v34.654" stroke="#F28098" stroke-width="6.114" stroke-linecap="round"/><defs><linearGradient id="bgpaint0_linear" x1="1.448" y1="2.895" x2="1.448" y2="194" gradientUnits="userSpaceOnUse"><stop stop-color="#F99292"/><stop offset="1" stop-color="#EA6C9E"/></linearGradient></defs></svg>