<?xml version="1.0" encoding="utf-8"?><svg width="25" height="25" fill="none" xmlns="http://www.w3.org/2000/svg" viewBox="0 0 25 25"><path fill-rule="evenodd" clip-rule="evenodd" d="M12.163 16.6c-.06-.06-.089-.145-.089-.256v-.842c0-.118.03-.205.089-.26.06-.055.144-.083.255-.083h2.858a.207.207 0 0 0 .155-.067l.078-.077a.227.227 0 0 0 .066-.144v-.033a.172.172 0 0 0-.016-.078.259.259 0 0 0-.05-.066l-.078-.078a.21.21 0 0 0-.155-.067h-1.84a1.5 1.5 0 0 1-.48-.066 1.054 1.054 0 0 1-.394-.266l-.144-.144a1.213 1.213 0 0 1-.277-.377 1.074 1.074 0 0 1-.067-.398v-.554c0-.236.032-.432.094-.588.063-.155.176-.314.339-.476l.265-.266c.17-.17.333-.29.488-.36.155-.07.358-.105.61-.105h3.124c.118 0 .205.027.26.083.055.055.083.142.083.26v.842c0 .111-.028.196-.083.255-.055.06-.142.089-.26.089H14.3a.21.21 0 0 0-.155.066l-.077.078a.268.268 0 0 0-.05.066.172.172 0 0 0-.017.078v.022c0 .022.006.046.017.072.01.026.028.05.05.072l.077.078a.231.231 0 0 0 .072.05.205.205 0 0 0 .083.016h1.84c.192 0 .352.022.482.066.129.045.26.133.393.266l.144.145c.14.14.233.265.277.376.044.111.066.244.066.4v.564c0 .236-.031.432-.094.587a1.487 1.487 0 0 1-.337.477l-.267.266c-.17.17-.332.29-.487.36-.155.07-.358.105-.61.105h-3.29c-.111 0-.196-.03-.255-.089zM8.46 13.847c-.085-.063-.15-.18-.194-.35L6.981 8.602c-.03-.119-.019-.215.033-.288.052-.074.14-.111.266-.111h1.374c.14 0 .24.03.3.089.058.059.102.162.132.31l.776 3.711c.007.037.027.056.06.056.034 0 .054-.019.062-.056l.775-3.711c.03-.148.074-.251.133-.31.059-.06.159-.089.3-.089h1.329c.125 0 .214.037.266.11.051.074.062.17.033.289l-1.285 4.897c-.045.17-.11.286-.194.349-.085.063-.227.094-.427.094H8.887c-.2 0-.342-.032-.427-.094z" fill="var(--svg-color)"/><mask id="ava" maskUnits="userSpaceOnUse" x="4" y="10" width="14" height="11"><path fill-rule="evenodd" clip-rule="evenodd" d="M4.896 10.03h12.248v10.073H4.896V10.029z" fill="var(--svg-color)"/></mask><g mask="url(#ava)"><path fill-rule="evenodd" clip-rule="evenodd" d="M16.316 17.68a6.403 6.403 0 0 1-3.817 1.257A6.444 6.444 0 0 1 6.063 12.5c0-.875.176-1.71.494-2.47H5.31a7.57 7.57 0 0 0-.415 2.47c0 4.192 3.411 7.603 7.603 7.603 1.749 0 3.36-.594 4.645-1.59a1.795 1.795 0 0 1-.828-.834z" fill="var(--svg-color)"/></g><mask id="avb" maskUnits="userSpaceOnUse" x="7" y="4" width="14" height="12"><path fill-rule="evenodd" clip-rule="evenodd" d="M7.102 4.897h13v10.912h-13V4.897z" fill="var(--svg-color)"/></mask><g mask="url(#avb)"><path fill-rule="evenodd" clip-rule="evenodd" d="M12.499 4.897A7.578 7.578 0 0 0 7.102 7.15h1.82A6.398 6.398 0 0 1 12.5 6.063a6.444 6.444 0 0 1 6.437 6.437c0 .951-.21 1.854-.581 2.667.398.098.744.328.988.642a7.559 7.559 0 0 0 .76-3.31c0-4.191-3.411-7.602-7.604-7.602z" fill="var(--svg-color)"/></g><path fill-rule="evenodd" clip-rule="evenodd" d="M6.26 8.7a.5.5 0 0 0 .5.5h1.8a.5.5 0 0 0 .5-.5v-.2a.5.5 0 0 0-.5-.5h-1.8a.5.5 0 0 0-.5.5v.2zM18.809 16.905a.88.88 0 1 1-1.76 0 .88.88 0 0 1 1.76 0z" fill="var(--svg-color)"/></svg>