<?xml version="1.0" encoding="utf-8"?><svg width="30" height="29.38" fill="none" xmlns="http://www.w3.org/2000/svg" viewBox="0 0 97 95"><path fill-rule="evenodd" clip-rule="evenodd" d="M94.656 44.477c.742 0 1.344-.604 1.344-1.348V1.347C96 .603 95.398 0 94.656 0H53.342c-.743 0-1.344.603-1.344 1.347V43.13c0 .744.601 1.348 1.344 1.348h41.314zm-2.293-11.302H55.634V4.01h36.73v29.165z" fill="var(--svg-color)"/><path fill-rule="evenodd" clip-rule="evenodd" d="M66.498 16.649L55.453 33.493c-.067.102-.126.323-.183.323h28.782c-.043 0-.089-.156-.137-.224l-12.1-17.031c-1.502-2.112-3.895-2.079-5.317.088z" fill="var(--svg-color)"/><path fill-rule="evenodd" clip-rule="evenodd" d="M92.282 33.65v-.523l-6.633-9.533c-.92-1.294-2.324-1.236-3.195.091l-6.455 9.964h16.283zM86.624 10.794a3.499 3.499 0 0 1-3.494 3.503 3.499 3.499 0 0 1-3.494-3.503 3.499 3.499 0 0 1 3.494-3.503 3.499 3.499 0 0 1 3.495 3.503zM42.658 44.477c.742 0 1.344-.604 1.344-1.348V1.347C44.002.603 43.4 0 42.658 0H1.344C.602 0 0 .603 0 1.347V43.13c0 .744.602 1.348 1.344 1.348h41.314zm-2.292-11.302H3.636V4.01h36.73v29.165z" fill="var(--svg-color)"/><path fill-rule="evenodd" clip-rule="evenodd" d="M14.5 16.649L3.455 33.493c-.066.102-.126.323-.182.323h28.782c-.044 0-.09-.156-.138-.224l-12.1-17.031c-1.502-2.112-3.894-2.079-5.317.088z" fill="var(--svg-color)"/><path fill-rule="evenodd" clip-rule="evenodd" d="M40.285 33.65v-.523l-6.634-9.533c-.92-1.294-2.323-1.236-3.195.091l-6.454 9.964h16.283zM34.627 10.794a3.499 3.499 0 0 1-3.495 3.503 3.499 3.499 0 0 1-3.494-3.503 3.499 3.499 0 0 1 3.494-3.503 3.499 3.499 0 0 1 3.495 3.503zM42.658 95c.742 0 1.344-.603 1.344-1.347V51.87c0-.744-.602-1.347-1.344-1.347H1.344C.602 50.523 0 51.126 0 51.87v41.783C0 94.397.602 95 1.344 95h41.314zm-2.292-11.301H3.636V54.534h36.73v29.165z" fill="var(--svg-color)"/><path fill-rule="evenodd" clip-rule="evenodd" d="M14.527 66.665L3.187 83.674C3.12 83.776 3.057 84 3 84h29.55c-.044 0-.09-.158-.14-.226L19.985 66.576c-1.542-2.133-3.998-2.099-5.459.089z" fill="var(--svg-color)"/><path fill-rule="evenodd" clip-rule="evenodd" d="M41 83.831v-.528l-6.81-9.625c-.945-1.307-2.386-1.248-3.28.092L24.281 83.83H41zM34.626 61.318a3.499 3.499 0 0 1-3.494 3.503 3.499 3.499 0 0 1-3.494-3.503 3.499 3.499 0 0 1 3.494-3.503 3.499 3.499 0 0 1 3.494 3.503zM94.658 95c.742 0 1.344-.603 1.344-1.347V51.87c0-.744-.602-1.347-1.344-1.347H53.344c-.742 0-1.344.603-1.344 1.347v41.783c0 .744.602 1.347 1.344 1.347h41.314zm-2.292-11.301h-36.73V54.534h36.73v29.165z" fill="var(--svg-color)"/><path fill-rule="evenodd" clip-rule="evenodd" d="M66.527 66.665l-11.34 17.009c-.068.102-.13.326-.187.326h29.55c-.044 0-.09-.158-.14-.226L71.985 66.576c-1.542-2.133-3.998-2.099-5.459.089z" fill="var(--svg-color)"/><path fill-rule="evenodd" clip-rule="evenodd" d="M93 83.831v-.528l-6.81-9.625c-.945-1.307-2.386-1.248-3.28.092L76.281 83.83H93zM86.626 61.318a3.499 3.499 0 0 1-3.494 3.503 3.499 3.499 0 0 1-3.494-3.503 3.499 3.499 0 0 1 3.494-3.503 3.499 3.499 0 0 1 3.494 3.503z" fill="var(--svg-color)"/></svg>