<?xml version="1.0" encoding="utf-8"?><svg width="30" height="30" fill="none" xmlns="http://www.w3.org/2000/svg" viewBox="0 0 194 194"><path fill-rule="evenodd" clip-rule="evenodd" d="M118.415 128.407c-4.278 0-7.757-3.467-7.757-7.731 0-4.263 3.479-7.731 7.757-7.731 3.938 0 7.163 2.948 7.658 6.739v1.247c0 .126.02.248.036.369-.325 3.967-3.631 7.107-7.694 7.107zm-1.185-44.57l-.639.23-7.494 2.684-.99.353-6.809 2.44-1.32.473-3.621 1.296-4.181 1.497-1.308.468V86.15l3.143-1.126 4.181-1.498 3.621-1.296 1.32-.473 6.809-2.439.991-.355 7.494-2.684.639-.23 7.004-2.508v7.169c-.121.025-.24.047-.359.09l-8.481 3.038zm-39.448 61.947c-4.278 0-7.757-3.468-7.757-7.731 0-4.264 3.479-7.731 7.757-7.731 3.937 0 7.163 2.947 7.657 6.739v1.246c0 .126.02.248.037.37-.325 3.966-3.632 7.107-7.694 7.107zm51.006-78.577c-.644 0-2.614.547-3.074.712l-8.483 3.038-.638.23-7.494 2.683-.991.354-6.809 2.439-1.32.474-3.62 1.295-4.182 1.498-4.536 1.625a2.7 2.7 0 0 0-2.176 2.4c-.007.066-.018.13-.02.196 0 .02-.006.04-.006.06v43.413a12.927 12.927 0 0 0-7.657-2.512c-7.161 0-12.988 5.807-12.988 12.944 0 7.137 5.827 12.944 12.988 12.944 6.78 0 12.354-5.205 12.93-11.816.096-.275.158-.566.158-.874V99.031l3.143-1.126 4.18-1.497 3.621-1.297 1.32-.473 6.81-2.439.99-.355 7.494-2.684.639-.229 7.004-2.509v23.822a12.924 12.924 0 0 0-7.657-2.512c-7.161 0-12.988 5.807-12.988 12.944 0 7.137 5.827 12.944 12.988 12.944 6.779 0 12.354-5.205 12.93-11.816.096-.275.157-.565.157-.873V69.914a2.709 2.709 0 0 0-2.713-2.707z" fill="var(--svg-color)"/><path fill-rule="evenodd" clip-rule="evenodd" d="M88.883 83.237v12.706l41.064-12.706V69.07L88.883 83.237zM77.765 149.138c6.14 0 11.118-5.002 11.118-11.173 0-6.17-4.978-11.172-11.118-11.172-6.14 0-11.118 5.002-11.118 11.172 0 6.171 4.978 11.173 11.118 11.173zM118.53 132.379c6.141 0 11.118-5.002 11.118-11.172 0-6.17-4.977-11.172-11.118-11.172-6.14 0-11.117 5.002-11.117 11.172 0 6.17 4.977 11.172 11.117 11.172z" fill="var(--svg-color)"/><path fill-rule="evenodd" clip-rule="evenodd" d="M111.173 65.022l18.253 18.343a1.1 1.1 0 0 0 1.561 0l18.253-18.343c5.013-5.037 5.013-13.206 0-18.244a12.793 12.793 0 0 0-18.155 0c-.695.699-.878 1.005-.878 1.005s-.553-.677-.879-1.005a12.793 12.793 0 0 0-18.155 0c-5.013 5.038-5.013 13.207 0 18.244z" fill="var(--svg-color)"/><rect x="53" y="64" width="47" height="5.59" rx="2.795" fill="var(--svg-color)"/><rect x="54" y="81" width="20" height="5.59" rx="2.795" fill="var(--svg-color)"/><rect x="54" y="98" width="20" height="5.59" rx="2.795" fill="var(--svg-color)"/><rect x="54" y="115" width="20" height="5.59" rx="2.795" fill="var(--svg-color)"/><path fill-rule="evenodd" clip-rule="evenodd" d="M42.5 71.826c3.038 0 5.501-2.475 5.501-5.528 0-3.053-2.463-5.528-5.5-5.528-3.038 0-5.501 2.475-5.501 5.528 0 3.053 2.463 5.528 5.5 5.528zM42.5 88.584c3.038 0 5.501-2.475 5.501-5.528 0-3.052-2.463-5.527-5.5-5.527-3.038 0-5.501 2.475-5.501 5.527 0 3.053 2.463 5.528 5.5 5.528zM42.5 105.343c3.038 0 5.501-2.475 5.501-5.528 0-3.053-2.463-5.527-5.5-5.527-3.038 0-5.501 2.474-5.501 5.527s2.463 5.528 5.5 5.528zM42.5 122.101c3.038 0 5.501-2.474 5.501-5.527s-2.463-5.528-5.5-5.528c-3.038 0-5.501 2.475-5.501 5.528 0 3.053 2.463 5.527 5.5 5.527z" fill="var(--svg-color)"/></svg>