<?xml version="1.0" encoding="utf-8"?><svg width="30" height="30" fill="none" xmlns="http://www.w3.org/2000/svg" viewBox="0 0 118 118"><path fill-rule="evenodd" clip-rule="evenodd" d="M56.387 90.81c-.459-.456-.689-1.115-.689-1.977V82.3c0-.917.23-1.59.69-2.02.458-.43 1.117-.644 1.977-.644h22.182a1.625 1.625 0 0 0 1.202-.518l.603-.6c.173-.172.3-.36.385-.56.086-.2.131-.387.131-.558v-.258c0-.23-.045-.43-.13-.601a2.014 2.014 0 0 0-.386-.516l-.603-.602c-.171-.173-.356-.3-.558-.387-.2-.085-.415-.13-.644-.13H66.272c-1.489 0-2.733-.172-3.736-.515-1.005-.344-2.021-1.033-3.052-2.065l-1.12-1.116c-1.09-1.09-1.804-2.063-2.15-2.924-.343-.858-.516-1.89-.516-3.094v-4.298c0-1.834.244-3.355.73-4.558.49-1.203 1.365-2.437 2.626-3.697l2.062-2.065c1.319-1.318 2.58-2.247 3.783-2.793 1.205-.544 2.78-.816 4.729-.816h24.245c.918 0 1.59.214 2.02.645.428.429.647 1.104.647 2.021v6.534c0 .858-.219 1.517-.647 1.977-.43.457-1.102.687-2.02.687H72.981c-.23 0-.445.044-.645.13a1.826 1.826 0 0 0-.56.384l-.602.604c-.17.173-.3.343-.387.516-.085.173-.129.371-.129.602v.172c0 .171.044.358.13.558.087.2.216.388.386.558l.602.604c.173.173.361.3.56.385.2.087.415.129.645.129h14.271c1.491 0 2.738.173 3.743.516 1 .344 2.019 1.033 3.051 2.063l1.116 1.12c1.09 1.088 1.807 2.063 2.148 2.92.346.862.516 1.894.516 3.097v4.384c0 1.835-.242 3.356-.728 4.559-.489 1.2-1.362 2.436-2.621 3.694l-2.065 2.065c-1.32 1.319-2.58 2.25-3.784 2.796-1.203.544-2.78.816-4.73.816H58.366c-.86 0-1.52-.23-1.978-.69zM27.648 69.451c-.66-.486-1.16-1.39-1.505-2.708L16.17 28.741c-.228-.917-.145-1.662.259-2.235.4-.572 1.088-.858 2.064-.858h10.66c1.09 0 1.862.228 2.323.687.457.459.8 1.26 1.03 2.406l6.02 28.802c.056.286.214.431.472.431.259 0 .416-.145.473-.43L45.49 28.74c.23-1.145.572-1.947 1.032-2.406.457-.459 1.231-.687 2.321-.687h10.316c.975 0 1.664.286 2.065.858.4.573.486 1.318.258 2.235l-9.973 38.002c-.345 1.319-.845 2.222-1.504 2.708-.66.487-1.763.731-3.312.731H30.96c-1.549 0-2.653-.244-3.312-.73z" fill="var(--svg-color)"/><mask id="aua" maskUnits="userSpaceOnUse" x="9" y="23" width="23" height="11"><path fill-rule="evenodd" clip-rule="evenodd" d="M13.17 23.947a3.909 3.909 0 0 0-3.909 3.907v1.612a3.909 3.909 0 0 0 3.91 3.907h14.92a3.907 3.907 0 0 0 3.907-3.907v-1.612a3.907 3.907 0 0 0-3.907-3.907H13.17z" fill="var(--svg-color)"/></mask><g mask="url(#aua)"><path fill-rule="evenodd" clip-rule="evenodd" d="M-.666 43.3h42.591V14.02H-.665V43.3z" fill="var(--svg-color)"/></g><mask id="aub" maskUnits="userSpaceOnUse" x="0" y="39" width="96" height="79"><path fill-rule="evenodd" clip-rule="evenodd" d="M0 39.827h95.043V118H0V39.827z" fill="var(--svg-color)"/></mask><g mask="url(#aub)"><path fill-rule="evenodd" clip-rule="evenodd" d="M88.616 99.192c-8.293 6.126-18.537 9.758-29.618 9.758-27.541 0-49.949-22.407-49.949-49.95 0-6.79 1.368-13.267 3.834-19.173H3.214A58.74 58.74 0 0 0 0 59C0 91.532 26.467 118 58.998 118c13.566 0 26.068-4.614 36.045-12.339a13.927 13.927 0 0 1-6.427-6.47z" fill="var(--svg-color)"/></g><mask id="auc" maskUnits="userSpaceOnUse" x="17" y="0" width="101" height="85"><path fill-rule="evenodd" clip-rule="evenodd" d="M17.115 0H118v84.68H17.115V0z" fill="var(--svg-color)"/></mask><g mask="url(#auc)"><path fill-rule="evenodd" clip-rule="evenodd" d="M59 0C42.637 0 27.811 6.699 17.114 17.495h14.13A49.646 49.646 0 0 1 59 9.051c27.544 0 49.951 22.407 49.951 49.948a49.632 49.632 0 0 1-4.509 20.7 13.896 13.896 0 0 1 7.669 4.981A58.65 58.65 0 0 0 118.001 59c0-32.533-26.467-59-59.002-59z" fill="var(--svg-color)"/></g><mask id="aud" maskUnits="userSpaceOnUse" x="37" y="25" width="24" height="11"><path fill-rule="evenodd" clip-rule="evenodd" d="M40.988 25.67a3.907 3.907 0 0 0-3.907 3.907v1.612a3.907 3.907 0 0 0 3.907 3.907h15.311c2.158 0 3.91-1.749 3.91-3.907v-1.612a3.909 3.909 0 0 0-3.91-3.907H40.988z" fill="var(--svg-color)"/></mask><g mask="url(#aud)"><path fill-rule="evenodd" clip-rule="evenodd" d="M27.15 45.023h42.983v-29.28H27.15v29.28z" fill="var(--svg-color)"/></g><path fill-rule="evenodd" clip-rule="evenodd" d="M107.962 93.185a6.829 6.829 0 1 1-13.657-.001 6.829 6.829 0 0 1 13.657 0z" fill="var(--svg-color)"/></svg>