<?xml version="1.0" encoding="utf-8"?><svg width="30" height="30" fill="none" xmlns="http://www.w3.org/2000/svg" viewBox="0 0 194 194"><path fill-rule="evenodd" clip-rule="evenodd" d="M79.563 69.229c-1.322 0-2.643.12-4.085.12C80.644 54.692 96.14 44 114.278 44 136.741 44 155 60.218 155 80.161c0 7.569-2.643 15.017-7.688 21.024.961 1.682 2.162 3.004 3.724 4.085 1.562 1.081 2.402 3.003 1.922 4.806-.36 1.802-1.922 3.243-3.844 3.483-1.321.241-2.643.241-3.964.241-3.964 0-7.568-.841-10.691-2.283-2.042 1.081-4.204 1.922-6.487 2.643v-1.441c0-2.043-.12-3.965-.48-5.887 1.802-.721 3.483-1.442 5.165-2.403l1.802-.961 1.802 1.081c1.802 1.081 3.844 1.802 6.126 2.163a17.67 17.67 0 0 1-2.522-4.686l-.721-2.042 1.441-1.562c4.805-5.166 7.328-11.413 7.328-18.14 0-15.979-15.136-29.074-33.635-29.074-14.174 0-26.307 7.569-31.232 18.261-1.08-.24-2.282-.24-3.483-.24z" fill="var(--svg-color)"/><path fill-rule="evenodd" clip-rule="evenodd" d="M47.25 135.545c-5.766-6.248-9.25-14.177-9.25-22.827 0-20.062 18.62-36.401 41.563-36.401s41.562 16.339 41.562 36.401c0 20.063-18.739 36.282-41.562 36.282-8.289 0-16.097-2.163-22.584-5.887-5.886 3.484-12.132 3.364-15.856 2.884-1.08-.121-1.321-1.442-.48-2.043 3.603-2.282 5.525-5.526 6.606-8.409zm30.69-26.62H64.34V96H57v34h7.341v-15.137H77.94V130h7.34V96h-7.34v12.925zM91.66 96H99v34h-7.34V96z" fill="var(--svg-color)"/></svg>