<?xml version="1.0" encoding="utf-8"?><svg width="30" height="26.92" fill="none" xmlns="http://www.w3.org/2000/svg" viewBox="0 0 117 105"><path fill-rule="evenodd" clip-rule="evenodd" d="M41.563 25.229c-1.322 0-2.643.12-4.085.12C42.644 10.692 58.14 0 76.278 0 98.741 0 117 16.218 117 36.161c0 7.569-2.643 15.017-7.688 21.024.961 1.682 2.162 3.004 3.724 4.085 1.562 1.081 2.402 3.003 1.922 4.806-.36 1.802-1.922 3.243-3.844 3.484-1.321.24-2.643.24-3.964.24-3.964 0-7.568-.841-10.691-2.283-2.042 1.081-4.204 1.922-6.487 2.643V68.72c0-2.043-.12-3.965-.48-5.887 1.802-.721 3.483-1.442 5.165-2.403l1.802-.961 1.802 1.081c1.802 1.081 3.844 1.802 6.126 2.163a17.663 17.663 0 0 1-2.522-4.686l-.721-2.042 1.441-1.562c4.805-5.166 7.328-11.413 7.328-18.14 0-15.979-15.136-29.074-33.635-29.074-14.174 0-26.307 7.569-31.232 18.261-1.08-.24-2.282-.24-3.483-.24z" fill="var(--svg-color)"/><path fill-rule="evenodd" clip-rule="evenodd" d="M9.25 91.545C3.483 85.297 0 77.368 0 68.719c0-20.063 18.62-36.402 41.563-36.402s41.562 16.339 41.562 36.402C83.125 88.78 64.386 105 41.563 105c-8.289 0-16.097-2.163-22.584-5.887-5.886 3.484-12.132 3.364-15.856 2.884-1.08-.121-1.321-1.442-.48-2.043 3.603-2.282 5.525-5.526 6.606-8.41zm23.432-28.271c-.315-1.02-1.14-1.782-2.026-1.782h-7.974c-1.014 0-1.736.996-1.642 2.24l-.084 19.421c0 .057.002.11.008.168.14 1.29 1.102 2.34 2.144 2.34h10.178c.993 0 1.697-.961 1.636-2.172l-2.208-20.23-.032.015zm30.033 3.285c.943.77 1.667 1.847 1.788 3.316.154 1.878-.603 3.268-2.052 3.961.491.697.98 1.854.698 3.526-.235 1.385-1.121 2.32-2.49 2.696l.002.04v.018l.001.018.009.18c.349.833.485 1.812.127 2.848-.75 2.153-3.244 2.32-3.99 2.32H45.847c-2.192 0-6.365-1.565-8.17-2.284l-2.742-20.81c1.316-1.227 5.381-7.907 5.86-10.67.28-1.617.016-2.777-.198-3.711l-.004-.02c-.164-.704-.316-1.372-.152-2.004.372-1.455 2.283-2.118 3.898-2.118.251 0 .497.016.736.046.743.094 1.495.589 2.236 1.471 1.41 1.674 2.837 4.866 2.703 7.483-.092 1.813-.092 3.855-.075 5.158h8.764c1.883 0 3.067.868 3.728 1.597 1.305 1.445 1.63 3.442 1.508 4.715-.09.95-.514 1.705-1.224 2.224z" fill="var(--svg-color)"/></svg>