<?xml version="1.0" encoding="utf-8"?><svg width="30" height="30" fill="none" xmlns="http://www.w3.org/2000/svg" viewBox="0 0 110 110"><path d="M66.222 38.357a2.21 2.21 0 0 0 4.106 0l3.435-8.594 8.594-3.435a2.21 2.21 0 0 0 0-4.107l-8.594-3.434-3.435-8.594a2.21 2.21 0 0 0-4.106 0l-3.435 8.594-8.594 3.434a2.21 2.21 0 0 0 0 4.107l8.593 3.435 3.436 8.594zm-.915-15.817a2.223 2.223 0 0 0 1.233-1.234l1.735-4.34 1.735 4.34a2.223 2.223 0 0 0 1.233 1.234l4.341 1.735-4.34 1.735a2.224 2.224 0 0 0-1.234 1.233l-1.735 4.341-1.735-4.34a2.223 2.223 0 0 0-1.234-1.234l-4.34-1.735 4.34-1.735z" fill="var(--svg-color)"/><path fill-rule="evenodd" clip-rule="evenodd" d="M35.78 68.882c-3.388-3.672-5.436-8.332-5.436-13.416 0-11.792 10.944-21.394 24.428-21.394 13.485 0 24.428 9.602 24.428 21.394 0 11.792-11.014 21.324-24.428 21.324-4.871 0-9.46-1.271-13.273-3.46-3.459 2.048-7.13 1.977-9.319 1.695-.635-.071-.776-.848-.282-1.2 2.118-1.342 3.247-3.249 3.883-4.943" fill="var(--svg-color)"/><path d="M78.032 91.608a1.257 1.257 0 0 0 2.336 0l1.953-4.887 4.887-1.953a1.257 1.257 0 0 0 0-2.336l-4.887-1.953-1.953-4.887a1.257 1.257 0 0 0-2.336 0L76.08 80.48l-4.887 1.953a1.257 1.257 0 0 0 0 2.336l4.887 1.953 1.953 4.887zm-.52-8.995c.32-.128.573-.382.701-.701l.987-2.469.987 2.469c.128.32.382.573.701.701l2.469.987-2.469.987c-.32.128-.573.382-.701.701l-.987 2.469-.987-2.469a1.264 1.264 0 0 0-.701-.701l-2.469-.987 2.469-.987zM29.632 38.808a1.257 1.257 0 0 0 2.336 0l1.953-4.887 4.887-1.953a1.257 1.257 0 0 0 0-2.336l-4.887-1.953-1.953-4.887a1.257 1.257 0 0 0-2.336 0L27.68 27.68l-4.887 1.953a1.257 1.257 0 0 0 0 2.336l4.887 1.953 1.953 4.887zm-.52-8.995c.32-.128.573-.381.701-.701l.987-2.469.987 2.469c.128.32.382.573.701.701l2.469.987-2.469.987c-.32.128-.573.382-.701.701l-.987 2.469-.987-2.469a1.265 1.265 0 0 0-.701-.701l-2.469-.987 2.469-.987z" fill="var(--svg-color)"/></svg>