<?xml version="1.0" encoding="utf-8"?><svg width="20" height="20" fill="none" xmlns="http://www.w3.org/2000/svg" viewBox="0 0 20 20"><path d="M19.964 14.117a.736.736 0 0 0-.928-.475l-.958.313a9.047 9.047 0 0 0 .894-3.928C18.972 5.05 14.94 1 9.984 1 5.028 1 .996 5.05.996 10.027c0 4.978 4.032 9.027 8.988 9.027a.738.738 0 0 0 .737-.74c0-.408-.33-.74-.737-.74-4.143 0-7.514-3.385-7.514-7.547S5.84 2.48 9.984 2.48 17.5 5.865 17.5 10.027a7.56 7.56 0 0 1-.75 3.29l-.327-1.013a.736.736 0 1 0-1.402.458l.869 2.685a.737.737 0 0 0 .928.475l2.674-.872a.74.74 0 0 0 .473-.933z" fill="var(--svg-color)"/></svg>