<?xml version="1.0" encoding="utf-8"?><svg width="20" height="25" fill="none" xmlns="http://www.w3.org/2000/svg" viewBox="0 0 20 25"><path d="M17.415 8.182H2.445c-.425 0-.743.345-.717.714l1.46 14.245c.08.813.797 1.404 1.673 1.404h10.085c.876 0 1.593-.616 1.673-1.404l1.46-14.245c.08-.37-.266-.714-.664-.714zM17.806 3.275h-4.087v-.827c0-.906-.724-1.63-1.63-1.63H7.464c-.905 0-1.63.724-1.63 1.63v.827H1.722c-.905 0-1.63.725-1.63 1.63 0 .905.725 1.63 1.63 1.63h16.085c.905 0 1.63-.725 1.63-1.63 0-.905-.725-1.63-1.63-1.63z" fill="var(--svg-color)"/></svg>