<?xml version="1.0" encoding="utf-8"?><svg width="20" height="20" fill="none" xmlns="http://www.w3.org/2000/svg" viewBox="0 0 20 20"><path d="M10 0c-.113 0-.167.01-.166.01a.739.739 0 0 0-.703.544c-.14.515-.334 1.021-.545 1.378-.21.356-.414.52-.545.554-.13.034-.383-.012-.74-.222-.356-.21-.772-.56-1.146-.942a.739.739 0 0 0-.878-.13A10.054 10.054 0 0 0 2.8 3.06a.739.739 0 0 0-.11.878c.264.463.496.95.6 1.35.104.399.068.652 0 .767-.068.116-.275.273-.674.379-.4.105-.938.153-1.47.147a.739.739 0 0 0-.712.518A10.003 10.003 0 0 0 0 10c0 .113.01.172.01.175.004.33.226.617.544.703.515.14 1.013.328 1.368.536.355.208.512.407.546.536.033.13-.003.392-.213.749-.21.356-.561.763-.943 1.136a.739.739 0 0 0-.138.878A10.02 10.02 0 0 0 3.04 17.19c.237.232.6.278.887.111.464-.264.956-.496 1.358-.6.403-.105.662-.068.777 0 .116.068.266.274.37.674.103.4.145.945.138 1.479a.739.739 0 0 0 .527.712C8.015 19.843 8.99 20 10 20c.12 0 .162-.01.139-.01a.739.739 0 0 0 .702-.535c.142-.514.333-1.03.545-1.387.213-.357.423-.51.555-.545.13-.034.383.003.74.213.355.21.771.568 1.145.952.23.236.587.293.878.138a9.993 9.993 0 0 0 2.477-1.876.739.739 0 0 0 .111-.887c-.267-.464-.496-.957-.6-1.359-.106-.402-.069-.66 0-.776.069-.118.28-.274.683-.379.403-.105.943-.145 1.479-.139a.739.739 0 0 0 .72-.526A9.995 9.995 0 0 0 20 10a.838.838 0 0 0-.01-.157.739.739 0 0 0-.544-.702c-.514-.142-1.013-.335-1.368-.546-.355-.21-.52-.413-.555-.545-.034-.131.005-.393.213-.749s.561-.763.942-1.136a.739.739 0 0 0 .13-.878 9.974 9.974 0 0 0-1.867-2.468.739.739 0 0 0-.878-.111c-.464.265-.958.488-1.359.592-.4.104-.65.068-.767 0-.12-.07-.274-.274-.379-.675-.104-.401-.145-.944-.138-1.479a.739.739 0 0 0-.527-.72c-.897-.271-1.848-.41-2.828-.417A.74.74 0 0 0 10 0zm.333 1.506c.575.023 1.133.1 1.673.232.02.422.013.848.12 1.256.158.607.455 1.223 1.063 1.58.608.359 1.289.315 1.894.158.404-.105.772-.314 1.146-.5.384.417.73.872 1.026 1.36-.281.31-.583.609-.795.97-.315.539-.546 1.177-.37 1.858.177.68.693 1.131 1.23 1.45.363.216.773.336 1.174.472a8.482 8.482 0 0 1-.232 1.654c-.423.02-.847.014-1.256.12-.609.159-1.232.453-1.59 1.063-.358.61-.307 1.297-.148 1.904.107.408.31.778.5 1.155a8.56 8.56 0 0 1-1.36 1.026c-.31-.284-.608-.58-.97-.794-.539-.32-1.183-.557-1.867-.38-.681.177-1.13.692-1.45 1.23-.217.363-.335.773-.472 1.174a8.495 8.495 0 0 1-1.664-.231c-.02-.422-.014-.85-.12-1.257-.157-.606-.446-1.223-1.054-1.58-.608-.36-1.287-.315-1.894-.158-.406.105-.779.313-1.155.5a8.504 8.504 0 0 1-1.026-1.35c.283-.312.581-.608.794-.97.318-.54.547-1.185.37-1.867-.177-.682-.691-1.127-1.229-1.442-.362-.213-.766-.328-1.165-.462a8.434 8.434 0 0 1 .24-1.692c.418-.02.845-.014 1.248-.12.604-.159 1.215-.448 1.572-1.053.357-.608.314-1.29.157-1.895-.105-.403-.314-.773-.5-1.146.414-.382.865-.73 1.35-1.026.311.283.608.582.97.795.54.317 1.185.546 1.867.37.683-.177 1.133-.682 1.451-1.22.216-.366.336-.78.472-1.183zM10 5.758A4.254 4.254 0 0 0 5.758 10 4.254 4.254 0 0 0 10 14.242 4.254 4.254 0 0 0 14.242 10 4.254 4.254 0 0 0 10 5.758zm0 1.479A2.752 2.752 0 0 1 12.764 10 2.752 2.752 0 0 1 10 12.763 2.752 2.752 0 0 1 7.237 10 2.752 2.752 0 0 1 10 7.237z" fill="var(--svg-color)"/></svg>