<?xml version="1.0" encoding="utf-8"?><svg width="20" height="20" fill="none" xmlns="http://www.w3.org/2000/svg" viewBox="0 0 20 20"><path d="M18.987 20H.993C.455 20 0 19.588 0 19.053V9.995c0-.515.434-.947.993-.947.558 0 .993.412.993.947v8.132h16.029V9.995c0-.515.434-.947.992-.947.559 0 .993.412.993.947v9.058a1.031 1.031 0 0 1-1.013.947z" fill="var(--svg-color)"/><path d="M14.537 4.086L10.711.278c-.372-.37-.993-.37-1.386 0L5.458 4.086a.978.978 0 0 0-.29.7c0 .268.103.495.29.68a.976.976 0 0 0 1.385 0l2.11-2.08v9.78c0 .576.455 1.028 1.034 1.028.58 0 1.034-.452 1.034-1.029v-9.82l2.13 2.12c.373.371.993.371 1.386 0a.967.967 0 0 0 0-1.379z" fill="var(--svg-color)"/></svg>