<?xml version="1.0" encoding="utf-8"?><svg width="30" height="25.2" fill="none" xmlns="http://www.w3.org/2000/svg" viewBox="0 0 50 42"><path d="M44.134 32.596a.631.631 0 0 1-.915 0l-2.09-2.09v6.531a.654.654 0 0 1-.652.653.654.654 0 0 1-.653-.653v-6.53l-2.09 2.09a.706.706 0 0 1-.457.195.593.593 0 0 1-.457-.196.631.631 0 0 1 0-.914l3.2-3.2c.065-.065.13-.13.196-.13.13-.065.326-.065.522 0 .065 0 .13.065.196.13l3.2 3.2a.631.631 0 0 1 0 .915zM12.005 13.332a4.166 4.166 0 0 1-4.18-4.179c0-2.286 1.829-4.114 4.18-4.114a4.097 4.097 0 0 1 4.114 4.114c0 2.35-1.829 4.18-4.114 4.18zm0-6.987c-1.568 0-2.874 1.306-2.874 2.808 0 1.502 1.306 2.873 2.873 2.873 1.568 0 2.809-1.306 2.809-2.873a2.787 2.787 0 0 0-2.809-2.808z" fill="var(--svg-color)"/><path d="M41.13 24.042V2.23c0-1.045-.85-1.959-1.96-1.959H2.34C1.23.272.38 1.186.38 2.231v29.451c0 1.045.85 1.96 1.96 1.96h29.19C31.856 38.277 35.775 42 40.476 42c4.963 0 9.012-4.049 9.012-9.012-.065-4.701-3.722-8.62-8.359-8.946zM1.686 2.23c0-.326.261-.653.653-.653h36.83c.392 0 .653.327.653.653v19.133l-9.534-8.358c-.261-.196-.653-.196-.849 0l-11.493 10.71-5.29-5.225c-.195-.196-.587-.261-.848-.065l-10.122 7.38V2.23zm.653 30.104a.654.654 0 0 1-.653-.653v-4.31l10.448-7.575 5.355 5.29a.631.631 0 0 0 .914 0l11.493-10.71 9.926 8.685v.98a8.972 8.972 0 0 0-8.293 8.293H2.34zm38.136 8.359c-4.244 0-7.64-3.461-7.64-7.706 0-4.244 3.461-7.705 7.64-7.705 4.245 0 7.706 3.46 7.706 7.705-.065 4.245-3.461 7.706-7.706 7.706z" fill="var(--svg-color)"/></svg>